<svg display="none"
	xmlns="http://www.w3.org/2000/svg">
	<symbol id="clock" viewBox="0 0 31 31">
		<g>
			<g clip-path="url(#clip0)">
				<path d="M2.07845 7.71995C3.46408 5.34458 5.34459 3.46408 7.71996 2.07845C10.0953 0.692816 12.6828 0 15.4965 0C18.3101 0 20.9047 0.692816 23.28 2.07845C25.6554 3.46408 27.5359 5.34458 28.9216 7.71995C30.3072 10.0953 31 12.6899 31 15.5035C31 18.3172 30.3072 20.9117 28.9216 23.2871C27.5359 25.6625 25.6554 27.543 23.28 28.9286C20.9047 30.3143 18.3101 31.0071 15.4965 31.0071C12.6828 31.0071 10.0883 30.3143 7.71289 28.9286C5.33752 27.543 3.45701 25.6625 2.07138 23.2871C0.685747 20.9117 -0.00706863 18.3172 -0.00706863 15.5035C1.90735e-06 12.6899 0.692818 10.0953 2.07845 7.71995ZM5.99498 21.0107C6.97765 22.6933 8.30673 24.0223 9.98928 25.005C11.6718 25.9877 13.5099 26.4755 15.4965 26.4755C17.4901 26.4755 19.3211 25.9877 21.0036 25.005C22.6862 24.0223 24.0153 22.6933 24.9979 21.0107C25.9877 19.3282 26.4755 17.4901 26.4755 15.5035C26.4755 13.5099 25.9877 11.6718 25.005 9.99635C24.0223 8.3138 22.6933 6.98472 21.0107 6.00205C19.3282 5.01231 17.4901 4.52452 15.4965 4.52452C13.5029 4.52452 11.6648 5.01231 9.98928 5.99498C8.30673 6.97765 6.97765 8.30673 5.99498 9.98928C5.01232 11.6718 4.52452 13.5099 4.52452 15.4965C4.51745 17.4901 5.01232 19.3282 5.99498 21.0107Z" fill="white"/>
				<path d="M13.5594 7.74805H14.8531C15.044 7.74805 15.1995 7.81167 15.3197 7.93186C15.4399 8.05204 15.5035 8.20757 15.5035 8.39845V15.5033H20.0281C20.2189 15.5033 20.3745 15.567 20.4946 15.6872C20.6148 15.8073 20.6785 15.9629 20.6785 16.1537V17.4475C20.6785 17.6384 20.6148 17.7939 20.4946 17.9141C20.3745 18.0342 20.2189 18.0979 20.0281 18.0979H13.5665C13.3756 18.0979 13.2201 18.0342 13.0999 17.9141C12.9797 17.7939 12.9161 17.6384 12.9161 17.4475V8.39845C12.9161 8.20757 12.9797 8.05911 13.0999 7.93186C13.2201 7.81167 13.3756 7.74805 13.5594 7.74805Z" fill="white"/>
			</g>
			<defs>
				<clipPath id="clip0">
				<rect width="31" height="31" fill="white" transform="matrix(-1 0 0 1 31 0)"/>
				</clipPath>
			</defs>
		</g>
	</symbol>
	<symbol id="note" viewBox="0 0 32 26">
		<g>
			<g clip-path="url(#clip0)">
				<path d="M24.9001 16.6348C24.6613 16.5378 24.454 16.5766 24.2717 16.7642L23.1219 17.9478C23.0151 18.0577 22.9586 18.1935 22.9586 18.3552V20.6836C22.9586 21.4985 22.6758 22.1905 22.1166 22.7726C21.5511 23.3483 20.8789 23.6393 20.0872 23.6393H5.16474C4.37306 23.6393 3.70077 23.3483 3.13528 22.7726C2.57608 22.197 2.29334 21.4985 2.29334 20.6836V5.31642C2.29334 4.50796 2.57608 3.80945 3.14157 3.23383C3.70077 2.65821 4.37934 2.36716 5.17102 2.36716H20.0935C20.3574 2.36716 20.6275 2.40597 20.8977 2.47711C21.1113 2.54826 21.3061 2.50299 21.4695 2.32836L22.3491 1.42289C22.4936 1.27413 22.5439 1.0995 22.5125 0.88607C22.4748 0.69204 22.368 0.549751 22.192 0.459204C21.5449 0.155224 20.8474 0 20.0935 0H5.16474C3.74475 0 2.52582 0.517413 1.51424 1.55871C0.502651 2.6 0 3.85473 0 5.31642V20.6771C0 22.1388 0.502651 23.3935 1.51424 24.4348C2.52582 25.4826 3.74475 26 5.16474 26H20.0872C21.5072 26 22.7261 25.4826 23.7377 24.4413C24.7493 23.4 25.2519 22.1453 25.2519 20.6836V17.1781C25.2582 16.9129 25.1388 16.7383 24.9001 16.6348Z" fill="white"/>
				<path d="M11.4793 15.9554V21.2718H16.644L28.7014 8.86036L23.5366 3.54395L11.4793 15.9554ZM15.9277 19.4997H14.9224V17.7275H13.2009V16.6927L15.2806 14.5519L18.0075 17.3589L15.9277 19.4997ZM23.8068 6.81658L17.5299 13.2778C17.3289 13.4847 17.1278 13.4912 16.9393 13.2972C16.7508 13.1032 16.7508 12.8962 16.9582 12.6892L23.235 6.22803C23.4361 6.02106 23.6372 6.01459 23.8257 6.20862C24.0141 6.40265 24.0079 6.60315 23.8068 6.81658Z" fill="white"/>
				<path d="M31.4973 3.4733L28.7768 0.666339C28.4437 0.323553 28.0353 0.148926 27.5578 0.148926C27.0803 0.148926 26.6719 0.323553 26.3389 0.666339L24.6864 2.36733L29.8512 7.68375L31.5036 5.98276C31.8366 5.63997 32.0063 5.21957 32.0063 4.72803C32.0063 4.23649 31.8366 3.81609 31.4973 3.4733Z" fill="white"/>
			</g>
			<defs>
				<clipPath id="clip0">
				<rect width="32" height="26" fill="white"/>
				</clipPath>
			</defs>
		</g>
	</symbol>
	<symbol id="eye" viewBox="0 0 30 20">
		<g>
			<g clip-path="url(#clip0)">
				<path d="M0.334248 8.80511C1.89992 6.15385 3.99922 4.02554 6.638 2.41411C9.27678 0.802676 12.0622 0 15 0C17.9378 0 20.7232 0.802676 23.362 2.41411C26.0008 4.02554 28.1001 6.15385 29.6658 8.80511C29.8886 9.20645 30 9.60778 30 10.003C30 10.3983 29.8886 10.7936 29.6658 11.201C28.1059 13.8522 26.0008 15.9805 23.362 17.592C20.7232 19.2034 17.932 20.0061 15 20.0061C12.0622 20.0061 9.27678 19.2034 6.638 17.6041C3.99922 15.9988 1.89406 13.8705 0.334248 11.2071C0.111416 10.7996 0 10.4044 0 10.0091C0 9.60779 0.111416 9.20645 0.334248 8.80511ZM18.5887 4.05594C17.5919 3.0222 16.3956 2.49924 15 2.49924C14.7772 2.49924 14.5895 2.57829 14.4312 2.74248C14.2729 2.90666 14.1966 3.10125 14.1966 3.33232C14.1966 3.56339 14.2729 3.75798 14.4312 3.92217C14.5895 4.08635 14.7772 4.1654 15 4.1654C15.9617 4.1654 16.7826 4.51809 17.4629 5.22347C18.1431 5.92885 18.4832 6.78018 18.4832 7.77744C18.4832 8.00851 18.5594 8.2031 18.7177 8.36729C18.8761 8.53147 19.0637 8.61052 19.2866 8.61052C19.5094 8.61052 19.697 8.53147 19.8554 8.36729C20.0137 8.2031 20.0899 8.00851 20.0899 7.77744C20.0899 6.33019 19.5915 5.08969 18.5887 4.05594ZM7.72283 15.6704C9.96286 17.0751 12.3847 17.7805 15 17.7805C17.6095 17.7805 20.0371 17.0751 22.2772 15.6704C24.5172 14.2657 26.3761 12.3746 27.8597 10.003C26.165 7.27273 24.0364 5.22955 21.4797 3.87352C22.1599 5.07753 22.5 6.37884 22.5 7.77744C22.5 9.91791 21.767 11.7483 20.301 13.2746C18.835 14.8009 17.0641 15.5549 15 15.5549C12.9359 15.5549 11.1708 14.7948 9.69898 13.2746C8.22713 11.7543 7.5 9.92399 7.5 7.77744C7.5 6.37884 7.84011 5.07753 8.52033 3.87352C5.96365 5.22955 3.84089 7.27273 2.14034 10.003C3.62393 12.3746 5.48866 14.2597 7.72283 15.6704Z" fill="white"/>
			</g>
			<defs>
				<clipPath id="clip0">
				<rect width="30" height="20" fill="white" transform="matrix(-1 0 0 1 30 0)"/>
				</clipPath>
			</defs>
		</g>
	</symbol>
	<symbol id="play" viewBox="0 0 31 31">
		<g>
			<path d="M15.5 0C6.93867 0 0 6.93867 0 15.5C0 24.0613 6.93867 31 15.5 31C24.0613 31 31 24.0613 31 15.5C31 6.93867 24.0613 0 15.5 0ZM20.8584 16.3234L13.1084 21.1672C12.951 21.2641 12.7754 21.3125 12.5938 21.3125C12.4303 21.3125 12.2729 21.2701 12.1215 21.1914C11.8127 21.0219 11.625 20.6949 11.625 20.3438V10.6562C11.625 10.3051 11.8187 9.97812 12.1215 9.80859C12.4303 9.63906 12.8057 9.64512 13.1023 9.83281L20.8523 14.6766C21.1369 14.8521 21.3064 15.167 21.3064 15.5C21.3064 15.833 21.143 16.1418 20.8584 16.3234Z" fill="white"/>
		</g>
	</symbol>
	<symbol id="heart" viewBox="0 0 31 26">
		<g>
			<g clip-path="url(#clip0)">
				<path d="M2.19351 2.09897C3.65989 0.699658 5.68374 0 8.26505 0C8.98006 0 9.70719 0.118586 10.4525 0.361688C11.1978 0.604789 11.8886 0.930901 12.5309 1.34595C13.1732 1.75507 13.7185 2.14641 14.1851 2.5081C14.6456 2.86978 15.0819 3.25519 15.5 3.65838C15.9181 3.25519 16.3544 2.86978 16.8149 2.5081C17.2754 2.14641 17.8268 1.761 18.4691 1.34595C19.1114 0.930901 19.8022 0.604789 20.5475 0.361688C21.2867 0.118586 22.0139 0 22.7289 0C25.3102 0 27.3341 0.699658 28.8004 2.09897C30.2668 3.49829 31 5.43717 31 7.92155C31 8.6805 30.8667 9.45724 30.594 10.2577C30.3213 11.0582 30.0123 11.74 29.6669 12.3033C29.3215 12.8666 28.9277 13.418 28.4914 13.9517C28.0551 14.4853 27.734 14.8588 27.534 15.0604C27.3341 15.262 27.1765 15.4103 27.0553 15.4992L16.2574 25.6917C16.0514 25.8933 15.7969 25.9941 15.4939 25.9941C15.197 25.9941 14.9425 25.8933 14.7305 25.6917L3.95074 15.5348C1.30884 12.9496 -0.0121174 10.4119 -0.0121174 7.91562C1.90735e-06 5.43717 0.733191 3.49829 2.19351 2.09897Z" fill="#FF61EF"/>
			</g>
			<defs>
				<clipPath id="clip0">
				<rect width="31" height="26" fill="white" transform="matrix(-1 0 0 1 31 0)"/>
				</clipPath>
			</defs>
		</g>
	</symbol>
	<symbol id="tg" viewBox="0 0 24 21">
		<g>
			<path d="M23.6297 0.569368C23.3344 0.200953 22.8984 0 22.3922 0C22.1156 0 21.8297 0.0574152 21.5297 0.17703L1.21445 8.09076C0.136342 8.51181 -0.0089682 9.13859 0.000406631 9.4783C0.00978146 9.818 0.187903 10.4352 1.28945 10.7941C1.29413 10.7941 1.30351 10.7988 1.3082 10.7988L4.15814 11.6314L18.0329 4.39705C18.3798 4.21524 18.8016 4.35877 18.9798 4.70805C19.1204 4.98556 19.0641 5.31091 18.8673 5.52622L11.1518 13.8945L10.9315 14.8036L13.6877 17.0667L17.5032 20.2054C17.5079 20.2102 17.5079 20.2102 17.5126 20.2149C17.9345 20.5499 18.3938 20.7221 18.8391 20.7221C19.7157 20.7221 20.4141 20.0618 20.6157 19.0379L23.9437 2.26312C24.0797 1.59327 23.9672 0.990413 23.6297 0.569368Z" fill="#ffffff"/>
			<path d="M9.83018 13.369C9.8583 13.2541 9.91455 13.1441 9.99893 13.0484L15.0613 7.55566L5.66776 12.4599L7.80053 18.6847C7.9224 19.0387 8.10521 19.3401 8.32552 19.5794L9.83018 13.369Z" fill="#ffffff"/>
			<path d="M9.63824 20.1523C10.1445 20.1475 10.6414 19.9274 11.082 19.5207L12.6429 18.0519L10.5617 16.3438L9.63824 20.1523Z" fill="#ffffff"/>
		</g>
	</symbol>
	<symbol id="vk" viewBox="0 0 32 18">
		<g>
			<g clip-path="url(#clip0)">
				<path d="M31.8308 16.2495C31.7899 16.169 31.7549 16.0999 31.7199 16.0424C31.1656 15.0587 30.1036 13.8449 28.5398 12.4125L28.5047 12.378L28.4872 12.3607L28.4697 12.3435H28.4522C27.7403 11.6762 27.291 11.2274 27.1043 10.9973C26.76 10.5601 26.6842 10.1172 26.8709 9.66848C27.0051 9.32907 27.5069 8.60999 28.3705 7.51699C28.8257 6.93598 29.1875 6.47002 29.4559 6.1191C31.3756 3.59945 32.2101 1.98871 31.9533 1.29264L31.8541 1.13157C31.7899 1.03377 31.6149 0.941732 31.3406 0.861195C31.0605 0.780658 30.7046 0.7634 30.2728 0.820927L25.4763 0.855442C25.4004 0.826679 25.2896 0.832432 25.1437 0.861195C24.9978 0.895711 24.9278 0.912969 24.9278 0.912969L24.8461 0.953237L24.7819 1.00501C24.7236 1.03953 24.6652 1.09705 24.601 1.17759C24.5368 1.25813 24.4785 1.35592 24.4376 1.46522C23.9125 2.78833 23.3231 4.01939 22.6521 5.15841C22.2436 5.83722 21.8643 6.42399 21.5201 6.92447C21.1758 7.42495 20.8899 7.78737 20.6565 8.02323C20.423 8.25908 20.213 8.44892 20.0204 8.58698C19.8337 8.7308 19.6878 8.78833 19.5886 8.76532C19.4894 8.74231 19.3961 8.7193 19.3027 8.70204C19.1451 8.60424 19.0226 8.47193 18.9292 8.29935C18.8359 8.12677 18.7717 7.91393 18.7367 7.66081C18.7017 7.40194 18.6842 7.18334 18.6783 6.9935C18.6725 6.80942 18.6783 6.5448 18.6842 6.20539C18.6958 5.86599 18.7017 5.63588 18.7017 5.51508C18.7017 5.10089 18.7075 4.64643 18.725 4.15746C18.7425 3.66848 18.7542 3.28305 18.7659 3.00118C18.7775 2.7193 18.7834 2.41441 18.7834 2.09801C18.7834 1.78162 18.7659 1.53425 18.725 1.35017C18.6842 1.17184 18.6258 0.993506 18.55 0.826679C18.4741 0.659853 18.3574 0.527542 18.2057 0.429747C18.054 0.337705 17.8672 0.262921 17.6455 0.205394C17.0562 0.0730839 16.3093 0.00405223 15.399 -0.00745304C13.3333 -0.0304636 12.0088 0.101847 11.4194 0.389479C11.186 0.510284 10.9759 0.671358 10.7892 0.884205C10.5908 1.12582 10.5616 1.25813 10.7075 1.28114C11.3727 1.37893 11.8454 1.61479 12.1255 1.98871L12.2247 2.1843C12.3005 2.32812 12.3822 2.58123 12.4581 2.9379C12.5339 3.30031 12.5864 3.69724 12.6098 4.13445C12.6623 4.93406 12.6623 5.61862 12.6098 6.18814C12.5514 6.75765 12.4989 7.2006 12.4522 7.51699C12.3997 7.83339 12.3297 8.09226 12.2247 8.28785C12.1255 8.48344 12.0554 8.60424 12.0263 8.65026C11.9912 8.69628 11.9679 8.7193 11.9446 8.7308C11.7987 8.78257 11.6528 8.81134 11.4953 8.81134C11.3377 8.81134 11.151 8.73655 10.9292 8.58123C10.7075 8.42591 10.4741 8.21882 10.2407 7.94844C10.0015 7.67807 9.73304 7.30415 9.42961 6.82093C9.13202 6.3377 8.81692 5.76819 8.49599 5.11239L8.22757 4.63492C8.05835 4.33003 7.83078 3.88133 7.54486 3.29456C7.2531 2.70779 7.00219 2.14403 6.78045 1.59178C6.69292 1.36167 6.55872 1.1891 6.37783 1.06829L6.29613 1.01652C6.24362 0.970495 6.15026 0.924474 6.02772 0.878453C5.90518 0.826679 5.7768 0.792163 5.6426 0.769153L1.0795 0.803669C0.612691 0.803669 0.297593 0.907216 0.128373 1.11431L0.0641867 1.21211C0.0175055 1.28689 0 1.37318 0 1.49398C0 1.61479 0.0350109 1.76436 0.0991977 1.93694C0.764405 3.4844 1.4938 4.96858 2.27571 6.40674C3.05762 7.84489 3.74034 8.99542 4.31802 9.86982C4.8957 10.7442 5.48505 11.5726 6.08607 12.3492C6.68709 13.1258 7.08388 13.6263 7.27644 13.8449C7.469 14.0635 7.62655 14.2303 7.73742 14.3396L8.15171 14.7366C8.42013 15.0012 8.81109 15.3118 9.32458 15.68C9.84391 16.0482 10.4158 16.4106 11.0401 16.7672C11.6703 17.1239 12.3997 17.4115 13.2283 17.6359C14.0627 17.8602 14.8738 17.9523 15.6616 17.9063H17.5755C17.9664 17.8717 18.2582 17.7509 18.4566 17.5438L18.5208 17.4633C18.5675 17.4 18.6083 17.2965 18.6433 17.1584C18.6842 17.0203 18.7017 16.8708 18.7017 16.704C18.69 16.2322 18.725 15.8065 18.8125 15.4326C18.8942 15.0529 18.9876 14.7711 19.0985 14.5812C19.2035 14.3914 19.326 14.2303 19.4544 14.098C19.5886 13.9657 19.682 13.8852 19.7403 13.8622C19.7929 13.8334 19.8395 13.8161 19.8745 13.8046C20.143 13.7183 20.4522 13.8046 20.814 14.0577C21.1758 14.3166 21.5142 14.633 21.8293 15.0127C22.1444 15.3924 22.5237 15.8123 22.973 16.284C23.4165 16.7557 23.8074 17.1066 24.14 17.3367L24.4726 17.5323C24.6944 17.6646 24.9861 17.7854 25.3421 17.8947C25.698 18.004 26.0073 18.0328 26.2757 17.9753L30.5412 17.912C30.9613 17.912 31.2939 17.843 31.5215 17.7049C31.7549 17.5668 31.895 17.4173 31.9358 17.2505C31.9825 17.0836 31.9825 16.8995 31.9416 16.6924C31.9066 16.4796 31.8658 16.3358 31.8308 16.2495Z" fill="#ffffff"/>
			</g>
			<defs>
				<clipPath id="clip0">
				<rect width="32" height="18" fill="white"/>
				</clipPath>
			</defs>
		</g>
	</symbol>
	<symbol id="yt" viewBox="0 0 24 29">
		<g>
			<g clip-path="url(#clip0)">
				<path d="M23.5802 14.9876C23.4384 14.3528 23.1321 13.8143 22.65 13.3835C22.1678 12.9527 21.6176 12.6976 20.9879 12.6239C19.0026 12.4085 16.0076 12.3008 11.9972 12.3008C7.99244 12.3008 5.00307 12.4085 3.0234 12.6239C2.38809 12.6976 1.83219 12.9527 1.35571 13.3835C0.879225 13.8143 0.567242 14.3471 0.414086 14.9876C0.14181 16.2404 0 18.128 0 20.6505C0 23.2183 0.14181 25.1059 0.419759 26.3133C0.561569 26.9482 0.873552 27.4867 1.35004 27.9175C1.83219 28.3483 2.38242 28.5977 3.01205 28.66C4.9974 28.8868 7.99244 29.0002 12.0028 29.0002C16.0076 29.0002 19.0026 28.8868 20.9936 28.66C21.6176 28.5977 22.1678 28.3483 22.6443 27.9175C23.1208 27.4867 23.4328 26.9538 23.5859 26.3133C23.8639 25.0606 24.0057 23.1729 24.0057 20.6505C24 18.0826 23.8639 16.195 23.5802 14.9876ZM6.85228 16.6202H5.11652V25.8258H3.49988V16.6202H1.79816V15.101H6.85228V16.6202ZM11.2257 25.8315H9.78492V24.9585C9.20066 25.6161 8.65044 25.9448 8.13425 25.9448C7.63507 25.9448 7.32309 25.7464 7.19263 25.344C7.10754 25.0832 7.06216 24.6921 7.06216 24.1649V17.8332H8.50295V23.7228C8.50295 24.0686 8.50863 24.2556 8.51997 24.2896C8.55401 24.5164 8.66745 24.6297 8.86032 24.6297C9.14961 24.6297 9.46159 24.403 9.78492 23.9495V17.8332H11.2257V25.8315ZM16.728 23.4337C16.728 24.2216 16.6769 24.7601 16.5805 25.0549C16.399 25.6501 16.0132 25.9448 15.429 25.9448C14.9128 25.9448 14.4079 25.6501 13.9201 25.0549V25.8315H12.4793V15.101H13.9201V18.6155C14.3853 18.0316 14.8844 17.7425 15.429 17.7425C16.0132 17.7425 16.3933 18.043 16.5805 18.6495C16.6769 18.9272 16.728 19.4658 16.728 20.2537V23.4337ZM22.2018 22.1073H19.3032V23.5131C19.3032 24.2556 19.5528 24.6297 20.0463 24.6297C20.4037 24.6297 20.6192 24.437 20.693 24.0459C20.7157 23.9382 20.727 23.6094 20.727 23.0596H22.2018V23.2693C22.2018 23.7965 22.1905 24.1082 22.1678 24.2103C22.1338 24.4994 22.0203 24.7941 21.8275 25.0832C21.4361 25.6557 20.8575 25.9392 20.0804 25.9392C19.3373 25.9392 18.753 25.6614 18.3333 25.1116C18.0213 24.7148 17.8624 24.0856 17.8624 23.2353V20.4351C17.8624 19.5848 18.0156 18.9556 18.3162 18.5588C18.736 18.0089 19.3146 17.7312 20.052 17.7312C20.7781 17.7312 21.351 18.0089 21.7707 18.5588C22.06 18.9556 22.2075 19.5848 22.2075 20.4351L22.2018 22.1073Z" fill="white"/>
				<path d="M14.6575 19.0461C14.4079 19.0461 14.164 19.1652 13.9314 19.4033V24.2725C14.1696 24.5106 14.4136 24.6296 14.6575 24.6296C15.0772 24.6296 15.2871 24.2668 15.2871 23.5469V20.1345C15.2871 19.4089 15.0772 19.0461 14.6575 19.0461Z" fill="white"/>
				<path d="M20.0352 19.0461C19.5473 19.0461 19.3091 19.4146 19.3091 20.1458V20.8884H20.7612V20.1458C20.7612 19.4146 20.5173 19.0461 20.0352 19.0461Z" fill="white"/>
				<path d="M5.91067 6.45641V10.8438H7.52731V6.45641L9.48996 0H7.83929L6.73884 4.25704L5.58734 0H3.87427C4.17491 0.906959 4.5266 1.91595 4.92934 3.02697C5.43418 4.51779 5.76318 5.65715 5.91067 6.45641Z" fill="white"/>
				<path d="M11.6624 10.9576C12.4054 10.9576 12.9784 10.6798 13.3811 10.13C13.6817 9.73316 13.8349 9.09262 13.8349 8.21967V5.38543C13.8349 4.52382 13.6817 3.88894 13.3811 3.49215C12.984 2.94231 12.4111 2.66455 11.6624 2.66455C10.9363 2.66455 10.369 2.94231 9.96063 3.49215C9.65999 3.88894 9.50684 4.52382 9.50684 5.38543V8.21967C9.50684 9.08128 9.65999 9.72182 9.96063 10.13C10.369 10.6798 10.9363 10.9576 11.6624 10.9576ZM10.9646 5.09633C10.9646 4.35376 11.1972 3.97964 11.6624 3.97964C12.1275 3.97964 12.3601 4.35376 12.3601 5.09633V8.49743C12.3601 9.25134 12.1275 9.63113 11.6624 9.63113C11.1972 9.63113 10.9646 9.25134 10.9646 8.49743V5.09633Z" fill="white"/>
				<path d="M16.1155 10.9568C16.6544 10.9568 17.2102 10.6224 17.7832 9.95352V10.8435H19.258V2.76587H17.7832V8.93319C17.4598 9.398 17.1535 9.63041 16.8586 9.63041C16.6657 9.63041 16.5522 9.51137 16.5182 9.2733C16.5069 9.25062 16.5012 9.06356 16.5012 8.70645V2.76587H15.0264V9.14292C15.0264 9.69276 15.0717 10.0952 15.1568 10.356C15.2986 10.7584 15.6163 10.9568 16.1155 10.9568Z" fill="white"/>
			</g>
			<defs>
				<clipPath id="clip0">
				<rect width="24" height="29" fill="white"/>
				</clipPath>
			</defs>
		</g>
	</symbol>
	<symbol id="fb" viewBox="0 0 13 28">
		<g>
			<g clip-path="url(#clip0)">
				<path d="M8.64888 9.17662V6.76642C8.64888 6.4034 8.66667 6.1237 8.69631 5.92731C8.73187 5.73092 8.80894 5.53454 8.9275 5.33815C9.04606 5.14772 9.23575 5.01084 9.50251 4.93943C9.76927 4.86801 10.119 4.82635 10.5636 4.82635H12.9644V0H9.12312C6.90014 0 5.30552 0.529649 4.33333 1.58895C3.36115 2.64825 2.87506 4.20744 2.87506 6.27248V9.17662H0V14.003H2.87506V28.006H8.64888V14.003H12.4902L13 9.17662H8.64888Z" fill="#ffffff"/>
			</g>
			<defs>
				<clipPath id="clip0">
				<rect width="13" height="28" fill="white"/>
				</clipPath>
			</defs>
		</g>
	</symbol>
	<symbol id="ig" viewBox="0 0 25 25">
		<g>
			<g clip-path="url(#clip0)">
				<path d="M18.0958 0H6.9042C3.08989 0 0 3.08989 0 6.9042V18.1106C0 21.9101 3.08989 25.0148 6.9042 25.0148H18.1106C21.9101 25.0148 25.0148 21.9249 25.0148 18.1106V6.9042C25 3.08989 21.8953 0 18.0958 0ZM22.7824 18.0958C22.7824 20.683 20.683 22.7824 18.0958 22.7824H6.9042C4.31697 22.7824 2.21762 20.683 2.21762 18.0958V6.9042C2.21762 4.31697 4.31697 2.21762 6.9042 2.21762H18.1106C20.6978 2.21762 22.7972 4.31697 22.7972 6.9042L22.7824 18.0958Z" fill="#ffffff"/>
				<path d="M12.4926 6.06152C8.94443 6.06152 6.06152 8.94443 6.06152 12.4926C6.06152 16.0408 8.94443 18.9385 12.5074 18.9385C16.0704 18.9385 18.9533 16.0556 18.9533 12.4926C18.9385 8.94443 16.0556 6.06152 12.4926 6.06152ZM12.4926 16.7209C10.1715 16.7209 8.26436 14.8285 8.26436 12.4926C8.27915 10.1715 10.1715 8.27915 12.4926 8.27915C14.8137 8.27915 16.7209 10.1715 16.7209 12.5074C16.7209 14.8285 14.8285 16.7209 12.4926 16.7209Z" fill="#ffffff"/>
				<path d="M19.2047 4.18311C18.7759 4.18311 18.362 4.36052 18.0515 4.6562C17.7411 4.95188 17.5784 5.38062 17.5784 5.80936C17.5784 6.2381 17.7558 6.65206 18.0515 6.96252C18.3472 7.25821 18.7759 7.43562 19.2047 7.43562C19.6334 7.43562 20.0474 7.25821 20.3578 6.96252C20.6683 6.66684 20.8309 6.2381 20.8309 5.80936C20.8309 5.38062 20.6535 4.96667 20.3578 4.6562C20.0622 4.34573 19.6334 4.18311 19.2047 4.18311Z" fill="#ffffff"/>
			</g>
			<defs>
				<clipPath id="clip0">
				<rect width="25" height="25" fill="white"/>
				</clipPath>
			</defs>
		</g>
	</symbol>
	
</svg>