<svg width="839" height="839" viewBox="0 0 839 839" fill="none" xmlns="http://www.w3.org/2000/svg">
<g opacity="0.5" filter="url(#filter0_f)">
<circle cx="419.5" cy="419.5" r="219.5" fill="#FFEE54" fill-opacity="0.8"/>
</g>
<g clip-path="url(#clip0)">
<path d="M784.801 251.881C787.164 247.657 788.68 244.322 790.776 241.299C793.273 237.697 795.725 233.874 798.98 231.028C808.343 222.758 821.407 226.76 824.662 238.764C826.891 246.901 826.089 255.171 824.484 263.352C821.586 278.647 816.324 293.142 809.279 306.925C804.598 316.084 799.337 324.932 794.209 333.869C793.05 335.914 791.578 337.915 789.929 339.604C787.164 342.361 784.177 342.139 782.037 338.893C780.298 336.314 778.782 333.513 777.756 330.623C770.578 310.749 763.355 290.874 756.622 270.866C753.813 262.552 751.94 253.881 750.023 245.3C749.131 241.343 749.354 237.297 752.119 233.74C755.909 228.894 760.724 227.515 766.877 230.094C774.056 233.118 778.381 239.031 782.037 245.523C782.928 247.168 783.553 249.08 784.801 251.881Z" fill="#FF61EF" fill-opacity="0.65"/>
<path d="M649.925 442.401C651.887 441.067 653.403 439.689 655.186 438.888C659.377 437.065 663.569 434.976 667.983 433.998C676.543 432.13 684.079 436.754 686.174 445.202C687.155 449.204 687.2 453.605 686.665 457.696C685.728 464.943 682.206 471.346 677.747 477.037C668.072 489.353 658.174 501.447 648.275 513.585C647.027 515.141 645.466 516.519 643.816 517.675C640.027 520.254 636.593 519.543 634.676 515.452C632.491 510.784 630.842 505.893 628.924 501.091C625.669 492.865 622.415 484.684 619.16 476.503C614.211 464.054 611.134 451.204 612.16 437.732C613.051 426.261 624.332 419.992 634.854 424.661C638.823 426.439 642.122 429.018 644.396 432.753C646.18 435.687 647.874 438.755 649.925 442.401Z" fill="#FF61EF" fill-opacity="0.65"/>
<path d="M688.315 187.5C690.99 182.742 692.996 177.451 696.429 173.316C701.824 166.78 709.538 167.803 713.551 175.228C715.245 178.385 716.538 182.075 716.94 185.632C719.704 210.042 719.659 234.407 713.863 258.506C713.06 261.885 711.857 265.219 710.43 268.376C707.621 274.734 703.296 275.09 699.461 269.443C697.277 266.286 695.181 263.041 693.13 259.75C683.811 244.544 674.403 229.427 665.307 214.088C662.811 209.864 660.67 205.24 659.377 200.527C655.9 188.078 665.575 178.785 678.015 182.475C681.716 183.631 685.104 185.899 688.315 187.5Z" fill="#FF61EF" fill-opacity="0.65"/>
<path d="M736.915 391.714C737.673 390.025 738.342 388.113 739.367 386.379C740.571 384.334 741.73 382.155 743.38 380.465C748.775 374.908 757.068 376.508 759.164 383.933C760.68 389.313 761.215 395.182 761.17 400.785C761.081 414.879 757.514 428.44 753.858 441.956C753.769 442.312 753.68 442.668 753.546 443.024C751.762 447.381 748.195 448.048 744.985 444.535C737.45 436.221 729.513 428.218 722.602 419.414C718.233 413.856 714.799 407.32 712.213 400.74C708.914 392.337 714.041 386.379 723.093 387.668C727.73 388.291 732.188 390.247 736.915 391.714Z" fill="#FF61EF" fill-opacity="0.65"/>
<path d="M776.018 117.383C776.776 117.205 778.559 116.761 780.298 116.405C787.61 114.893 792.827 118.228 793.54 125.697C793.942 129.788 793.585 134.234 792.381 138.147C789.037 148.951 782.215 157.577 773.476 164.691C772.094 165.847 770.4 166.691 768.705 167.358C764.024 169.226 760.457 168.025 757.826 163.801C757.246 162.868 756.756 161.845 756.399 160.822C752.966 149.974 748.864 139.303 747.749 127.921C747.259 123.074 747.259 117.961 748.284 113.204C750.112 104.4 758.495 101.288 765.629 106.668C769.329 109.424 772.183 113.337 776.018 117.383Z" fill="#FF61EF" fill-opacity="0.65"/>
<path d="M670.613 328.222C671.594 325.999 672.62 323.243 674.002 320.708C675.607 317.818 677.435 314.75 681.448 315.151C685.149 315.551 686.576 318.574 687.467 321.598C688.493 325.11 689.34 328.756 689.518 332.357C690.187 344.896 688.315 357.256 686.085 369.572C685.996 370.106 685.818 370.639 685.639 371.173C684.971 373.529 684.079 375.841 681.314 376.375C678.55 376.908 676.811 375.041 675.473 373.04C674.047 370.906 672.62 368.727 671.55 366.415C666.913 356.411 662.231 346.452 657.951 336.315C656.479 332.847 655.81 328.934 655.365 325.155C655.231 323.732 656.479 321.42 657.772 320.797C659.065 320.175 661.473 320.619 662.811 321.509C665.664 323.465 668.072 325.999 670.613 328.222Z" fill="#FF61EF" fill-opacity="0.65"/>
<path d="M759.476 623.228C760.947 621.45 761.884 619.805 763.266 618.737C767.546 615.447 772.049 616.826 773.699 621.894C774.368 623.94 774.725 626.207 774.68 628.386C774.368 639.768 771.202 650.394 765.406 660.265C764.291 662.177 763.087 664.222 760.457 664.044C757.648 663.822 756.444 661.643 755.731 659.287C752.609 648.749 749.488 638.256 746.59 627.63C745.832 624.873 745.966 621.805 745.921 618.915C745.921 616.559 746.902 614.602 749.399 613.891C751.807 613.224 753.813 614.247 755.151 616.159C756.622 617.982 757.692 620.116 759.476 623.228Z" fill="#FF61EF" fill-opacity="0.65"/>
<path d="M701.2 539.906C702.359 537.772 703.251 535.727 704.5 533.948C706.595 531.014 709.672 529.902 713.239 530.48C716.494 531.014 718.678 533.148 719.303 536.127C720.061 539.639 720.462 543.374 720.15 546.976C719.57 553.156 718.366 559.292 717.385 565.472C716.672 569.918 714.264 571.207 710.43 568.895C704.143 565.116 697.945 561.115 691.881 557.024C688.448 554.712 685.996 551.466 684.748 547.509C682.875 541.596 687.021 536.571 693.13 537.505C695.805 537.905 698.391 539.017 701.2 539.906Z" fill="#FF61EF" fill-opacity="0.65"/>
<path d="M612.472 259.35C614.879 257.572 616.752 256.149 618.714 254.771C621.657 252.77 624.376 252.948 626.383 255.838C627.899 258.017 629.415 260.729 629.593 263.263C630.306 273.311 630.485 283.404 630.797 293.453C630.842 295.587 629.994 297.81 627.765 298.121C626.249 298.299 623.975 297.499 623.039 296.298C615.637 286.961 608.414 277.491 601.236 267.976C600.388 266.864 599.943 265.308 599.675 263.886C598.739 258.995 602.484 255.571 607.299 256.994C609.395 257.661 611.312 258.817 612.472 259.35Z" fill="#FF61EF" fill-opacity="0.65"/>
<path d="M732.946 316.84C734.329 313.816 734.552 310.526 738.341 310.748C740.705 310.882 742.354 313.327 742.488 317.64C742.622 322.353 742.31 327.11 742.042 331.868C741.953 333.691 741.552 335.647 739.322 336.181C737.182 336.714 735.934 335.336 734.819 333.78C731.921 329.778 728.934 325.821 726.035 321.82C725.277 320.797 724.653 319.641 724.118 318.485C723.271 316.662 723.137 314.572 725.144 313.683C726.347 313.149 728.22 313.683 729.602 314.172C730.672 314.617 731.52 315.728 732.946 316.84Z" fill="#FF61EF" fill-opacity="0.65"/>
<path d="M765.317 563.693C765.584 563.515 765.807 563.426 765.896 563.293C767.1 561.559 767.457 558.802 770.4 559.247C773.476 559.736 773.699 562.359 773.967 564.76C774.368 568.228 774.769 571.696 774.814 575.209C774.858 579.033 772.406 580.455 768.973 578.721C768.037 578.232 767.189 577.388 766.476 576.632C763.979 573.92 761.527 571.207 759.075 568.451C758.45 567.784 757.603 567.028 757.559 566.228C757.425 564.894 757.425 563.204 758.138 562.27C758.673 561.559 760.546 561.426 761.616 561.692C762.954 561.959 764.113 563.026 765.317 563.693Z" fill="#FF61EF" fill-opacity="0.65"/>
<path d="M743.246 508.383C743.959 507.049 744.316 505.715 745.163 504.959C746.144 504.159 748.017 503.181 748.819 503.581C750.023 504.203 751.628 506.293 751.316 507.227C749.934 511.54 748.329 515.852 746.144 519.854C744.851 522.21 742.443 522.033 740.749 519.676C738.609 516.697 736.825 513.496 734.997 510.295C734.061 508.65 733.526 506.738 735.354 505.315C737.271 503.848 739.233 504.515 740.927 505.804C741.73 506.426 742.354 507.405 743.246 508.383Z" fill="#FF61EF" fill-opacity="0.65"/>
<path d="M605.159 568.14C605.516 566.45 605.471 564.805 606.229 563.738C606.898 562.715 608.459 561.826 609.618 561.782C610.376 561.737 611.803 563.293 611.892 564.272C612.338 568.273 612.695 572.319 612.516 576.365C612.382 579.922 608.949 581.478 606.185 579.3C603.197 576.899 600.433 574.098 597.981 571.163C597.134 570.141 596.688 567.829 597.267 566.761C598.293 564.85 600.433 565.339 602.172 566.272C603.108 566.717 603.955 567.384 605.159 568.14Z" fill="#FF61EF" fill-opacity="0.65"/>
<path d="M725.857 601.086C727.417 599.619 727.061 596.062 730.226 596.951C733.303 597.796 731.921 600.508 731.921 602.554C731.921 605.488 731.965 608.423 731.698 611.357C731.609 612.246 730.761 613.536 730.003 613.847C729.201 614.158 727.685 613.758 727.105 613.091C724.698 610.334 722.513 607.4 720.283 604.51C719.258 603.132 718.366 601.575 719.748 600.019C721.353 598.285 723.048 599.086 724.564 600.33C724.965 600.642 725.411 600.82 725.857 601.086Z" fill="#FF61EF" fill-opacity="0.65"/>
</g>
<g clip-path="url(#clip1)">
<path d="M717.961 384.881C710.509 434.187 675.023 446.204 683.055 482.488C686.839 503.74 693.751 522.095 692.67 534.769C685.719 597.947 610.501 616.572 582.699 587.939C575.71 582.8 567.679 582.452 559.184 581.447C458.288 577.12 498.947 531.91 420.099 484.381C388.63 463.747 353.067 456.946 324.146 438.128C310.94 430.361 308.816 414.364 295.997 406.172C207.225 337.855 223.25 236.113 324.339 208.214C354.573 194.304 338.935 150.291 376.389 139.24C385.348 135.956 392.8 135.878 402.028 136.922C402.646 125.098 400.059 112.346 411.296 104.193C418.4 102.609 409.365 110.298 408.554 112.462C405.079 119.108 404.538 126.411 406.083 134.024C445.237 95.4599 502.423 110.684 525.282 155.663C542.503 190.555 525.899 208.639 556.249 230.008C570.884 240.943 604.941 238.818 605.867 247.628C605.056 248.44 604.439 248.942 602.662 247.976C572.699 236.77 561.617 244.73 541.036 220.657C551.191 263.123 598.994 270.078 632.742 285.303C683.016 303.271 719.506 335.614 717.961 384.881Z" fill="#A383FF"/>
<path d="M407.318 310.845C429.637 301.069 446.511 299.717 462.767 311.193C463.5 316.062 463.346 320.969 463.964 326.108C465.084 343.072 470.374 351.882 460.257 361.851C442.881 378.853 410.832 376.612 406.508 361.89C407.434 359.069 404.693 327.693 404.384 313.627L407.318 310.845Z" fill="#FECCBE"/>
<path d="M592.855 426.459C589.92 437.935 585.557 448.909 580.73 459.69C578.027 465.718 575.093 471.591 571.888 477.349C567.37 485.464 562.35 493.269 556.867 500.843C548.45 512.435 539.183 523.1 529.066 532.837C528.911 532.992 528.796 533.108 528.641 533.262C527.985 533.881 527.29 534.538 526.633 535.156C521.845 539.6 516.903 543.85 511.729 547.869C507.365 551.269 502.809 554.554 498.175 557.645C496.322 558.881 494.43 560.079 492.538 561.277C476.398 571.285 459.215 578.936 440.796 583.689C439.638 583.998 434.85 584.771 433.421 584.384C418.015 580.366 403.419 574.376 389.557 566.61C378.32 560.311 367.817 553.085 358.01 545.009C349.94 538.363 342.371 531.176 335.189 523.409C330.324 518.154 325.729 512.705 321.404 507.103C310.747 493.308 301.789 478.508 294.375 462.704C291.595 456.792 289.085 450.764 286.768 444.581C283.486 435.849 280.783 426.923 279.123 417.726C277.617 409.457 276.961 401.149 277.231 392.725C277.579 380.94 279.779 369.579 284.722 358.837C294.105 338.435 309.743 325.451 331.482 319.887C340.132 317.685 348.936 317.066 357.894 317.685C375.115 318.805 391.101 324.022 406.276 331.943C416.817 337.43 426.509 344.115 435.583 351.766C435.931 352.036 436.279 352.307 436.742 352.655C437.321 352.152 437.9 351.727 438.441 351.264C452.573 339.285 468.173 329.779 485.665 323.481C493.658 320.583 501.882 318.612 510.339 317.569C517.019 316.719 523.737 316.525 530.456 317.182C543.082 318.419 554.898 322.128 565.439 329.315C578.645 338.319 587.333 350.723 592.391 365.754C594.67 372.516 596.021 379.51 596.6 386.659C597.604 400.144 596.176 413.398 592.855 426.459Z" fill="#D2AEFF"/>
<path d="M555.516 490.216C509.103 535.503 460.759 529.9 441.8 514.908C439.638 512.242 436.78 510.657 435.159 509.073C431.761 506.175 433.846 504.204 431.529 504.011L431.877 500.263C435.043 499.954 438.171 499.606 441.298 499.258C485.394 491.878 499.488 471.205 521.652 450.145C527.251 449.179 533.12 453.082 538.835 454.937C550.921 462.008 567.872 470.393 567.138 477.774C564.281 486.352 559.725 487.898 555.516 490.216Z" fill="#FF61EF" fill-opacity="0.6"/>
<path d="M571.888 477.349C567.37 485.463 562.35 493.269 556.867 500.842C548.45 512.435 539.182 523.1 529.066 532.837C528.911 532.992 528.795 533.108 528.641 533.262C527.985 533.881 527.29 534.537 526.633 535.156C524.355 537.281 522.077 539.368 519.799 541.454C517.25 543.734 514.509 545.821 511.728 547.868C509.836 549.26 507.944 550.612 506.091 551.964C503.465 553.897 500.801 555.751 498.137 557.606C496.283 558.843 494.391 560.04 492.499 561.238C476.359 571.246 459.176 578.897 440.757 583.65C439.599 583.959 434.811 584.732 433.382 584.346C417.976 580.327 403.38 574.338 389.518 566.571C378.281 560.272 367.779 553.046 357.971 544.97C349.901 538.324 342.333 531.137 335.151 523.37C330.285 518.115 325.69 512.667 321.366 507.064C310.708 493.269 301.75 478.469 294.336 462.665C298.893 460.076 303.449 457.449 308.353 455.478C316.153 452.348 324.184 450.107 332.37 448.484C333.76 448.213 335.112 447.904 336.502 447.634C337.583 447.441 338.51 447.634 339.128 448.677C339.359 449.025 339.707 449.373 340.093 449.566C346.812 453.314 352.874 458.106 359.013 462.704C367.817 469.273 376.891 475.417 386.429 480.865C394.344 485.386 402.646 489.057 411.373 491.762C419.482 494.274 427.629 496.553 435.931 498.176C438.711 498.717 441.53 498.949 444.31 499.374C447.708 499.876 451.106 500.495 454.542 500.881C458.365 501.306 462.188 501.615 466.01 501.77C470.181 501.924 474.39 501.886 478.56 501.77C481.726 501.693 484.854 501.383 488.02 501.074C491.727 500.727 495.434 500.302 499.141 499.799C510.531 498.292 521.768 496.283 532.773 492.882C541.229 490.255 549.685 487.589 557.871 484.15C562.698 482.218 567.331 479.899 571.888 477.349Z" fill="#FF61EF"/>
<path d="M490.8 241.678C492.306 241.253 493.464 240.751 494.661 240.635C496.515 240.403 498.368 240.596 499.604 242.219C500.917 243.958 500.53 245.851 499.681 247.667C498.754 249.677 497.21 251.145 495.588 252.613C494.005 254.043 492.344 255.434 490.723 256.864C490.259 260.032 489.873 263.201 489.333 266.292C487.093 278.966 482.537 290.675 474.891 301.069C468.945 309.145 461.647 315.637 452.457 319.733C438.595 325.954 424.81 325.49 411.218 318.844C401.449 314.052 393.804 306.788 387.548 297.978C380.868 288.511 376.544 278.039 373.957 266.756C373.841 266.215 373.725 265.635 373.57 265.094C373.416 264.437 373.262 263.781 373.03 262.853C371.756 262.08 370.327 261.192 368.86 260.342C366.775 259.182 364.882 257.753 363.338 255.898C362.373 254.739 361.639 253.502 361.562 251.956C361.33 249.058 363.106 246.856 365.964 246.585C367.083 246.469 368.203 246.547 369.362 246.585C369.902 246.585 370.443 246.624 371.138 246.663C371.485 241.871 371.717 237.273 372.219 232.675C372.682 228.192 373.532 223.749 374.845 219.266C375.462 219.073 376.08 218.841 376.698 218.725C381.795 217.605 386.622 215.634 391.41 213.702C393.92 212.697 396.352 211.461 398.823 210.34C401.797 208.949 404.615 207.287 407.28 205.355C411.913 201.916 416.624 198.593 421.219 195.116C425.466 191.908 429.366 188.276 432.919 184.296C433.575 183.562 434.27 182.789 435.081 181.9C435.853 182.441 436.51 182.828 437.05 183.33C442.727 188.585 449.484 191.87 456.705 194.343C463.23 196.584 469.91 198.207 476.899 199.25C477.44 200.062 478.058 200.873 478.56 201.723C484.004 211.113 487.518 221.237 489.333 231.902C489.912 234.993 490.298 238.278 490.8 241.678Z" fill="#FFE2D3"/>
<path d="M591.387 414.519C590.924 418.229 590.461 421.938 589.881 425.609C589.572 427.734 589.186 429.859 588.568 431.907C587.294 436.119 585.981 440.331 584.36 444.427C583.124 447.557 581.541 450.61 579.765 453.508C576.676 458.647 573.394 463.632 570.073 468.655C569.223 469.93 567.988 470.973 566.791 472.287C565.632 471.437 564.628 470.78 563.702 470.007C561.037 467.882 558.257 465.95 555.284 464.327C553.392 463.284 551.616 462.086 549.917 460.811C547.639 459.111 545.245 457.604 542.657 456.444C542.04 456.174 541.422 455.904 540.804 455.556C537.059 453.43 533.004 452.078 528.795 451.073C523.003 449.682 524.123 449.798 522.772 445.084C521.729 441.375 520.648 437.704 519.49 434.033C517.018 426.034 514.431 418.074 511.999 410.075C511.342 407.911 510.956 405.67 510.57 403.468C510.261 401.652 510.454 399.874 510.84 398.097C511.497 394.812 513.775 393.923 516.207 394.078C518.254 394.194 520.223 394.619 521.999 395.585C522.501 395.855 523.003 396.165 523.467 396.551C524.007 396.976 524.509 397.362 525.59 398.213C525.513 397.362 525.397 396.706 525.282 396.126C525.166 395.624 525.05 395.16 524.934 394.696C523.621 389.905 522.347 385.075 521.034 380.283C520.03 376.69 519.451 373.019 519.142 369.27C518.949 366.682 518.563 364.093 518.254 361.504C517.52 355.398 517.752 349.293 517.945 343.188C518.061 339.362 519.219 336.001 521.034 332.948C521.652 331.905 522.386 330.9 523.158 329.895C523.853 329.007 524.625 328.118 525.436 327.268C527.637 324.949 530.417 323.829 533.468 323.52C533.854 323.481 534.24 323.442 534.626 323.442C535.36 323.404 536.093 323.365 536.865 323.365C539.491 323.326 542.155 323.404 544.781 323.751C546.866 324.061 548.72 324.679 550.457 325.761C551.384 326.34 552.311 326.92 553.237 327.461C554.821 328.427 556.404 329.393 557.948 330.398C558.025 330.436 558.141 330.514 558.219 330.552C559.184 331.17 560.111 331.827 560.96 332.562C566.791 337.585 572.235 343.033 576.521 349.486C578.838 353.003 580.653 356.751 582.313 360.615C585.595 368.189 588.182 376.033 590.036 384.109C592.391 394.194 592.623 404.356 591.387 414.519Z" fill="#FFE2D3"/>
<path d="M364.728 398.019C364.033 401.884 362.527 405.361 360.249 408.53C358.704 410.616 357.16 412.703 355.654 414.828C349.901 423.059 345.885 432.139 342.796 441.645C342.255 443.268 341.792 444.891 341.251 446.475C340.749 448.021 339.823 448.91 338.124 449.103C335.768 449.373 333.451 449.837 331.096 450.146C322.485 451.228 314.415 454.049 306.461 457.333C302.522 458.956 298.661 460.734 294.722 462.473C293.719 461.7 293.487 460.54 293.023 459.536C291.247 455.517 289.51 451.46 287.772 447.403C285.378 441.8 283.216 436.081 281.748 430.13C279.779 422.17 279.354 414.055 279.818 405.864C280.011 402.347 280.127 398.87 280.32 395.353C280.59 390.716 281.015 386.118 281.98 381.558C283.641 373.714 287.154 366.643 291.247 359.842C294.375 354.703 297.966 349.911 302.638 346.047C304.723 344.309 306.615 342.376 308.585 340.483C310.631 338.512 312.909 336.851 315.458 335.576C316.732 334.919 317.968 334.301 319.28 333.721C320.979 332.948 322.717 332.214 324.493 331.596C326.154 331.016 327.891 330.514 329.629 330.127C333.297 329.354 336.965 329.161 340.672 329.316C341.869 329.354 343.105 329.432 344.302 329.548C344.92 329.586 345.537 329.664 346.194 329.741C347.854 329.895 349.515 330.32 351.175 330.63C352.565 330.9 353.723 331.518 354.766 332.407C355.191 332.755 355.577 333.18 355.963 333.605C356.31 333.991 356.619 334.378 356.928 334.803C358.318 336.658 359.361 338.667 359.786 341.063C359.979 342.183 360.133 343.265 359.94 344.424C359.747 345.545 359.747 346.666 359.631 347.786C359.284 350.839 358.666 353.737 357.199 356.519C355.808 359.108 354.805 361.89 353.762 364.634C351.909 369.618 350.094 374.603 348.356 379.626C347.854 381.133 347.352 382.64 346.966 384.418C346.85 384.882 346.773 385.384 346.657 385.886C348.009 385.732 348.781 385.732 349.553 385.577C349.785 385.538 350.016 385.5 350.248 385.461C353.106 385.075 355.847 385.616 358.511 386.659C363.454 388.514 365.655 392.803 364.728 398.019Z" fill="#FFE2D3"/>
<path d="M558.644 381.017C558.257 381.442 557.949 382.06 557.408 382.331C556.752 382.717 556.095 382.331 555.632 381.751C555.361 381.403 555.207 380.978 555.053 380.553C554.782 379.819 554.551 379.046 554.319 378.312C549.106 361.928 542.58 346.047 536.132 330.165C535.476 328.581 534.742 327.074 534.086 325.528C533.815 324.91 533.584 324.253 533.468 323.596C533.854 323.558 534.24 323.519 534.626 323.519C535.36 323.481 536.093 323.442 536.866 323.442C537.059 323.79 537.213 324.137 537.368 324.485C540.264 331.479 543.237 338.435 546.056 345.467C548.025 350.375 549.956 355.359 551.732 360.344C553.933 366.488 556.018 372.709 558.103 378.93C558.335 379.471 558.451 380.167 558.644 381.017Z" fill="#FECCBE"/>
<path d="M543.623 388.05C543.237 388.552 542.928 389.17 542.387 389.518C541.77 389.943 540.766 389.518 540.379 388.745C539.955 387.818 539.607 386.89 539.26 385.924C536.132 376.844 533.004 367.763 529.838 358.682C527.058 350.684 524.316 342.646 521.536 334.648C521.343 334.107 521.15 333.566 520.996 332.986C521.613 331.943 522.347 330.938 523.119 329.934C523.351 330.088 523.544 330.281 523.699 330.552C524.007 331.17 524.239 331.788 524.471 332.445C530.494 349.872 536.479 367.261 542.503 384.688C542.889 385.77 543.237 386.852 543.623 388.05Z" fill="#FECCBE"/>
<path d="M356.967 334.841C353.415 341.294 349.939 347.824 346.271 354.2C344.07 358.026 342.062 361.928 340.286 365.986C337.969 371.28 335.73 376.573 333.452 381.829C333.104 382.64 332.718 383.49 332.255 384.224C331.946 384.765 330.98 384.958 330.44 384.688C329.783 384.34 329.397 383.722 329.513 383.026C329.629 382.254 329.899 381.481 330.208 380.785C333.374 373.521 336.541 366.295 339.746 359.069C340.286 357.832 340.904 356.635 341.599 355.475C345.499 348.868 349.36 342.222 352.835 335.343C353.376 334.3 354.11 333.295 354.882 332.407C355.307 332.755 355.693 333.18 356.079 333.605C356.311 334.03 356.658 334.416 356.967 334.841Z" fill="#FECCBE"/>
<path d="M344.34 329.586C344.302 329.701 344.302 329.779 344.263 329.895C344.07 330.32 343.877 330.706 343.607 331.093C342.834 332.329 342.101 333.643 341.251 334.841C336.154 341.951 332.177 349.679 328.47 357.6C326.578 361.696 324.57 365.753 322.678 369.888C321.559 372.361 320.632 374.911 319.589 377.423C319.28 378.157 319.049 378.93 318.585 379.548C318.315 379.935 317.697 380.128 317.427 380.282C316.269 380.244 315.419 379.316 315.574 378.428C315.651 378.003 315.805 377.578 315.998 377.153C317.929 372.554 319.744 367.956 321.829 363.435C324.146 358.412 326.54 353.388 329.088 348.481C331.135 344.578 333.413 340.791 335.691 337.043C337.158 334.609 338.741 332.29 340.325 329.933C340.44 329.779 340.556 329.624 340.672 329.431C341.946 329.392 343.143 329.47 344.34 329.586Z" fill="#FECCBE"/>
<path d="M574.784 379.162C574.822 380.746 574.243 381.48 573.355 381.596C572.428 381.712 571.733 381.171 571.424 380.089C571.347 379.78 571.308 379.432 571.27 379.085C571 377.887 570.691 376.689 570.382 375.452C568.567 368.111 566.366 360.885 563.663 353.814C560.535 345.583 557.717 337.237 553.817 329.315C553.585 328.813 553.392 328.272 553.276 327.731C553.276 327.654 553.238 327.576 553.238 327.499C554.821 328.465 556.404 329.431 557.948 330.436C558.026 330.474 558.141 330.552 558.219 330.59C561.037 336.657 563.277 342.955 565.671 349.177C569.108 358.141 572.081 367.261 574.243 376.612C574.475 377.655 574.668 378.621 574.784 379.162Z" fill="#FECCBE"/>
<path d="M324.532 331.595C324.416 331.904 324.3 332.213 324.107 332.484C323.103 334.107 322.099 335.768 320.979 337.314C318.045 341.487 315.689 345.97 313.527 350.607C310.361 357.485 307.117 364.324 303.912 371.164C302.831 373.521 301.827 375.916 300.785 378.312C300.476 379.046 300.09 379.742 299.665 380.399C299.356 380.901 298.275 381.094 297.812 380.708C297.425 380.36 297.039 379.819 297.039 379.355C297.039 378.583 297.271 377.81 297.58 377.076C298.777 374.255 299.974 371.473 301.248 368.691C303.99 362.74 306.847 356.866 309.55 350.877C312.06 345.313 314.84 339.864 318.431 334.88C318.701 334.493 318.972 334.107 319.242 333.682C321.018 332.948 322.756 332.213 324.532 331.595Z" fill="#FECCBE"/>
<path d="M350.248 385.461C346.85 391.334 344.726 397.71 342.603 404.086C342.332 404.936 342.023 405.786 341.521 406.559C341.251 406.945 340.633 407.138 340.015 407.486C339.513 406.906 338.973 406.481 338.78 405.94C338.625 405.477 338.741 404.82 338.934 404.318C341.174 397.517 343.336 390.677 346.966 384.456C346.85 384.92 346.773 385.422 346.657 385.924C348.008 385.77 348.781 385.77 349.553 385.615C349.785 385.499 350.016 385.461 350.248 385.461Z" fill="#FECCBE"/>
<path d="M533.661 418.962C533.12 419.31 532.194 419.233 531.808 418.731C531.383 418.228 530.997 417.649 530.726 417.03C529.954 415.176 529.22 413.243 528.525 411.35C526.942 407.138 525.205 403.004 523.004 399.024C522.54 398.135 522.154 397.207 521.923 396.241C521.884 396.01 521.884 395.778 522 395.546C522.502 395.816 523.004 396.126 523.467 396.512C524.008 396.937 524.51 397.323 525.591 398.173C525.514 397.323 525.398 396.666 525.282 396.087C526.711 398.83 528.178 401.574 529.413 404.433C531.151 408.452 532.734 412.548 534.356 416.644C534.433 416.837 534.51 417.069 534.549 417.301C534.626 417.996 534.317 418.576 533.661 418.962Z" fill="#FECCBE"/>
<path d="M359.129 398.096C359.168 399.371 358.395 400.569 357.276 401.072C356.117 401.574 354.727 401.303 353.839 400.415C352.874 399.41 352.681 398.251 353.183 396.976C353.762 395.469 355.306 394.348 356.503 394.541C357.778 394.734 359.091 396.512 359.129 398.096Z" fill="#FECCBE"/>
<path d="M519.799 404.317C519.837 406.017 519.258 406.983 518.215 407.331C516.98 407.718 515.783 407.254 515.126 406.017C514.818 405.438 514.586 404.781 514.509 404.124C514.316 402.887 514.972 401.69 515.937 401.38C517.327 400.917 518.679 401.419 519.297 402.772C519.567 403.351 519.683 404.008 519.799 404.317Z" fill="#FECCBE"/>
<path d="M353.26 352.384C352.179 352.423 351.445 351.688 351.484 350.916C351.522 350.568 351.522 350.22 351.677 349.95C352.526 348.481 353.376 347.052 354.264 345.66C354.418 345.39 354.727 345.081 355.036 345.042C355.538 344.965 356.156 344.926 356.619 345.081C357.237 345.313 357.546 346.201 357.276 346.781C356.851 347.708 356.388 348.597 355.886 349.447C355.422 350.22 354.998 350.993 354.418 351.688C354.071 352.036 353.492 352.229 353.26 352.384Z" fill="#FECCBE"/>
<path d="M343.22 342.878C342.023 342.917 341.135 341.874 341.483 341.062C342.294 339.207 343.298 337.468 344.726 336.039C345.267 335.498 346.31 335.575 346.889 336.155C347.429 336.696 347.507 337.391 347.159 338.009C346.31 339.439 345.383 340.869 344.417 342.221C344.109 342.608 343.491 342.762 343.22 342.878Z" fill="#FECCBE"/>
<path d="M570.536 345.854C570.806 346.008 571.502 346.163 571.695 346.549C572.505 348.133 573.201 349.795 573.818 351.456C574.089 352.152 573.471 353.041 572.737 353.311C572.003 353.582 571.308 353.311 571 352.693C570.189 351.109 569.455 349.486 568.837 347.786C568.528 347.013 569.378 346.008 570.536 345.854Z" fill="#FECCBE"/>
<path d="M551.616 335.653C551.654 336.928 550.612 337.739 549.762 337.43C549.26 337.237 548.681 336.889 548.488 336.464C547.87 335.034 547.33 333.566 546.866 332.059C546.596 331.209 547.137 330.397 547.832 330.127C548.565 329.857 549.183 330.204 549.608 330.745C550.728 332.33 551.114 334.223 551.616 335.653Z" fill="#FECCBE"/>
<path d="M329.397 336.503C329.397 336.928 329.436 337.198 329.359 337.391C328.625 338.898 327.93 340.405 327.08 341.874C326.733 342.453 326.077 342.763 325.343 342.453C324.648 342.183 324.262 341.603 324.378 340.869C324.686 338.937 325.497 337.237 326.887 335.884C327.196 335.575 327.969 335.459 328.393 335.575C328.818 335.691 329.127 336.232 329.397 336.503Z" fill="#FECCBE"/>
<path d="M306.191 346.317C306.924 346.395 307.658 347.245 307.465 348.018C307.079 349.679 306.307 351.186 305.032 352.307C304.723 352.577 303.951 352.539 303.488 352.384C303.14 352.268 302.793 351.766 302.716 351.418C302.445 349.988 304.183 346.974 305.534 346.395C305.727 346.317 305.959 346.317 306.191 346.317Z" fill="#FECCBE"/>
<path d="M532.27 331.325C532.463 331.402 533.004 331.518 533.158 331.827C533.815 333.102 534.394 334.455 534.857 335.807C535.089 336.425 534.51 337.237 533.931 337.43C533.236 337.662 532.502 337.546 532.077 336.966C531.189 335.807 530.571 334.455 530.533 332.948C530.571 332.136 531.266 331.402 532.27 331.325Z" fill="#FECCBE"/>
<path d="M524.046 350.297C523.621 350.838 523.312 351.456 522.849 351.804C522.27 352.229 521.188 351.804 520.88 351.031C520.455 349.988 520.146 348.906 519.953 347.824C519.798 347.013 520.493 346.279 521.266 346.163C521.999 346.047 522.656 346.356 522.926 347.013C523.351 348.056 523.621 349.138 524.046 350.297Z" fill="#FECCBE"/>
<path d="M468.868 277.73C462.458 277.652 458.211 271.817 459.91 265.596C460.952 261.694 463.346 259.143 467.092 257.713C471.417 256.052 477.131 258.254 479.023 263.162C481.108 268.533 478.444 273.865 474.313 276.3C472.421 277.459 471.224 277.73 468.868 277.73Z" fill="#FF61EF"/>
<path d="M405.195 268.147C405.349 273.209 401.256 277.575 395.773 277.575C390.406 277.575 385.502 272.706 385.579 267.374C385.656 262.544 390.251 257.945 394.962 257.984C400.445 258.061 405.156 262.737 405.195 268.147Z" fill="#FF61EF"/>
<path d="M689.001 350.684C688.692 351.07 688.422 351.573 688.036 351.92C687.534 352.345 686.916 352.152 686.53 351.727C685.835 350.993 685.256 350.182 684.676 349.332C681.085 343.96 677.147 338.86 672.513 334.377C666.876 328.929 660.659 324.369 653.477 320.969C643.322 316.178 632.896 312.391 622.123 309.261C618.223 308.14 614.401 306.788 610.539 305.513C606.369 304.122 602.16 302.885 598.029 301.301C593.202 299.446 588.298 297.669 583.703 295.234C578.104 292.259 572.505 289.361 567.177 285.96C563.354 283.526 559.917 280.589 556.365 277.768C555.129 276.764 553.894 275.759 552.735 274.716C550.032 272.32 547.523 269.692 545.322 266.794C541.692 262.042 537.947 257.366 534.394 252.536C531.421 248.517 529.181 244.112 527.174 239.514C525.629 235.998 524.046 232.52 522.926 228.81C522.385 227.071 521.922 225.333 521.459 223.594C521.227 222.705 521.729 222.087 522.385 221.584C522.926 221.198 523.853 221.314 524.2 221.855C524.548 222.435 524.934 223.053 525.05 223.671C526.324 229.467 528.795 234.761 531.267 240.093C533.159 244.228 535.36 248.169 538.101 251.802C541.383 256.129 544.82 260.341 548.102 264.669C551.5 269.151 555.747 272.629 559.995 276.223C568.914 283.719 579.07 289.09 589.534 293.998C595.055 296.587 600.732 298.828 606.562 300.528C609.497 301.378 612.354 302.421 615.25 303.349C622.239 305.59 629.228 307.792 636.178 310.034C641.121 311.618 645.909 313.589 650.62 315.791C652.55 316.719 654.52 317.569 656.489 318.457C660.814 320.467 664.714 323.172 668.459 326.07C676.027 331.982 682.089 339.246 687.457 347.129C687.92 347.786 688.306 348.443 688.654 349.177C688.847 349.641 688.885 350.104 689.001 350.684Z" fill="white"/>
<path d="M688.731 395.392C688.692 396.319 688.075 396.976 687.418 397.092C686.8 397.208 686.26 397.054 685.912 396.551C685.487 395.894 685.101 395.199 684.792 394.465C683.518 391.451 682.205 388.437 680.97 385.423C678.228 378.699 674.714 372.401 670.428 366.527C668.768 364.247 666.799 362.2 664.868 360.113C660.582 355.437 656.103 350.994 650.89 347.284C647.376 344.811 643.669 342.647 639.963 340.522C633.244 336.735 626.332 333.489 618.996 331.094C617.181 330.475 615.327 329.973 613.513 329.432C607.682 327.693 601.89 325.838 596.021 324.215C590.383 322.67 584.823 320.815 579.263 318.96C577.68 318.419 576.058 317.878 574.513 317.221C564.281 312.739 554.126 308.064 545.167 301.185C544.086 300.374 542.966 299.601 541.847 298.828C536.209 295.003 531.112 290.559 526.324 285.729C524.239 283.604 522.617 281.169 521.536 278.387C521.266 277.653 521.111 276.88 521.034 276.107C520.996 275.528 521.266 275.025 521.884 274.794C522.579 274.562 523.428 274.755 523.737 275.257C523.969 275.644 524.2 276.03 524.355 276.455C525.899 280.628 528.911 283.642 532.077 286.618C537.136 291.332 542.696 295.428 548.449 299.215C550.148 300.335 551.732 301.61 553.431 302.692C555.438 303.968 557.408 305.281 559.531 306.325C564.899 308.991 570.266 311.618 575.749 314.014C579.031 315.444 582.506 316.487 585.943 317.569C591.194 319.231 596.523 320.699 601.813 322.322C607.412 324.061 613.088 325.491 618.687 327.268C625.444 329.432 632.047 332.098 638.264 335.653C641.893 337.74 645.639 339.595 649.114 341.874C653.747 344.927 658.149 348.25 662.049 352.23C664.752 354.974 667.417 357.756 670.042 360.577C673.788 364.557 676.606 369.194 679.232 373.946C681.819 378.583 683.904 383.452 685.951 388.398C686.762 390.369 687.611 392.339 688.422 394.349C688.654 394.812 688.731 395.276 688.731 395.392Z" fill="white"/>
<path d="M666.451 537.783C666.181 525.689 664.019 514.058 658.999 502.929C656.489 497.326 653.477 492.071 649.77 487.164C646.411 482.759 643.09 478.315 639.77 473.91C635.097 467.727 629.344 462.665 623.011 458.222C619.189 455.556 615.173 453.314 610.926 451.421C610.115 451.073 609.304 450.609 608.57 450.146C608.03 449.798 607.914 448.948 608.184 448.291C608.454 447.673 609.188 447.209 609.844 447.402C610.694 447.634 611.582 447.905 612.393 448.291C615.598 449.721 618.687 451.344 621.66 453.198C626.332 456.174 630.773 459.497 634.904 463.206C638.109 466.066 640.773 469.466 643.399 472.867C646.025 476.267 648.496 479.783 651.16 483.145C659.771 494.081 665.293 506.446 668.112 520.047C668.652 522.598 668.961 525.148 669.27 527.737C669.695 531.678 669.888 535.62 669.888 539.561C669.926 544.7 668.961 549.646 667.108 554.438C664.945 560.079 662.165 565.334 658.767 570.28C658.381 570.821 657.956 571.362 657.493 571.865C657.068 572.329 656.142 572.328 655.601 572.019C654.945 571.633 654.558 570.628 654.867 569.971C655.06 569.585 655.292 569.199 655.562 568.812C659.655 563.209 662.667 557.027 664.868 550.458C666.22 546.4 666.567 542.111 666.451 537.783Z" fill="white"/>
<path d="M316.037 241.369C315.574 241.871 315.149 242.528 314.531 242.992C313.18 243.997 311.751 244.885 310.322 245.851C306.306 248.595 302.175 251.145 298.314 254.12C293.989 257.444 290.398 261.501 287.116 265.867C283.911 270.118 281.44 274.832 279.046 279.546C277.733 282.058 276.96 284.801 276.42 287.584C275.609 291.911 274.875 296.239 274.914 300.683C274.991 306.015 275.918 311.232 277.308 316.371C278.157 319.424 279.277 322.36 280.551 325.258C280.938 326.186 281.285 327.152 281.594 328.118C281.787 328.698 281.247 329.47 280.59 329.741C280.011 329.973 279.432 329.934 279.007 329.509C278.544 329.045 278.157 328.466 277.887 327.847C275.763 323.095 273.949 318.226 272.906 313.125C272.018 308.72 271.323 304.238 271.477 299.678C271.825 290.559 273.408 281.749 278.157 273.711C280.513 269.731 282.714 265.635 285.687 262.042C289.741 257.173 294.066 252.575 299.395 249.02C302.947 246.624 306.538 244.306 310.129 241.91C311.056 241.292 311.983 240.635 312.909 239.978C313.488 239.553 314.145 239.437 314.84 239.63C315.612 239.862 315.805 240.519 316.037 241.369Z" fill="white"/>
<path d="M636.719 538.827C636.565 544.7 635.985 550.535 633.977 556.138C632.394 560.543 630.116 564.562 627.297 568.271C625.907 570.087 624.286 571.633 622.316 572.87C619.922 574.377 617.528 575.845 615.057 577.236C614.516 577.545 613.783 577.7 613.126 577.738C612.354 577.777 611.62 577.043 611.505 576.27C611.389 575.613 611.736 574.918 612.393 574.608C612.702 574.454 613.011 574.377 613.319 574.222C615.868 572.986 618.301 571.556 620.579 569.894C622.355 568.619 623.861 567.151 625.135 565.373C628.494 560.736 630.888 555.674 632.085 550.071C633.244 544.507 633.553 538.866 633.012 533.224C632.665 529.746 631.545 526.385 630.116 523.177C627.684 517.806 624.865 512.628 621.042 508.146C618.841 505.557 616.408 503.2 614.014 500.804C612.277 499.027 610.462 497.326 608.686 495.549C607.721 494.583 606.832 493.578 605.944 492.535C605.211 491.646 605.52 490.564 606.601 490.023C606.948 489.869 607.489 489.907 607.836 490.023C608.222 490.178 608.57 490.526 608.879 490.873C612.624 494.622 616.331 498.447 620.154 502.157C624.092 505.982 627.22 510.387 629.846 515.14C630.927 517.111 631.97 519.12 632.935 521.168C635.638 526.694 636.989 532.567 636.719 538.827Z" fill="white"/>
<path d="M490.298 188.663C482.151 188.624 475.162 187.001 468.404 184.258C458.79 180.278 450.449 174.404 443.036 167.14C436.356 160.609 430.911 153.19 426.239 145.114C425.737 144.225 425.235 143.337 424.887 142.371C424.733 141.907 424.81 141.25 424.965 140.748C425.158 139.975 426.355 139.627 426.895 140.13C427.32 140.477 427.745 140.902 428.054 141.327C428.672 142.293 429.173 143.298 429.753 144.264C434.502 152.533 440.333 160.03 447.322 166.521C454.426 173.09 462.381 178.384 471.532 181.746C475.239 183.137 479.062 184.026 482.962 184.683C485.317 185.069 487.672 185.146 490.028 185.224C493.31 185.301 496.553 184.837 499.758 184.103C500.299 183.987 500.878 183.91 501.419 183.91C502.075 183.91 502.693 184.489 502.847 185.146C503.002 185.803 502.693 186.653 502.075 186.885C501.148 187.233 500.183 187.619 499.179 187.774C495.974 188.276 492.731 188.856 490.298 188.663Z" fill="white"/>
<path d="M426.162 170.927C426.046 171.274 425.93 171.97 425.544 172.511C424.115 174.675 422.725 176.877 421.142 178.925C417.474 183.717 413.072 187.774 408.438 191.561C400.021 198.478 390.792 204.081 380.83 208.524C375.154 211.036 369.284 212.968 363.184 214.204C361.639 214.514 360.056 214.63 358.511 214.784C358.28 214.823 358.087 214.745 357.855 214.707C356.967 214.552 356.349 213.973 356.272 213.2C356.195 212.35 356.619 211.731 357.546 211.461C357.971 211.345 358.396 211.19 358.859 211.152C365.462 210.727 371.678 208.64 377.702 206.128C389.672 201.105 400.484 194.304 410.099 185.533C414.964 181.089 419.404 176.298 422.725 170.579C422.995 170.115 423.459 169.767 423.883 169.42C424.54 168.801 426.084 169.574 426.162 170.927Z" fill="white"/>
<path d="M357.353 196.004C356.156 196.004 355.461 195.463 355.23 194.652C355.075 193.995 355.616 193.029 356.311 192.759C357.044 192.488 357.817 192.295 358.589 192.102C369.015 189.667 378.629 185.34 387.742 179.814C394.036 175.988 399.905 171.661 405.156 166.444C407.705 163.894 409.983 161.073 411.914 158.02C412.338 157.363 412.84 156.745 413.381 156.204C413.767 155.818 414.81 155.895 415.273 156.32C415.698 156.707 416.045 157.248 415.775 157.827C415.234 158.948 414.694 160.068 414.037 161.112C411.026 165.826 407.126 169.767 402.878 173.322C393.65 181.089 383.34 187.04 372.142 191.522C367.856 193.222 363.454 194.691 358.975 195.734C358.319 195.811 357.662 195.927 357.353 196.004Z" fill="white"/>
<path d="M327.042 255.009C327.467 255.434 327.969 255.743 328.2 256.207C328.355 256.554 328.355 257.134 328.123 257.482C327.775 258.023 327.273 258.564 326.733 258.95C324.493 260.573 322.717 262.582 321.173 264.824C319.628 267.065 318.045 269.267 316.655 271.586C314.106 275.798 312.755 280.435 312.137 285.303C311.983 286.54 311.712 287.776 311.674 289.013C311.403 295.775 312.407 302.305 315.342 308.449C315.535 308.874 315.767 309.261 315.96 309.647C316.269 310.343 315.767 311.347 314.995 311.502C314.184 311.695 313.373 311.618 312.832 310.922C312.369 310.304 311.944 309.608 311.674 308.874C310.245 305.049 309.125 301.185 308.585 297.127C307.697 290.481 308.546 284.067 310.245 277.691C311.017 274.716 312.33 271.972 313.991 269.383C315.651 266.833 317.35 264.283 319.088 261.81C320.748 259.491 322.794 257.559 325.073 255.859C325.613 255.511 326.308 255.318 327.042 255.009Z" fill="white"/>
<path d="M652.589 452.619C652.28 453.083 652.049 453.624 651.663 453.933C651.199 454.319 650.582 454.203 650.08 453.856C649.616 453.546 649.23 453.121 648.844 452.735C645.909 449.914 643.052 447.055 640.04 444.311C634.48 439.172 628.533 434.535 621.738 431.057C620.656 430.478 619.575 429.821 618.571 429.087C618.146 428.778 617.799 428.275 617.606 427.773C617.374 427.232 617.529 426.652 617.953 426.227C618.378 425.802 618.88 425.648 619.498 425.802C619.614 425.841 619.73 425.841 619.807 425.918C625.483 429.164 631.121 432.448 636.256 436.544C641.392 440.64 646.102 445.161 650.697 449.798C651.161 450.262 651.624 450.764 652.01 451.344C652.319 451.653 652.396 452.117 652.589 452.619Z" fill="white"/>
<path d="M474.969 162.194C474.582 162.078 473.578 161.923 472.613 161.575C468.752 160.262 465.199 158.252 461.763 156.088C456.087 152.533 450.951 148.321 446.433 143.337C444.889 141.637 443.653 139.782 442.842 137.657C442.649 137.116 442.611 136.575 442.881 136.034C443.151 135.493 443.499 135.068 444.117 134.99C444.734 134.913 445.198 135.222 445.584 135.686C445.661 135.763 445.738 135.879 445.777 135.956C447.785 140.709 451.646 143.916 455.353 147.201C458.828 150.254 462.767 152.765 466.744 155.122C469.177 156.552 471.725 157.75 474.428 158.6C475.084 158.793 475.702 159.025 476.32 159.334C476.938 159.643 477.208 160.339 477.054 161.073C476.938 161.73 476.359 162.155 474.969 162.194Z" fill="white"/>
<path d="M371.254 173.593C370.095 173.631 369.323 172.974 369.207 172.201C369.092 171.545 369.4 170.81 370.018 170.501C370.636 170.192 371.254 169.922 371.872 169.69C378.899 167.294 385.077 163.353 390.947 158.909C393.765 156.784 396.352 154.427 398.244 151.451C398.746 150.717 399.364 150.369 400.252 150.485C401.218 150.64 401.835 151.644 401.488 152.495C400.793 154.195 399.635 155.586 398.36 156.9C395.85 159.527 393.032 161.768 390.058 163.894C384.807 167.642 379.17 170.733 373.107 173.013C372.412 173.245 371.64 173.477 371.254 173.593Z" fill="white"/>
<path d="M435.467 300.026C426.123 299.639 418.593 296.509 412.261 290.52C412.029 290.288 411.759 290.056 411.566 289.786C410.948 289.013 410.986 287.854 411.566 287.313C412.106 286.849 413.11 286.811 413.767 287.313C414.23 287.661 414.616 288.047 415.041 288.433C416.933 290.056 418.941 291.525 421.103 292.723C425.003 294.925 429.251 296.239 433.652 296.432C441.414 296.741 448.094 294.23 452.805 287.661C453.191 287.12 453.615 286.579 454.079 286.076C454.503 285.613 455.392 285.574 455.971 285.922C456.55 286.231 456.936 287.081 456.704 287.661C456.473 288.279 456.202 288.936 455.816 289.477C452.187 294.539 447.321 297.862 441.221 299.253C439.135 299.678 436.973 299.794 435.467 300.026Z" fill="#231F20"/>
<path d="M399.673 244.383C397.974 244.499 396.314 244.151 394.73 243.494C391.95 242.296 389.17 240.982 386.429 239.707C386.042 239.514 385.656 239.243 385.347 238.934C385.038 238.625 384.884 238.161 385.116 237.698C385.618 236.616 386.544 236.113 387.548 236.577C389.633 237.466 391.68 238.393 393.726 239.282C394.653 239.668 395.58 240.093 396.545 240.441C399.132 241.446 401.642 241.253 404.036 239.939C406.005 238.857 407.975 237.698 409.558 236.036C409.944 235.65 410.33 235.225 410.755 234.838C411.797 233.911 412.685 233.872 413.419 234.684C414.037 235.379 414.037 236.307 413.226 237.079C411.875 238.393 410.446 239.707 408.94 240.905C407.897 241.716 406.623 242.296 405.465 242.992C403.727 244.074 401.797 244.576 399.673 244.383Z" fill="#231F20"/>
<path d="M460.334 245.078C458.596 245.194 457.013 244.731 455.469 243.958C452.496 242.489 449.831 240.673 447.592 238.2C447.283 237.853 447.012 237.505 446.781 237.118C446.433 236.577 446.626 235.805 447.167 235.264C447.708 234.761 448.518 234.645 449.02 235.032C449.638 235.495 450.256 236.036 450.797 236.577C452.457 238.316 454.503 239.514 456.589 240.673C458.867 241.948 461.338 242.026 463.771 241.137C464.813 240.751 465.856 240.287 466.898 239.823C468.983 238.934 471.03 238.007 473.076 237.118C474.003 236.732 475.161 237.389 475.393 238.471C475.47 238.857 475.277 239.398 475.007 239.669C474.621 240.055 474.08 240.326 473.578 240.557C471.107 241.678 468.674 242.799 466.203 243.919C464.35 244.808 462.38 245.194 460.334 245.078Z" fill="#231F20"/>
<path d="M439.869 263.433C440.023 267.181 438.672 270.504 436.973 273.75C436.857 273.943 436.703 274.097 436.548 274.291C436.124 274.793 435.313 274.948 434.695 274.677C433.961 274.291 433.536 273.402 433.807 272.706C434 272.165 434.193 271.663 434.463 271.161C436.124 268.069 436.703 264.824 436.239 261.346C435.853 258.216 435.506 255.086 435.197 251.956C435.081 250.952 435.081 249.947 435.042 248.904C435.042 248.594 435.197 248.247 435.313 247.938C435.544 247.319 436.278 246.933 436.973 247.049C437.591 247.126 437.977 247.474 438.209 248.053C438.286 248.247 438.363 248.479 438.363 248.71C438.633 251.299 438.826 253.85 439.097 256.439C439.367 258.757 439.637 261.075 439.869 263.433Z" fill="#231F20"/>
<path d="M453.268 466.877C453.268 468.345 453.268 469.698 453.268 471.05C453.268 471.63 453.268 472.171 453.191 472.75C452.921 474.373 452.071 475.108 450.45 475.224C447.206 475.455 443.924 475.726 440.681 475.88C437.398 476.035 434.116 476.112 430.873 476.035C427.707 475.958 424.579 476.537 421.413 476.576C419.945 476.615 418.478 476.692 417.011 476.615C414.617 476.537 413.613 475.533 413.342 473.098C413.304 472.635 413.265 472.21 413.265 471.746C413.034 468.036 412.686 464.327 412.145 460.656C411.721 457.758 411.528 454.821 411.373 451.884C411.296 450.339 412.03 449.257 413.497 448.832C414.578 448.484 415.698 448.291 416.818 448.213C426.278 447.518 435.777 447.286 445.237 447.402C446.009 447.402 446.82 447.441 447.592 447.557C448.828 447.711 449.6 448.484 449.909 449.72C450.141 450.802 449.793 452.232 450.952 452.773C451.801 453.159 452.921 452.928 453.925 452.966C455.547 453.044 456.551 453.816 456.744 455.323C457.091 458.106 457.361 460.926 457.554 463.747C457.67 465.525 457.053 466.182 455.276 466.491C454.929 466.529 454.581 466.529 454.272 466.568C454.002 466.529 453.809 466.684 453.268 466.877ZM453.075 456.289C452.265 456.444 451.608 456.56 450.952 456.637C448.867 456.908 447.67 456.135 447.206 454.126C446.936 453.044 446.743 451.962 446.279 450.88C443.924 450.609 441.646 450.686 439.406 450.686C433.074 450.725 426.741 450.957 420.447 451.382C419.212 451.459 417.937 451.421 416.74 451.537C416.123 451.614 415.505 451.923 414.887 452.116C414.848 452.734 414.771 453.159 414.81 453.623C415.582 459.883 416.316 466.182 416.779 472.48C416.779 472.557 416.895 472.673 416.933 472.75C417.011 472.828 417.088 472.905 417.242 473.06C418.864 473.06 420.602 473.291 422.223 473.021C424.579 472.635 426.934 472.673 429.328 472.635C432.842 472.596 436.356 472.596 439.831 472.441C442.997 472.287 446.125 471.9 449.291 471.63C449.369 471.63 449.446 471.475 449.755 471.243C449.986 470.239 449.793 469.002 449.832 467.766C449.87 466.877 449.793 465.95 449.832 465.061C449.87 464.327 450.257 463.786 450.99 463.554C451.917 463.283 452.882 463.052 453.925 462.742C454.041 460.617 453.732 458.647 453.075 456.289Z" fill="#231F20"/>
<path d="M414.887 382.331C415.08 383.104 415.196 383.529 415.273 383.954C415.736 386.118 415.736 386.118 417.821 385.77C419.366 385.499 420.91 385.229 422.493 385.036C423.729 384.881 424.965 384.881 426.2 384.881C426.973 384.881 427.513 385.383 427.59 386.079C427.706 386.929 427.281 387.74 426.509 387.972C426.084 388.127 425.66 388.204 425.196 388.243C423.073 388.513 420.949 388.784 418.825 389.054C418.053 389.17 417.358 389.479 416.663 389.75C416.277 392.648 417.396 395.198 417.474 397.98C418.169 398.019 418.593 398.058 419.018 398.019C421.953 397.787 424.849 397.517 427.745 397.285C427.976 397.285 428.208 397.285 428.401 397.323C429.212 397.439 430.023 398.135 430.1 398.753C430.177 399.487 429.675 400.26 428.826 400.492C427.976 400.724 427.088 400.917 426.2 400.994C423.845 401.226 421.451 400.994 419.134 401.651C418.825 401.729 418.478 401.69 418.13 401.69C415.929 401.651 414.462 400.492 414.076 398.367C413.767 396.705 413.497 395.044 413.342 393.343C412.995 389.982 412.415 386.659 411.566 383.374C411.527 383.142 411.411 382.949 411.373 382.717C411.103 381.056 411.875 379.587 413.497 378.93C414.114 378.66 414.771 378.467 415.427 378.273C417.281 377.771 419.095 377.23 420.987 376.805C421.837 376.612 422.764 376.573 423.652 376.573C424.231 376.573 424.694 376.921 424.887 377.539C425.08 378.235 424.887 379.085 424.347 379.355C423.729 379.626 423.111 379.858 422.455 380.051C420.601 380.553 418.748 380.978 416.894 381.442C416.277 381.674 415.659 381.983 414.887 382.331Z" fill="#231F20"/>
<path d="M468.366 423.097C468.173 426.15 468.482 428.893 469.138 431.559C471.493 431.868 475.548 431.753 477.633 431.482C479.177 431.25 480.761 431.134 482.344 431.018C482.769 430.98 483.232 431.096 483.657 431.25C484.197 431.482 484.583 431.984 484.506 432.603C484.468 432.989 484.236 433.53 483.927 433.723C483.386 434.071 482.691 434.303 482.073 434.419C477.71 435.153 473.308 435.269 468.906 435.307C466.281 435.307 465.702 434.612 465.547 432.216C465.161 426.806 464.62 421.435 464.234 416.026C464.118 414.673 464.157 413.321 464.234 411.968C464.311 410.964 465.045 410.152 465.895 410.075C468.482 409.843 471.069 409.65 473.656 409.534C474.274 409.495 475.007 409.766 475.509 410.114C475.895 410.384 476.166 411.041 476.166 411.543C476.166 412.084 475.702 412.548 475.085 412.703C474.853 412.78 474.66 412.78 474.428 412.818C472.42 413.012 470.374 413.166 468.366 413.398C468.173 413.437 467.98 413.591 467.671 413.784C467.401 414.673 467.594 415.678 467.671 416.683C467.709 417.571 467.555 418.499 468.211 419.503C469.099 419.503 470.103 419.581 471.069 419.542C471.957 419.503 472.884 419.426 473.772 419.271C474.505 419.117 475.085 419.233 475.664 419.697C476.59 420.431 476.513 421.744 475.471 422.208C474.66 422.556 473.772 422.788 472.884 422.865C471.339 422.904 469.91 422.904 468.366 423.097Z" fill="#231F20"/>
<path d="M391.024 384.611C393.572 385.383 395.966 385.383 398.322 385.499C399.944 385.577 401.411 385.963 402.878 386.697C403.998 387.277 404.963 388.05 405.736 389.054C406.817 390.484 407.241 392.03 406.701 393.807C406.237 395.391 405.388 396.705 404.075 397.671C401.874 399.294 399.596 400.724 396.893 401.381C395.464 401.728 394.074 402.231 392.646 402.501C391.68 402.695 390.638 402.695 389.634 402.656C389.055 402.617 388.63 402.154 388.437 401.574C388.244 400.956 388.553 400.415 389.016 400.106C389.557 399.758 390.213 399.487 390.831 399.294C392.8 398.792 394.769 398.405 396.739 397.864C398.708 397.285 400.484 396.28 401.951 394.85C402.492 394.309 402.878 393.614 403.303 392.957C403.65 392.416 403.496 391.875 403.11 391.373C402.067 390.059 400.716 389.286 399.094 389.132C397.743 388.977 396.391 388.9 395.04 388.977C393.534 389.016 392.144 388.668 390.676 388.359C388.398 387.895 386.854 384.842 388.012 382.717C389.943 379.201 392.723 377.037 396.816 376.805C397.588 376.766 398.399 376.728 399.171 376.882C399.828 376.998 400.446 377.269 401.063 377.539C401.681 377.848 401.913 378.583 401.681 379.317C401.527 379.935 401.025 380.244 400.446 380.283C399.557 380.283 398.631 380.205 397.743 380.205C394.538 380.012 392.762 381.172 391.024 384.611Z" fill="#231F20"/>
<path d="M466.204 388.745C466.088 390.986 466.242 393.112 466.59 395.237C466.821 396.551 466.86 397.942 466.899 399.294C466.937 400.028 466.358 400.531 465.624 400.608C464.736 400.685 463.925 400.26 463.694 399.565C463.617 399.333 463.578 399.14 463.539 398.908C463.037 394.425 462.574 389.943 462.033 385.461C461.802 383.451 461.377 381.442 461.068 379.471C460.759 377.694 461.609 376.419 463.423 376.071C466.513 375.491 469.602 374.834 472.768 374.68C473.888 374.641 475.007 374.371 476.127 374.255C476.784 374.216 477.479 374.255 478.135 374.371C478.792 374.487 479.178 375.182 479.216 375.916C479.255 376.689 478.83 377.307 478.174 377.423C476.938 377.655 475.741 377.926 474.505 377.964C471.764 378.003 469.138 378.698 466.435 378.892C466.204 378.892 466.011 378.969 465.779 379.046C465.2 379.201 464.775 379.703 464.814 380.244C464.891 381.828 464.929 383.413 465.779 384.765C468.096 385.036 471.996 384.958 474.235 384.649C475.239 384.495 476.243 384.34 477.247 384.34C477.788 384.34 478.367 384.572 478.792 384.842C479.255 385.151 479.602 385.654 479.409 386.272C479.216 386.813 478.985 387.393 478.367 387.509C476.706 387.779 475.046 388.05 473.347 388.165C471.532 388.32 469.717 388.281 467.941 388.397C467.362 388.436 466.821 388.591 466.204 388.745Z" fill="#231F20"/>
<path d="M436.51 422.131C436.472 426.265 434.425 429.202 430.873 431.057C428.517 432.293 426.046 432.719 423.343 431.83C418.324 430.207 416.007 425.647 417.667 420.508C419.559 414.712 426.316 412.393 430.525 413.978C434.271 415.369 436.472 418.151 436.51 422.131ZM420.679 423.406C420.524 426.381 422.455 428.584 425.892 428.854C428.672 429.048 431.8 426.845 432.726 424.179C433.807 421.049 432.147 418.151 429.599 417.301C427.822 416.683 426.201 416.876 424.733 417.649C422.417 418.808 420.795 420.624 420.679 423.406Z" fill="#231F20"/>
<path d="M448.905 426.42C449.291 425.879 449.677 425.57 449.793 425.184C450.797 422.092 451.724 418.962 452.689 415.832C452.959 414.982 453.23 414.132 453.616 413.321C453.963 412.587 454.929 412.239 455.624 412.509C456.473 412.857 456.859 413.475 456.666 414.364C456.512 415.137 456.28 415.91 456.048 416.644C454.813 420.508 453.616 424.372 452.303 428.197C451.955 429.241 451.415 430.323 450.72 431.173C449.677 432.448 448.441 432.371 447.592 431.25C446.974 430.477 446.472 429.55 446.086 428.623C445.044 426.265 444.078 423.831 443.036 421.474C442.302 419.812 441.491 418.228 440.719 416.567C440.564 416.257 440.449 415.871 440.526 415.601C440.719 415.098 441.028 414.596 441.453 414.287C441.916 413.9 442.611 414.016 442.997 414.403C443.538 414.944 444.078 415.562 444.426 416.257C445.352 418.19 446.163 420.16 447.013 422.131C447.669 423.522 448.248 424.836 448.905 426.42Z" fill="#231F20"/>
<path d="M401.064 434.612C402.647 434.805 403.844 434.998 405.079 435.076C406.663 435.192 408.246 435.192 409.829 435.308C410.601 435.385 411.373 435.617 412.107 435.887C412.879 436.196 413.034 437.742 412.339 438.206C411.798 438.553 411.064 439.017 410.524 438.901C407.821 438.399 405.118 438.553 402.415 438.36C401.527 438.283 400.639 438.09 399.789 437.819C398.438 437.433 397.743 436.467 397.704 435.076C397.704 434.419 397.704 433.723 397.782 433.028C398.129 430.246 398.477 427.425 398.824 424.643C399.172 421.976 399.442 419.272 399.789 416.605C399.905 415.601 400.176 414.635 400.484 413.669C400.716 412.973 401.527 412.625 402.106 412.78C402.724 412.934 403.265 413.553 403.226 414.287C403.149 416.103 403.072 417.881 402.879 419.697C402.531 422.711 402.106 425.725 401.759 428.739C401.643 429.511 401.527 430.284 401.45 431.096C401.295 432.139 401.218 433.144 401.064 434.612Z" fill="#231F20"/>
<path d="M442.65 396.048C443.885 397.014 444.889 397.053 445.932 397.053C447.863 397.053 449.755 397.053 451.685 397.053C452.264 397.053 452.805 397.053 453.384 397.13C453.963 397.207 454.543 397.941 454.581 398.598C454.62 399.217 454.157 400.028 453.577 400.221C453.153 400.337 452.689 400.453 452.264 400.453C449.677 400.453 447.09 400.414 444.465 400.376C444.233 400.376 444.001 400.376 443.77 400.337C440.449 399.951 439.715 399.255 439.329 395.971C439.29 395.507 439.252 395.082 439.252 394.618C439.175 389.209 439.136 383.76 439.097 378.35C439.097 377.887 439.097 377.462 439.136 376.998C439.213 376.148 439.87 375.491 440.642 375.414C441.53 375.337 442.302 376.071 442.38 377.075C442.418 377.655 442.418 378.196 442.457 378.776C442.495 383.412 442.573 388.049 442.611 392.686C442.65 393.807 442.65 394.927 442.65 396.048Z" fill="#231F20"/>
<path d="M434.966 461.699C434.927 461.004 434.966 460.579 434.85 460.154C434.58 459.188 434.155 458.26 433.924 457.256C433.576 455.787 434.696 454.59 436.24 454.783C436.588 454.821 436.935 454.821 437.244 454.976C440.063 456.135 442.882 457.256 445.662 458.454C446.241 458.724 446.782 459.188 447.245 459.651C447.901 460.308 447.631 461.468 446.82 461.97C446.28 462.318 445.739 462.202 445.199 461.97C443.422 461.236 441.685 460.463 439.909 459.729C439.522 459.574 439.059 459.342 438.673 459.729C438.596 459.845 438.48 459.922 438.48 459.999C438.789 460.965 439.175 461.893 439.407 462.897C439.638 463.863 439.754 464.868 439.793 465.873C439.831 466.684 438.634 467.496 437.823 467.302C437.399 467.186 436.935 467.071 436.549 466.839C435.352 466.182 434.194 465.525 433.074 464.791C431.298 463.593 429.483 462.511 427.514 461.622C426.896 461.352 426.239 461.043 425.853 460.54C425.544 460.192 425.506 459.497 425.583 458.995C425.66 458.376 426.239 458.067 426.819 458.106C427.475 458.144 428.17 458.222 428.788 458.492C430.332 459.188 431.8 459.999 433.306 460.772C433.769 461.081 434.232 461.313 434.966 461.699Z" fill="#231F20"/>
<path d="M422.069 465.602C422.069 466.839 422.107 468.075 422.069 469.35C422.03 470.2 421.296 470.973 420.601 470.973C419.752 470.973 418.864 470.162 418.748 469.312C418.748 469.196 418.709 469.08 418.709 468.964C418.902 464.752 418.362 460.617 417.899 456.483C417.821 455.826 417.86 455.13 417.937 454.473C418.014 453.855 418.478 453.507 419.057 453.391C419.636 453.314 420.254 453.43 420.563 453.932C420.91 454.512 421.142 455.169 421.219 455.826C421.567 459.072 421.876 462.318 422.185 465.602C422.185 465.602 422.146 465.602 422.069 465.602Z" fill="#231F20"/>
</g>
<path d="M256.809 536.809L280 531.5L256.809 526.098L251.5 503L246.098 526.098L223 531.5L246.098 536.809L251.5 560L256.809 536.809Z" fill="#A383FF"/>
<defs>
<filter id="filter0_f" x="0" y="0" width="839" height="839" filterUnits="userSpaceOnUse" color-interpolation-filters="sRGB">
<feFlood flood-opacity="0" result="BackgroundImageFix"/>
<feBlend mode="normal" in="SourceGraphic" in2="BackgroundImageFix" result="shape"/>
<feGaussianBlur stdDeviation="100" result="effect1_foregroundBlur"/>
</filter>
<clipPath id="clip0">
<rect width="229" height="560" fill="white" transform="translate(597 104)"/>
</clipPath>
<clipPath id="clip1">
<rect width="480" height="497" fill="white" transform="translate(238 104)"/>
</clipPath>
</defs>
</svg>
