<svg width="603" height="560" viewBox="0 0 603 560" fill="none" xmlns="http://www.w3.org/2000/svg">
<g clip-path="url(#clip0)">
<path d="M561.801 147.881C564.164 143.657 565.68 140.322 567.776 137.299C570.273 133.697 572.725 129.874 575.98 127.028C585.343 118.758 598.407 122.76 601.662 134.764C603.891 142.901 603.089 151.171 601.484 159.352C598.586 174.647 593.324 189.142 586.279 202.925C581.598 212.084 576.337 220.932 571.209 229.869C570.05 231.914 568.578 233.915 566.929 235.604C564.164 238.361 561.177 238.139 559.037 234.893C557.298 232.314 555.782 229.513 554.756 226.623C547.578 206.749 540.355 186.874 533.622 166.866C530.813 158.552 528.94 149.881 527.023 141.3C526.131 137.343 526.354 133.297 529.119 129.74C532.909 124.894 537.724 123.515 543.877 126.094C551.056 129.118 555.381 135.031 559.037 141.523C559.928 143.168 560.553 145.08 561.801 147.881Z" fill="#FF61EF" fill-opacity="0.65"/>
<path d="M426.924 338.401C428.886 337.067 430.402 335.689 432.185 334.888C436.377 333.065 440.568 330.976 444.982 329.998C453.543 328.13 461.078 332.754 463.174 341.202C464.155 345.204 464.199 349.605 463.664 353.696C462.728 360.943 459.205 367.346 454.747 373.037C445.071 385.353 435.173 397.447 425.274 409.585C424.026 411.141 422.465 412.519 420.816 413.675C417.026 416.254 413.593 415.543 411.675 411.452C409.491 406.784 407.841 401.893 405.924 397.091C402.669 388.865 399.414 380.684 396.159 372.503C391.21 360.054 388.133 347.204 389.159 333.732C390.051 322.261 401.331 315.992 411.854 320.661C415.822 322.439 419.121 325.018 421.395 328.753C423.179 331.687 424.873 334.755 426.924 338.401Z" fill="#FF61EF" fill-opacity="0.65"/>
<path d="M465.314 83.4996C467.989 78.7421 469.996 73.4511 473.429 69.3161C478.824 62.7802 486.538 63.8028 490.55 71.228C492.245 74.3848 493.538 78.0752 493.939 81.6321C496.703 106.042 496.659 130.407 490.863 154.506C490.06 157.885 488.856 161.219 487.429 164.376C484.62 170.734 480.295 171.09 476.461 165.443C474.276 162.286 472.18 159.041 470.129 155.75C460.811 140.544 451.403 125.427 442.307 110.088C439.81 105.864 437.67 101.24 436.377 96.5269C432.899 84.0776 442.575 74.785 455.014 78.4753C458.715 79.6313 462.104 81.8989 465.314 83.4996Z" fill="#FF61EF" fill-opacity="0.65"/>
<path d="M513.914 287.714C514.672 286.025 515.341 284.113 516.366 282.379C517.57 280.334 518.729 278.155 520.379 276.465C525.774 270.908 534.067 272.508 536.163 279.933C537.679 285.313 538.214 291.182 538.169 296.785C538.08 310.879 534.513 324.44 530.857 337.956C530.768 338.312 530.679 338.668 530.545 339.024C528.762 343.381 525.195 344.048 521.984 340.535C514.449 332.221 506.513 324.218 499.602 315.414C495.232 309.856 491.799 303.32 489.213 296.74C485.913 288.337 491.041 282.379 500.092 283.668C504.729 284.291 509.188 286.247 513.914 287.714Z" fill="#FF61EF" fill-opacity="0.65"/>
<path d="M553.017 13.383C553.775 13.2052 555.559 12.7605 557.297 12.4048C564.61 10.8931 569.826 14.2278 570.54 21.6974C570.941 25.7879 570.584 30.2341 569.381 34.1468C566.037 44.9511 559.215 53.5767 550.476 60.6907C549.093 61.8467 547.399 62.6915 545.705 63.3584C541.023 65.2258 537.456 64.0253 534.825 59.8014C534.246 58.8677 533.755 57.8451 533.399 56.8225C529.965 45.9737 525.863 35.3028 524.749 23.9205C524.258 19.0741 524.258 13.961 525.284 9.20357C527.112 0.400074 535.494 -2.71227 542.628 2.66764C546.329 5.42429 549.183 9.33695 553.017 13.383Z" fill="#FF61EF" fill-opacity="0.65"/>
<path d="M447.613 224.222C448.594 221.999 449.62 219.243 451.002 216.708C452.607 213.818 454.435 210.75 458.448 211.151C462.149 211.551 463.575 214.574 464.467 217.598C465.493 221.11 466.34 224.756 466.518 228.357C467.187 240.896 465.314 253.256 463.085 265.572C462.996 266.106 462.817 266.639 462.639 267.173C461.97 269.529 461.079 271.841 458.314 272.375C455.55 272.908 453.811 271.041 452.473 269.04C451.046 266.906 449.62 264.727 448.55 262.415C443.912 252.411 439.231 242.452 434.95 232.315C433.479 228.847 432.81 224.934 432.364 221.155C432.231 219.732 433.479 217.42 434.772 216.797C436.065 216.175 438.473 216.619 439.81 217.509C442.664 219.465 445.072 221.999 447.613 224.222Z" fill="#FF61EF" fill-opacity="0.65"/>
<path d="M536.475 519.228C537.947 517.45 538.883 515.805 540.265 514.737C544.546 511.447 549.049 512.826 550.699 517.894C551.368 519.94 551.724 522.207 551.68 524.386C551.368 535.768 548.202 546.394 542.406 556.265C541.291 558.177 540.087 560.222 537.456 560.044C534.647 559.822 533.443 557.643 532.73 555.287C529.609 544.749 526.488 534.256 523.59 523.63C522.832 520.873 522.965 517.805 522.921 514.915C522.921 512.559 523.902 510.602 526.399 509.891C528.806 509.224 530.813 510.247 532.15 512.159C533.622 513.982 534.692 516.116 536.475 519.228Z" fill="#FF61EF" fill-opacity="0.65"/>
<path d="M478.199 435.906C479.358 433.772 480.25 431.727 481.499 429.948C483.594 427.014 486.671 425.902 490.238 426.48C493.493 427.014 495.677 429.148 496.302 432.127C497.06 435.639 497.461 439.374 497.149 442.976C496.569 449.156 495.365 455.292 494.384 461.472C493.671 465.918 491.263 467.207 487.429 464.895C481.142 461.116 474.944 457.115 468.88 453.024C465.447 450.712 462.995 447.466 461.747 443.509C459.874 437.596 464.02 432.571 470.129 433.505C472.804 433.905 475.39 435.017 478.199 435.906Z" fill="#FF61EF" fill-opacity="0.65"/>
<path d="M389.471 155.35C391.879 153.572 393.751 152.149 395.713 150.771C398.656 148.77 401.376 148.948 403.382 151.838C404.898 154.017 406.414 156.729 406.593 159.263C407.306 169.311 407.484 179.404 407.796 189.453C407.841 191.587 406.994 193.81 404.765 194.121C403.249 194.299 400.975 193.499 400.038 192.298C392.637 182.961 385.414 173.491 378.235 163.976C377.388 162.864 376.942 161.308 376.675 159.886C375.738 154.995 379.484 151.571 384.299 152.994C386.395 153.661 388.312 154.817 389.471 155.35Z" fill="#FF61EF" fill-opacity="0.65"/>
<path d="M509.946 212.84C511.328 209.816 511.551 206.526 515.341 206.748C517.704 206.882 519.354 209.327 519.487 213.64C519.621 218.353 519.309 223.11 519.041 227.868C518.952 229.691 518.551 231.647 516.322 232.181C514.181 232.714 512.933 231.336 511.818 229.78C508.92 225.778 505.933 221.821 503.035 217.82C502.277 216.797 501.652 215.641 501.117 214.485C500.27 212.662 500.136 210.572 502.143 209.683C503.347 209.149 505.219 209.683 506.602 210.172C507.672 210.617 508.519 211.728 509.946 212.84Z" fill="#FF61EF" fill-opacity="0.65"/>
<path d="M542.316 459.693C542.584 459.515 542.807 459.426 542.896 459.293C544.1 457.559 544.456 454.802 547.399 455.247C550.476 455.736 550.698 458.359 550.966 460.76C551.367 464.228 551.769 467.696 551.813 471.209C551.858 475.033 549.405 476.455 545.972 474.721C545.036 474.232 544.189 473.388 543.475 472.632C540.978 469.92 538.526 467.207 536.074 464.451C535.45 463.784 534.602 463.028 534.558 462.228C534.424 460.894 534.424 459.204 535.138 458.27C535.673 457.559 537.545 457.426 538.615 457.692C539.953 457.959 541.112 459.026 542.316 459.693Z" fill="#FF61EF" fill-opacity="0.65"/>
<path d="M520.246 404.383C520.959 403.049 521.316 401.715 522.163 400.959C523.144 400.159 525.017 399.181 525.819 399.581C527.023 400.203 528.628 402.293 528.316 403.227C526.934 407.54 525.329 411.852 523.144 415.854C521.851 418.21 519.443 418.033 517.749 415.676C515.609 412.697 513.825 409.496 511.997 406.295C511.061 404.65 510.526 402.738 512.354 401.315C514.271 399.848 516.233 400.515 517.927 401.804C518.73 402.426 519.354 403.405 520.246 404.383Z" fill="#FF61EF" fill-opacity="0.65"/>
<path d="M382.159 464.14C382.516 462.45 382.471 460.805 383.229 459.738C383.898 458.715 385.458 457.826 386.618 457.782C387.376 457.737 388.802 459.293 388.892 460.272C389.337 464.273 389.694 468.319 389.516 472.365C389.382 475.922 385.949 477.478 383.184 475.3C380.197 472.899 377.433 470.098 374.98 467.163C374.133 466.141 373.687 463.829 374.267 462.761C375.292 460.85 377.433 461.339 379.171 462.272C380.108 462.717 380.955 463.384 382.159 464.14Z" fill="#FF61EF" fill-opacity="0.65"/>
<path d="M502.856 497.086C504.417 495.619 504.06 492.062 507.226 492.951C510.302 493.796 508.92 496.508 508.92 498.554C508.92 501.488 508.965 504.423 508.697 507.357C508.608 508.246 507.761 509.536 507.003 509.847C506.2 510.158 504.684 509.758 504.105 509.091C501.697 506.334 499.512 503.4 497.283 500.51C496.257 499.132 495.366 497.575 496.748 496.019C498.353 494.285 500.047 495.086 501.563 496.33C501.965 496.642 502.41 496.82 502.856 497.086Z" fill="#FF61EF" fill-opacity="0.65"/>
</g>
<g clip-path="url(#clip1)">
<path d="M494.961 280.881C487.509 330.187 452.023 342.204 460.055 378.488C463.839 399.74 470.751 418.095 469.67 430.769C462.719 493.947 387.501 512.572 359.699 483.939C352.71 478.8 344.679 478.452 336.184 477.447C235.288 473.12 275.947 427.91 197.099 380.381C165.63 359.747 130.067 352.946 101.146 334.128C87.9401 326.361 85.8164 310.364 72.9968 302.172C-15.7748 233.855 0.249636 132.113 101.339 104.214C131.573 90.3035 115.935 46.2915 153.389 35.2402C162.348 31.9557 169.8 31.8784 179.028 32.9217C179.646 21.0976 177.059 8.34604 188.296 0.192797C195.4 -1.39148 186.365 6.29807 185.554 8.46196C182.079 15.1082 181.538 22.4114 183.083 30.0236C222.237 -8.54006 279.423 6.68448 302.282 51.6626C319.503 86.5554 302.899 104.639 333.249 126.008C347.884 136.943 381.941 134.818 382.867 143.628C382.056 144.44 381.439 144.942 379.662 143.976C349.699 132.77 338.617 140.73 318.036 116.657C328.191 159.123 375.994 166.078 409.742 181.303C460.016 199.271 496.506 231.614 494.961 280.881Z" fill="#A383FF"/>
<path d="M184.318 206.845C206.637 197.069 223.511 195.717 239.767 207.193C240.5 212.062 240.346 216.969 240.964 222.108C242.084 239.072 247.374 247.882 237.257 257.851C219.881 274.853 187.832 272.612 183.508 257.89C184.434 255.069 181.693 223.693 181.384 209.627L184.318 206.845Z" fill="#FECCBE"/>
<path d="M369.855 322.459C366.92 333.935 362.557 344.909 357.731 355.69C355.028 361.718 352.093 367.591 348.888 373.349C344.37 381.464 339.351 389.269 333.868 396.843C325.45 408.435 316.183 419.1 306.066 428.837C305.912 428.992 305.796 429.108 305.641 429.262C304.985 429.881 304.29 430.538 303.634 431.156C298.845 435.6 293.903 439.85 288.729 443.869C284.366 447.269 279.809 450.554 275.176 453.645C273.322 454.881 271.43 456.079 269.538 457.277C253.398 467.285 236.215 474.936 217.797 479.689C216.638 479.998 211.85 480.771 210.421 480.384C195.015 476.366 180.419 470.376 166.557 462.61C155.32 456.311 144.818 449.085 135.01 441.009C126.94 434.363 119.372 427.176 112.19 419.409C107.324 414.154 102.729 408.705 98.4047 403.103C87.7474 389.308 78.7892 374.508 71.3755 358.704C68.5953 352.792 66.0855 346.764 63.7687 340.581C60.4866 331.849 57.7837 322.923 56.1233 313.726C54.6174 305.457 53.961 297.149 54.2312 288.725C54.5788 276.94 56.7797 265.579 61.7222 254.837C71.1052 234.435 86.7435 221.451 108.483 215.887C117.132 213.685 125.936 213.066 134.894 213.685C152.116 214.805 168.101 220.022 183.276 227.943C193.818 233.43 203.51 240.115 212.584 247.766C212.931 248.036 213.279 248.307 213.742 248.655C214.321 248.152 214.901 247.727 215.441 247.264C229.574 235.285 245.173 225.779 262.665 219.481C270.658 216.583 278.882 214.612 287.339 213.569C294.019 212.719 300.738 212.525 307.456 213.182C320.083 214.419 331.898 218.128 342.44 225.315C355.645 234.319 364.333 246.723 369.392 261.754C371.67 268.516 373.021 275.51 373.601 282.659C374.604 296.144 373.176 309.398 369.855 322.459Z" fill="#D2AEFF"/>
<path d="M332.516 386.216C286.103 431.503 237.759 425.9 218.8 410.908C216.638 408.242 213.781 406.657 212.159 405.073C208.761 402.175 210.846 400.204 208.529 400.011L208.877 396.263C212.043 395.954 215.171 395.606 218.298 395.258C262.395 387.878 276.488 367.205 298.652 346.145C304.251 345.179 310.12 349.082 315.835 350.937C327.921 358.008 344.872 366.393 344.139 373.774C341.281 382.352 336.725 383.898 332.516 386.216Z" fill="#FF61EF" fill-opacity="0.6"/>
<path d="M348.887 373.349C344.37 381.463 339.35 389.269 333.867 396.842C325.449 408.435 316.182 419.1 306.065 428.837C305.911 428.992 305.795 429.108 305.641 429.262C304.984 429.881 304.289 430.537 303.633 431.156C301.354 433.281 299.076 435.368 296.798 437.454C294.25 439.734 291.508 441.821 288.728 443.868C286.836 445.26 284.944 446.612 283.09 447.964C280.465 449.897 277.8 451.751 275.136 453.606C273.283 454.843 271.391 456.04 269.499 457.238C253.358 467.246 236.175 474.897 217.757 479.65C216.599 479.959 211.811 480.732 210.382 480.346C194.975 476.327 180.379 470.338 166.517 462.571C155.281 456.272 144.778 449.046 134.97 440.97C126.9 434.324 119.332 427.137 112.15 419.37C107.285 414.115 102.69 408.667 98.3651 403.064C87.7079 389.269 78.7497 374.469 71.3359 358.665C75.8923 356.076 80.4486 353.449 85.3525 351.478C93.1524 348.348 101.184 346.107 109.37 344.484C110.76 344.213 112.111 343.904 113.501 343.634C114.583 343.441 115.509 343.634 116.127 344.677C116.359 345.025 116.706 345.373 117.093 345.566C123.811 349.314 129.873 354.106 136.013 358.704C144.817 365.273 153.891 371.417 163.428 376.865C171.344 381.386 179.646 385.057 188.372 387.762C196.481 390.274 204.629 392.553 212.93 394.176C215.71 394.717 218.529 394.949 221.309 395.374C224.707 395.876 228.105 396.495 231.542 396.881C235.365 397.306 239.187 397.615 243.01 397.77C247.18 397.924 251.389 397.886 255.559 397.77C258.726 397.693 261.853 397.383 265.019 397.074C268.726 396.727 272.433 396.302 276.14 395.799C287.531 394.292 298.767 392.283 309.772 388.882C318.228 386.255 326.685 383.589 334.871 380.15C339.697 378.218 344.331 375.899 348.887 373.349Z" fill="#FF61EF"/>
<path d="M267.799 137.678C269.305 137.253 270.464 136.751 271.661 136.635C273.514 136.403 275.368 136.596 276.603 138.219C277.916 139.958 277.53 141.851 276.68 143.667C275.754 145.677 274.209 147.145 272.587 148.613C271.004 150.043 269.344 151.434 267.722 152.864C267.259 156.032 266.873 159.201 266.332 162.292C264.093 174.966 259.536 186.675 251.891 197.069C245.944 205.145 238.646 211.637 229.457 215.733C215.594 221.954 201.81 221.49 188.218 214.844C178.449 210.052 170.803 202.788 164.548 193.978C157.868 184.511 153.543 174.039 150.956 162.756C150.84 162.215 150.724 161.635 150.57 161.094C150.415 160.437 150.261 159.781 150.029 158.853C148.755 158.08 147.326 157.192 145.859 156.342C143.774 155.182 141.882 153.753 140.337 151.898C139.372 150.739 138.638 149.502 138.561 147.956C138.33 145.058 140.106 142.856 142.963 142.585C144.083 142.469 145.203 142.547 146.361 142.585C146.902 142.585 147.442 142.624 148.137 142.663C148.485 137.871 148.717 133.273 149.218 128.675C149.682 124.192 150.531 119.749 151.844 115.266C152.462 115.073 153.08 114.841 153.698 114.725C158.795 113.605 163.621 111.634 168.409 109.702C170.919 108.697 173.352 107.461 175.823 106.34C178.796 104.949 181.615 103.287 184.279 101.355C188.913 97.9164 193.624 94.5933 198.219 91.1156C202.466 87.9084 206.366 84.2761 209.918 80.2961C210.575 79.562 211.27 78.7891 212.081 77.9004C212.853 78.4414 213.509 78.8278 214.05 79.3301C219.726 84.5853 226.483 87.8698 233.704 90.3428C240.23 92.584 246.91 94.2069 253.899 95.2502C254.439 96.0616 255.057 96.8731 255.559 97.7232C261.004 107.113 264.517 117.237 266.332 127.902C266.911 130.993 267.297 134.278 267.799 137.678Z" fill="#FFE2D3"/>
<path d="M368.387 310.519C367.923 314.229 367.46 317.938 366.881 321.609C366.572 323.734 366.186 325.859 365.568 327.907C364.294 332.119 362.981 336.331 361.359 340.427C360.123 343.557 358.54 346.61 356.764 349.508C353.675 354.647 350.393 359.632 347.072 364.655C346.223 365.93 344.987 366.973 343.79 368.287C342.632 367.437 341.628 366.78 340.701 366.007C338.037 363.882 335.256 361.95 332.283 360.327C330.391 359.284 328.615 358.086 326.916 356.811C324.638 355.111 322.244 353.604 319.657 352.444C319.039 352.174 318.421 351.904 317.803 351.556C314.058 349.43 310.003 348.078 305.795 347.073C300.003 345.682 301.122 345.798 299.771 341.084C298.728 337.375 297.647 333.704 296.489 330.033C294.018 322.034 291.43 314.074 288.998 306.075C288.341 303.911 287.955 301.67 287.569 299.468C287.26 297.652 287.453 295.874 287.839 294.097C288.496 290.812 290.774 289.923 293.207 290.078C295.253 290.194 297.222 290.619 298.999 291.585C299.501 291.855 300.003 292.165 300.466 292.551C301.007 292.976 301.509 293.362 302.59 294.213C302.512 293.362 302.397 292.706 302.281 292.126C302.165 291.624 302.049 291.16 301.933 290.696C300.62 285.905 299.346 281.075 298.033 276.283C297.029 272.69 296.45 269.019 296.141 265.27C295.948 262.682 295.562 260.093 295.253 257.504C294.52 251.398 294.751 245.293 294.944 239.188C295.06 235.362 296.219 232.001 298.033 228.948C298.651 227.905 299.385 226.9 300.157 225.895C300.852 225.007 301.624 224.118 302.435 223.268C304.636 220.949 307.416 219.829 310.467 219.52C310.853 219.481 311.239 219.442 311.625 219.442C312.359 219.404 313.092 219.365 313.865 219.365C316.49 219.326 319.155 219.404 321.78 219.751C323.866 220.061 325.719 220.679 327.457 221.761C328.383 222.34 329.31 222.92 330.237 223.461C331.82 224.427 333.403 225.393 334.948 226.398C335.025 226.436 335.141 226.514 335.218 226.552C336.183 227.17 337.11 227.827 337.959 228.562C343.79 233.585 349.234 239.033 353.52 245.486C355.837 249.003 357.652 252.751 359.312 256.615C362.595 264.189 365.182 272.033 367.035 280.109C369.39 290.194 369.622 300.356 368.387 310.519Z" fill="#FFE2D3"/>
<path d="M141.728 294.019C141.033 297.884 139.527 301.361 137.249 304.53C135.704 306.616 134.16 308.703 132.654 310.828C126.9 319.059 122.885 328.139 119.796 337.645C119.255 339.268 118.792 340.891 118.251 342.475C117.749 344.021 116.822 344.91 115.123 345.103C112.768 345.373 110.451 345.837 108.096 346.146C99.4851 347.228 91.4149 350.049 83.4606 353.333C79.5221 354.956 75.6608 356.734 71.7222 358.473C70.7183 357.7 70.4866 356.54 70.0233 355.536C68.2471 351.517 66.5095 347.46 64.7719 343.403C62.3779 337.8 60.2155 332.081 58.7482 326.13C56.779 318.17 56.3542 310.055 56.8176 301.864C57.0106 298.347 57.1265 294.87 57.3195 291.353C57.5898 286.716 58.0146 282.118 58.9799 277.558C60.6403 269.714 64.1541 262.643 68.247 255.842C71.3747 250.703 74.9657 245.911 79.6379 242.047C81.723 240.309 83.6151 238.376 85.5844 236.483C87.6308 234.512 89.909 232.851 92.4575 231.576C93.7317 230.919 94.9673 230.301 96.2802 229.721C97.9792 228.948 99.7168 228.214 101.493 227.596C103.153 227.016 104.891 226.514 106.629 226.127C110.297 225.354 113.965 225.161 117.672 225.316C118.869 225.354 120.104 225.432 121.301 225.548C121.919 225.586 122.537 225.664 123.194 225.741C124.854 225.895 126.514 226.32 128.175 226.63C129.565 226.9 130.723 227.518 131.766 228.407C132.19 228.755 132.577 229.18 132.963 229.605C133.31 229.991 133.619 230.378 133.928 230.803C135.318 232.658 136.361 234.667 136.785 237.063C136.978 238.183 137.133 239.265 136.94 240.424C136.747 241.545 136.747 242.666 136.631 243.786C136.283 246.839 135.666 249.737 134.198 252.519C132.808 255.108 131.804 257.89 130.762 260.634C128.908 265.618 127.093 270.603 125.356 275.626C124.854 277.133 124.352 278.64 123.966 280.418C123.85 280.882 123.773 281.384 123.657 281.886C125.008 281.732 125.781 281.732 126.553 281.577C126.785 281.538 127.016 281.5 127.248 281.461C130.105 281.075 132.847 281.616 135.511 282.659C140.454 284.514 142.655 288.803 141.728 294.019Z" fill="#FFE2D3"/>
<path d="M335.644 277.017C335.257 277.442 334.949 278.06 334.408 278.331C333.752 278.717 333.095 278.331 332.632 277.751C332.361 277.403 332.207 276.978 332.053 276.553C331.782 275.819 331.551 275.046 331.319 274.312C326.106 257.928 319.58 242.047 313.132 226.165C312.476 224.581 311.742 223.074 311.086 221.528C310.815 220.91 310.584 220.253 310.468 219.596C310.854 219.558 311.24 219.519 311.626 219.519C312.36 219.481 313.093 219.442 313.866 219.442C314.059 219.79 314.213 220.137 314.368 220.485C317.264 227.479 320.237 234.435 323.056 241.467C325.025 246.375 326.956 251.359 328.732 256.344C330.933 262.488 333.018 268.709 335.103 274.93C335.335 275.471 335.451 276.167 335.644 277.017Z" fill="#FECCBE"/>
<path d="M320.622 284.05C320.236 284.552 319.927 285.17 319.387 285.518C318.769 285.943 317.765 285.518 317.379 284.745C316.954 283.818 316.607 282.89 316.259 281.924C313.132 272.844 310.004 263.763 306.838 254.682C304.057 246.684 301.316 238.646 298.536 230.648C298.343 230.107 298.15 229.566 297.995 228.986C298.613 227.943 299.347 226.938 300.119 225.934C300.351 226.088 300.544 226.281 300.698 226.552C301.007 227.17 301.239 227.788 301.47 228.445C307.494 245.872 313.479 263.261 319.503 280.688C319.889 281.77 320.236 282.852 320.622 284.05Z" fill="#FECCBE"/>
<path d="M133.967 230.841C130.414 237.294 126.939 243.824 123.271 250.2C121.07 254.026 119.062 257.928 117.286 261.986C114.969 267.28 112.729 272.573 110.451 277.829C110.104 278.64 109.717 279.49 109.254 280.224C108.945 280.765 107.98 280.958 107.439 280.688C106.783 280.34 106.397 279.722 106.513 279.026C106.628 278.254 106.899 277.481 107.208 276.785C110.374 269.521 113.54 262.295 116.745 255.069C117.286 253.832 117.903 252.635 118.599 251.475C122.498 244.868 126.36 238.222 129.835 231.343C130.376 230.3 131.109 229.295 131.881 228.407C132.306 228.755 132.692 229.18 133.078 229.605C133.31 230.03 133.658 230.416 133.967 230.841Z" fill="#FECCBE"/>
<path d="M121.34 225.586C121.301 225.701 121.301 225.779 121.262 225.895C121.069 226.32 120.876 226.706 120.606 227.093C119.834 228.329 119.1 229.643 118.251 230.841C113.154 237.951 109.177 245.679 105.47 253.6C103.578 257.696 101.57 261.753 99.6777 265.888C98.5579 268.361 97.6312 270.911 96.5886 273.423C96.2797 274.157 96.048 274.93 95.5847 275.548C95.3144 275.935 94.6966 276.128 94.4263 276.282C93.2679 276.244 92.4184 275.316 92.5728 274.428C92.6501 274.003 92.8045 273.578 92.9976 273.153C94.9282 268.554 96.7431 263.956 98.8282 259.435C101.145 254.412 103.539 249.388 106.087 244.481C108.134 240.578 110.412 236.791 112.69 233.043C114.158 230.609 115.741 228.29 117.324 225.933C117.44 225.779 117.556 225.624 117.671 225.431C118.946 225.392 120.143 225.47 121.34 225.586Z" fill="#FECCBE"/>
<path d="M351.783 275.162C351.822 276.746 351.243 277.48 350.355 277.596C349.428 277.712 348.733 277.171 348.424 276.089C348.347 275.78 348.308 275.432 348.27 275.085C347.999 273.887 347.69 272.689 347.381 271.452C345.567 264.111 343.366 256.885 340.663 249.814C337.535 241.583 334.716 233.237 330.817 225.315C330.585 224.813 330.392 224.272 330.276 223.731C330.276 223.654 330.237 223.576 330.237 223.499C331.82 224.465 333.404 225.431 334.948 226.436C335.025 226.474 335.141 226.552 335.218 226.59C338.037 232.657 340.277 238.955 342.671 245.177C346.107 254.141 349.08 263.261 351.243 272.612C351.474 273.655 351.668 274.621 351.783 275.162Z" fill="#FECCBE"/>
<path d="M101.532 227.595C101.416 227.904 101.3 228.213 101.107 228.484C100.103 230.107 99.099 231.768 97.9792 233.314C95.0446 237.487 92.6892 241.97 90.5269 246.607C87.3606 253.485 84.1171 260.324 80.9122 267.164C79.831 269.521 78.8271 271.916 77.7845 274.312C77.4756 275.046 77.0895 275.742 76.6648 276.399C76.3559 276.901 75.2747 277.094 74.8113 276.708C74.4252 276.36 74.0391 275.819 74.0391 275.355C74.0391 274.583 74.2707 273.81 74.5796 273.076C75.7767 270.255 76.9737 267.473 78.2479 264.691C80.9894 258.74 83.8468 252.866 86.5497 246.877C89.0596 241.313 91.8397 235.864 95.4307 230.88C95.701 230.493 95.9713 230.107 96.2416 229.682C98.0178 228.948 99.7554 228.213 101.532 227.595Z" fill="#FECCBE"/>
<path d="M127.248 281.461C123.85 287.334 121.726 293.71 119.602 300.086C119.332 300.936 119.023 301.786 118.521 302.559C118.251 302.945 117.633 303.138 117.015 303.486C116.513 302.906 115.973 302.481 115.78 301.94C115.625 301.477 115.741 300.82 115.934 300.318C118.174 293.517 120.336 286.677 123.966 280.456C123.85 280.92 123.773 281.422 123.657 281.924C125.008 281.77 125.78 281.77 126.553 281.615C126.784 281.499 127.016 281.461 127.248 281.461Z" fill="#FECCBE"/>
<path d="M310.661 314.962C310.12 315.31 309.194 315.233 308.808 314.731C308.383 314.228 307.997 313.649 307.726 313.03C306.954 311.176 306.22 309.243 305.525 307.35C303.942 303.138 302.205 299.004 300.004 295.024C299.54 294.135 299.154 293.207 298.923 292.241C298.884 292.01 298.884 291.778 299 291.546C299.502 291.816 300.004 292.126 300.467 292.512C301.008 292.937 301.51 293.323 302.591 294.173C302.514 293.323 302.398 292.666 302.282 292.087C303.711 294.83 305.178 297.574 306.413 300.433C308.151 304.452 309.734 308.548 311.356 312.644C311.433 312.837 311.51 313.069 311.549 313.301C311.626 313.996 311.317 314.576 310.661 314.962Z" fill="#FECCBE"/>
<path d="M136.129 294.096C136.167 295.371 135.395 296.569 134.275 297.072C133.117 297.574 131.727 297.303 130.839 296.415C129.874 295.41 129.68 294.251 130.182 292.976C130.762 291.469 132.306 290.348 133.503 290.541C134.777 290.734 136.09 292.512 136.129 294.096Z" fill="#FECCBE"/>
<path d="M296.798 300.317C296.837 302.017 296.258 302.983 295.215 303.331C293.98 303.718 292.783 303.254 292.126 302.017C291.817 301.438 291.586 300.781 291.508 300.124C291.315 298.887 291.972 297.69 292.937 297.38C294.327 296.917 295.679 297.419 296.296 298.772C296.567 299.351 296.682 300.008 296.798 300.317Z" fill="#FECCBE"/>
<path d="M130.26 248.384C129.179 248.423 128.445 247.688 128.484 246.916C128.522 246.568 128.522 246.22 128.677 245.95C129.526 244.481 130.376 243.052 131.264 241.66C131.418 241.39 131.727 241.081 132.036 241.042C132.538 240.965 133.156 240.926 133.619 241.081C134.237 241.313 134.546 242.201 134.276 242.781C133.851 243.708 133.388 244.597 132.886 245.447C132.422 246.22 131.998 246.993 131.418 247.688C131.071 248.036 130.492 248.229 130.26 248.384Z" fill="#FECCBE"/>
<path d="M120.22 238.878C119.023 238.917 118.135 237.874 118.482 237.062C119.293 235.207 120.297 233.468 121.726 232.039C122.266 231.498 123.309 231.575 123.888 232.155C124.429 232.696 124.506 233.391 124.159 234.009C123.309 235.439 122.382 236.869 121.417 238.221C121.108 238.608 120.49 238.762 120.22 238.878Z" fill="#FECCBE"/>
<path d="M347.536 241.854C347.807 242.008 348.502 242.163 348.695 242.549C349.506 244.133 350.201 245.795 350.819 247.456C351.089 248.152 350.471 249.041 349.737 249.311C349.004 249.582 348.309 249.311 348 248.693C347.189 247.109 346.455 245.486 345.837 243.786C345.528 243.013 346.378 242.008 347.536 241.854Z" fill="#FECCBE"/>
<path d="M328.615 231.653C328.654 232.928 327.611 233.739 326.762 233.43C326.26 233.237 325.681 232.889 325.488 232.464C324.87 231.034 324.329 229.566 323.866 228.059C323.596 227.209 324.136 226.397 324.831 226.127C325.565 225.857 326.183 226.204 326.607 226.745C327.727 228.33 328.113 230.223 328.615 231.653Z" fill="#FECCBE"/>
<path d="M106.397 232.503C106.397 232.928 106.435 233.198 106.358 233.391C105.624 234.898 104.929 236.405 104.08 237.874C103.732 238.453 103.076 238.763 102.342 238.453C101.647 238.183 101.261 237.603 101.377 236.869C101.686 234.937 102.497 233.237 103.887 231.884C104.196 231.575 104.968 231.459 105.393 231.575C105.817 231.691 106.126 232.232 106.397 232.503Z" fill="#FECCBE"/>
<path d="M83.1907 242.317C83.9244 242.395 84.658 243.245 84.465 244.018C84.0788 245.679 83.3066 247.186 82.0324 248.307C81.7234 248.577 80.9512 248.539 80.4878 248.384C80.1403 248.268 79.7928 247.766 79.7156 247.418C79.4453 245.988 81.1829 242.974 82.5343 242.395C82.7274 242.317 82.9591 242.317 83.1907 242.317Z" fill="#FECCBE"/>
<path d="M309.27 227.325C309.463 227.402 310.003 227.518 310.158 227.827C310.814 229.102 311.394 230.455 311.857 231.807C312.089 232.425 311.509 233.237 310.93 233.43C310.235 233.662 309.501 233.546 309.077 232.966C308.189 231.807 307.571 230.455 307.532 228.948C307.571 228.136 308.266 227.402 309.27 227.325Z" fill="#FECCBE"/>
<path d="M301.045 246.297C300.621 246.838 300.312 247.456 299.848 247.804C299.269 248.229 298.188 247.804 297.879 247.031C297.454 245.988 297.145 244.906 296.952 243.824C296.798 243.013 297.493 242.279 298.265 242.163C298.999 242.047 299.655 242.356 299.926 243.013C300.35 244.056 300.621 245.138 301.045 246.297Z" fill="#FECCBE"/>
<path d="M245.867 173.73C239.458 173.652 235.21 167.817 236.909 161.596C237.952 157.694 240.346 155.143 244.091 153.713C248.416 152.052 254.131 154.254 256.023 159.162C258.108 164.533 255.443 169.865 251.312 172.3C249.42 173.459 248.223 173.73 245.867 173.73Z" fill="#FF61EF"/>
<path d="M182.194 164.147C182.349 169.209 178.256 173.575 172.773 173.575C167.406 173.575 162.502 168.706 162.579 163.374C162.656 158.544 167.251 153.945 171.962 153.984C177.445 154.061 182.156 158.737 182.194 164.147Z" fill="#FF61EF"/>
<path d="M466.001 246.684C465.692 247.07 465.422 247.573 465.036 247.92C464.534 248.345 463.916 248.152 463.53 247.727C462.835 246.993 462.256 246.182 461.676 245.332C458.085 239.96 454.147 234.86 449.513 230.377C443.876 224.929 437.659 220.369 430.477 216.969C420.322 212.178 409.896 208.391 399.123 205.261C395.223 204.14 391.401 202.788 387.539 201.513C383.369 200.122 379.16 198.885 375.029 197.301C370.202 195.446 365.298 193.669 360.703 191.234C355.104 188.259 349.505 185.361 344.177 181.96C340.354 179.526 336.917 176.589 333.365 173.768C332.129 172.764 330.894 171.759 329.735 170.716C327.032 168.32 324.523 165.692 322.322 162.794C318.692 158.042 314.947 153.366 311.394 148.536C308.421 144.517 306.181 140.112 304.174 135.514C302.629 131.998 301.046 128.52 299.926 124.81C299.385 123.071 298.922 121.333 298.459 119.594C298.227 118.705 298.729 118.087 299.385 117.584C299.926 117.198 300.853 117.314 301.2 117.855C301.548 118.435 301.934 119.053 302.05 119.671C303.324 125.467 305.795 130.761 308.267 136.093C310.159 140.228 312.36 144.169 315.101 147.802C318.383 152.129 321.82 156.341 325.102 160.669C328.5 165.151 332.747 168.629 336.995 172.223C345.914 179.719 356.07 185.09 366.534 189.998C372.055 192.587 377.732 194.828 383.562 196.528C386.497 197.378 389.354 198.421 392.25 199.349C399.239 201.59 406.228 203.792 413.178 206.034C418.121 207.618 422.909 209.589 427.62 211.791C429.55 212.719 431.52 213.569 433.489 214.457C437.814 216.467 441.714 219.172 445.459 222.07C453.027 227.982 459.089 235.246 464.457 243.129C464.92 243.786 465.306 244.443 465.654 245.177C465.847 245.641 465.885 246.104 466.001 246.684Z" fill="white"/>
<path d="M465.731 291.392C465.692 292.319 465.074 292.976 464.418 293.092C463.8 293.208 463.259 293.054 462.912 292.551C462.487 291.894 462.101 291.199 461.792 290.465C460.518 287.451 459.205 284.437 457.969 281.423C455.228 274.699 451.714 268.401 447.428 262.527C445.768 260.247 443.798 258.2 441.868 256.113C437.582 251.437 433.103 246.994 427.89 243.284C424.376 240.811 420.669 238.647 416.962 236.522C410.244 232.735 403.332 229.489 395.995 227.094C394.181 226.475 392.327 225.973 390.512 225.432C384.682 223.693 378.89 221.838 373.021 220.215C367.383 218.67 361.823 216.815 356.262 214.96C354.679 214.419 353.058 213.878 351.513 213.221C341.281 208.739 331.125 204.064 322.167 197.185C321.086 196.374 319.966 195.601 318.846 194.828C313.209 191.003 308.112 186.559 303.324 181.729C301.239 179.604 299.617 177.169 298.536 174.387C298.266 173.653 298.111 172.88 298.034 172.107C297.995 171.528 298.266 171.025 298.883 170.794C299.578 170.562 300.428 170.755 300.737 171.257C300.968 171.644 301.2 172.03 301.355 172.455C302.899 176.628 305.911 179.642 309.077 182.618C314.136 187.332 319.696 191.428 325.449 195.215C327.148 196.335 328.731 197.61 330.43 198.692C332.438 199.968 334.407 201.281 336.531 202.325C341.898 204.991 347.266 207.618 352.749 210.014C356.031 211.444 359.506 212.487 362.943 213.569C368.194 215.231 373.523 216.699 378.813 218.322C384.411 220.061 390.088 221.491 395.687 223.268C402.444 225.432 409.047 228.098 415.263 231.653C418.893 233.74 422.638 235.595 426.114 237.874C430.747 240.927 435.149 244.25 439.049 248.23C441.752 250.974 444.416 253.756 447.042 256.577C450.787 260.557 453.606 265.194 456.232 269.946C458.819 274.583 460.904 279.452 462.951 284.398C463.761 286.369 464.611 288.339 465.422 290.349C465.654 290.812 465.731 291.276 465.731 291.392Z" fill="white"/>
<path d="M443.451 433.783C443.181 421.689 441.019 410.058 435.999 398.929C433.489 393.326 430.477 388.071 426.771 383.164C423.411 378.759 420.091 374.315 416.77 369.91C412.098 363.727 406.344 358.665 400.012 354.222C396.189 351.556 392.173 349.314 387.926 347.421C387.115 347.073 386.304 346.609 385.57 346.146C385.03 345.798 384.914 344.948 385.184 344.291C385.455 343.673 386.188 343.209 386.845 343.402C387.694 343.634 388.582 343.905 389.393 344.291C392.598 345.721 395.687 347.344 398.66 349.198C403.332 352.174 407.773 355.497 411.905 359.206C415.109 362.066 417.774 365.466 420.399 368.867C423.025 372.267 425.496 375.783 428.161 379.145C436.771 390.081 442.293 402.446 445.112 416.047C445.652 418.598 445.961 421.148 446.27 423.737C446.695 427.678 446.888 431.62 446.888 435.561C446.927 440.7 445.961 445.646 444.108 450.438C441.946 456.079 439.165 461.334 435.767 466.28C435.381 466.821 434.957 467.362 434.493 467.865C434.068 468.329 433.142 468.328 432.601 468.019C431.945 467.633 431.559 466.628 431.868 465.971C432.061 465.585 432.292 465.199 432.563 464.812C436.656 459.209 439.667 453.027 441.868 446.458C443.22 442.4 443.567 438.111 443.451 433.783Z" fill="white"/>
<path d="M93.0372 137.369C92.5738 137.871 92.1491 138.528 91.5313 138.992C90.1798 139.997 88.7511 140.885 87.3225 141.851C83.3067 144.595 79.1751 147.145 75.3138 150.12C70.9891 153.444 67.3981 157.501 64.116 161.867C60.9111 166.118 58.4398 170.832 56.0458 175.546C54.733 178.058 53.9607 180.801 53.4201 183.584C52.6092 187.911 51.8756 192.239 51.9142 196.683C51.9914 202.015 52.9182 207.232 54.3082 212.371C55.1577 215.424 56.2775 218.36 57.5517 221.258C57.9379 222.186 58.2854 223.152 58.5943 224.118C58.7873 224.698 58.2468 225.47 57.5903 225.741C57.0111 225.973 56.4319 225.934 56.0072 225.509C55.5438 225.045 55.1577 224.466 54.8874 223.847C52.7637 219.095 50.9489 214.226 49.9063 209.125C49.0182 204.72 48.3232 200.238 48.4776 195.678C48.8252 186.559 50.4083 177.749 55.1577 169.711C57.5131 165.731 59.7141 161.635 62.6873 158.042C66.7417 153.173 71.0663 148.575 76.3949 145.02C79.9473 142.624 83.5384 140.306 87.1294 137.91C88.0561 137.292 88.9828 136.635 89.9095 135.978C90.4887 135.553 91.1452 135.437 91.8402 135.63C92.6125 135.862 92.8055 136.519 93.0372 137.369Z" fill="white"/>
<path d="M413.719 434.827C413.565 440.7 412.986 446.535 410.978 452.138C409.395 456.543 407.117 460.562 404.298 464.271C402.908 466.087 401.286 467.633 399.317 468.87C396.923 470.377 394.529 471.845 392.057 473.236C391.517 473.545 390.783 473.7 390.127 473.738C389.355 473.777 388.621 473.043 388.505 472.27C388.389 471.613 388.737 470.918 389.393 470.608C389.702 470.454 390.011 470.377 390.32 470.222C392.868 468.986 395.301 467.556 397.579 465.894C399.355 464.619 400.861 463.151 402.136 461.373C405.495 456.736 407.889 451.674 409.086 446.071C410.244 440.507 410.553 434.866 410.013 429.224C409.665 425.746 408.545 422.385 407.117 419.177C404.684 413.806 401.865 408.628 398.043 404.146C395.842 401.557 393.409 399.2 391.015 396.804C389.277 395.027 387.463 393.326 385.686 391.549C384.721 390.583 383.833 389.578 382.945 388.535C382.211 387.646 382.52 386.564 383.601 386.023C383.949 385.869 384.489 385.907 384.837 386.023C385.223 386.178 385.57 386.526 385.879 386.873C389.625 390.622 393.332 394.447 397.154 398.157C401.093 401.982 404.221 406.387 406.846 411.14C407.927 413.111 408.97 415.12 409.935 417.168C412.638 422.694 413.99 428.567 413.719 434.827Z" fill="white"/>
<path d="M267.299 84.6626C259.151 84.624 252.162 83.001 245.405 80.2575C235.79 76.2775 227.45 70.4041 220.036 63.1396C213.356 56.6093 207.912 49.1902 203.239 41.1142C202.737 40.2255 202.235 39.3368 201.888 38.3707C201.733 37.907 201.811 37.2501 201.965 36.7478C202.158 35.975 203.355 35.6272 203.896 36.1296C204.321 36.4773 204.745 36.9024 205.054 37.3274C205.672 38.2934 206.174 39.2981 206.753 40.2641C211.503 48.5333 217.333 56.0296 224.322 62.5213C231.427 69.0903 239.381 74.3841 248.533 77.7459C252.239 79.1369 256.062 80.0257 259.962 80.6826C262.317 81.069 264.673 81.1463 267.028 81.2236C270.31 81.3008 273.554 80.8371 276.759 80.103C277.299 79.987 277.879 79.9098 278.419 79.9098C279.076 79.9098 279.693 80.4894 279.848 81.1463C280.002 81.8032 279.693 82.6533 279.076 82.8851C278.149 83.2329 277.184 83.6193 276.18 83.7739C272.975 84.2762 269.731 84.8558 267.299 84.6626Z" fill="white"/>
<path d="M203.161 66.9266C203.046 67.2744 202.93 67.9699 202.544 68.5109C201.115 70.6748 199.725 72.8773 198.142 74.9253C194.473 79.7167 190.072 83.7741 185.438 87.5609C177.02 94.4776 167.792 100.081 157.83 104.524C152.153 107.036 146.284 108.968 140.183 110.204C138.639 110.514 137.056 110.63 135.511 110.784C135.279 110.823 135.086 110.745 134.855 110.707C133.967 110.552 133.349 109.973 133.272 109.2C133.194 108.35 133.619 107.731 134.546 107.461C134.971 107.345 135.395 107.19 135.859 107.152C142.462 106.727 148.678 104.64 154.702 102.128C166.672 97.1052 177.484 90.3044 187.098 81.5329C191.964 77.0892 196.404 72.2977 199.725 66.5788C199.995 66.1151 200.458 65.7674 200.883 65.4196C201.54 64.8013 203.084 65.5742 203.161 66.9266Z" fill="white"/>
<path d="M134.353 92.0044C133.156 92.0044 132.461 91.4635 132.23 90.652C132.075 89.9951 132.616 89.0291 133.311 88.7586C134.044 88.4881 134.817 88.2949 135.589 88.1017C146.015 85.6673 155.629 81.3395 164.742 75.8139C171.036 71.9884 176.905 67.6606 182.156 62.4441C184.705 59.8938 186.983 57.073 188.914 54.0204C189.338 53.3635 189.84 52.7452 190.381 52.2042C190.767 51.8178 191.81 51.8951 192.273 52.3202C192.698 52.7066 193.045 53.2475 192.775 53.8272C192.234 54.9477 191.694 56.0683 191.037 57.1116C188.026 61.8258 184.126 65.7672 179.878 69.3222C170.65 77.089 160.34 83.0397 149.142 87.5221C144.856 89.2223 140.454 90.6906 135.975 91.7339C135.319 91.8112 134.662 91.9272 134.353 92.0044Z" fill="white"/>
<path d="M104.042 151.009C104.466 151.434 104.968 151.743 105.2 152.207C105.354 152.554 105.354 153.134 105.123 153.482C104.775 154.023 104.273 154.564 103.733 154.95C101.493 156.573 99.7169 158.582 98.1724 160.824C96.6278 163.065 95.0447 165.267 93.6546 167.586C91.1062 171.798 89.7547 176.435 89.1369 181.303C88.9824 182.54 88.7121 183.776 88.6735 185.013C88.4032 191.775 89.4072 198.305 92.3418 204.449C92.5348 204.874 92.7665 205.261 92.9596 205.647C93.2685 206.343 92.7665 207.347 91.9943 207.502C91.1834 207.695 90.3725 207.618 89.8319 206.922C89.3686 206.304 88.9438 205.608 88.6735 204.874C87.2448 201.049 86.1251 197.185 85.5845 193.127C84.6964 186.481 85.5459 180.067 87.2448 173.691C88.0171 170.716 89.33 167.972 90.9903 165.383C92.6507 162.833 94.3497 160.283 96.0873 157.81C97.7476 155.491 99.7941 153.559 102.072 151.859C102.613 151.511 103.308 151.318 104.042 151.009Z" fill="white"/>
<path d="M429.589 348.619C429.28 349.083 429.049 349.624 428.662 349.933C428.199 350.319 427.581 350.203 427.079 349.856C426.616 349.546 426.23 349.121 425.844 348.735C422.909 345.914 420.052 343.055 417.04 340.311C411.48 335.172 405.533 330.535 398.737 327.057C397.656 326.478 396.575 325.821 395.571 325.087C395.146 324.778 394.799 324.275 394.606 323.773C394.374 323.232 394.528 322.652 394.953 322.227C395.378 321.802 395.88 321.648 396.498 321.802C396.614 321.841 396.729 321.841 396.807 321.918C402.483 325.164 408.12 328.448 413.256 332.544C418.391 336.64 423.102 341.161 427.697 345.798C428.16 346.262 428.624 346.764 429.01 347.344C429.319 347.653 429.396 348.117 429.589 348.619Z" fill="white"/>
<path d="M251.969 58.1936C251.583 58.0777 250.579 57.9231 249.614 57.5753C245.752 56.2615 242.2 54.2522 238.763 52.0883C233.087 48.5334 227.952 44.3215 223.434 39.3368C221.889 37.6366 220.654 35.7818 219.843 33.6566C219.65 33.1156 219.611 32.5746 219.882 32.0337C220.152 31.4927 220.499 31.0676 221.117 30.9904C221.735 30.9131 222.198 31.2222 222.584 31.6859C222.662 31.7632 222.739 31.8791 222.778 31.9564C224.785 36.7092 228.647 39.9164 232.354 43.2009C235.829 46.2535 239.767 48.7652 243.744 51.1223C246.177 52.552 248.726 53.7499 251.428 54.6C252.085 54.7932 252.703 55.025 253.321 55.3342C253.938 55.6433 254.209 56.3388 254.054 57.073C253.938 57.7299 253.359 58.155 251.969 58.1936Z" fill="white"/>
<path d="M148.254 69.5926C147.096 69.6312 146.323 68.9743 146.208 68.2015C146.092 67.5446 146.401 66.8104 147.018 66.5013C147.636 66.1922 148.254 65.9217 148.872 65.6898C155.899 63.2941 162.078 59.3527 167.947 54.909C170.766 52.7837 173.353 50.4266 175.245 47.4513C175.747 46.7171 176.364 46.3693 177.253 46.4853C178.218 46.6398 178.836 47.6445 178.488 48.4946C177.793 50.1948 176.635 51.5859 175.361 52.8997C172.851 55.5272 170.032 57.7684 167.059 59.8937C161.807 63.6418 156.17 66.7331 150.108 69.0129C149.412 69.2448 148.64 69.4766 148.254 69.5926Z" fill="white"/>
<path d="M212.467 196.026C203.122 195.639 195.593 192.509 189.26 186.52C189.029 186.288 188.758 186.056 188.565 185.786C187.947 185.013 187.986 183.854 188.565 183.313C189.106 182.849 190.11 182.811 190.766 183.313C191.23 183.661 191.616 184.047 192.04 184.433C193.932 186.056 195.94 187.525 198.103 188.723C202.003 190.925 206.25 192.239 210.652 192.432C218.413 192.741 225.093 190.23 229.804 183.661C230.19 183.12 230.615 182.579 231.078 182.076C231.503 181.613 232.391 181.574 232.97 181.922C233.55 182.231 233.936 183.081 233.704 183.661C233.472 184.279 233.202 184.936 232.816 185.477C229.186 190.539 224.321 193.862 218.22 195.253C216.135 195.678 213.973 195.794 212.467 196.026Z" fill="#231F20"/>
<path d="M176.673 140.383C174.974 140.499 173.313 140.151 171.73 139.494C168.95 138.296 166.17 136.982 163.428 135.707C163.042 135.514 162.656 135.243 162.347 134.934C162.038 134.625 161.884 134.161 162.115 133.698C162.617 132.616 163.544 132.113 164.548 132.577C166.633 133.466 168.68 134.393 170.726 135.282C171.653 135.668 172.58 136.093 173.545 136.441C176.132 137.446 178.642 137.253 181.036 135.939C183.005 134.857 184.974 133.698 186.558 132.036C186.944 131.65 187.33 131.225 187.755 130.838C188.797 129.911 189.685 129.872 190.419 130.684C191.037 131.379 191.037 132.307 190.226 133.079C188.874 134.393 187.446 135.707 185.94 136.905C184.897 137.716 183.623 138.296 182.465 138.992C180.727 140.074 178.796 140.576 176.673 140.383Z" fill="#231F20"/>
<path d="M237.333 141.078C235.596 141.194 234.013 140.731 232.468 139.958C229.495 138.489 226.83 136.673 224.591 134.2C224.282 133.853 224.012 133.505 223.78 133.118C223.433 132.577 223.626 131.805 224.166 131.264C224.707 130.761 225.518 130.645 226.02 131.032C226.637 131.495 227.255 132.036 227.796 132.577C229.456 134.316 231.503 135.514 233.588 136.673C235.866 137.948 238.337 138.026 240.77 137.137C241.812 136.751 242.855 136.287 243.897 135.823C245.983 134.934 248.029 134.007 250.076 133.118C251.002 132.732 252.161 133.389 252.392 134.471C252.47 134.857 252.277 135.398 252.006 135.669C251.62 136.055 251.08 136.326 250.578 136.557C248.106 137.678 245.674 138.799 243.202 139.919C241.349 140.808 239.38 141.194 237.333 141.078Z" fill="#231F20"/>
<path d="M216.869 159.433C217.023 163.181 215.672 166.504 213.973 169.75C213.857 169.943 213.703 170.097 213.548 170.291C213.123 170.793 212.312 170.948 211.695 170.677C210.961 170.291 210.536 169.402 210.807 168.706C211 168.165 211.193 167.663 211.463 167.161C213.123 164.069 213.703 160.824 213.239 157.346C212.853 154.216 212.506 151.086 212.197 147.956C212.081 146.952 212.081 145.947 212.042 144.904C212.042 144.594 212.197 144.247 212.312 143.938C212.544 143.319 213.278 142.933 213.973 143.049C214.591 143.126 214.977 143.474 215.208 144.053C215.286 144.247 215.363 144.479 215.363 144.71C215.633 147.299 215.826 149.85 216.097 152.439C216.367 154.757 216.637 157.075 216.869 159.433Z" fill="#231F20"/>
<path d="M230.269 362.877C230.269 364.345 230.269 365.698 230.269 367.05C230.269 367.63 230.269 368.171 230.192 368.75C229.921 370.373 229.072 371.108 227.45 371.224C224.207 371.455 220.925 371.726 217.681 371.88C214.399 372.035 211.117 372.112 207.873 372.035C204.707 371.958 201.579 372.537 198.413 372.576C196.946 372.615 195.479 372.692 194.011 372.615C191.617 372.537 190.613 371.533 190.343 369.098C190.304 368.635 190.266 368.21 190.266 367.746C190.034 364.036 189.687 360.327 189.146 356.656C188.721 353.758 188.528 350.821 188.374 347.884C188.296 346.339 189.03 345.257 190.497 344.832C191.579 344.484 192.698 344.291 193.818 344.213C203.278 343.518 212.777 343.286 222.237 343.402C223.01 343.402 223.821 343.441 224.593 343.557C225.828 343.711 226.601 344.484 226.91 345.72C227.141 346.802 226.794 348.232 227.952 348.773C228.802 349.159 229.921 348.928 230.925 348.966C232.547 349.044 233.551 349.816 233.744 351.323C234.092 354.106 234.362 356.926 234.555 359.747C234.671 361.525 234.053 362.182 232.277 362.491C231.929 362.529 231.582 362.529 231.273 362.568C231.003 362.529 230.81 362.684 230.269 362.877ZM230.076 352.289C229.265 352.444 228.609 352.56 227.952 352.637C225.867 352.908 224.67 352.135 224.207 350.126C223.936 349.044 223.743 347.962 223.28 346.88C220.925 346.609 218.646 346.686 216.407 346.686C210.074 346.725 203.742 346.957 197.448 347.382C196.212 347.459 194.938 347.421 193.741 347.537C193.123 347.614 192.505 347.923 191.887 348.116C191.849 348.734 191.772 349.159 191.81 349.623C192.583 355.883 193.316 362.182 193.78 368.48C193.78 368.557 193.895 368.673 193.934 368.75C194.011 368.828 194.088 368.905 194.243 369.06C195.865 369.06 197.602 369.291 199.224 369.021C201.579 368.635 203.935 368.673 206.329 368.635C209.843 368.596 213.356 368.596 216.832 368.441C219.998 368.287 223.126 367.9 226.292 367.63C226.369 367.63 226.446 367.475 226.755 367.243C226.987 366.239 226.794 365.002 226.832 363.766C226.871 362.877 226.794 361.95 226.832 361.061C226.871 360.327 227.257 359.786 227.991 359.554C228.917 359.283 229.883 359.052 230.925 358.742C231.041 356.617 230.732 354.647 230.076 352.289Z" fill="#231F20"/>
<path d="M191.887 278.331C192.08 279.104 192.196 279.529 192.273 279.954C192.737 282.118 192.737 282.118 194.822 281.77C196.366 281.499 197.911 281.229 199.494 281.036C200.73 280.881 201.965 280.881 203.201 280.881C203.973 280.881 204.514 281.383 204.591 282.079C204.707 282.929 204.282 283.74 203.51 283.972C203.085 284.127 202.66 284.204 202.197 284.243C200.073 284.513 197.949 284.784 195.826 285.054C195.053 285.17 194.358 285.479 193.663 285.75C193.277 288.648 194.397 291.198 194.474 293.98C195.169 294.019 195.594 294.058 196.019 294.019C198.953 293.787 201.849 293.517 204.745 293.285C204.977 293.285 205.209 293.285 205.402 293.323C206.213 293.439 207.023 294.135 207.101 294.753C207.178 295.487 206.676 296.26 205.826 296.492C204.977 296.724 204.089 296.917 203.201 296.994C200.845 297.226 198.451 296.994 196.135 297.651C195.826 297.729 195.478 297.69 195.131 297.69C192.93 297.651 191.462 296.492 191.076 294.367C190.767 292.705 190.497 291.044 190.343 289.343C189.995 285.982 189.416 282.659 188.566 279.374C188.528 279.142 188.412 278.949 188.373 278.717C188.103 277.056 188.875 275.587 190.497 274.93C191.115 274.66 191.771 274.467 192.428 274.273C194.281 273.771 196.096 273.23 197.988 272.805C198.837 272.612 199.764 272.573 200.652 272.573C201.231 272.573 201.695 272.921 201.888 273.539C202.081 274.235 201.888 275.085 201.347 275.355C200.73 275.626 200.112 275.858 199.455 276.051C197.602 276.553 195.748 276.978 193.895 277.442C193.277 277.674 192.659 277.983 191.887 278.331Z" fill="#231F20"/>
<path d="M245.367 319.097C245.174 322.15 245.483 324.893 246.139 327.559C248.494 327.868 252.549 327.753 254.634 327.482C256.178 327.25 257.762 327.134 259.345 327.018C259.769 326.98 260.233 327.096 260.658 327.25C261.198 327.482 261.584 327.984 261.507 328.603C261.468 328.989 261.237 329.53 260.928 329.723C260.387 330.071 259.692 330.303 259.074 330.419C254.711 331.153 250.309 331.269 245.907 331.307C243.282 331.307 242.703 330.612 242.548 328.216C242.162 322.806 241.621 317.435 241.235 312.026C241.119 310.673 241.158 309.321 241.235 307.968C241.312 306.964 242.046 306.152 242.896 306.075C245.483 305.843 248.07 305.65 250.657 305.534C251.275 305.495 252.008 305.766 252.51 306.114C252.896 306.384 253.167 307.041 253.167 307.543C253.167 308.084 252.703 308.548 252.085 308.703C251.854 308.78 251.661 308.78 251.429 308.818C249.421 309.012 247.375 309.166 245.367 309.398C245.174 309.437 244.981 309.591 244.672 309.784C244.401 310.673 244.595 311.678 244.672 312.683C244.71 313.571 244.556 314.499 245.212 315.503C246.1 315.503 247.104 315.581 248.07 315.542C248.958 315.503 249.885 315.426 250.773 315.271C251.506 315.117 252.085 315.233 252.665 315.697C253.591 316.431 253.514 317.744 252.472 318.208C251.661 318.556 250.773 318.788 249.885 318.865C248.34 318.904 246.911 318.904 245.367 319.097Z" fill="#231F20"/>
<path d="M168.024 280.611C170.573 281.383 172.967 281.383 175.322 281.499C176.944 281.577 178.411 281.963 179.879 282.697C180.998 283.277 181.964 284.05 182.736 285.054C183.817 286.484 184.242 288.03 183.701 289.807C183.238 291.391 182.389 292.705 181.076 293.671C178.875 295.294 176.597 296.724 173.894 297.381C172.465 297.728 171.075 298.231 169.646 298.501C168.681 298.695 167.638 298.695 166.634 298.656C166.055 298.617 165.63 298.154 165.437 297.574C165.244 296.956 165.553 296.415 166.017 296.106C166.557 295.758 167.214 295.487 167.831 295.294C169.801 294.792 171.77 294.405 173.739 293.864C175.708 293.285 177.485 292.28 178.952 290.85C179.493 290.309 179.879 289.614 180.303 288.957C180.651 288.416 180.496 287.875 180.11 287.373C179.068 286.059 177.716 285.286 176.095 285.132C174.743 284.977 173.392 284.9 172.04 284.977C170.534 285.016 169.144 284.668 167.677 284.359C165.399 283.895 163.854 280.842 165.013 278.717C166.943 275.201 169.723 273.037 173.816 272.805C174.589 272.766 175.4 272.728 176.172 272.882C176.828 272.998 177.446 273.269 178.064 273.539C178.682 273.848 178.913 274.583 178.682 275.317C178.527 275.935 178.025 276.244 177.446 276.283C176.558 276.283 175.631 276.205 174.743 276.205C171.538 276.012 169.762 277.172 168.024 280.611Z" fill="#231F20"/>
<path d="M243.204 284.745C243.088 286.986 243.242 289.112 243.59 291.237C243.821 292.551 243.86 293.942 243.899 295.294C243.937 296.028 243.358 296.531 242.624 296.608C241.736 296.685 240.925 296.26 240.694 295.565C240.617 295.333 240.578 295.14 240.539 294.908C240.037 290.425 239.574 285.943 239.033 281.461C238.802 279.451 238.377 277.442 238.068 275.471C237.759 273.694 238.609 272.419 240.423 272.071C243.513 271.491 246.602 270.834 249.768 270.68C250.888 270.641 252.007 270.371 253.127 270.255C253.784 270.216 254.479 270.255 255.135 270.371C255.792 270.487 256.178 271.182 256.216 271.916C256.255 272.689 255.83 273.307 255.174 273.423C253.938 273.655 252.741 273.926 251.505 273.964C248.764 274.003 246.138 274.698 243.435 274.892C243.204 274.892 243.011 274.969 242.779 275.046C242.2 275.201 241.775 275.703 241.814 276.244C241.891 277.828 241.929 279.413 242.779 280.765C245.096 281.036 248.996 280.958 251.235 280.649C252.239 280.495 253.243 280.34 254.247 280.34C254.788 280.34 255.367 280.572 255.792 280.842C256.255 281.151 256.602 281.654 256.409 282.272C256.216 282.813 255.985 283.393 255.367 283.509C253.706 283.779 252.046 284.05 250.347 284.165C248.532 284.32 246.717 284.281 244.941 284.397C244.362 284.436 243.821 284.591 243.204 284.745Z" fill="#231F20"/>
<path d="M213.511 318.131C213.472 322.265 211.426 325.202 207.874 327.057C205.518 328.293 203.047 328.719 200.344 327.83C195.324 326.207 193.007 321.647 194.668 316.508C196.56 310.712 203.317 308.393 207.526 309.978C211.271 311.369 213.472 314.151 213.511 318.131ZM197.68 319.406C197.525 322.381 199.456 324.584 202.892 324.854C205.673 325.048 208.8 322.845 209.727 320.179C210.808 317.049 209.148 314.151 206.599 313.301C204.823 312.683 203.201 312.876 201.734 313.649C199.417 314.808 197.795 316.624 197.68 319.406Z" fill="#231F20"/>
<path d="M225.906 322.42C226.292 321.879 226.678 321.57 226.794 321.184C227.798 318.092 228.724 314.962 229.69 311.832C229.96 310.982 230.23 310.132 230.616 309.321C230.964 308.587 231.929 308.239 232.624 308.509C233.474 308.857 233.86 309.475 233.667 310.364C233.512 311.137 233.281 311.91 233.049 312.644C231.813 316.508 230.616 320.372 229.304 324.197C228.956 325.241 228.415 326.323 227.72 327.173C226.678 328.448 225.442 328.371 224.593 327.25C223.975 326.477 223.473 325.55 223.087 324.623C222.044 322.265 221.079 319.831 220.036 317.474C219.303 315.812 218.492 314.228 217.72 312.567C217.565 312.257 217.449 311.871 217.527 311.601C217.72 311.098 218.029 310.596 218.453 310.287C218.917 309.9 219.612 310.016 219.998 310.403C220.538 310.944 221.079 311.562 221.426 312.257C222.353 314.19 223.164 316.16 224.014 318.131C224.67 319.522 225.249 320.836 225.906 322.42Z" fill="#231F20"/>
<path d="M178.064 330.612C179.648 330.805 180.845 330.998 182.08 331.076C183.663 331.192 185.246 331.192 186.83 331.308C187.602 331.385 188.374 331.617 189.108 331.887C189.88 332.196 190.035 333.742 189.339 334.206C188.799 334.553 188.065 335.017 187.525 334.901C184.822 334.399 182.119 334.553 179.416 334.36C178.528 334.283 177.64 334.09 176.79 333.819C175.439 333.433 174.744 332.467 174.705 331.076C174.705 330.419 174.705 329.723 174.782 329.028C175.13 326.246 175.477 323.425 175.825 320.643C176.172 317.976 176.443 315.272 176.79 312.605C176.906 311.601 177.176 310.635 177.485 309.669C177.717 308.973 178.528 308.625 179.107 308.78C179.725 308.934 180.265 309.553 180.227 310.287C180.15 312.103 180.072 313.881 179.879 315.697C179.532 318.711 179.107 321.725 178.759 324.739C178.644 325.511 178.528 326.284 178.451 327.096C178.296 328.139 178.219 329.144 178.064 330.612Z" fill="#231F20"/>
<path d="M219.65 292.048C220.886 293.014 221.89 293.053 222.932 293.053C224.863 293.053 226.755 293.053 228.686 293.053C229.265 293.053 229.805 293.053 230.385 293.13C230.964 293.207 231.543 293.941 231.582 294.598C231.62 295.217 231.157 296.028 230.578 296.221C230.153 296.337 229.689 296.453 229.265 296.453C226.678 296.453 224.091 296.414 221.465 296.376C221.233 296.376 221.002 296.376 220.77 296.337C217.449 295.951 216.715 295.255 216.329 291.971C216.291 291.507 216.252 291.082 216.252 290.618C216.175 285.209 216.136 279.76 216.098 274.35C216.098 273.887 216.098 273.462 216.136 272.998C216.214 272.148 216.87 271.491 217.642 271.414C218.53 271.337 219.303 272.071 219.38 273.075C219.418 273.655 219.418 274.196 219.457 274.776C219.496 279.412 219.573 284.049 219.611 288.686C219.65 289.807 219.65 290.927 219.65 292.048Z" fill="#231F20"/>
<path d="M211.966 357.699C211.927 357.004 211.966 356.579 211.85 356.154C211.58 355.188 211.155 354.26 210.924 353.256C210.576 351.787 211.696 350.59 213.24 350.783C213.588 350.821 213.935 350.821 214.244 350.976C217.063 352.135 219.882 353.256 222.662 354.454C223.241 354.724 223.782 355.188 224.245 355.651C224.901 356.308 224.631 357.468 223.82 357.97C223.28 358.318 222.739 358.202 222.199 357.97C220.422 357.236 218.685 356.463 216.909 355.729C216.522 355.574 216.059 355.342 215.673 355.729C215.596 355.845 215.48 355.922 215.48 355.999C215.789 356.965 216.175 357.893 216.407 358.897C216.638 359.863 216.754 360.868 216.793 361.873C216.831 362.684 215.634 363.496 214.823 363.302C214.399 363.186 213.935 363.071 213.549 362.839C212.352 362.182 211.194 361.525 210.074 360.791C208.298 359.593 206.483 358.511 204.514 357.622C203.896 357.352 203.239 357.043 202.853 356.54C202.544 356.192 202.506 355.497 202.583 354.995C202.66 354.376 203.239 354.067 203.819 354.106C204.475 354.144 205.17 354.222 205.788 354.492C207.332 355.188 208.8 355.999 210.306 356.772C210.769 357.081 211.232 357.313 211.966 357.699Z" fill="#231F20"/>
<path d="M199.07 361.602C199.07 362.839 199.108 364.075 199.07 365.35C199.031 366.2 198.297 366.973 197.602 366.973C196.753 366.973 195.865 366.162 195.749 365.312C195.749 365.196 195.71 365.08 195.71 364.964C195.903 360.752 195.363 356.617 194.9 352.483C194.822 351.826 194.861 351.13 194.938 350.473C195.015 349.855 195.479 349.507 196.058 349.391C196.637 349.314 197.255 349.43 197.564 349.932C197.911 350.512 198.143 351.169 198.22 351.826C198.568 355.072 198.877 358.318 199.186 361.602C199.186 361.602 199.147 361.602 199.07 361.602Z" fill="#231F20"/>
</g>
<path d="M33.8088 432.809L57 427.5L33.8088 422.098L28.5 399L23.098 422.098L0 427.5L23.098 432.809L28.5 456L33.8088 432.809Z" fill="#A383FF"/>
<defs>
<clipPath id="clip0">
<rect width="229" height="560" fill="white" transform="translate(374)"/>
</clipPath>
<clipPath id="clip1">
<rect width="480" height="497" fill="white" transform="translate(15)"/>
</clipPath>
</defs>
</svg>
