<svg width="89" height="68" viewBox="0 0 89 68" fill="none" xmlns="http://www.w3.org/2000/svg">
<g clip-path="url(#clip0)">
<path d="M58.1352 33.9572C57.065 33.1436 56.6797 31.9874 56.2088 30.8741C52.5272 21.8816 48.8885 12.8463 45.1641 3.8539C44.6932 2.74055 44.0082 1.71285 43.4089 0.685139C43.1521 0.256927 42.1246 0.256927 41.7822 0.599496C41.3969 1.07053 40.926 1.45592 40.5835 1.96977C39.7273 3.34005 38.9568 4.75315 38.1434 6.16625C34.6331 12.3325 31.1227 18.4987 27.5696 24.665C26.9702 25.6927 26.2425 26.6776 25.5575 27.7053C25.2579 28.1763 24.4017 28.1335 23.9736 27.6625C23.2887 26.8917 22.6037 26.1637 22.0044 25.3501C16.6533 18.4559 11.3449 11.5189 5.99381 4.62469C4.88078 3.16877 3.68212 1.79849 2.48347 0.428212C2.22662 0.171285 1.75571 0 1.41325 0C1.07077 0 0.514259 0.256927 0.428642 0.471033C0.171791 1.4131 -0.0850677 2.44081 -0.0422592 3.42569C0.171783 9.7204 0.514252 16.0151 0.771111 22.267C1.07077 29.1612 1.24201 36.0554 1.54167 42.9496C1.79853 49.0302 2.141 55.1108 2.48347 61.1914C2.56909 62.9471 3.29684 63.7179 5.09483 63.9748C6.50752 64.1889 7.92022 64.3174 9.33292 64.403C19.8639 64.9597 30.395 65.4736 40.926 66.0731C50.4296 66.6297 59.976 67.3149 69.4796 67.9572C70.5926 68.0428 71.4488 67.529 71.8341 66.5013C72.1766 65.5592 72.5619 64.6171 72.8615 63.6322C78.0842 47.1889 83.3069 30.7456 88.444 14.3023C88.7437 13.3602 88.8721 12.3325 89.0005 11.3476C89.0433 11.005 88.7437 10.534 88.4868 10.3199C88.23 10.1486 87.6734 10.1058 87.3738 10.2343C86.5176 10.7481 85.6614 11.3048 84.8909 11.9471C77.0996 18.5416 69.3512 25.0932 61.6027 31.6448C60.5325 32.5441 59.5907 33.6146 58.1352 33.9572Z" fill="#FFEE54"/>
<path d="M3.89589 39.6952C3.89589 43.7204 3.85308 47.7884 3.89589 51.8136C3.89589 52.5843 4.10993 53.3979 4.32398 54.1687C4.62364 55.2821 5.8223 56.1385 7.02095 56.267C8.34803 56.3526 9.50387 55.7531 9.97477 54.6398C10.2744 53.9118 10.6597 53.141 10.7025 52.3702C10.9166 49.9723 11.1306 47.5315 11.1306 45.0906C11.0878 39.8236 11.045 34.5566 10.7881 29.3325C10.6597 26.2922 10.146 23.2947 9.84634 20.2972C9.80354 20.0831 9.76073 19.9118 9.71792 19.6977C9.37544 18.67 8.6905 17.9848 7.66308 17.6851C6.97814 17.471 5.60825 18.4131 5.30859 19.2695C4.4096 21.7531 3.89589 24.3224 3.89589 26.9773C3.89589 31.2166 3.89589 35.4559 3.89589 39.738C3.85308 39.6952 3.89589 39.6952 3.89589 39.6952Z" fill="white"/>
<path d="M41.953 8.69238C41.7389 8.7352 41.5249 8.69238 41.3537 8.77803C41.0112 8.94931 40.5831 9.07777 40.3263 9.37752C36.6447 13.9166 33.3912 18.7554 30.737 24.0224C30.4802 24.5362 30.4374 25.1785 30.3089 25.778C30.1805 26.4203 30.8226 27.4909 31.422 27.7478C31.8072 27.9191 32.8347 27.6622 33.1343 27.3624C33.5624 26.9342 33.9905 26.506 34.333 26.035C36.6447 22.4808 38.9564 18.9266 41.1824 15.3725C42.1242 13.8309 43.0232 12.2465 43.4085 10.4481C43.5369 9.89138 42.5523 8.69238 41.953 8.69238Z" fill="white"/>
<path d="M77.0137 21.0244C76.7996 21.0672 76.5856 21.0244 76.4572 21.1101C74.6592 22.0949 73.2465 23.4224 72.2191 25.2209C72.0478 25.5206 72.1334 25.9917 72.2191 26.3342C72.3047 26.7196 73.3749 27.1478 73.7602 27.0194C75.6866 26.2914 77.1421 24.964 78.1695 23.2083C78.512 22.6516 78.3408 22.0521 77.9983 21.5811C77.7842 21.2813 77.3562 21.1957 77.0137 21.0244Z" fill="white"/>
</g>
<defs>
<clipPath id="clip0">
<rect width="89" height="68" fill="white" transform="matrix(-1 0 0 1 89 0)"/>
</clipPath>
</defs>
</svg>
