<svg width="300" height="180" viewBox="0 0 300 180" fill="none" xmlns="http://www.w3.org/2000/svg">
<g clip-path="url(#clip0_805_4)">
<g clip-path="url(#clip1_805_4)">
<path d="M298.562 83.0956C298.945 91.7512 286.457 98.0646 282.681 106.081C279.188 113.436 283.044 126.799 276.501 133.339C270.762 139.118 257.017 135.86 249.27 140.74C242.285 145.11 239.709 158.958 231.35 162.442C223.668 165.689 211.85 158.002 203.18 160.335C195.074 162.545 188.851 175.202 180.051 176.516C171.681 177.778 161.979 167.565 153.142 167.927C144.304 168.289 135.517 179.307 127.074 178.779C118.2 178.19 110.918 166.148 102.642 164.62C93.8199 163.032 82.706 171.66 74.7771 169.152C66.1412 166.382 62.3506 152.813 55.0376 149.071C46.9242 144.887 33.5242 149.333 27.2536 144.078C20.2243 138.132 22.8725 124.532 18.751 117.476C14.3025 109.79 1.34297 104.524 0.960791 95.8686C0.601974 87.2581 13.0657 80.8996 16.8876 72.8598C20.38 65.5053 16.5245 52.1415 23.0226 45.6252C28.7611 39.846 42.5061 43.1043 50.2537 38.2239C57.2382 33.8541 59.8146 20.0063 68.1732 16.5223C75.9235 13.2971 87.7411 20.9837 96.412 18.6513C104.518 16.441 110.741 3.78425 119.541 2.47022C127.91 1.20815 137.613 11.4212 146.45 11.0589C155.287 10.6966 164.074 -0.32156 172.517 0.206473C181.392 0.795904 188.673 12.8374 196.95 14.3656C205.772 15.9535 216.886 7.32567 224.814 9.8342C233.45 12.604 237.241 26.1728 244.554 29.9151C252.736 34.1203 266.091 29.6981 272.361 34.953C279.391 40.899 276.742 54.4986 280.864 61.5549C285.244 69.2195 298.18 74.4401 298.562 83.0956Z" fill="black"/>
</g>
<path d="M49.4316 81.0579C48.0775 81.0579 46.9785 80.6907 46.1348 79.9563C45.291 79.2219 44.8691 78.2037 44.8691 76.9016C44.8691 75.5995 45.291 74.5813 46.1348 73.8469C46.9785 73.1125 48.0775 72.7454 49.4316 72.7454C50.1816 72.7454 50.8561 72.8625 51.4551 73.0969C52.0645 73.3365 52.5358 73.6334 52.8691 73.9875C53.5514 74.7271 53.8926 75.4589 53.8926 76.1829H51.5254C51.4837 76.0214 51.4108 75.8521 51.3066 75.675C51.2129 75.524 51.0957 75.3782 50.9551 75.2375C50.7988 75.0969 50.5827 74.9771 50.3066 74.8782C50.0358 74.774 49.7441 74.7219 49.4316 74.7219C48.7441 74.7219 48.2103 74.925 47.8301 75.3313C47.4395 75.7375 47.2441 76.261 47.2441 76.9016C47.2441 77.5422 47.4395 78.0657 47.8301 78.4719C48.2103 78.8782 48.7441 79.0813 49.4316 79.0813C49.9629 79.0813 50.403 78.9563 50.752 78.7063C51.0957 78.4719 51.3118 78.2323 51.4004 77.9875L51.5254 77.6204H53.8926C53.8926 78.3495 53.5514 79.0787 52.8691 79.8079C52.541 80.1672 52.0697 80.4667 51.4551 80.7063C50.8561 80.9407 50.1816 81.0579 49.4316 81.0579ZM64.127 71.7532H59.791V69.6985H68.4629V71.7532L64.9707 73.7141L63.6738 74.0891V74.3235L65.1816 73.9719C66.3743 73.9719 67.3145 74.261 68.002 74.8391C68.6895 75.4224 69.0332 76.2532 69.0332 77.3313C69.0332 78.5188 68.6139 79.4381 67.7754 80.0891C66.9368 80.7349 65.7415 81.0579 64.1895 81.0579C62.6374 81.0579 61.4421 80.7349 60.6035 80.0891C59.7598 79.4485 59.3379 78.5188 59.3379 77.3V77.0422H61.8691V77.3C61.8691 78.3886 62.6426 78.9329 64.1895 78.9329C65.7363 78.9329 66.5098 78.399 66.5098 77.3313C66.5098 76.2532 65.7363 75.7141 64.1895 75.7141H60.877V74.1672L64.127 72.1047L65.4238 71.7297V71.4954L64.127 71.7532ZM72.666 73.4954H70.3926V71.925L73.0488 69.6985H75.1973V80.9016H72.666V73.4954ZM83.6191 80.9016H81.1191L82.8613 78.0891C82.7572 78.0631 82.5775 77.9589 82.3223 77.7766C82.1348 77.6464 81.9759 77.5006 81.8457 77.3391C81.6947 77.162 81.5645 76.9224 81.4551 76.6204C81.3509 76.3183 81.2988 75.9954 81.2988 75.6516C81.2988 73.8183 82.4707 72.9016 84.8145 72.9016H89.0723V80.9016H86.7676V78.4094H85.1348L83.6191 80.9016ZM86.7676 74.5969H85.1191C84.1504 74.5969 83.666 74.9485 83.666 75.6516C83.666 76.3547 84.1504 76.7063 85.1191 76.7063H86.7676V74.5969ZM99.7363 80.9016H97.4316V77.8938H93.6191V80.9016H91.3145V72.9016H93.6191V75.9094H97.4316V72.9016H99.7363V80.9016ZM110.15 78.675C110.15 79.5084 109.887 80.0865 109.361 80.4094C108.83 80.7375 107.952 80.9016 106.729 80.9016H101.971V72.9016H106.307C107.494 72.9016 108.356 73.0657 108.893 73.3938C109.434 73.7219 109.705 74.2506 109.705 74.9797C109.705 75.2349 109.661 75.4719 109.572 75.6907C109.484 75.9042 109.372 76.0683 109.236 76.1829C108.96 76.4172 108.715 76.5605 108.502 76.6125L108.361 76.6438V76.761C108.492 76.761 108.697 76.8183 108.979 76.9329C109.182 77.0214 109.364 77.1256 109.525 77.2454C109.702 77.3808 109.851 77.5761 109.971 77.8313C110.09 78.0865 110.15 78.3678 110.15 78.675ZM107.783 78.4407C107.783 77.873 107.361 77.5891 106.518 77.5891H104.275V79.2688H106.518C107.361 79.2688 107.783 78.9928 107.783 78.4407ZM104.275 76.1047H106.229C106.963 76.1047 107.33 75.8417 107.33 75.3157C107.33 74.7948 106.963 74.5344 106.229 74.5344H104.275V76.1047ZM111.666 78.6438C111.666 77.8209 112.005 77.2037 112.682 76.7922C113.359 76.386 114.215 76.1829 115.252 76.1829C115.788 76.1829 116.27 76.2375 116.697 76.3469C117.124 76.4667 117.421 76.5761 117.588 76.675L117.846 76.8547V75.6829C117.846 75.3391 117.715 75.05 117.455 74.8157C117.195 74.5865 116.76 74.4719 116.15 74.4719C115.713 74.4719 115.322 74.5527 114.979 74.7141C114.619 74.8808 114.439 75.136 114.439 75.4797H112.072C112.077 74.5683 112.447 73.8834 113.182 73.425C113.911 72.9719 114.9 72.7454 116.15 72.7454C117.416 72.7454 118.398 72.9902 119.096 73.4797C119.799 73.9693 120.15 74.7037 120.15 75.6829V78.1829C120.15 78.5058 120.189 78.7297 120.268 78.8547C120.346 78.9797 120.481 79.0422 120.674 79.0422L121.01 78.9797V80.9016C120.812 81.0058 120.481 81.0579 120.018 81.0579C119.419 81.0579 118.965 80.9277 118.658 80.6672C118.382 80.4433 118.208 80.2375 118.135 80.05L118.088 79.9407H117.971C117.971 79.9615 117.945 80.0084 117.893 80.0813C117.84 80.149 117.739 80.2428 117.588 80.3625C117.442 80.4823 117.268 80.5891 117.064 80.6829C116.533 80.9329 115.838 81.0579 114.979 81.0579C114.031 81.0579 113.242 80.8521 112.611 80.4407C111.981 80.0344 111.666 79.4355 111.666 78.6438ZM115.924 79.3157C116.335 79.3157 116.705 79.2636 117.033 79.1594C117.346 79.0605 117.562 78.9589 117.682 78.8547L117.846 78.7063V78.2297C117.804 78.1881 117.749 78.1438 117.682 78.0969C117.593 78.0396 117.387 77.9693 117.064 77.886C116.721 77.7974 116.34 77.7532 115.924 77.7532C114.663 77.7532 114.033 78.0136 114.033 78.5344C114.033 79.0553 114.663 79.3157 115.924 79.3157ZM130.627 73.8625C131.367 74.6021 131.736 75.6152 131.736 76.9016C131.736 78.1881 131.367 79.2011 130.627 79.9407C129.882 80.6855 128.96 81.0579 127.861 81.0579C127.257 81.0579 126.721 80.9615 126.252 80.7688C125.773 80.5813 125.445 80.3912 125.268 80.1985L125.018 79.925H124.916V84.1047H122.611V72.9016H124.916V74.2141H125.033C125.085 74.0995 125.218 73.9277 125.432 73.6985C125.598 73.5318 125.778 73.3834 125.971 73.2532C126.184 73.1125 126.46 72.9928 126.799 72.8938C127.143 72.7948 127.497 72.7454 127.861 72.7454C128.96 72.7454 129.882 73.1178 130.627 73.8625ZM128.768 78.4172C129.169 78.0266 129.369 77.5214 129.369 76.9016C129.369 76.287 129.169 75.7792 128.768 75.3782C128.367 74.9875 127.825 74.7922 127.143 74.7922C126.46 74.7922 125.919 74.9875 125.518 75.3782C125.117 75.7792 124.916 76.287 124.916 76.9016C124.916 77.537 125.119 78.0448 125.525 78.425C125.932 78.8157 126.471 79.011 127.143 79.011C127.83 79.011 128.372 78.8131 128.768 78.4172ZM135.76 80.9016H133.26L135.002 78.0891C134.898 78.0631 134.718 77.9589 134.463 77.7766C134.275 77.6464 134.117 77.5006 133.986 77.3391C133.835 77.162 133.705 76.9224 133.596 76.6204C133.492 76.3183 133.439 75.9954 133.439 75.6516C133.439 73.8183 134.611 72.9016 136.955 72.9016H141.213V80.9016H138.908V78.4094H137.275L135.76 80.9016ZM138.908 74.5969H137.26C136.291 74.5969 135.807 74.9485 135.807 75.6516C135.807 76.3547 136.291 76.7063 137.26 76.7063H138.908V74.5969ZM155.814 80.9016H153.51V74.886H149.682V80.9016H147.377V72.9016H155.814V80.9016ZM162.291 81.0579C160.937 81.0579 159.838 80.6907 158.994 79.9563C158.15 79.2219 157.729 78.2037 157.729 76.9016C157.729 75.5995 158.15 74.5813 158.994 73.8469C159.838 73.1125 160.937 72.7454 162.291 72.7454C163.645 72.7454 164.744 73.1125 165.588 73.8469C166.432 74.5813 166.854 75.5995 166.854 76.9016C166.854 78.2037 166.432 79.2219 165.588 79.9563C164.744 80.6907 163.645 81.0579 162.291 81.0579ZM162.291 79.0813C162.973 79.0813 163.51 78.8782 163.9 78.4719C164.291 78.0657 164.486 77.5422 164.486 76.9016C164.486 76.261 164.291 75.7375 163.9 75.3313C163.51 74.925 162.973 74.7219 162.291 74.7219C161.604 74.7219 161.07 74.925 160.689 75.3313C160.299 75.7375 160.104 76.261 160.104 76.9016C160.104 77.5422 160.299 78.0657 160.689 78.4719C161.07 78.8782 161.604 79.0813 162.291 79.0813ZM180.916 80.9016H178.385V78.5344H171.971V76.4407L177.572 69.6985H180.916V76.4563H182.4V78.5344H180.916V80.9016ZM178.744 71.4641H178.502L177.939 72.7454L174.9 76.386V76.4563H178.385V72.7454L178.744 71.4641ZM194.564 84.1047H192.26V81.0579C190.843 81.0006 189.726 80.6152 188.908 79.9016C188.09 79.1829 187.682 78.1829 187.682 76.9016C187.682 75.6204 188.09 74.6204 188.908 73.9016C189.726 73.1881 190.843 72.8027 192.26 72.7454V69.6985H194.564V72.7454C195.981 72.8027 197.098 73.1881 197.916 73.9016C198.734 74.6204 199.143 75.6204 199.143 76.9016C199.143 78.1829 198.734 79.1829 197.916 79.9016C197.098 80.6152 195.981 81.0006 194.564 81.0579V84.1047ZM194.564 74.5032V79.3C195.299 79.2948 195.851 79.0657 196.221 78.6125C196.59 78.1646 196.775 77.5943 196.775 76.9016C196.775 76.2089 196.59 75.6386 196.221 75.1907C195.851 74.7375 195.299 74.5084 194.564 74.5032ZM192.26 79.3V74.5032C191.531 74.5084 190.981 74.7375 190.611 75.1907C190.242 75.6386 190.057 76.2089 190.057 76.9016C190.057 77.5943 190.242 78.1646 190.611 78.6125C190.981 79.0657 191.531 79.2948 192.26 79.3ZM209.854 76.9016L209.807 77.511H203.166C203.166 77.9902 203.356 78.4016 203.736 78.7454C204.106 79.0943 204.64 79.2688 205.338 79.2688C205.734 79.2688 206.088 79.2011 206.4 79.0657C206.697 78.9303 206.893 78.7948 206.986 78.6594L207.135 78.4719H209.658C209.648 78.5448 209.624 78.636 209.588 78.7454C209.546 78.8756 209.432 79.0813 209.244 79.3625C209.046 79.6698 208.809 79.9355 208.533 80.1594C208.231 80.3938 207.807 80.5995 207.26 80.7766C206.687 80.9641 206.046 81.0579 205.338 81.0579C203.973 81.0579 202.867 80.6907 202.018 79.9563C201.169 79.2219 200.744 78.2037 200.744 76.9016C200.744 75.5995 201.166 74.5813 202.01 73.8469C202.854 73.1125 203.952 72.7454 205.307 72.7454C206.65 72.7454 207.744 73.1125 208.588 73.8469C209.432 74.5813 209.854 75.5995 209.854 76.9016ZM206.861 75.0266C206.492 74.6985 205.973 74.5344 205.307 74.5344C204.64 74.5344 204.124 74.7011 203.76 75.0344C203.385 75.373 203.197 75.7297 203.197 76.1047H207.4C207.4 75.7193 207.221 75.3599 206.861 75.0266ZM219.947 78.675C219.947 79.5084 219.684 80.0865 219.158 80.4094C218.627 80.7375 217.749 80.9016 216.525 80.9016H211.768V72.9016H216.104C217.291 72.9016 218.153 73.0657 218.689 73.3938C219.231 73.7219 219.502 74.2506 219.502 74.9797C219.502 75.2349 219.458 75.4719 219.369 75.6907C219.281 75.9042 219.169 76.0683 219.033 76.1829C218.757 76.4172 218.512 76.5605 218.299 76.6125L218.158 76.6438V76.761C218.288 76.761 218.494 76.8183 218.775 76.9329C218.979 77.0214 219.161 77.1256 219.322 77.2454C219.499 77.3808 219.648 77.5761 219.768 77.8313C219.887 78.0865 219.947 78.3678 219.947 78.675ZM217.58 78.4407C217.58 77.873 217.158 77.5891 216.314 77.5891H214.072V79.2688H216.314C217.158 79.2688 217.58 78.9928 217.58 78.4407ZM214.072 76.1047H216.025C216.76 76.1047 217.127 75.8417 217.127 75.3157C217.127 74.7948 216.76 74.5344 216.025 74.5344H214.072V76.1047ZM229.799 73.8625C230.538 74.6021 230.908 75.6152 230.908 76.9016C230.908 78.1881 230.538 79.2011 229.799 79.9407C229.054 80.6855 228.132 81.0579 227.033 81.0579C226.429 81.0579 225.893 80.9615 225.424 80.7688C224.945 80.5813 224.617 80.3912 224.439 80.1985L224.189 79.925H224.088V84.1047H221.783V72.9016H224.088V74.2141H224.205C224.257 74.0995 224.39 73.9277 224.604 73.6985C224.77 73.5318 224.95 73.3834 225.143 73.2532C225.356 73.1125 225.632 72.9928 225.971 72.8938C226.314 72.7948 226.669 72.7454 227.033 72.7454C228.132 72.7454 229.054 73.1178 229.799 73.8625ZM227.939 78.4172C228.34 78.0266 228.541 77.5214 228.541 76.9016C228.541 76.287 228.34 75.7792 227.939 75.3782C227.538 74.9875 226.997 74.7922 226.314 74.7922C225.632 74.7922 225.09 74.9875 224.689 75.3782C224.288 75.7792 224.088 76.287 224.088 76.9016C224.088 77.537 224.291 78.0448 224.697 78.425C225.104 78.8157 225.643 79.011 226.314 79.011C227.002 79.011 227.544 78.8131 227.939 78.4172ZM232.51 78.6438C232.51 77.8209 232.848 77.2037 233.525 76.7922C234.202 76.386 235.059 76.1829 236.096 76.1829C236.632 76.1829 237.114 76.2375 237.541 76.3469C237.968 76.4667 238.265 76.5761 238.432 76.675L238.689 76.8547V75.6829C238.689 75.3391 238.559 75.05 238.299 74.8157C238.038 74.5865 237.604 74.4719 236.994 74.4719C236.557 74.4719 236.166 74.5527 235.822 74.7141C235.463 74.8808 235.283 75.136 235.283 75.4797H232.916C232.921 74.5683 233.291 73.8834 234.025 73.425C234.755 72.9719 235.744 72.7454 236.994 72.7454C238.26 72.7454 239.242 72.9902 239.939 73.4797C240.643 73.9693 240.994 74.7037 240.994 75.6829V78.1829C240.994 78.5058 241.033 78.7297 241.111 78.8547C241.189 78.9797 241.325 79.0422 241.518 79.0422L241.854 78.9797V80.9016C241.656 81.0058 241.325 81.0579 240.861 81.0579C240.262 81.0579 239.809 80.9277 239.502 80.6672C239.226 80.4433 239.051 80.2375 238.979 80.05L238.932 79.9407H238.814C238.814 79.9615 238.788 80.0084 238.736 80.0813C238.684 80.149 238.583 80.2428 238.432 80.3625C238.286 80.4823 238.111 80.5891 237.908 80.6829C237.377 80.9329 236.682 81.0579 235.822 81.0579C234.874 81.0579 234.085 80.8521 233.455 80.4407C232.825 80.0344 232.51 79.4355 232.51 78.6438ZM236.768 79.3157C237.179 79.3157 237.549 79.2636 237.877 79.1594C238.189 79.0605 238.406 78.9589 238.525 78.8547L238.689 78.7063V78.2297C238.648 78.1881 238.593 78.1438 238.525 78.0969C238.437 78.0396 238.231 77.9693 237.908 77.886C237.564 77.7974 237.184 77.7532 236.768 77.7532C235.507 77.7532 234.877 78.0136 234.877 78.5344C234.877 79.0553 235.507 79.3157 236.768 79.3157ZM244.064 77.4797L244.65 72.9016H251.549V80.9016H249.244V74.886H246.674L246.268 78.0032C246.127 79.0917 245.843 79.873 245.416 80.3469C244.989 80.8209 244.382 81.0579 243.596 81.0579C243.221 81.0579 242.924 81.0162 242.705 80.9329L242.572 80.9016V78.9016C242.749 78.9433 242.916 78.9641 243.072 78.9641C243.374 78.9641 243.598 78.8469 243.744 78.6125C243.89 78.373 243.997 77.9954 244.064 77.4797ZM255.885 80.9016H253.385L255.127 78.0891C255.023 78.0631 254.843 77.9589 254.588 77.7766C254.4 77.6464 254.242 77.5006 254.111 77.3391C253.96 77.162 253.83 76.9224 253.721 76.6204C253.617 76.3183 253.564 75.9954 253.564 75.6516C253.564 73.8183 254.736 72.9016 257.08 72.9016H261.338V80.9016H259.033V78.4094H257.4L255.885 80.9016ZM259.033 74.5969H257.385C256.416 74.5969 255.932 74.9485 255.932 75.6516C255.932 76.3547 256.416 76.7063 257.385 76.7063H259.033V74.5969ZM97.1738 97.675C97.1738 98.5084 96.9108 99.0865 96.3848 99.4094C95.8535 99.7375 94.9759 99.9016 93.752 99.9016H88.9941V91.9016H93.3301C94.5176 91.9016 95.3796 92.0657 95.916 92.3938C96.4577 92.7219 96.7285 93.2506 96.7285 93.9797C96.7285 94.2349 96.6842 94.4719 96.5957 94.6907C96.5072 94.9042 96.3952 95.0683 96.2598 95.1829C95.9837 95.4172 95.7389 95.5605 95.5254 95.6125L95.3848 95.6438V95.761C95.515 95.761 95.7207 95.8183 96.002 95.9329C96.2051 96.0214 96.3874 96.1256 96.5488 96.2454C96.7259 96.3808 96.8743 96.5761 96.9941 96.8313C97.1139 97.0865 97.1738 97.3678 97.1738 97.675ZM94.8066 97.4407C94.8066 96.873 94.3848 96.5891 93.541 96.5891H91.2988V98.2688H93.541C94.3848 98.2688 94.8066 97.9928 94.8066 97.4407ZM91.2988 95.1047H93.252C93.9863 95.1047 94.3535 94.8417 94.3535 94.3157C94.3535 93.7948 93.9863 93.5344 93.252 93.5344H91.2988V95.1047ZM104.564 92.4954H102.291V90.925L104.947 88.6985H107.096V99.9016H104.564V92.4954ZM109.369 96.6204H112.041C112.036 96.6464 112.046 96.7037 112.072 96.7922C112.104 96.8756 112.166 96.9875 112.26 97.1282C112.354 97.2636 112.468 97.386 112.604 97.4954C112.749 97.6204 112.952 97.7245 113.213 97.8079C113.473 97.8912 113.755 97.9329 114.057 97.9329C114.89 97.9329 115.512 97.6672 115.924 97.136C116.33 96.6152 116.533 95.9042 116.533 95.0032H116.471C116.465 95.0084 116.452 95.0214 116.432 95.0422C116.416 95.0631 116.398 95.0865 116.377 95.1125C116.356 95.1334 116.317 95.1646 116.26 95.2063C116.208 95.248 116.145 95.2948 116.072 95.3469C115.926 95.4511 115.752 95.55 115.549 95.6438C115.049 95.8678 114.434 95.9797 113.705 95.9797C112.356 95.9797 111.281 95.649 110.479 94.9875C109.666 94.3261 109.26 93.4511 109.26 92.3625C109.26 91.1803 109.697 90.248 110.572 89.5657C111.452 88.8834 112.645 88.5422 114.15 88.5422C115.854 88.5422 117.124 89.0344 117.963 90.0188C118.791 91.0136 119.205 92.3782 119.205 94.1125V94.3469C119.205 96.0396 118.775 97.4146 117.916 98.4719C117.046 99.5292 115.765 100.058 114.072 100.058C113.275 100.058 112.562 99.9537 111.932 99.7454C111.301 99.537 110.804 99.2558 110.439 98.9016C109.726 98.2089 109.369 97.4485 109.369 96.6204ZM114.119 94.0266C114.755 94.0266 115.286 93.8808 115.713 93.5891C116.135 93.2974 116.346 92.8834 116.346 92.3469C116.346 91.8313 116.137 91.4198 115.721 91.1125C115.304 90.8157 114.77 90.6672 114.119 90.6672C113.426 90.6672 112.882 90.8183 112.486 91.1204C112.096 91.4172 111.9 91.8261 111.9 92.3469C111.9 92.873 112.104 93.2844 112.51 93.5813C112.911 93.8782 113.447 94.0266 114.119 94.0266ZM123.158 97.8469C123.408 98.0709 123.533 98.3808 123.533 98.7766C123.533 99.1724 123.408 99.4849 123.158 99.7141C122.903 99.9433 122.575 100.058 122.174 100.058C121.773 100.058 121.445 99.9433 121.189 99.7141C120.939 99.4849 120.814 99.1724 120.814 98.7766C120.814 98.3808 120.939 98.0709 121.189 97.8469C121.445 97.6178 121.773 97.5032 122.174 97.5032C122.575 97.5032 122.903 97.6178 123.158 97.8469ZM123.158 92.0891C123.408 92.3183 123.533 92.6282 123.533 93.0188C123.533 93.4198 123.408 93.7323 123.158 93.9563C122.903 94.1855 122.575 94.3 122.174 94.3C121.773 94.3 121.445 94.1855 121.189 93.9563C120.939 93.7323 120.814 93.4198 120.814 93.0188C120.814 92.6282 120.939 92.3183 121.189 92.0891C121.445 91.8599 121.773 91.7454 122.174 91.7454C122.575 91.7454 122.903 91.8599 123.158 92.0891ZM126.549 98.4719C125.606 97.4198 125.135 96.0292 125.135 94.3C125.135 92.5657 125.606 91.1724 126.549 90.1204C127.492 89.0683 128.796 88.5422 130.463 88.5422C132.13 88.5422 133.434 89.0683 134.377 90.1204C135.32 91.1724 135.791 92.5657 135.791 94.3C135.791 96.0292 135.32 97.4198 134.377 98.4719C133.429 99.5292 132.124 100.058 130.463 100.058C128.801 100.058 127.497 99.5292 126.549 98.4719ZM130.463 97.8235C131.327 97.8235 131.992 97.498 132.455 96.8469C132.919 96.1959 133.15 95.3469 133.15 94.3C133.15 93.2532 132.919 92.4042 132.455 91.7532C131.997 91.1073 131.333 90.7844 130.463 90.7844C129.593 90.7844 128.929 91.1073 128.471 91.7532C128.007 92.4042 127.775 93.2532 127.775 94.3C127.775 95.3469 128.007 96.1959 128.471 96.8469C128.934 97.498 129.598 97.8235 130.463 97.8235ZM139.127 98.4719C138.184 97.4198 137.713 96.0292 137.713 94.3C137.713 92.5657 138.184 91.1724 139.127 90.1204C140.07 89.0683 141.374 88.5422 143.041 88.5422C144.708 88.5422 146.012 89.0683 146.955 90.1204C147.898 91.1724 148.369 92.5657 148.369 94.3C148.369 96.0292 147.898 97.4198 146.955 98.4719C146.007 99.5292 144.702 100.058 143.041 100.058C141.38 100.058 140.075 99.5292 139.127 98.4719ZM143.041 97.8235C143.906 97.8235 144.57 97.498 145.033 96.8469C145.497 96.1959 145.729 95.3469 145.729 94.3C145.729 93.2532 145.497 92.4042 145.033 91.7532C144.575 91.1073 143.911 90.7844 143.041 90.7844C142.171 90.7844 141.507 91.1073 141.049 91.7532C140.585 92.4042 140.354 93.2532 140.354 94.3C140.354 95.3469 140.585 96.1959 141.049 96.8469C141.512 97.498 142.176 97.8235 143.041 97.8235ZM162.807 99.9016H160.502V93.886H156.674V99.9016H154.369V91.9016H162.807V99.9016ZM169.283 100.058C167.929 100.058 166.83 99.6907 165.986 98.9563C165.143 98.2219 164.721 97.2037 164.721 95.9016C164.721 94.5995 165.143 93.5813 165.986 92.8469C166.83 92.1125 167.929 91.7454 169.283 91.7454C170.637 91.7454 171.736 92.1125 172.58 92.8469C173.424 93.5813 173.846 94.5995 173.846 95.9016C173.846 97.2037 173.424 98.2219 172.58 98.9563C171.736 99.6907 170.637 100.058 169.283 100.058ZM169.283 98.0813C169.965 98.0813 170.502 97.8782 170.893 97.4719C171.283 97.0657 171.479 96.5422 171.479 95.9016C171.479 95.261 171.283 94.7375 170.893 94.3313C170.502 93.925 169.965 93.7219 169.283 93.7219C168.596 93.7219 168.062 93.925 167.682 94.3313C167.291 94.7375 167.096 95.261 167.096 95.9016C167.096 96.5422 167.291 97.0657 167.682 97.4719C168.062 97.8782 168.596 98.0813 169.283 98.0813ZM185.986 93.886L186.119 95.2297H186.307L186.439 93.886L188.533 88.6985H192.58V99.9016H190.049V92.4641L190.338 91.0344H190.072L189.682 92.4641L187.635 97.2141H184.791L182.744 92.4641L182.354 91.0344H182.088L182.369 92.4641V99.9016H179.846V88.6985H183.893L185.986 93.886ZM196.393 98.5032C195.346 97.4719 194.822 96.0709 194.822 94.3C194.822 92.5344 195.346 91.1308 196.393 90.0891C197.434 89.0579 198.846 88.5422 200.627 88.5422C202.335 88.5422 203.71 88.9797 204.752 89.8547C205.788 90.7297 206.307 91.8287 206.307 93.1516H203.604C203.598 93.0891 203.583 93.0032 203.557 92.8938C203.531 92.7792 203.458 92.5891 203.338 92.3235C203.202 92.0474 203.041 91.8079 202.854 91.6047C202.661 91.3964 202.372 91.2063 201.986 91.0344C201.59 90.8678 201.137 90.7844 200.627 90.7844C199.622 90.7844 198.843 91.1152 198.291 91.7766C197.739 92.4381 197.463 93.2792 197.463 94.3C197.463 95.3209 197.742 96.1646 198.299 96.8313C198.851 97.4928 199.627 97.8235 200.627 97.8235C201.117 97.8235 201.559 97.7454 201.955 97.5891C202.351 97.4329 202.653 97.2323 202.861 96.9875C203.278 96.498 203.51 96.0657 203.557 95.6907L203.604 95.4563H206.307C206.307 96.7844 205.788 97.8808 204.752 98.7454C203.71 99.6204 202.335 100.058 200.627 100.058C198.84 100.058 197.429 99.5396 196.393 98.5032ZM215.4 88.6985H218.408L213.861 94.2532L218.658 99.9016H215.65L210.994 94.3782V99.9016H208.471V88.6985H210.994V94.1125L215.4 88.6985Z" fill="#FF61EF"/>
</g>
<defs>
<clipPath id="clip0_805_4">
<rect width="300" height="180" fill="white"/>
</clipPath>
<clipPath id="clip1_805_4">
<rect width="271.721" height="204.754" fill="white" transform="translate(-18 61.2305) rotate(-27.4439)"/>
</clipPath>
</defs>
</svg>
