<svg width="334" height="304" viewBox="0 0 334 304" fill="none" xmlns="http://www.w3.org/2000/svg">
<g clip-path="url(#clip0)">
<path d="M315.909 148.954C316.073 157.616 303.43 163.612 299.452 171.531C295.775 178.795 299.292 192.252 292.586 198.624C286.704 204.257 273.045 200.652 265.177 205.336C258.084 209.528 255.159 223.306 246.715 226.578C238.954 229.63 227.334 221.647 218.607 223.76C210.448 225.765 203.908 238.26 195.077 239.352C186.678 240.402 177.237 229.947 168.393 230.086C159.55 230.225 150.487 241.018 142.06 240.277C133.204 239.464 126.228 227.243 117.993 225.506C109.214 223.696 97.8858 232.04 90.0227 229.332C81.4596 226.345 78.0128 212.685 70.7966 208.759C62.7914 204.372 49.2834 208.478 43.1475 203.067C36.2705 196.945 39.2613 183.417 35.3193 176.258C31.0662 168.462 18.2438 162.871 18.0802 154.209C17.9389 145.592 30.5592 139.55 34.5829 131.609C38.2598 124.345 34.743 110.889 41.4036 104.538C47.2862 98.906 60.9445 102.51 68.8128 97.8271C75.9054 93.635 78.8307 79.8566 87.2745 76.5848C95.1038 73.5564 106.724 81.5388 115.451 79.4261C123.61 77.4211 130.15 64.9256 138.98 63.8341C147.379 62.7838 156.821 73.2386 165.664 73.0995C174.508 72.9605 183.57 62.1676 191.997 62.9087C200.854 63.722 207.829 75.9434 216.065 77.6801C224.844 79.4902 236.172 71.1458 244.035 73.8537C252.598 76.8407 256.045 90.5008 263.261 94.4266C271.334 98.8371 284.796 94.7535 290.932 100.165C297.809 106.287 294.818 119.815 298.76 126.973C302.946 134.746 315.746 140.291 315.909 148.954Z" fill="#FFEE54"/>
</g>
<path d="M54 147L58.4297 141.352L54.2578 135.797H57.2656L61.2031 141.211V135.797H63.7266V141.211L67.6641 135.797H70.6719L66.4922 141.352L70.9297 147H67.9219L63.7266 141.477V147H61.2031V141.477L57.0078 147H54ZM73.3047 148.82H71V145.156H71.4688C71.8125 145.156 72.0521 145.026 72.1875 144.766C72.3229 144.505 72.4297 144.049 72.5078 143.398L73.0312 139H79.9141V145.156H81.0156V148.82H78.7109V147H73.3047V148.82ZM77.6094 140.844H75.1016L74.7109 143.883C74.6693 144.185 74.599 144.443 74.5 144.656C74.4062 144.87 74.3125 145 74.2188 145.047L74.0938 145.094V145.156H77.6094V140.844ZM81.2656 139H83.6641L86.2109 144.602H86.3359L88.4297 139H90.7969L87.4531 147.156C86.974 148.312 86.474 149.135 85.9531 149.625C85.4323 150.115 84.75 150.359 83.9062 150.359C83.7448 150.359 83.5391 150.346 83.2891 150.32C83.0807 150.299 82.901 150.271 82.75 150.234L82.5469 150.203V148.188C82.8438 148.323 83.2318 148.385 83.7109 148.375C84.0859 148.375 84.3724 148.292 84.5703 148.125C84.7734 147.948 84.9661 147.625 85.1484 147.156L81.2656 139ZM103.531 144.773C103.531 145.607 103.268 146.185 102.742 146.508C102.211 146.836 101.333 147 100.109 147H95.3516V139H99.6875C100.875 139 101.737 139.164 102.273 139.492C102.815 139.82 103.086 140.349 103.086 141.078C103.086 141.333 103.042 141.57 102.953 141.789C102.865 142.003 102.753 142.167 102.617 142.281C102.341 142.516 102.096 142.659 101.883 142.711L101.742 142.742V142.859C101.872 142.859 102.078 142.917 102.359 143.031C102.562 143.12 102.745 143.224 102.906 143.344C103.083 143.479 103.232 143.674 103.352 143.93C103.471 144.185 103.531 144.466 103.531 144.773ZM101.164 144.539C101.164 143.971 100.742 143.688 99.8984 143.688H97.6562V145.367H99.8984C100.742 145.367 101.164 145.091 101.164 144.539ZM97.6562 142.203H99.6094C100.344 142.203 100.711 141.94 100.711 141.414C100.711 140.893 100.344 140.633 99.6094 140.633H97.6562V142.203ZM105.047 144.742C105.047 143.919 105.385 143.302 106.062 142.891C106.74 142.484 107.596 142.281 108.633 142.281C109.169 142.281 109.651 142.336 110.078 142.445C110.505 142.565 110.802 142.674 110.969 142.773L111.227 142.953V141.781C111.227 141.438 111.096 141.148 110.836 140.914C110.576 140.685 110.141 140.57 109.531 140.57C109.094 140.57 108.703 140.651 108.359 140.812C108 140.979 107.82 141.234 107.82 141.578H105.453C105.458 140.667 105.828 139.982 106.562 139.523C107.292 139.07 108.281 138.844 109.531 138.844C110.797 138.844 111.779 139.089 112.477 139.578C113.18 140.068 113.531 140.802 113.531 141.781V144.281C113.531 144.604 113.57 144.828 113.648 144.953C113.727 145.078 113.862 145.141 114.055 145.141L114.391 145.078V147C114.193 147.104 113.862 147.156 113.398 147.156C112.799 147.156 112.346 147.026 112.039 146.766C111.763 146.542 111.589 146.336 111.516 146.148L111.469 146.039H111.352C111.352 146.06 111.326 146.107 111.273 146.18C111.221 146.247 111.12 146.341 110.969 146.461C110.823 146.581 110.648 146.688 110.445 146.781C109.914 147.031 109.219 147.156 108.359 147.156C107.411 147.156 106.622 146.951 105.992 146.539C105.362 146.133 105.047 145.534 105.047 144.742ZM109.305 145.414C109.716 145.414 110.086 145.362 110.414 145.258C110.727 145.159 110.943 145.057 111.062 144.953L111.227 144.805V144.328C111.185 144.286 111.13 144.242 111.062 144.195C110.974 144.138 110.768 144.068 110.445 143.984C110.102 143.896 109.721 143.852 109.305 143.852C108.044 143.852 107.414 144.112 107.414 144.633C107.414 145.154 108.044 145.414 109.305 145.414ZM120.234 147.156C118.88 147.156 117.781 146.789 116.938 146.055C116.094 145.32 115.672 144.302 115.672 143C115.672 141.698 116.094 140.68 116.938 139.945C117.781 139.211 118.88 138.844 120.234 138.844C120.984 138.844 121.659 138.961 122.258 139.195C122.867 139.435 123.339 139.732 123.672 140.086C124.354 140.826 124.695 141.557 124.695 142.281H122.328C122.286 142.12 122.214 141.951 122.109 141.773C122.016 141.622 121.898 141.477 121.758 141.336C121.602 141.195 121.385 141.076 121.109 140.977C120.839 140.872 120.547 140.82 120.234 140.82C119.547 140.82 119.013 141.023 118.633 141.43C118.242 141.836 118.047 142.359 118.047 143C118.047 143.641 118.242 144.164 118.633 144.57C119.013 144.977 119.547 145.18 120.234 145.18C120.766 145.18 121.206 145.055 121.555 144.805C121.898 144.57 122.115 144.331 122.203 144.086L122.328 143.719H124.695C124.695 144.448 124.354 145.177 123.672 145.906C123.344 146.266 122.872 146.565 122.258 146.805C121.659 147.039 120.984 147.156 120.234 147.156ZM145.211 147H130.668V144.34C130.668 143.551 130.855 142.832 131.23 142.184C131.613 141.535 132.133 141.008 132.789 140.602C133.75 140 135.211 139.367 137.172 138.703C137.812 138.492 138.355 138.293 138.801 138.105C139.246 137.91 139.68 137.68 140.102 137.414C140.531 137.148 140.852 136.848 141.062 136.512C141.281 136.176 141.391 135.809 141.391 135.41C141.391 133.902 140.312 133.148 138.156 133.148C137.078 133.148 136.266 133.383 135.719 133.852C135.18 134.32 134.91 134.977 134.91 135.82V136.512H131.125V135.82C131.125 133.883 131.719 132.422 132.906 131.438C134.102 130.453 135.852 129.961 138.156 129.961C140.438 129.961 142.18 130.426 143.383 131.355C144.586 132.285 145.188 133.637 145.188 135.41C145.188 136.41 144.938 137.289 144.438 138.047C143.922 138.82 143.289 139.422 142.539 139.852C141.758 140.312 140.938 140.719 140.078 141.07C139.164 141.445 138.344 141.746 137.617 141.973C136.844 142.207 136.211 142.48 135.719 142.793C135.211 143.113 134.957 143.453 134.957 143.812H145.211V147ZM162.508 147H147.965V144.34C147.965 143.551 148.152 142.832 148.527 142.184C148.91 141.535 149.43 141.008 150.086 140.602C151.047 140 152.508 139.367 154.469 138.703C155.109 138.492 155.652 138.293 156.098 138.105C156.543 137.91 156.977 137.68 157.398 137.414C157.828 137.148 158.148 136.848 158.359 136.512C158.578 136.176 158.688 135.809 158.688 135.41C158.688 133.902 157.609 133.148 155.453 133.148C154.375 133.148 153.562 133.383 153.016 133.852C152.477 134.32 152.207 134.977 152.207 135.82V136.512H148.422V135.82C148.422 133.883 149.016 132.422 150.203 131.438C151.398 130.453 153.148 129.961 155.453 129.961C157.734 129.961 159.477 130.426 160.68 131.355C161.883 132.285 162.484 133.637 162.484 135.41C162.484 136.41 162.234 137.289 161.734 138.047C161.219 138.82 160.586 139.422 159.836 139.852C159.055 140.312 158.234 140.719 157.375 141.07C156.461 141.445 155.641 141.746 154.914 141.973C154.141 142.207 153.508 142.48 153.016 142.793C152.508 143.113 152.254 143.453 152.254 143.812H162.508V147ZM164.781 140.73L170.629 138.316V141.34L164.781 143.766V140.73ZM187.352 147H172.809V144.34C172.809 143.551 172.996 142.832 173.371 142.184C173.754 141.535 174.273 141.008 174.93 140.602C175.891 140 177.352 139.367 179.312 138.703C179.953 138.492 180.496 138.293 180.941 138.105C181.387 137.91 181.82 137.68 182.242 137.414C182.672 137.148 182.992 136.848 183.203 136.512C183.422 136.176 183.531 135.809 183.531 135.41C183.531 133.902 182.453 133.148 180.297 133.148C179.219 133.148 178.406 133.383 177.859 133.852C177.32 134.32 177.051 134.977 177.051 135.82V136.512H173.266V135.82C173.266 133.883 173.859 132.422 175.047 131.438C176.242 130.453 177.992 129.961 180.297 129.961C182.578 129.961 184.32 130.426 185.523 131.355C186.727 132.285 187.328 133.637 187.328 135.41C187.328 136.41 187.078 137.289 186.578 138.047C186.062 138.82 185.43 139.422 184.68 139.852C183.898 140.312 183.078 140.719 182.219 141.07C181.305 141.445 180.484 141.746 179.758 141.973C178.984 142.207 178.352 142.48 177.859 142.793C177.352 143.113 177.098 143.453 177.098 143.812H187.352V147ZM204.52 135.117H200.512C200.512 135.062 200.496 134.98 200.465 134.871C200.434 134.754 200.355 134.59 200.23 134.379C200.113 134.16 199.961 133.965 199.773 133.793C199.305 133.363 198.617 133.148 197.711 133.148C196.562 133.148 195.695 133.547 195.109 134.344C194.523 135.156 194.23 136.223 194.23 137.543H194.324C194.52 137.348 194.723 137.176 194.934 137.027C195.191 136.848 195.453 136.699 195.719 136.582C196.469 136.246 197.387 136.078 198.473 136.078C200.496 136.078 202.113 136.574 203.324 137.566C204.543 138.559 205.152 139.871 205.152 141.504C205.152 143.285 204.496 144.684 203.184 145.699C201.863 146.723 200.07 147.234 197.805 147.234C195.242 147.234 193.34 146.496 192.098 145.02C190.848 143.551 190.223 141.508 190.223 138.891V138.527C190.223 135.988 190.859 133.926 192.133 132.34C193.414 130.754 195.266 129.961 197.688 129.961C199.969 129.961 201.676 130.488 202.809 131.543C203.949 132.598 204.52 133.789 204.52 135.117ZM197.852 139.008C196.898 139.008 196.102 139.227 195.461 139.664C194.828 140.109 194.512 140.73 194.512 141.527C194.512 142.309 194.824 142.922 195.449 143.367C196.066 143.82 196.867 144.047 197.852 144.047C198.891 144.047 199.707 143.824 200.301 143.379C200.895 142.926 201.191 142.309 201.191 141.527C201.191 140.754 200.887 140.137 200.277 139.676C199.668 139.23 198.859 139.008 197.852 139.008ZM218.078 150.203H215.773V147.156C214.357 147.099 213.24 146.714 212.422 146C211.604 145.281 211.195 144.281 211.195 143C211.195 141.719 211.604 140.719 212.422 140C213.24 139.286 214.357 138.901 215.773 138.844V135.797H218.078V138.844C219.495 138.901 220.612 139.286 221.43 140C222.247 140.719 222.656 141.719 222.656 143C222.656 144.281 222.247 145.281 221.43 146C220.612 146.714 219.495 147.099 218.078 147.156V150.203ZM218.078 140.602V145.398C218.812 145.393 219.365 145.164 219.734 144.711C220.104 144.263 220.289 143.693 220.289 143C220.289 142.307 220.104 141.737 219.734 141.289C219.365 140.836 218.812 140.607 218.078 140.602ZM215.773 145.398V140.602C215.044 140.607 214.495 140.836 214.125 141.289C213.755 141.737 213.57 142.307 213.57 143C213.57 143.693 213.755 144.263 214.125 144.711C214.495 145.164 215.044 145.393 215.773 145.398ZM233.367 143L233.32 143.609H226.68C226.68 144.089 226.87 144.5 227.25 144.844C227.62 145.193 228.154 145.367 228.852 145.367C229.247 145.367 229.602 145.299 229.914 145.164C230.211 145.029 230.406 144.893 230.5 144.758L230.648 144.57H233.172C233.161 144.643 233.138 144.734 233.102 144.844C233.06 144.974 232.945 145.18 232.758 145.461C232.56 145.768 232.323 146.034 232.047 146.258C231.745 146.492 231.32 146.698 230.773 146.875C230.201 147.062 229.56 147.156 228.852 147.156C227.487 147.156 226.38 146.789 225.531 146.055C224.682 145.32 224.258 144.302 224.258 143C224.258 141.698 224.68 140.68 225.523 139.945C226.367 139.211 227.466 138.844 228.82 138.844C230.164 138.844 231.258 139.211 232.102 139.945C232.945 140.68 233.367 141.698 233.367 143ZM230.375 141.125C230.005 140.797 229.487 140.633 228.82 140.633C228.154 140.633 227.638 140.799 227.273 141.133C226.898 141.471 226.711 141.828 226.711 142.203H230.914C230.914 141.818 230.734 141.458 230.375 141.125ZM243.461 144.773C243.461 145.607 243.198 146.185 242.672 146.508C242.141 146.836 241.263 147 240.039 147H235.281V139H239.617C240.805 139 241.667 139.164 242.203 139.492C242.745 139.82 243.016 140.349 243.016 141.078C243.016 141.333 242.971 141.57 242.883 141.789C242.794 142.003 242.682 142.167 242.547 142.281C242.271 142.516 242.026 142.659 241.812 142.711L241.672 142.742V142.859C241.802 142.859 242.008 142.917 242.289 143.031C242.492 143.12 242.674 143.224 242.836 143.344C243.013 143.479 243.161 143.674 243.281 143.93C243.401 144.185 243.461 144.466 243.461 144.773ZM241.094 144.539C241.094 143.971 240.672 143.688 239.828 143.688H237.586V145.367H239.828C240.672 145.367 241.094 145.091 241.094 144.539ZM237.586 142.203H239.539C240.273 142.203 240.641 141.94 240.641 141.414C240.641 140.893 240.273 140.633 239.539 140.633H237.586V142.203ZM253.312 139.961C254.052 140.701 254.422 141.714 254.422 143C254.422 144.286 254.052 145.299 253.312 146.039C252.568 146.784 251.646 147.156 250.547 147.156C249.943 147.156 249.406 147.06 248.938 146.867C248.458 146.68 248.13 146.49 247.953 146.297L247.703 146.023H247.602V150.203H245.297V139H247.602V140.312H247.719C247.771 140.198 247.904 140.026 248.117 139.797C248.284 139.63 248.464 139.482 248.656 139.352C248.87 139.211 249.146 139.091 249.484 138.992C249.828 138.893 250.182 138.844 250.547 138.844C251.646 138.844 252.568 139.216 253.312 139.961ZM251.453 144.516C251.854 144.125 252.055 143.62 252.055 143C252.055 142.385 251.854 141.878 251.453 141.477C251.052 141.086 250.51 140.891 249.828 140.891C249.146 140.891 248.604 141.086 248.203 141.477C247.802 141.878 247.602 142.385 247.602 143C247.602 143.635 247.805 144.143 248.211 144.523C248.617 144.914 249.156 145.109 249.828 145.109C250.516 145.109 251.057 144.911 251.453 144.516ZM256.023 144.742C256.023 143.919 256.362 143.302 257.039 142.891C257.716 142.484 258.573 142.281 259.609 142.281C260.146 142.281 260.628 142.336 261.055 142.445C261.482 142.565 261.779 142.674 261.945 142.773L262.203 142.953V141.781C262.203 141.438 262.073 141.148 261.812 140.914C261.552 140.685 261.117 140.57 260.508 140.57C260.07 140.57 259.68 140.651 259.336 140.812C258.977 140.979 258.797 141.234 258.797 141.578H256.43C256.435 140.667 256.805 139.982 257.539 139.523C258.268 139.07 259.258 138.844 260.508 138.844C261.773 138.844 262.755 139.089 263.453 139.578C264.156 140.068 264.508 140.802 264.508 141.781V144.281C264.508 144.604 264.547 144.828 264.625 144.953C264.703 145.078 264.839 145.141 265.031 145.141L265.367 145.078V147C265.169 147.104 264.839 147.156 264.375 147.156C263.776 147.156 263.323 147.026 263.016 146.766C262.74 146.542 262.565 146.336 262.492 146.148L262.445 146.039H262.328C262.328 146.06 262.302 146.107 262.25 146.18C262.198 146.247 262.096 146.341 261.945 146.461C261.799 146.581 261.625 146.688 261.422 146.781C260.891 147.031 260.195 147.156 259.336 147.156C258.388 147.156 257.599 146.951 256.969 146.539C256.339 146.133 256.023 145.534 256.023 144.742ZM260.281 145.414C260.693 145.414 261.062 145.362 261.391 145.258C261.703 145.159 261.919 145.057 262.039 144.953L262.203 144.805V144.328C262.161 144.286 262.107 144.242 262.039 144.195C261.951 144.138 261.745 144.068 261.422 143.984C261.078 143.896 260.698 143.852 260.281 143.852C259.021 143.852 258.391 144.112 258.391 144.633C258.391 145.154 259.021 145.414 260.281 145.414ZM267.578 143.578L268.164 139H275.062V147H272.758V140.984H270.188L269.781 144.102C269.641 145.19 269.357 145.971 268.93 146.445C268.503 146.919 267.896 147.156 267.109 147.156C266.734 147.156 266.438 147.115 266.219 147.031L266.086 147V145C266.263 145.042 266.43 145.062 266.586 145.062C266.888 145.062 267.112 144.945 267.258 144.711C267.404 144.471 267.51 144.094 267.578 143.578ZM279.398 147H276.898L278.641 144.188C278.536 144.161 278.357 144.057 278.102 143.875C277.914 143.745 277.755 143.599 277.625 143.438C277.474 143.26 277.344 143.021 277.234 142.719C277.13 142.417 277.078 142.094 277.078 141.75C277.078 139.917 278.25 139 280.594 139H284.852V147H282.547V144.508H280.914L279.398 147ZM282.547 140.695H280.898C279.93 140.695 279.445 141.047 279.445 141.75C279.445 142.453 279.93 142.805 280.898 142.805H282.547V140.695ZM64.5781 173H54.8828V171.227C54.8828 170.701 55.0078 170.221 55.2578 169.789C55.513 169.357 55.8594 169.005 56.2969 168.734C56.9375 168.333 57.9115 167.911 59.2188 167.469C59.6458 167.328 60.0078 167.195 60.3047 167.07C60.6016 166.94 60.8906 166.786 61.1719 166.609C61.4583 166.432 61.6719 166.232 61.8125 166.008C61.9583 165.784 62.0312 165.539 62.0312 165.273C62.0312 164.268 61.3125 163.766 59.875 163.766C59.1562 163.766 58.6146 163.922 58.25 164.234C57.8906 164.547 57.7109 164.984 57.7109 165.547V166.008H55.1875V165.547C55.1875 164.255 55.5833 163.281 56.375 162.625C57.1719 161.969 58.3385 161.641 59.875 161.641C61.3958 161.641 62.5573 161.951 63.3594 162.57C64.1615 163.19 64.5625 164.091 64.5625 165.273C64.5625 165.94 64.3958 166.526 64.0625 167.031C63.7188 167.547 63.2969 167.948 62.7969 168.234C62.276 168.542 61.7292 168.812 61.1562 169.047C60.5469 169.297 60 169.497 59.5156 169.648C59 169.805 58.5781 169.987 58.25 170.195C57.9115 170.409 57.7422 170.635 57.7422 170.875H64.5781V173ZM67.9062 171.57C66.9635 170.518 66.4922 169.128 66.4922 167.398C66.4922 165.664 66.9635 164.271 67.9062 163.219C68.849 162.167 70.1536 161.641 71.8203 161.641C73.487 161.641 74.7917 162.167 75.7344 163.219C76.6771 164.271 77.1484 165.664 77.1484 167.398C77.1484 169.128 76.6771 170.518 75.7344 171.57C74.7865 172.628 73.4818 173.156 71.8203 173.156C70.1589 173.156 68.8542 172.628 67.9062 171.57ZM71.8203 170.922C72.6849 170.922 73.349 170.596 73.8125 169.945C74.276 169.294 74.5078 168.445 74.5078 167.398C74.5078 166.352 74.276 165.503 73.8125 164.852C73.3542 164.206 72.6901 163.883 71.8203 163.883C70.9505 163.883 70.2865 164.206 69.8281 164.852C69.3646 165.503 69.1328 166.352 69.1328 167.398C69.1328 168.445 69.3646 169.294 69.8281 169.945C70.2917 170.596 70.9557 170.922 71.8203 170.922ZM88.6875 173H78.9922V171.227C78.9922 170.701 79.1172 170.221 79.3672 169.789C79.6224 169.357 79.9688 169.005 80.4062 168.734C81.0469 168.333 82.0208 167.911 83.3281 167.469C83.7552 167.328 84.1172 167.195 84.4141 167.07C84.7109 166.94 85 166.786 85.2812 166.609C85.5677 166.432 85.7812 166.232 85.9219 166.008C86.0677 165.784 86.1406 165.539 86.1406 165.273C86.1406 164.268 85.4219 163.766 83.9844 163.766C83.2656 163.766 82.724 163.922 82.3594 164.234C82 164.547 81.8203 164.984 81.8203 165.547V166.008H79.2969V165.547C79.2969 164.255 79.6927 163.281 80.4844 162.625C81.2812 161.969 82.4479 161.641 83.9844 161.641C85.5052 161.641 86.6667 161.951 87.4688 162.57C88.2708 163.19 88.6719 164.091 88.6719 165.273C88.6719 165.94 88.5052 166.526 88.1719 167.031C87.8281 167.547 87.4062 167.948 86.9062 168.234C86.3854 168.542 85.8385 168.812 85.2656 169.047C84.6562 169.297 84.1094 169.497 83.625 169.648C83.1094 169.805 82.6875 169.987 82.3594 170.195C82.0208 170.409 81.8516 170.635 81.8516 170.875H88.6875V173ZM92.3906 165.594H90.1172V164.023L92.7734 161.797H94.9219V173H92.3906V165.594ZM101.242 173V165H108.031V166.984H103.547V173H101.242ZM113.141 173.156C111.786 173.156 110.688 172.789 109.844 172.055C109 171.32 108.578 170.302 108.578 169C108.578 167.698 109 166.68 109.844 165.945C110.688 165.211 111.786 164.844 113.141 164.844C114.495 164.844 115.594 165.211 116.438 165.945C117.281 166.68 117.703 167.698 117.703 169C117.703 170.302 117.281 171.32 116.438 172.055C115.594 172.789 114.495 173.156 113.141 173.156ZM113.141 171.18C113.823 171.18 114.359 170.977 114.75 170.57C115.141 170.164 115.336 169.641 115.336 169C115.336 168.359 115.141 167.836 114.75 167.43C114.359 167.023 113.823 166.82 113.141 166.82C112.453 166.82 111.919 167.023 111.539 167.43C111.148 167.836 110.953 168.359 110.953 169C110.953 169.641 111.148 170.164 111.539 170.57C111.919 170.977 112.453 171.18 113.141 171.18ZM120.555 174.82H118.25V171.156H118.719C119.062 171.156 119.302 171.026 119.438 170.766C119.573 170.505 119.68 170.049 119.758 169.398L120.281 165H127.164V171.156H128.266V174.82H125.961V173H120.555V174.82ZM124.859 166.844H122.352L121.961 169.883C121.919 170.185 121.849 170.443 121.75 170.656C121.656 170.87 121.562 171 121.469 171.047L121.344 171.094V171.156H124.859V166.844ZM129.391 170.742C129.391 169.919 129.729 169.302 130.406 168.891C131.083 168.484 131.94 168.281 132.977 168.281C133.513 168.281 133.995 168.336 134.422 168.445C134.849 168.565 135.146 168.674 135.312 168.773L135.57 168.953V167.781C135.57 167.438 135.44 167.148 135.18 166.914C134.919 166.685 134.484 166.57 133.875 166.57C133.438 166.57 133.047 166.651 132.703 166.812C132.344 166.979 132.164 167.234 132.164 167.578H129.797C129.802 166.667 130.172 165.982 130.906 165.523C131.635 165.07 132.625 164.844 133.875 164.844C135.141 164.844 136.122 165.089 136.82 165.578C137.523 166.068 137.875 166.802 137.875 167.781V170.281C137.875 170.604 137.914 170.828 137.992 170.953C138.07 171.078 138.206 171.141 138.398 171.141L138.734 171.078V173C138.536 173.104 138.206 173.156 137.742 173.156C137.143 173.156 136.69 173.026 136.383 172.766C136.107 172.542 135.932 172.336 135.859 172.148L135.812 172.039H135.695C135.695 172.06 135.669 172.107 135.617 172.18C135.565 172.247 135.464 172.341 135.312 172.461C135.167 172.581 134.992 172.688 134.789 172.781C134.258 173.031 133.562 173.156 132.703 173.156C131.755 173.156 130.966 172.951 130.336 172.539C129.706 172.133 129.391 171.534 129.391 170.742ZM133.648 171.414C134.06 171.414 134.43 171.362 134.758 171.258C135.07 171.159 135.286 171.057 135.406 170.953L135.57 170.805V170.328C135.529 170.286 135.474 170.242 135.406 170.195C135.318 170.138 135.112 170.068 134.789 169.984C134.445 169.896 134.065 169.852 133.648 169.852C132.388 169.852 131.758 170.112 131.758 170.633C131.758 171.154 132.388 171.414 133.648 171.414ZM145.891 165.594H143.617V164.023L146.273 161.797H148.422V173H145.891V165.594ZM150.695 169.719H153.367C153.362 169.745 153.372 169.802 153.398 169.891C153.43 169.974 153.492 170.086 153.586 170.227C153.68 170.362 153.794 170.484 153.93 170.594C154.076 170.719 154.279 170.823 154.539 170.906C154.799 170.99 155.081 171.031 155.383 171.031C156.216 171.031 156.839 170.766 157.25 170.234C157.656 169.714 157.859 169.003 157.859 168.102H157.797C157.792 168.107 157.779 168.12 157.758 168.141C157.742 168.161 157.724 168.185 157.703 168.211C157.682 168.232 157.643 168.263 157.586 168.305C157.534 168.346 157.471 168.393 157.398 168.445C157.253 168.549 157.078 168.648 156.875 168.742C156.375 168.966 155.76 169.078 155.031 169.078C153.682 169.078 152.607 168.747 151.805 168.086C150.992 167.424 150.586 166.549 150.586 165.461C150.586 164.279 151.023 163.346 151.898 162.664C152.779 161.982 153.971 161.641 155.477 161.641C157.18 161.641 158.451 162.133 159.289 163.117C160.117 164.112 160.531 165.477 160.531 167.211V167.445C160.531 169.138 160.102 170.513 159.242 171.57C158.372 172.628 157.091 173.156 155.398 173.156C154.602 173.156 153.888 173.052 153.258 172.844C152.628 172.635 152.13 172.354 151.766 172C151.052 171.307 150.695 170.547 150.695 169.719ZM155.445 167.125C156.081 167.125 156.612 166.979 157.039 166.688C157.461 166.396 157.672 165.982 157.672 165.445C157.672 164.93 157.464 164.518 157.047 164.211C156.63 163.914 156.096 163.766 155.445 163.766C154.753 163.766 154.208 163.917 153.812 164.219C153.422 164.516 153.227 164.924 153.227 165.445C153.227 165.971 153.43 166.383 153.836 166.68C154.237 166.977 154.773 167.125 155.445 167.125ZM164.484 170.945C164.734 171.169 164.859 171.479 164.859 171.875C164.859 172.271 164.734 172.583 164.484 172.812C164.229 173.042 163.901 173.156 163.5 173.156C163.099 173.156 162.771 173.042 162.516 172.812C162.266 172.583 162.141 172.271 162.141 171.875C162.141 171.479 162.266 171.169 162.516 170.945C162.771 170.716 163.099 170.602 163.5 170.602C163.901 170.602 164.229 170.716 164.484 170.945ZM164.484 165.188C164.734 165.417 164.859 165.727 164.859 166.117C164.859 166.518 164.734 166.831 164.484 167.055C164.229 167.284 163.901 167.398 163.5 167.398C163.099 167.398 162.771 167.284 162.516 167.055C162.266 166.831 162.141 166.518 162.141 166.117C162.141 165.727 162.266 165.417 162.516 165.188C162.771 164.958 163.099 164.844 163.5 164.844C163.901 164.844 164.229 164.958 164.484 165.188ZM167.875 171.57C166.932 170.518 166.461 169.128 166.461 167.398C166.461 165.664 166.932 164.271 167.875 163.219C168.818 162.167 170.122 161.641 171.789 161.641C173.456 161.641 174.76 162.167 175.703 163.219C176.646 164.271 177.117 165.664 177.117 167.398C177.117 169.128 176.646 170.518 175.703 171.57C174.755 172.628 173.451 173.156 171.789 173.156C170.128 173.156 168.823 172.628 167.875 171.57ZM171.789 170.922C172.654 170.922 173.318 170.596 173.781 169.945C174.245 169.294 174.477 168.445 174.477 167.398C174.477 166.352 174.245 165.503 173.781 164.852C173.323 164.206 172.659 163.883 171.789 163.883C170.919 163.883 170.255 164.206 169.797 164.852C169.333 165.503 169.102 166.352 169.102 167.398C169.102 168.445 169.333 169.294 169.797 169.945C170.26 170.596 170.924 170.922 171.789 170.922ZM180.453 171.57C179.51 170.518 179.039 169.128 179.039 167.398C179.039 165.664 179.51 164.271 180.453 163.219C181.396 162.167 182.701 161.641 184.367 161.641C186.034 161.641 187.339 162.167 188.281 163.219C189.224 164.271 189.695 165.664 189.695 167.398C189.695 169.128 189.224 170.518 188.281 171.57C187.333 172.628 186.029 173.156 184.367 173.156C182.706 173.156 181.401 172.628 180.453 171.57ZM184.367 170.922C185.232 170.922 185.896 170.596 186.359 169.945C186.823 169.294 187.055 168.445 187.055 167.398C187.055 166.352 186.823 165.503 186.359 164.852C185.901 164.206 185.237 163.883 184.367 163.883C183.497 163.883 182.833 164.206 182.375 164.852C181.911 165.503 181.68 166.352 181.68 167.398C181.68 168.445 181.911 169.294 182.375 169.945C182.839 170.596 183.503 170.922 184.367 170.922ZM204.133 173H201.828V166.984H198V173H195.695V165H204.133V173ZM210.609 173.156C209.255 173.156 208.156 172.789 207.312 172.055C206.469 171.32 206.047 170.302 206.047 169C206.047 167.698 206.469 166.68 207.312 165.945C208.156 165.211 209.255 164.844 210.609 164.844C211.964 164.844 213.062 165.211 213.906 165.945C214.75 166.68 215.172 167.698 215.172 169C215.172 170.302 214.75 171.32 213.906 172.055C213.062 172.789 211.964 173.156 210.609 173.156ZM210.609 171.18C211.292 171.18 211.828 170.977 212.219 170.57C212.609 170.164 212.805 169.641 212.805 169C212.805 168.359 212.609 167.836 212.219 167.43C211.828 167.023 211.292 166.82 210.609 166.82C209.922 166.82 209.388 167.023 209.008 167.43C208.617 167.836 208.422 168.359 208.422 169C208.422 169.641 208.617 170.164 209.008 170.57C209.388 170.977 209.922 171.18 210.609 171.18ZM227.312 166.984L227.445 168.328H227.633L227.766 166.984L229.859 161.797H233.906V173H231.375V165.562L231.664 164.133H231.398L231.008 165.562L228.961 170.312H226.117L224.07 165.562L223.68 164.133H223.414L223.695 165.562V173H221.172V161.797H225.219L227.312 166.984ZM237.719 171.602C236.672 170.57 236.148 169.169 236.148 167.398C236.148 165.633 236.672 164.229 237.719 163.188C238.76 162.156 240.172 161.641 241.953 161.641C243.661 161.641 245.036 162.078 246.078 162.953C247.115 163.828 247.633 164.927 247.633 166.25H244.93C244.924 166.188 244.909 166.102 244.883 165.992C244.857 165.878 244.784 165.688 244.664 165.422C244.529 165.146 244.367 164.906 244.18 164.703C243.987 164.495 243.698 164.305 243.312 164.133C242.917 163.966 242.464 163.883 241.953 163.883C240.948 163.883 240.169 164.214 239.617 164.875C239.065 165.536 238.789 166.378 238.789 167.398C238.789 168.419 239.068 169.263 239.625 169.93C240.177 170.591 240.953 170.922 241.953 170.922C242.443 170.922 242.885 170.844 243.281 170.688C243.677 170.531 243.979 170.331 244.188 170.086C244.604 169.596 244.836 169.164 244.883 168.789L244.93 168.555H247.633C247.633 169.883 247.115 170.979 246.078 171.844C245.036 172.719 243.661 173.156 241.953 173.156C240.167 173.156 238.755 172.638 237.719 171.602ZM256.727 161.797H259.734L255.188 167.352L259.984 173H256.977L252.32 167.477V173H249.797V161.797H252.32V167.211L256.727 161.797Z" fill="#231F20"/>
<defs>
<clipPath id="clip0">
<rect width="271.721" height="204.754" fill="white" transform="translate(0 119.103) rotate(-25.9971)"/>
</clipPath>
</defs>
</svg>
