<svg width="334" height="304" viewBox="0 0 334 304" fill="none" xmlns="http://www.w3.org/2000/svg">
<g clip-path="url(#clip0_804_2)">
<path d="M315.909 148.954C316.073 157.616 303.43 163.612 299.452 171.531C295.775 178.795 299.292 192.252 292.586 198.624C286.704 204.257 273.045 200.652 265.177 205.336C258.084 209.528 255.159 223.306 246.715 226.578C238.954 229.63 227.334 221.647 218.607 223.76C210.448 225.765 203.908 238.26 195.077 239.352C186.678 240.402 177.237 229.947 168.393 230.086C159.55 230.225 150.487 241.018 142.06 240.277C133.204 239.464 126.228 227.243 117.993 225.506C109.214 223.696 97.8858 232.04 90.0227 229.332C81.4596 226.345 78.0128 212.685 70.7966 208.759C62.7914 204.372 49.2834 208.478 43.1475 203.067C36.2705 196.945 39.2613 183.417 35.3193 176.258C31.0662 168.462 18.2438 162.871 18.0802 154.209C17.9389 145.592 30.5592 139.55 34.5829 131.609C38.2598 124.345 34.743 110.889 41.4036 104.538C47.2862 98.906 60.9445 102.51 68.8128 97.8271C75.9054 93.635 78.8307 79.8566 87.2745 76.5848C95.1038 73.5564 106.724 81.5388 115.451 79.4261C123.61 77.4211 130.15 64.9256 138.98 63.8341C147.379 62.7838 156.821 73.2386 165.664 73.0995C174.508 72.9605 183.57 62.1676 191.997 62.9087C200.854 63.722 207.829 75.9434 216.065 77.6801C224.844 79.4902 236.172 71.1458 244.035 73.8537C252.598 76.8407 256.045 90.5008 263.261 94.4266C271.334 98.8371 284.796 94.7535 290.932 100.165C297.809 106.287 294.818 119.815 298.76 126.973C302.946 134.746 315.746 140.291 315.909 148.954Z" fill="#FFEE54"/>
</g>
<path d="M54 142L58.4297 136.352L54.2578 130.797H57.2656L61.2031 136.211V130.797H63.7266V136.211L67.6641 130.797H70.6719L66.4922 136.352L70.9297 142H67.9219L63.7266 136.477V142H61.2031V136.477L57.0078 142H54ZM73.3047 143.82H71V140.156H71.4688C71.8125 140.156 72.0521 140.026 72.1875 139.766C72.3229 139.505 72.4297 139.049 72.5078 138.398L73.0312 134H79.9141V140.156H81.0156V143.82H78.7109V142H73.3047V143.82ZM77.6094 135.844H75.1016L74.7109 138.883C74.6693 139.185 74.599 139.443 74.5 139.656C74.4062 139.87 74.3125 140 74.2188 140.047L74.0938 140.094V140.156H77.6094V135.844ZM81.2656 134H83.6641L86.2109 139.602H86.3359L88.4297 134H90.7969L87.4531 142.156C86.974 143.312 86.474 144.135 85.9531 144.625C85.4323 145.115 84.75 145.359 83.9062 145.359C83.7448 145.359 83.5391 145.346 83.2891 145.32C83.0807 145.299 82.901 145.271 82.75 145.234L82.5469 145.203V143.188C82.8438 143.323 83.2318 143.385 83.7109 143.375C84.0859 143.375 84.3724 143.292 84.5703 143.125C84.7734 142.948 84.9661 142.625 85.1484 142.156L81.2656 134ZM103.531 139.773C103.531 140.607 103.268 141.185 102.742 141.508C102.211 141.836 101.333 142 100.109 142H95.3516V134H99.6875C100.875 134 101.737 134.164 102.273 134.492C102.815 134.82 103.086 135.349 103.086 136.078C103.086 136.333 103.042 136.57 102.953 136.789C102.865 137.003 102.753 137.167 102.617 137.281C102.341 137.516 102.096 137.659 101.883 137.711L101.742 137.742V137.859C101.872 137.859 102.078 137.917 102.359 138.031C102.562 138.12 102.745 138.224 102.906 138.344C103.083 138.479 103.232 138.674 103.352 138.93C103.471 139.185 103.531 139.466 103.531 139.773ZM101.164 139.539C101.164 138.971 100.742 138.688 99.8984 138.688H97.6562V140.367H99.8984C100.742 140.367 101.164 140.091 101.164 139.539ZM97.6562 137.203H99.6094C100.344 137.203 100.711 136.94 100.711 136.414C100.711 135.893 100.344 135.633 99.6094 135.633H97.6562V137.203ZM105.047 139.742C105.047 138.919 105.385 138.302 106.062 137.891C106.74 137.484 107.596 137.281 108.633 137.281C109.169 137.281 109.651 137.336 110.078 137.445C110.505 137.565 110.802 137.674 110.969 137.773L111.227 137.953V136.781C111.227 136.438 111.096 136.148 110.836 135.914C110.576 135.685 110.141 135.57 109.531 135.57C109.094 135.57 108.703 135.651 108.359 135.812C108 135.979 107.82 136.234 107.82 136.578H105.453C105.458 135.667 105.828 134.982 106.562 134.523C107.292 134.07 108.281 133.844 109.531 133.844C110.797 133.844 111.779 134.089 112.477 134.578C113.18 135.068 113.531 135.802 113.531 136.781V139.281C113.531 139.604 113.57 139.828 113.648 139.953C113.727 140.078 113.862 140.141 114.055 140.141L114.391 140.078V142C114.193 142.104 113.862 142.156 113.398 142.156C112.799 142.156 112.346 142.026 112.039 141.766C111.763 141.542 111.589 141.336 111.516 141.148L111.469 141.039H111.352C111.352 141.06 111.326 141.107 111.273 141.18C111.221 141.247 111.12 141.341 110.969 141.461C110.823 141.581 110.648 141.688 110.445 141.781C109.914 142.031 109.219 142.156 108.359 142.156C107.411 142.156 106.622 141.951 105.992 141.539C105.362 141.133 105.047 140.534 105.047 139.742ZM109.305 140.414C109.716 140.414 110.086 140.362 110.414 140.258C110.727 140.159 110.943 140.057 111.062 139.953L111.227 139.805V139.328C111.185 139.286 111.13 139.242 111.062 139.195C110.974 139.138 110.768 139.068 110.445 138.984C110.102 138.896 109.721 138.852 109.305 138.852C108.044 138.852 107.414 139.112 107.414 139.633C107.414 140.154 108.044 140.414 109.305 140.414ZM120.234 142.156C118.88 142.156 117.781 141.789 116.938 141.055C116.094 140.32 115.672 139.302 115.672 138C115.672 136.698 116.094 135.68 116.938 134.945C117.781 134.211 118.88 133.844 120.234 133.844C120.984 133.844 121.659 133.961 122.258 134.195C122.867 134.435 123.339 134.732 123.672 135.086C124.354 135.826 124.695 136.557 124.695 137.281H122.328C122.286 137.12 122.214 136.951 122.109 136.773C122.016 136.622 121.898 136.477 121.758 136.336C121.602 136.195 121.385 136.076 121.109 135.977C120.839 135.872 120.547 135.82 120.234 135.82C119.547 135.82 119.013 136.023 118.633 136.43C118.242 136.836 118.047 137.359 118.047 138C118.047 138.641 118.242 139.164 118.633 139.57C119.013 139.977 119.547 140.18 120.234 140.18C120.766 140.18 121.206 140.055 121.555 139.805C121.898 139.57 122.115 139.331 122.203 139.086L122.328 138.719H124.695C124.695 139.448 124.354 140.177 123.672 140.906C123.344 141.266 122.872 141.565 122.258 141.805C121.659 142.039 120.984 142.156 120.234 142.156ZM134.703 142.156C133.349 142.156 132.25 141.789 131.406 141.055C130.562 140.32 130.141 139.302 130.141 138C130.141 136.698 130.562 135.68 131.406 134.945C132.25 134.211 133.349 133.844 134.703 133.844C135.453 133.844 136.128 133.961 136.727 134.195C137.336 134.435 137.807 134.732 138.141 135.086C138.823 135.826 139.164 136.557 139.164 137.281H136.797C136.755 137.12 136.682 136.951 136.578 136.773C136.484 136.622 136.367 136.477 136.227 136.336C136.07 136.195 135.854 136.076 135.578 135.977C135.307 135.872 135.016 135.82 134.703 135.82C134.016 135.82 133.482 136.023 133.102 136.43C132.711 136.836 132.516 137.359 132.516 138C132.516 138.641 132.711 139.164 133.102 139.57C133.482 139.977 134.016 140.18 134.703 140.18C135.234 140.18 135.674 140.055 136.023 139.805C136.367 139.57 136.583 139.331 136.672 139.086L136.797 138.719H139.164C139.164 139.448 138.823 140.177 138.141 140.906C137.812 141.266 137.341 141.565 136.727 141.805C136.128 142.039 135.453 142.156 134.703 142.156ZM152.191 128.277H145.688V125.195H158.695V128.277L153.457 131.219L151.512 131.781V132.133L153.773 131.605C155.562 131.605 156.973 132.039 158.004 132.906C159.035 133.781 159.551 135.027 159.551 136.645C159.551 138.426 158.922 139.805 157.664 140.781C156.406 141.75 154.613 142.234 152.285 142.234C149.957 142.234 148.164 141.75 146.906 140.781C145.641 139.82 145.008 138.426 145.008 136.598V136.211H148.805V136.598C148.805 138.23 149.965 139.047 152.285 139.047C154.605 139.047 155.766 138.246 155.766 136.645C155.766 135.027 154.605 134.219 152.285 134.219H147.316V131.898L152.191 128.805L154.137 128.242V127.891L152.191 128.277ZM165 130.891H161.59V128.535L165.574 125.195H168.797V142H165V130.891ZM177.859 142H175.359L177.102 139.188C176.997 139.161 176.818 139.057 176.562 138.875C176.375 138.745 176.216 138.599 176.086 138.438C175.935 138.26 175.805 138.021 175.695 137.719C175.591 137.417 175.539 137.094 175.539 136.75C175.539 134.917 176.711 134 179.055 134H183.312V142H181.008V139.508H179.375L177.859 142ZM181.008 135.695H179.359C178.391 135.695 177.906 136.047 177.906 136.75C177.906 137.453 178.391 137.805 179.359 137.805H181.008V135.695ZM193.977 142H191.672V138.992H187.859V142H185.555V134H187.859V137.008H191.672V134H193.977V142ZM204.391 139.773C204.391 140.607 204.128 141.185 203.602 141.508C203.07 141.836 202.193 142 200.969 142H196.211V134H200.547C201.734 134 202.596 134.164 203.133 134.492C203.674 134.82 203.945 135.349 203.945 136.078C203.945 136.333 203.901 136.57 203.812 136.789C203.724 137.003 203.612 137.167 203.477 137.281C203.201 137.516 202.956 137.659 202.742 137.711L202.602 137.742V137.859C202.732 137.859 202.938 137.917 203.219 138.031C203.422 138.12 203.604 138.224 203.766 138.344C203.943 138.479 204.091 138.674 204.211 138.93C204.331 139.185 204.391 139.466 204.391 139.773ZM202.023 139.539C202.023 138.971 201.602 138.688 200.758 138.688H198.516V140.367H200.758C201.602 140.367 202.023 140.091 202.023 139.539ZM198.516 137.203H200.469C201.203 137.203 201.57 136.94 201.57 136.414C201.57 135.893 201.203 135.633 200.469 135.633H198.516V137.203ZM205.906 139.742C205.906 138.919 206.245 138.302 206.922 137.891C207.599 137.484 208.456 137.281 209.492 137.281C210.029 137.281 210.51 137.336 210.938 137.445C211.365 137.565 211.661 137.674 211.828 137.773L212.086 137.953V136.781C212.086 136.438 211.956 136.148 211.695 135.914C211.435 135.685 211 135.57 210.391 135.57C209.953 135.57 209.562 135.651 209.219 135.812C208.859 135.979 208.68 136.234 208.68 136.578H206.312C206.318 135.667 206.688 134.982 207.422 134.523C208.151 134.07 209.141 133.844 210.391 133.844C211.656 133.844 212.638 134.089 213.336 134.578C214.039 135.068 214.391 135.802 214.391 136.781V139.281C214.391 139.604 214.43 139.828 214.508 139.953C214.586 140.078 214.721 140.141 214.914 140.141L215.25 140.078V142C215.052 142.104 214.721 142.156 214.258 142.156C213.659 142.156 213.206 142.026 212.898 141.766C212.622 141.542 212.448 141.336 212.375 141.148L212.328 141.039H212.211C212.211 141.06 212.185 141.107 212.133 141.18C212.081 141.247 211.979 141.341 211.828 141.461C211.682 141.581 211.508 141.688 211.305 141.781C210.773 142.031 210.078 142.156 209.219 142.156C208.271 142.156 207.482 141.951 206.852 141.539C206.221 141.133 205.906 140.534 205.906 139.742ZM210.164 140.414C210.576 140.414 210.945 140.362 211.273 140.258C211.586 140.159 211.802 140.057 211.922 139.953L212.086 139.805V139.328C212.044 139.286 211.99 139.242 211.922 139.195C211.833 139.138 211.628 139.068 211.305 138.984C210.961 138.896 210.581 138.852 210.164 138.852C208.904 138.852 208.273 139.112 208.273 139.633C208.273 140.154 208.904 140.414 210.164 140.414ZM224.867 134.961C225.607 135.701 225.977 136.714 225.977 138C225.977 139.286 225.607 140.299 224.867 141.039C224.122 141.784 223.201 142.156 222.102 142.156C221.497 142.156 220.961 142.06 220.492 141.867C220.013 141.68 219.685 141.49 219.508 141.297L219.258 141.023H219.156V145.203H216.852V134H219.156V135.312H219.273C219.326 135.198 219.458 135.026 219.672 134.797C219.839 134.63 220.018 134.482 220.211 134.352C220.424 134.211 220.701 134.091 221.039 133.992C221.383 133.893 221.737 133.844 222.102 133.844C223.201 133.844 224.122 134.216 224.867 134.961ZM223.008 139.516C223.409 139.125 223.609 138.62 223.609 138C223.609 137.385 223.409 136.878 223.008 136.477C222.607 136.086 222.065 135.891 221.383 135.891C220.701 135.891 220.159 136.086 219.758 136.477C219.357 136.878 219.156 137.385 219.156 138C219.156 138.635 219.359 139.143 219.766 139.523C220.172 139.914 220.711 140.109 221.383 140.109C222.07 140.109 222.612 139.911 223.008 139.516ZM230 142H227.5L229.242 139.188C229.138 139.161 228.958 139.057 228.703 138.875C228.516 138.745 228.357 138.599 228.227 138.438C228.076 138.26 227.945 138.021 227.836 137.719C227.732 137.417 227.68 137.094 227.68 136.75C227.68 134.917 228.852 134 231.195 134H235.453V142H233.148V139.508H231.516L230 142ZM233.148 135.695H231.5C230.531 135.695 230.047 136.047 230.047 136.75C230.047 137.453 230.531 137.805 231.5 137.805H233.148V135.695ZM250.055 142H247.75V135.984H243.922V142H241.617V134H250.055V142ZM256.531 142.156C255.177 142.156 254.078 141.789 253.234 141.055C252.391 140.32 251.969 139.302 251.969 138C251.969 136.698 252.391 135.68 253.234 134.945C254.078 134.211 255.177 133.844 256.531 133.844C257.885 133.844 258.984 134.211 259.828 134.945C260.672 135.68 261.094 136.698 261.094 138C261.094 139.302 260.672 140.32 259.828 141.055C258.984 141.789 257.885 142.156 256.531 142.156ZM256.531 140.18C257.214 140.18 257.75 139.977 258.141 139.57C258.531 139.164 258.727 138.641 258.727 138C258.727 137.359 258.531 136.836 258.141 136.43C257.75 136.023 257.214 135.82 256.531 135.82C255.844 135.82 255.31 136.023 254.93 136.43C254.539 136.836 254.344 137.359 254.344 138C254.344 138.641 254.539 139.164 254.93 139.57C255.31 139.977 255.844 140.18 256.531 140.18ZM68.0156 168H64.2188V164.449H54.5977V161.309L63 151.195H68.0156V161.332H70.2422V164.449H68.0156V168ZM64.7578 153.844H64.3945L63.5508 155.766L58.9922 161.227V161.332H64.2188V155.766L64.7578 153.844ZM82.6875 171.203H80.3828V168.156C78.9661 168.099 77.849 167.714 77.0312 167C76.2135 166.281 75.8047 165.281 75.8047 164C75.8047 162.719 76.2135 161.719 77.0312 161C77.849 160.286 78.9661 159.901 80.3828 159.844V156.797H82.6875V159.844C84.1042 159.901 85.2214 160.286 86.0391 161C86.8568 161.719 87.2656 162.719 87.2656 164C87.2656 165.281 86.8568 166.281 86.0391 167C85.2214 167.714 84.1042 168.099 82.6875 168.156V171.203ZM82.6875 161.602V166.398C83.4219 166.393 83.974 166.164 84.3438 165.711C84.7135 165.263 84.8984 164.693 84.8984 164C84.8984 163.307 84.7135 162.737 84.3438 162.289C83.974 161.836 83.4219 161.607 82.6875 161.602ZM80.3828 166.398V161.602C79.6536 161.607 79.1042 161.836 78.7344 162.289C78.3646 162.737 78.1797 163.307 78.1797 164C78.1797 164.693 78.3646 165.263 78.7344 165.711C79.1042 166.164 79.6536 166.393 80.3828 166.398ZM97.9766 164L97.9297 164.609H91.2891C91.2891 165.089 91.4792 165.5 91.8594 165.844C92.2292 166.193 92.763 166.367 93.4609 166.367C93.8568 166.367 94.2109 166.299 94.5234 166.164C94.8203 166.029 95.0156 165.893 95.1094 165.758L95.2578 165.57H97.7812C97.7708 165.643 97.7474 165.734 97.7109 165.844C97.6693 165.974 97.5547 166.18 97.3672 166.461C97.1693 166.768 96.9323 167.034 96.6562 167.258C96.3542 167.492 95.9297 167.698 95.3828 167.875C94.8099 168.062 94.1693 168.156 93.4609 168.156C92.0964 168.156 90.9896 167.789 90.1406 167.055C89.2917 166.32 88.8672 165.302 88.8672 164C88.8672 162.698 89.2891 161.68 90.1328 160.945C90.9766 160.211 92.0755 159.844 93.4297 159.844C94.7734 159.844 95.8672 160.211 96.7109 160.945C97.5547 161.68 97.9766 162.698 97.9766 164ZM94.9844 162.125C94.6146 161.797 94.0964 161.633 93.4297 161.633C92.763 161.633 92.2474 161.799 91.8828 162.133C91.5078 162.471 91.3203 162.828 91.3203 163.203H95.5234C95.5234 162.818 95.3438 162.458 94.9844 162.125ZM108.07 165.773C108.07 166.607 107.807 167.185 107.281 167.508C106.75 167.836 105.872 168 104.648 168H99.8906V160H104.227C105.414 160 106.276 160.164 106.812 160.492C107.354 160.82 107.625 161.349 107.625 162.078C107.625 162.333 107.581 162.57 107.492 162.789C107.404 163.003 107.292 163.167 107.156 163.281C106.88 163.516 106.635 163.659 106.422 163.711L106.281 163.742V163.859C106.411 163.859 106.617 163.917 106.898 164.031C107.102 164.12 107.284 164.224 107.445 164.344C107.622 164.479 107.771 164.674 107.891 164.93C108.01 165.185 108.07 165.466 108.07 165.773ZM105.703 165.539C105.703 164.971 105.281 164.688 104.438 164.688H102.195V166.367H104.438C105.281 166.367 105.703 166.091 105.703 165.539ZM102.195 163.203H104.148C104.883 163.203 105.25 162.94 105.25 162.414C105.25 161.893 104.883 161.633 104.148 161.633H102.195V163.203ZM117.922 160.961C118.661 161.701 119.031 162.714 119.031 164C119.031 165.286 118.661 166.299 117.922 167.039C117.177 167.784 116.255 168.156 115.156 168.156C114.552 168.156 114.016 168.06 113.547 167.867C113.068 167.68 112.74 167.49 112.562 167.297L112.312 167.023H112.211V171.203H109.906V160H112.211V161.312H112.328C112.38 161.198 112.513 161.026 112.727 160.797C112.893 160.63 113.073 160.482 113.266 160.352C113.479 160.211 113.755 160.091 114.094 159.992C114.438 159.893 114.792 159.844 115.156 159.844C116.255 159.844 117.177 160.216 117.922 160.961ZM116.062 165.516C116.464 165.125 116.664 164.62 116.664 164C116.664 163.385 116.464 162.878 116.062 162.477C115.661 162.086 115.12 161.891 114.438 161.891C113.755 161.891 113.214 162.086 112.812 162.477C112.411 162.878 112.211 163.385 112.211 164C112.211 164.635 112.414 165.143 112.82 165.523C113.227 165.914 113.766 166.109 114.438 166.109C115.125 166.109 115.667 165.911 116.062 165.516ZM120.633 165.742C120.633 164.919 120.971 164.302 121.648 163.891C122.326 163.484 123.182 163.281 124.219 163.281C124.755 163.281 125.237 163.336 125.664 163.445C126.091 163.565 126.388 163.674 126.555 163.773L126.812 163.953V162.781C126.812 162.438 126.682 162.148 126.422 161.914C126.161 161.685 125.727 161.57 125.117 161.57C124.68 161.57 124.289 161.651 123.945 161.812C123.586 161.979 123.406 162.234 123.406 162.578H121.039C121.044 161.667 121.414 160.982 122.148 160.523C122.878 160.07 123.867 159.844 125.117 159.844C126.383 159.844 127.365 160.089 128.062 160.578C128.766 161.068 129.117 161.802 129.117 162.781V165.281C129.117 165.604 129.156 165.828 129.234 165.953C129.312 166.078 129.448 166.141 129.641 166.141L129.977 166.078V168C129.779 168.104 129.448 168.156 128.984 168.156C128.385 168.156 127.932 168.026 127.625 167.766C127.349 167.542 127.174 167.336 127.102 167.148L127.055 167.039H126.938C126.938 167.06 126.911 167.107 126.859 167.18C126.807 167.247 126.706 167.341 126.555 167.461C126.409 167.581 126.234 167.688 126.031 167.781C125.5 168.031 124.805 168.156 123.945 168.156C122.997 168.156 122.208 167.951 121.578 167.539C120.948 167.133 120.633 166.534 120.633 165.742ZM124.891 166.414C125.302 166.414 125.672 166.362 126 166.258C126.312 166.159 126.529 166.057 126.648 165.953L126.812 165.805V165.328C126.771 165.286 126.716 165.242 126.648 165.195C126.56 165.138 126.354 165.068 126.031 164.984C125.688 164.896 125.307 164.852 124.891 164.852C123.63 164.852 123 165.112 123 165.633C123 166.154 123.63 166.414 124.891 166.414ZM132.188 164.578L132.773 160H139.672V168H137.367V161.984H134.797L134.391 165.102C134.25 166.19 133.966 166.971 133.539 167.445C133.112 167.919 132.505 168.156 131.719 168.156C131.344 168.156 131.047 168.115 130.828 168.031L130.695 168V166C130.872 166.042 131.039 166.062 131.195 166.062C131.497 166.062 131.721 165.945 131.867 165.711C132.013 165.471 132.12 165.094 132.188 164.578ZM144.008 168H141.508L143.25 165.188C143.146 165.161 142.966 165.057 142.711 164.875C142.523 164.745 142.365 164.599 142.234 164.438C142.083 164.26 141.953 164.021 141.844 163.719C141.74 163.417 141.688 163.094 141.688 162.75C141.688 160.917 142.859 160 145.203 160H149.461V168H147.156V165.508H145.523L144.008 168ZM147.156 161.695H145.508C144.539 161.695 144.055 162.047 144.055 162.75C144.055 163.453 144.539 163.805 145.508 163.805H147.156V161.695ZM163.805 165.773C163.805 166.607 163.542 167.185 163.016 167.508C162.484 167.836 161.607 168 160.383 168H155.625V160H159.961C161.148 160 162.01 160.164 162.547 160.492C163.089 160.82 163.359 161.349 163.359 162.078C163.359 162.333 163.315 162.57 163.227 162.789C163.138 163.003 163.026 163.167 162.891 163.281C162.615 163.516 162.37 163.659 162.156 163.711L162.016 163.742V163.859C162.146 163.859 162.352 163.917 162.633 164.031C162.836 164.12 163.018 164.224 163.18 164.344C163.357 164.479 163.505 164.674 163.625 164.93C163.745 165.185 163.805 165.466 163.805 165.773ZM161.438 165.539C161.438 164.971 161.016 164.688 160.172 164.688H157.93V166.367H160.172C161.016 166.367 161.438 166.091 161.438 165.539ZM157.93 163.203H159.883C160.617 163.203 160.984 162.94 160.984 162.414C160.984 161.893 160.617 161.633 159.883 161.633H157.93V163.203ZM171.195 160.594H168.922V159.023L171.578 156.797H173.727V168H171.195V160.594ZM176 164.719H178.672C178.667 164.745 178.677 164.802 178.703 164.891C178.734 164.974 178.797 165.086 178.891 165.227C178.984 165.362 179.099 165.484 179.234 165.594C179.38 165.719 179.583 165.823 179.844 165.906C180.104 165.99 180.385 166.031 180.688 166.031C181.521 166.031 182.143 165.766 182.555 165.234C182.961 164.714 183.164 164.003 183.164 163.102H183.102C183.096 163.107 183.083 163.12 183.062 163.141C183.047 163.161 183.029 163.185 183.008 163.211C182.987 163.232 182.948 163.263 182.891 163.305C182.839 163.346 182.776 163.393 182.703 163.445C182.557 163.549 182.383 163.648 182.18 163.742C181.68 163.966 181.065 164.078 180.336 164.078C178.987 164.078 177.911 163.747 177.109 163.086C176.297 162.424 175.891 161.549 175.891 160.461C175.891 159.279 176.328 158.346 177.203 157.664C178.083 156.982 179.276 156.641 180.781 156.641C182.484 156.641 183.755 157.133 184.594 158.117C185.422 159.112 185.836 160.477 185.836 162.211V162.445C185.836 164.138 185.406 165.513 184.547 166.57C183.677 167.628 182.396 168.156 180.703 168.156C179.906 168.156 179.193 168.052 178.562 167.844C177.932 167.635 177.435 167.354 177.07 167C176.357 166.307 176 165.547 176 164.719ZM180.75 162.125C181.385 162.125 181.917 161.979 182.344 161.688C182.766 161.396 182.977 160.982 182.977 160.445C182.977 159.93 182.768 159.518 182.352 159.211C181.935 158.914 181.401 158.766 180.75 158.766C180.057 158.766 179.513 158.917 179.117 159.219C178.727 159.516 178.531 159.924 178.531 160.445C178.531 160.971 178.734 161.383 179.141 161.68C179.542 161.977 180.078 162.125 180.75 162.125ZM189.789 165.945C190.039 166.169 190.164 166.479 190.164 166.875C190.164 167.271 190.039 167.583 189.789 167.812C189.534 168.042 189.206 168.156 188.805 168.156C188.404 168.156 188.076 168.042 187.82 167.812C187.57 167.583 187.445 167.271 187.445 166.875C187.445 166.479 187.57 166.169 187.82 165.945C188.076 165.716 188.404 165.602 188.805 165.602C189.206 165.602 189.534 165.716 189.789 165.945ZM189.789 160.188C190.039 160.417 190.164 160.727 190.164 161.117C190.164 161.518 190.039 161.831 189.789 162.055C189.534 162.284 189.206 162.398 188.805 162.398C188.404 162.398 188.076 162.284 187.82 162.055C187.57 161.831 187.445 161.518 187.445 161.117C187.445 160.727 187.57 160.417 187.82 160.188C188.076 159.958 188.404 159.844 188.805 159.844C189.206 159.844 189.534 159.958 189.789 160.188ZM193.18 166.57C192.237 165.518 191.766 164.128 191.766 162.398C191.766 160.664 192.237 159.271 193.18 158.219C194.122 157.167 195.427 156.641 197.094 156.641C198.76 156.641 200.065 157.167 201.008 158.219C201.951 159.271 202.422 160.664 202.422 162.398C202.422 164.128 201.951 165.518 201.008 166.57C200.06 167.628 198.755 168.156 197.094 168.156C195.432 168.156 194.128 167.628 193.18 166.57ZM197.094 165.922C197.958 165.922 198.622 165.596 199.086 164.945C199.549 164.294 199.781 163.445 199.781 162.398C199.781 161.352 199.549 160.503 199.086 159.852C198.628 159.206 197.964 158.883 197.094 158.883C196.224 158.883 195.56 159.206 195.102 159.852C194.638 160.503 194.406 161.352 194.406 162.398C194.406 163.445 194.638 164.294 195.102 164.945C195.565 165.596 196.229 165.922 197.094 165.922ZM205.758 166.57C204.815 165.518 204.344 164.128 204.344 162.398C204.344 160.664 204.815 159.271 205.758 158.219C206.701 157.167 208.005 156.641 209.672 156.641C211.339 156.641 212.643 157.167 213.586 158.219C214.529 159.271 215 160.664 215 162.398C215 164.128 214.529 165.518 213.586 166.57C212.638 167.628 211.333 168.156 209.672 168.156C208.01 168.156 206.706 167.628 205.758 166.57ZM209.672 165.922C210.536 165.922 211.201 165.596 211.664 164.945C212.128 164.294 212.359 163.445 212.359 162.398C212.359 161.352 212.128 160.503 211.664 159.852C211.206 159.206 210.542 158.883 209.672 158.883C208.802 158.883 208.138 159.206 207.68 159.852C207.216 160.503 206.984 161.352 206.984 162.398C206.984 163.445 207.216 164.294 207.68 164.945C208.143 165.596 208.807 165.922 209.672 165.922ZM229.438 168H227.133V161.984H223.305V168H221V160H229.438V168ZM235.914 168.156C234.56 168.156 233.461 167.789 232.617 167.055C231.773 166.32 231.352 165.302 231.352 164C231.352 162.698 231.773 161.68 232.617 160.945C233.461 160.211 234.56 159.844 235.914 159.844C237.268 159.844 238.367 160.211 239.211 160.945C240.055 161.68 240.477 162.698 240.477 164C240.477 165.302 240.055 166.32 239.211 167.055C238.367 167.789 237.268 168.156 235.914 168.156ZM235.914 166.18C236.596 166.18 237.133 165.977 237.523 165.57C237.914 165.164 238.109 164.641 238.109 164C238.109 163.359 237.914 162.836 237.523 162.43C237.133 162.023 236.596 161.82 235.914 161.82C235.227 161.82 234.693 162.023 234.312 162.43C233.922 162.836 233.727 163.359 233.727 164C233.727 164.641 233.922 165.164 234.312 165.57C234.693 165.977 235.227 166.18 235.914 166.18ZM252.617 161.984L252.75 163.328H252.938L253.07 161.984L255.164 156.797H259.211V168H256.68V160.562L256.969 159.133H256.703L256.312 160.562L254.266 165.312H251.422L249.375 160.562L248.984 159.133H248.719L249 160.562V168H246.477V156.797H250.523L252.617 161.984ZM263.023 166.602C261.977 165.57 261.453 164.169 261.453 162.398C261.453 160.633 261.977 159.229 263.023 158.188C264.065 157.156 265.477 156.641 267.258 156.641C268.966 156.641 270.341 157.078 271.383 157.953C272.419 158.828 272.938 159.927 272.938 161.25H270.234C270.229 161.188 270.214 161.102 270.188 160.992C270.161 160.878 270.089 160.688 269.969 160.422C269.833 160.146 269.672 159.906 269.484 159.703C269.292 159.495 269.003 159.305 268.617 159.133C268.221 158.966 267.768 158.883 267.258 158.883C266.253 158.883 265.474 159.214 264.922 159.875C264.37 160.536 264.094 161.378 264.094 162.398C264.094 163.419 264.372 164.263 264.93 164.93C265.482 165.591 266.258 165.922 267.258 165.922C267.747 165.922 268.19 165.844 268.586 165.688C268.982 165.531 269.284 165.331 269.492 165.086C269.909 164.596 270.141 164.164 270.188 163.789L270.234 163.555H272.938C272.938 164.883 272.419 165.979 271.383 166.844C270.341 167.719 268.966 168.156 267.258 168.156C265.471 168.156 264.06 167.638 263.023 166.602ZM282.031 156.797H285.039L280.492 162.352L285.289 168H282.281L277.625 162.477V168H275.102V156.797H277.625V162.211L282.031 156.797Z" fill="#231F20"/>
<defs>
<clipPath id="clip0_804_2">
<rect width="271.721" height="204.754" fill="white" transform="translate(0 119.103) rotate(-25.9971)"/>
</clipPath>
</defs>
</svg>
