<svg width="334" height="304" viewBox="0 0 334 304" fill="none" xmlns="http://www.w3.org/2000/svg">
<g clip-path="url(#clip0)">
<path d="M315.909 148.953C316.073 157.615 303.43 163.612 299.452 171.53C295.775 178.794 299.292 192.251 292.586 198.623C286.704 204.256 273.045 200.652 265.177 205.335C258.084 209.527 255.159 223.305 246.715 226.577C238.954 229.629 227.334 221.646 218.607 223.759C210.448 225.764 203.908 238.26 195.077 239.351C186.678 240.401 177.237 229.947 168.393 230.086C159.55 230.225 150.487 241.018 142.06 240.277C133.204 239.463 126.228 227.242 117.993 225.505C109.214 223.695 97.8858 232.039 90.0227 229.332C81.4596 226.345 78.0128 212.684 70.7966 208.759C62.7914 204.372 49.2834 208.477 43.1475 203.066C36.2705 196.944 39.2613 183.416 35.3193 176.258C31.0662 168.462 18.2438 162.871 18.0802 154.208C17.9389 145.591 30.5592 139.55 34.5829 131.609C38.2598 124.345 34.743 110.888 41.4036 104.538C47.2862 98.9053 60.9445 102.51 68.8128 97.8264C75.9054 93.6343 78.8307 79.8559 87.2745 76.5841C95.1038 73.5556 106.724 81.5381 115.451 79.4254C123.61 77.4204 130.15 64.9248 138.98 63.8334C147.379 62.783 156.821 73.2378 165.664 73.0988C174.508 72.9597 183.57 62.1669 191.997 62.9079C200.854 63.7212 207.829 75.9427 216.065 77.6794C224.844 79.4895 236.172 71.1451 244.035 73.853C252.598 76.8399 256.045 90.5001 263.261 94.4259C271.334 98.8363 284.796 94.7527 290.932 100.164C297.809 106.286 294.818 119.814 298.76 126.972C302.946 134.745 315.746 140.291 315.909 148.953Z" fill="#231F20"/>
</g>
<path d="M71.0469 143H61.3516V141.227C61.3516 140.701 61.4766 140.222 61.7266 139.789C61.9818 139.357 62.3281 139.005 62.7656 138.735C63.4062 138.334 64.3802 137.912 65.6875 137.469C66.1146 137.328 66.4766 137.196 66.7734 137.071C67.0703 136.94 67.3594 136.787 67.6406 136.61C67.9271 136.433 68.1406 136.232 68.2812 136.008C68.4271 135.784 68.5 135.539 68.5 135.274C68.5 134.268 67.7812 133.766 66.3438 133.766C65.625 133.766 65.0833 133.922 64.7188 134.235C64.3594 134.547 64.1797 134.985 64.1797 135.547V136.008H61.6562V135.547C61.6562 134.255 62.0521 133.281 62.8438 132.625C63.6406 131.969 64.8073 131.641 66.3438 131.641C67.8646 131.641 69.026 131.951 69.8281 132.571C70.6302 133.19 71.0312 134.091 71.0312 135.274C71.0312 135.94 70.8646 136.526 70.5312 137.031C70.1875 137.547 69.7656 137.948 69.2656 138.235C68.7448 138.542 68.1979 138.813 67.625 139.047C67.0156 139.297 66.4688 139.498 65.9844 139.649C65.4688 139.805 65.0469 139.987 64.7188 140.196C64.3802 140.409 64.2109 140.636 64.2109 140.875H71.0469V143ZM82.5781 143H72.8828V141.227C72.8828 140.701 73.0078 140.222 73.2578 139.789C73.513 139.357 73.8594 139.005 74.2969 138.735C74.9375 138.334 75.9115 137.912 77.2188 137.469C77.6458 137.328 78.0078 137.196 78.3047 137.071C78.6016 136.94 78.8906 136.787 79.1719 136.61C79.4583 136.433 79.6719 136.232 79.8125 136.008C79.9583 135.784 80.0312 135.539 80.0312 135.274C80.0312 134.268 79.3125 133.766 77.875 133.766C77.1562 133.766 76.6146 133.922 76.25 134.235C75.8906 134.547 75.7109 134.985 75.7109 135.547V136.008H73.1875V135.547C73.1875 134.255 73.5833 133.281 74.375 132.625C75.1719 131.969 76.3385 131.641 77.875 131.641C79.3958 131.641 80.5573 131.951 81.3594 132.571C82.1615 133.19 82.5625 134.091 82.5625 135.274C82.5625 135.94 82.3958 136.526 82.0625 137.031C81.7188 137.547 81.2969 137.948 80.7969 138.235C80.276 138.542 79.7292 138.813 79.1562 139.047C78.5469 139.297 78 139.498 77.5156 139.649C77 139.805 76.5781 139.987 76.25 140.196C75.9115 140.409 75.7422 140.636 75.7422 140.875H82.5781V143ZM84.0938 138.821L87.9922 137.211V139.227L84.0938 140.844V138.821ZM99.1406 143H89.4453V141.227C89.4453 140.701 89.5703 140.222 89.8203 139.789C90.0755 139.357 90.4219 139.005 90.8594 138.735C91.5 138.334 92.474 137.912 93.7812 137.469C94.2083 137.328 94.5703 137.196 94.8672 137.071C95.1641 136.94 95.4531 136.787 95.7344 136.61C96.0208 136.433 96.2344 136.232 96.375 136.008C96.5208 135.784 96.5938 135.539 96.5938 135.274C96.5938 134.268 95.875 133.766 94.4375 133.766C93.7188 133.766 93.1771 133.922 92.8125 134.235C92.4531 134.547 92.2734 134.985 92.2734 135.547V136.008H89.75V135.547C89.75 134.255 90.1458 133.281 90.9375 132.625C91.7344 131.969 92.901 131.641 94.4375 131.641C95.9583 131.641 97.1198 131.951 97.9219 132.571C98.724 133.19 99.125 134.091 99.125 135.274C99.125 135.94 98.9583 136.526 98.625 137.031C98.2812 137.547 97.8594 137.948 97.3594 138.235C96.8385 138.542 96.2917 138.813 95.7188 139.047C95.1094 139.297 94.5625 139.498 94.0781 139.649C93.5625 139.805 93.1406 139.987 92.8125 140.196C92.474 140.409 92.3047 140.636 92.3047 140.875H99.1406V143ZM110.586 135.078H107.914C107.914 135.042 107.904 134.987 107.883 134.914C107.862 134.836 107.81 134.727 107.727 134.586C107.648 134.44 107.547 134.31 107.422 134.196C107.109 133.909 106.651 133.766 106.047 133.766C105.281 133.766 104.703 134.031 104.312 134.563C103.922 135.104 103.727 135.815 103.727 136.696H103.789C103.919 136.565 104.055 136.451 104.195 136.352C104.367 136.232 104.542 136.133 104.719 136.055C105.219 135.831 105.831 135.719 106.555 135.719C107.904 135.719 108.982 136.05 109.789 136.711C110.602 137.373 111.008 138.248 111.008 139.336C111.008 140.524 110.57 141.456 109.695 142.133C108.815 142.815 107.62 143.156 106.109 143.156C104.401 143.156 103.133 142.664 102.305 141.68C101.471 140.701 101.055 139.339 101.055 137.594V137.352C101.055 135.659 101.479 134.284 102.328 133.227C103.182 132.17 104.417 131.641 106.031 131.641C107.552 131.641 108.69 131.992 109.445 132.696C110.206 133.399 110.586 134.193 110.586 135.078ZM106.141 137.672C105.505 137.672 104.974 137.818 104.547 138.11C104.125 138.406 103.914 138.821 103.914 139.352C103.914 139.873 104.122 140.281 104.539 140.578C104.951 140.88 105.484 141.031 106.141 141.031C106.833 141.031 107.378 140.883 107.773 140.586C108.169 140.284 108.367 139.873 108.367 139.352C108.367 138.836 108.164 138.425 107.758 138.117C107.352 137.821 106.812 137.672 106.141 137.672ZM123.492 146.203H121.188V143.156C119.771 143.099 118.654 142.714 117.836 142C117.018 141.281 116.609 140.281 116.609 139C116.609 137.719 117.018 136.719 117.836 136C118.654 135.287 119.771 134.901 121.188 134.844V131.797H123.492V134.844C124.909 134.901 126.026 135.287 126.844 136C127.661 136.719 128.07 137.719 128.07 139C128.07 140.281 127.661 141.281 126.844 142C126.026 142.714 124.909 143.099 123.492 143.156V146.203ZM123.492 136.602V141.399C124.227 141.393 124.779 141.164 125.148 140.711C125.518 140.263 125.703 139.693 125.703 139C125.703 138.308 125.518 137.737 125.148 137.289C124.779 136.836 124.227 136.607 123.492 136.602ZM121.188 141.399V136.602C120.458 136.607 119.909 136.836 119.539 137.289C119.169 137.737 118.984 138.308 118.984 139C118.984 139.693 119.169 140.263 119.539 140.711C119.909 141.164 120.458 141.393 121.188 141.399ZM138.781 139L138.734 139.61H132.094C132.094 140.089 132.284 140.5 132.664 140.844C133.034 141.193 133.568 141.367 134.266 141.367C134.661 141.367 135.016 141.3 135.328 141.164C135.625 141.029 135.82 140.893 135.914 140.758L136.062 140.571H138.586C138.576 140.643 138.552 140.735 138.516 140.844C138.474 140.974 138.359 141.18 138.172 141.461C137.974 141.768 137.737 142.034 137.461 142.258C137.159 142.492 136.734 142.698 136.188 142.875C135.615 143.063 134.974 143.156 134.266 143.156C132.901 143.156 131.794 142.789 130.945 142.055C130.096 141.321 129.672 140.302 129.672 139C129.672 137.698 130.094 136.68 130.938 135.946C131.781 135.211 132.88 134.844 134.234 134.844C135.578 134.844 136.672 135.211 137.516 135.946C138.359 136.68 138.781 137.698 138.781 139ZM135.789 137.125C135.419 136.797 134.901 136.633 134.234 136.633C133.568 136.633 133.052 136.8 132.688 137.133C132.312 137.472 132.125 137.828 132.125 138.203H136.328C136.328 137.818 136.148 137.459 135.789 137.125ZM148.875 140.774C148.875 141.607 148.612 142.185 148.086 142.508C147.555 142.836 146.677 143 145.453 143H140.695V135H145.031C146.219 135 147.081 135.164 147.617 135.492C148.159 135.821 148.43 136.349 148.43 137.078C148.43 137.334 148.385 137.571 148.297 137.789C148.208 138.003 148.096 138.167 147.961 138.281C147.685 138.516 147.44 138.659 147.227 138.711L147.086 138.742V138.86C147.216 138.86 147.422 138.917 147.703 139.031C147.906 139.12 148.089 139.224 148.25 139.344C148.427 139.479 148.576 139.675 148.695 139.93C148.815 140.185 148.875 140.466 148.875 140.774ZM146.508 140.539C146.508 139.972 146.086 139.688 145.242 139.688H143V141.367H145.242C146.086 141.367 146.508 141.091 146.508 140.539ZM143 138.203H144.953C145.688 138.203 146.055 137.94 146.055 137.414C146.055 136.893 145.688 136.633 144.953 136.633H143V138.203ZM158.727 135.961C159.466 136.701 159.836 137.714 159.836 139C159.836 140.287 159.466 141.3 158.727 142.039C157.982 142.784 157.06 143.156 155.961 143.156C155.357 143.156 154.82 143.06 154.352 142.867C153.872 142.68 153.544 142.49 153.367 142.297L153.117 142.024H153.016V146.203H150.711V135H153.016V136.313H153.133C153.185 136.198 153.318 136.026 153.531 135.797C153.698 135.63 153.878 135.482 154.07 135.352C154.284 135.211 154.56 135.091 154.898 134.992C155.242 134.893 155.596 134.844 155.961 134.844C157.06 134.844 157.982 135.216 158.727 135.961ZM156.867 140.516C157.268 140.125 157.469 139.62 157.469 139C157.469 138.386 157.268 137.878 156.867 137.477C156.466 137.086 155.924 136.891 155.242 136.891C154.56 136.891 154.018 137.086 153.617 137.477C153.216 137.878 153.016 138.386 153.016 139C153.016 139.636 153.219 140.143 153.625 140.524C154.031 140.914 154.57 141.11 155.242 141.11C155.93 141.11 156.471 140.912 156.867 140.516ZM161.438 140.742C161.438 139.92 161.776 139.302 162.453 138.891C163.13 138.485 163.987 138.281 165.023 138.281C165.56 138.281 166.042 138.336 166.469 138.446C166.896 138.565 167.193 138.675 167.359 138.774L167.617 138.953V137.781C167.617 137.438 167.487 137.149 167.227 136.914C166.966 136.685 166.531 136.571 165.922 136.571C165.484 136.571 165.094 136.651 164.75 136.813C164.391 136.979 164.211 137.235 164.211 137.578H161.844C161.849 136.667 162.219 135.982 162.953 135.524C163.682 135.071 164.672 134.844 165.922 134.844C167.188 134.844 168.169 135.089 168.867 135.578C169.57 136.068 169.922 136.802 169.922 137.781V140.281C169.922 140.604 169.961 140.828 170.039 140.953C170.117 141.078 170.253 141.141 170.445 141.141L170.781 141.078V143C170.583 143.104 170.253 143.156 169.789 143.156C169.19 143.156 168.737 143.026 168.43 142.766C168.154 142.542 167.979 142.336 167.906 142.149L167.859 142.039H167.742C167.742 142.06 167.716 142.107 167.664 142.18C167.612 142.248 167.51 142.341 167.359 142.461C167.214 142.581 167.039 142.688 166.836 142.781C166.305 143.031 165.609 143.156 164.75 143.156C163.802 143.156 163.013 142.951 162.383 142.539C161.753 142.133 161.438 141.534 161.438 140.742ZM165.695 141.414C166.107 141.414 166.477 141.362 166.805 141.258C167.117 141.159 167.333 141.058 167.453 140.953L167.617 140.805V140.328C167.576 140.287 167.521 140.242 167.453 140.196C167.365 140.138 167.159 140.068 166.836 139.985C166.492 139.896 166.112 139.852 165.695 139.852C164.435 139.852 163.805 140.112 163.805 140.633C163.805 141.154 164.435 141.414 165.695 141.414ZM172.992 139.578L173.578 135H180.477V143H178.172V136.985H175.602L175.195 140.102C175.055 141.19 174.771 141.972 174.344 142.446C173.917 142.92 173.31 143.156 172.523 143.156C172.148 143.156 171.852 143.115 171.633 143.031L171.5 143V141C171.677 141.042 171.844 141.063 172 141.063C172.302 141.063 172.526 140.946 172.672 140.711C172.818 140.472 172.924 140.094 172.992 139.578ZM184.812 143H182.312L184.055 140.188C183.951 140.162 183.771 140.058 183.516 139.875C183.328 139.745 183.169 139.599 183.039 139.438C182.888 139.261 182.758 139.021 182.648 138.719C182.544 138.417 182.492 138.094 182.492 137.75C182.492 135.917 183.664 135 186.008 135H190.266V143H187.961V140.508H186.328L184.812 143ZM187.961 136.696H186.312C185.344 136.696 184.859 137.047 184.859 137.75C184.859 138.453 185.344 138.805 186.312 138.805H187.961V136.696ZM205.891 143H196.195V141.227C196.195 140.701 196.32 140.222 196.57 139.789C196.826 139.357 197.172 139.005 197.609 138.735C198.25 138.334 199.224 137.912 200.531 137.469C200.958 137.328 201.32 137.196 201.617 137.071C201.914 136.94 202.203 136.787 202.484 136.61C202.771 136.433 202.984 136.232 203.125 136.008C203.271 135.784 203.344 135.539 203.344 135.274C203.344 134.268 202.625 133.766 201.188 133.766C200.469 133.766 199.927 133.922 199.562 134.235C199.203 134.547 199.023 134.985 199.023 135.547V136.008H196.5V135.547C196.5 134.255 196.896 133.281 197.688 132.625C198.484 131.969 199.651 131.641 201.188 131.641C202.708 131.641 203.87 131.951 204.672 132.571C205.474 133.19 205.875 134.091 205.875 135.274C205.875 135.94 205.708 136.526 205.375 137.031C205.031 137.547 204.609 137.948 204.109 138.235C203.589 138.542 203.042 138.813 202.469 139.047C201.859 139.297 201.312 139.498 200.828 139.649C200.312 139.805 199.891 139.987 199.562 140.196C199.224 140.409 199.055 140.636 199.055 140.875H205.891V143ZM209.219 141.571C208.276 140.518 207.805 139.128 207.805 137.399C207.805 135.664 208.276 134.271 209.219 133.219C210.161 132.167 211.466 131.641 213.133 131.641C214.799 131.641 216.104 132.167 217.047 133.219C217.99 134.271 218.461 135.664 218.461 137.399C218.461 139.128 217.99 140.518 217.047 141.571C216.099 142.628 214.794 143.156 213.133 143.156C211.471 143.156 210.167 142.628 209.219 141.571ZM213.133 140.922C213.997 140.922 214.661 140.597 215.125 139.946C215.589 139.295 215.82 138.446 215.82 137.399C215.82 136.352 215.589 135.503 215.125 134.852C214.667 134.206 214.003 133.883 213.133 133.883C212.263 133.883 211.599 134.206 211.141 134.852C210.677 135.503 210.445 136.352 210.445 137.399C210.445 138.446 210.677 139.295 211.141 139.946C211.604 140.597 212.268 140.922 213.133 140.922ZM230 143H220.305V141.227C220.305 140.701 220.43 140.222 220.68 139.789C220.935 139.357 221.281 139.005 221.719 138.735C222.359 138.334 223.333 137.912 224.641 137.469C225.068 137.328 225.43 137.196 225.727 137.071C226.023 136.94 226.312 136.787 226.594 136.61C226.88 136.433 227.094 136.232 227.234 136.008C227.38 135.784 227.453 135.539 227.453 135.274C227.453 134.268 226.734 133.766 225.297 133.766C224.578 133.766 224.036 133.922 223.672 134.235C223.312 134.547 223.133 134.985 223.133 135.547V136.008H220.609V135.547C220.609 134.255 221.005 133.281 221.797 132.625C222.594 131.969 223.76 131.641 225.297 131.641C226.818 131.641 227.979 131.951 228.781 132.571C229.583 133.19 229.984 134.091 229.984 135.274C229.984 135.94 229.818 136.526 229.484 137.031C229.141 137.547 228.719 137.948 228.219 138.235C227.698 138.542 227.151 138.813 226.578 139.047C225.969 139.297 225.422 139.498 224.938 139.649C224.422 139.805 224 139.987 223.672 140.196C223.333 140.409 223.164 140.636 223.164 140.875H230V143ZM233.703 135.594H231.43V134.024L234.086 131.797H236.234V143H233.703V135.594ZM242.555 143V135H249.344V136.985H244.859V143H242.555ZM254.453 143.156C253.099 143.156 252 142.789 251.156 142.055C250.312 141.321 249.891 140.302 249.891 139C249.891 137.698 250.312 136.68 251.156 135.946C252 135.211 253.099 134.844 254.453 134.844C255.807 134.844 256.906 135.211 257.75 135.946C258.594 136.68 259.016 137.698 259.016 139C259.016 140.302 258.594 141.321 257.75 142.055C256.906 142.789 255.807 143.156 254.453 143.156ZM254.453 141.18C255.135 141.18 255.672 140.977 256.062 140.571C256.453 140.164 256.648 139.641 256.648 139C256.648 138.36 256.453 137.836 256.062 137.43C255.672 137.024 255.135 136.821 254.453 136.821C253.766 136.821 253.232 137.024 252.852 137.43C252.461 137.836 252.266 138.36 252.266 139C252.266 139.641 252.461 140.164 252.852 140.571C253.232 140.977 253.766 141.18 254.453 141.18ZM261.867 144.821H259.562V141.156H260.031C260.375 141.156 260.615 141.026 260.75 140.766C260.885 140.505 260.992 140.05 261.07 139.399L261.594 135H268.477V141.156H269.578V144.821H267.273V143H261.867V144.821ZM266.172 136.844H263.664L263.273 139.883C263.232 140.185 263.161 140.443 263.062 140.656C262.969 140.87 262.875 141 262.781 141.047L262.656 141.094V141.156H266.172V136.844ZM270.703 140.742C270.703 139.92 271.042 139.302 271.719 138.891C272.396 138.485 273.253 138.281 274.289 138.281C274.826 138.281 275.307 138.336 275.734 138.446C276.161 138.565 276.458 138.675 276.625 138.774L276.883 138.953V137.781C276.883 137.438 276.753 137.149 276.492 136.914C276.232 136.685 275.797 136.571 275.188 136.571C274.75 136.571 274.359 136.651 274.016 136.813C273.656 136.979 273.477 137.235 273.477 137.578H271.109C271.115 136.667 271.484 135.982 272.219 135.524C272.948 135.071 273.938 134.844 275.188 134.844C276.453 134.844 277.435 135.089 278.133 135.578C278.836 136.068 279.188 136.802 279.188 137.781V140.281C279.188 140.604 279.227 140.828 279.305 140.953C279.383 141.078 279.518 141.141 279.711 141.141L280.047 141.078V143C279.849 143.104 279.518 143.156 279.055 143.156C278.456 143.156 278.003 143.026 277.695 142.766C277.419 142.542 277.245 142.336 277.172 142.149L277.125 142.039H277.008C277.008 142.06 276.982 142.107 276.93 142.18C276.878 142.248 276.776 142.341 276.625 142.461C276.479 142.581 276.305 142.688 276.102 142.781C275.57 143.031 274.875 143.156 274.016 143.156C273.068 143.156 272.279 142.951 271.648 142.539C271.018 142.133 270.703 141.534 270.703 140.742ZM274.961 141.414C275.372 141.414 275.742 141.362 276.07 141.258C276.383 141.159 276.599 141.058 276.719 140.953L276.883 140.805V140.328C276.841 140.287 276.786 140.242 276.719 140.196C276.63 140.138 276.424 140.068 276.102 139.985C275.758 139.896 275.378 139.852 274.961 139.852C273.701 139.852 273.07 140.112 273.07 140.633C273.07 141.154 273.701 141.414 274.961 141.414ZM114.828 154.594H112.555V153.024L115.211 150.797H117.359V162H114.828V154.594ZM119.633 158.719H122.305C122.299 158.745 122.31 158.802 122.336 158.891C122.367 158.974 122.43 159.086 122.523 159.227C122.617 159.362 122.732 159.485 122.867 159.594C123.013 159.719 123.216 159.823 123.477 159.906C123.737 159.99 124.018 160.031 124.32 160.031C125.154 160.031 125.776 159.766 126.188 159.235C126.594 158.714 126.797 158.003 126.797 157.102H126.734C126.729 157.107 126.716 157.12 126.695 157.141C126.68 157.162 126.661 157.185 126.641 157.211C126.62 157.232 126.581 157.263 126.523 157.305C126.471 157.347 126.409 157.393 126.336 157.446C126.19 157.55 126.016 157.649 125.812 157.742C125.312 157.966 124.698 158.078 123.969 158.078C122.62 158.078 121.544 157.748 120.742 157.086C119.93 156.425 119.523 155.55 119.523 154.461C119.523 153.279 119.961 152.347 120.836 151.664C121.716 150.982 122.909 150.641 124.414 150.641C126.117 150.641 127.388 151.133 128.227 152.117C129.055 153.112 129.469 154.477 129.469 156.211V156.446C129.469 158.138 129.039 159.513 128.18 160.571C127.31 161.628 126.029 162.156 124.336 162.156C123.539 162.156 122.826 162.052 122.195 161.844C121.565 161.636 121.068 161.354 120.703 161C119.99 160.308 119.633 159.547 119.633 158.719ZM124.383 156.125C125.018 156.125 125.549 155.979 125.977 155.688C126.398 155.396 126.609 154.982 126.609 154.446C126.609 153.93 126.401 153.518 125.984 153.211C125.568 152.914 125.034 152.766 124.383 152.766C123.69 152.766 123.146 152.917 122.75 153.219C122.359 153.516 122.164 153.925 122.164 154.446C122.164 154.972 122.367 155.383 122.773 155.68C123.174 155.977 123.711 156.125 124.383 156.125ZM133.422 159.946C133.672 160.17 133.797 160.479 133.797 160.875C133.797 161.271 133.672 161.584 133.422 161.813C133.167 162.042 132.839 162.156 132.438 162.156C132.036 162.156 131.708 162.042 131.453 161.813C131.203 161.584 131.078 161.271 131.078 160.875C131.078 160.479 131.203 160.17 131.453 159.946C131.708 159.716 132.036 159.602 132.438 159.602C132.839 159.602 133.167 159.716 133.422 159.946ZM133.422 154.188C133.672 154.417 133.797 154.727 133.797 155.117C133.797 155.518 133.672 155.831 133.422 156.055C133.167 156.284 132.839 156.399 132.438 156.399C132.036 156.399 131.708 156.284 131.453 156.055C131.203 155.831 131.078 155.518 131.078 155.117C131.078 154.727 131.203 154.417 131.453 154.188C131.708 153.959 132.036 153.844 132.438 153.844C132.839 153.844 133.167 153.959 133.422 154.188ZM136.812 160.571C135.87 159.518 135.398 158.128 135.398 156.399C135.398 154.664 135.87 153.271 136.812 152.219C137.755 151.167 139.06 150.641 140.727 150.641C142.393 150.641 143.698 151.167 144.641 152.219C145.583 153.271 146.055 154.664 146.055 156.399C146.055 158.128 145.583 159.518 144.641 160.571C143.693 161.628 142.388 162.156 140.727 162.156C139.065 162.156 137.76 161.628 136.812 160.571ZM140.727 159.922C141.591 159.922 142.255 159.597 142.719 158.946C143.182 158.295 143.414 157.446 143.414 156.399C143.414 155.352 143.182 154.503 142.719 153.852C142.26 153.206 141.596 152.883 140.727 152.883C139.857 152.883 139.193 153.206 138.734 153.852C138.271 154.503 138.039 155.352 138.039 156.399C138.039 157.446 138.271 158.295 138.734 158.946C139.198 159.597 139.862 159.922 140.727 159.922ZM149.391 160.571C148.448 159.518 147.977 158.128 147.977 156.399C147.977 154.664 148.448 153.271 149.391 152.219C150.333 151.167 151.638 150.641 153.305 150.641C154.971 150.641 156.276 151.167 157.219 152.219C158.161 153.271 158.633 154.664 158.633 156.399C158.633 158.128 158.161 159.518 157.219 160.571C156.271 161.628 154.966 162.156 153.305 162.156C151.643 162.156 150.339 161.628 149.391 160.571ZM153.305 159.922C154.169 159.922 154.833 159.597 155.297 158.946C155.76 158.295 155.992 157.446 155.992 156.399C155.992 155.352 155.76 154.503 155.297 153.852C154.839 153.206 154.174 152.883 153.305 152.883C152.435 152.883 151.771 153.206 151.312 153.852C150.849 154.503 150.617 155.352 150.617 156.399C150.617 157.446 150.849 158.295 151.312 158.946C151.776 159.597 152.44 159.922 153.305 159.922ZM173.07 162H170.766V155.985H166.938V162H164.633V154H173.07V162ZM179.547 162.156C178.193 162.156 177.094 161.789 176.25 161.055C175.406 160.321 174.984 159.302 174.984 158C174.984 156.698 175.406 155.68 176.25 154.946C177.094 154.211 178.193 153.844 179.547 153.844C180.901 153.844 182 154.211 182.844 154.946C183.688 155.68 184.109 156.698 184.109 158C184.109 159.302 183.688 160.321 182.844 161.055C182 161.789 180.901 162.156 179.547 162.156ZM179.547 160.18C180.229 160.18 180.766 159.977 181.156 159.571C181.547 159.164 181.742 158.641 181.742 158C181.742 157.36 181.547 156.836 181.156 156.43C180.766 156.024 180.229 155.821 179.547 155.821C178.859 155.821 178.326 156.024 177.945 156.43C177.555 156.836 177.359 157.36 177.359 158C177.359 158.641 177.555 159.164 177.945 159.571C178.326 159.977 178.859 160.18 179.547 160.18ZM196.25 155.985L196.383 157.328H196.57L196.703 155.985L198.797 150.797H202.844V162H200.312V154.563L200.602 153.133H200.336L199.945 154.563L197.898 159.313H195.055L193.008 154.563L192.617 153.133H192.352L192.633 154.563V162H190.109V150.797H194.156L196.25 155.985ZM206.656 160.602C205.609 159.571 205.086 158.17 205.086 156.399C205.086 154.633 205.609 153.229 206.656 152.188C207.698 151.156 209.109 150.641 210.891 150.641C212.599 150.641 213.974 151.078 215.016 151.953C216.052 152.828 216.57 153.927 216.57 155.25H213.867C213.862 155.188 213.846 155.102 213.82 154.992C213.794 154.878 213.721 154.688 213.602 154.422C213.466 154.146 213.305 153.906 213.117 153.703C212.924 153.495 212.635 153.305 212.25 153.133C211.854 152.966 211.401 152.883 210.891 152.883C209.885 152.883 209.107 153.214 208.555 153.875C208.003 154.537 207.727 155.378 207.727 156.399C207.727 157.42 208.005 158.263 208.562 158.93C209.115 159.591 209.891 159.922 210.891 159.922C211.38 159.922 211.823 159.844 212.219 159.688C212.615 159.531 212.917 159.331 213.125 159.086C213.542 158.597 213.773 158.164 213.82 157.789L213.867 157.555H216.57C216.57 158.883 216.052 159.979 215.016 160.844C213.974 161.719 212.599 162.156 210.891 162.156C209.104 162.156 207.693 161.638 206.656 160.602ZM225.664 150.797H228.672L224.125 156.352L228.922 162H225.914L221.258 156.477V162H218.734V150.797H221.258V156.211L225.664 150.797Z" fill="#FF61EF"/>
<defs>
<clipPath id="clip0">
<rect width="271.721" height="204.754" fill="white" transform="translate(0 119.102) rotate(-25.9971)"/>
</clipPath>
</defs>
</svg>
