<svg width="1310" height="583" viewBox="0 0 1310 583" fill="none" xmlns="http://www.w3.org/2000/svg">
<g clip-path="url(#clip0)">
<path d="M1270.06 243.654C1228.2 310.859 1178.16 371.963 1131.95 436.073C1115.43 457.562 1097.66 481.654 1081.15 504.041C1049.69 546.796 1023.04 583.225 1019.45 582.956C999.032 567.343 975.474 555.724 955.595 539.214C946.037 531.811 936.973 524.588 928.357 517.41C848.753 451.461 806.931 395.516 774.713 339.751C754.296 299.24 737.603 239.84 733.25 222.927C722.436 181.653 729.84 127.413 739.936 110.454C755.732 76.6722 791.316 57.3809 814.201 54.3302C847.003 48.9017 883.484 60.6559 905.248 74.5636C926.742 87.9329 946.217 103.77 965.512 120.1C1032.46 176.045 1020.88 186.453 1030.49 175.461C1080.43 120.235 1146.53 77.2554 1205.45 69.5837C1252.47 63.4375 1296.81 74.9674 1308.3 121.222C1316.82 165.726 1291.51 206.686 1270.06 243.654Z" fill="#D2AEFF"/>
<path d="M1081.19 504.041C1049.74 546.796 1023.08 583.225 1019.49 582.956C999.077 567.343 975.519 555.724 955.64 539.214C946.082 531.812 937.018 524.589 928.402 517.41C933.877 514.584 939.441 511.847 945.364 510.008C957.659 506.195 970.179 503.278 983.013 501.843C997.506 500.228 1012.05 499.869 1026.58 500.003C1035.33 500.048 1044.04 500.497 1052.74 501.304C1058.44 501.843 1064.14 502.561 1069.8 503.189C1072.4 503.458 1075.05 503.951 1077.65 503.906C1078.86 503.906 1080.03 503.951 1081.19 504.041Z" fill="#A383FF"/>
<path d="M920.819 480.398C905.741 419.114 921.626 328.49 1000.11 338.719C1067.91 315.48 1093.62 416.198 1092.86 464.337C1092.73 467.612 1093.67 470.797 1089 470.662C1075.05 471.649 1061.85 472.188 1047.9 473.04C1005.31 475.508 963.358 478.11 920.819 480.398Z" fill="#A383FF"/>
<path d="M977.089 502.426C976.595 490.447 973.454 464.83 979.646 478.424C986.332 481.071 993.063 482.237 1000.24 481.923C1013.66 480.936 1023.89 480.443 1029.9 474.117C1033.49 471.964 1033.04 497.491 1033.54 498.658C1022.14 513.462 989.743 510.322 977.089 502.426Z" fill="#FECCBE"/>
<path d="M954.518 439.437C953.172 438.63 952.05 438.002 950.928 437.284C949.447 436.342 948.46 434.996 947.787 433.426C946.216 429.747 947.562 426.517 951.332 424.991C951.601 424.902 951.825 424.767 952.184 424.543C952.095 422.614 952.005 420.684 951.87 418.71C951.422 412.026 951.78 405.386 952.947 398.791C953.755 394.215 955.146 389.863 957.524 385.87C961.069 379.859 965.197 374.296 970.717 369.899C971.614 369.181 972.467 368.508 973.454 367.925C976.595 366.041 979.736 364.201 982.922 362.407C984.044 361.779 985.3 361.33 986.557 360.971C990.012 360.119 993.467 359.311 996.967 358.549C999.929 357.876 1002.89 357.786 1005.9 357.92C1011.37 358.235 1016.67 359.266 1021.92 360.747C1025.96 361.913 1029.55 363.842 1032.73 366.579C1036.46 369.809 1039.46 373.623 1041.93 377.885C1045.74 384.435 1048.21 391.478 1049.87 398.836C1051.17 404.623 1051.98 410.456 1052.16 416.378C1052.21 417.32 1052.25 418.217 1052.34 418.98C1053.06 419.653 1053.78 419.294 1054.36 419.339C1057.05 419.653 1058.76 421.716 1058.49 424.408C1058.31 426.472 1057.23 428.132 1055.71 429.478C1054.85 430.24 1053.96 430.868 1053.01 431.496C1052.07 432.125 1051.67 432.887 1051.53 434.054C1050.9 439.572 1049.87 445 1048.21 450.294C1047.36 453.076 1046.33 455.812 1045.34 458.504C1044.53 460.613 1043.59 462.677 1042.78 464.74C1041.3 468.554 1039.1 471.874 1036.23 474.79C1033.45 477.616 1030.58 480.263 1027.21 482.372C1022.77 485.153 1018.01 486.903 1012.85 487.755C1005.76 488.967 998.852 488.294 991.942 486.679C987.768 485.736 983.954 484.076 980.589 481.34C979.781 480.712 978.973 480.084 978.121 479.455C976.595 478.334 975.294 477.033 974.082 475.552C972.601 473.713 971.031 471.963 969.64 470.079C965.242 464.112 961.024 458.011 958.601 450.877C957.3 447.244 955.909 443.385 954.518 439.437Z" fill="#FFE2D3"/>
<path d="M1161.52 62.6743C1161.34 60.1171 1160.8 57.6496 1159.68 55.3167C1158.29 52.4455 1156.09 50.5612 1152.81 50.1126C1150.21 49.7537 1147.65 49.2153 1145.05 48.7218C1142.94 48.318 1140.88 47.8694 1138.81 47.4208C1138.81 47.3759 1138.77 47.331 1138.77 47.2862C1138.54 46.7029 1138.32 46.2094 1138.14 45.7608C1137.91 45.2225 1137.69 44.6841 1137.46 44.1457C1136.3 41.4091 1135.22 38.6275 1133.87 35.9806C1129.7 27.5014 1124.36 19.8298 1117.59 13.1451C1114.44 10.0495 1110.99 7.26801 1107.09 5.15943C1104.03 3.49948 1100.8 2.19844 1097.26 1.8844C1091.56 1.34604 1086.94 3.27516 1083.71 8.12041C1082.45 10.0047 1081.55 12.0684 1081.01 14.2667C1080.3 17.0931 1079.89 19.9643 1079.89 22.8805C1079.85 26.4247 1080.3 29.924 1080.88 33.4234C1080.97 34.0066 1081.1 34.5898 1081.19 35.173C1081.24 35.532 1081.51 35.8909 1080.92 36.3395C1080.79 36.2946 1080.61 36.2946 1080.48 36.2498C1079.58 36.0703 1078.55 35.9357 1077.56 35.6665C1076.66 35.4422 1075.85 35.4871 1075.05 35.7114C1074.96 35.7114 1074.91 35.7563 1074.82 35.7563C1073.34 36.16 1072.04 36.833 1070.87 37.82C1068.76 39.6145 1066.97 41.6334 1065.76 44.1457C1064.91 45.8954 1064.1 47.7348 1063.42 49.5742C1062.21 52.8492 1061.05 56.0794 1059.97 59.3993C1059.21 61.8219 1058.53 64.2445 1058 66.712C1057.46 69.1795 1057.05 71.6919 1056.6 74.2042C1055.84 78.4214 1055.89 82.5937 1056.74 86.766C1057.46 90.1307 1059.12 92.5533 1061.9 94.1236C1062.53 94.4825 1063.2 94.7517 1063.92 95.0208C1070.83 97.4435 1077.69 99.9558 1084.56 102.423C1084.92 102.558 1085.37 102.603 1085.55 102.962C1085.64 103.096 1085.68 103.231 1085.68 103.455C1084.69 103.949 1083.71 104.442 1082.72 104.936C1070.69 110.947 1058.71 117.004 1046.69 123.06C1045.88 123.464 1045.03 123.868 1044.22 124.317C1043.99 124.227 1043.82 124.092 1043.64 124.003C1040.49 122.298 1037.49 120.683 1034.44 119.068C1032.87 118.215 1031.34 117.318 1029.73 116.555C1027.48 115.479 1026.54 116.151 1026.72 118.664C1026.94 121.849 1027.39 124.99 1028.24 128.085C1029.5 132.661 1031.48 136.878 1033.76 141.006C1035.6 144.326 1037.98 147.197 1040.67 149.844C1041.08 150.248 1041.48 150.607 1041.98 150.921C1043.01 151.594 1044.04 151.1 1044.26 149.844C1044.89 146.165 1045.48 142.441 1046.15 138.763C1046.42 137.148 1046.78 135.532 1047.09 133.873C1047.23 133.289 1047.32 132.706 1047.45 132.078C1048.08 131.899 1048.35 131.809 1048.62 131.719C1048.71 131.719 1048.8 131.674 1048.89 131.674C1061.41 128.668 1073.88 125.707 1086.4 122.702C1095.51 120.548 1104.57 118.395 1113.68 116.196L1117.32 115.299C1117.95 115.165 1118.48 115.075 1119.07 115.12C1119.74 115.12 1120.41 115.254 1121.13 115.523C1125.35 117.094 1129.61 118.529 1133.83 120.144C1135.62 120.817 1137.06 120.503 1138.5 119.292C1140.87 117.273 1142.94 114.94 1144.78 112.473C1152.14 102.648 1157.03 91.6561 1159.95 79.7224C1161.25 74.1145 1161.97 68.4617 1161.52 62.6743ZM1087.3 21.7589C1087.43 19.5157 1087.84 17.3174 1088.73 15.2088C1089.32 13.9078 1090.03 12.6965 1091.07 11.7543C1092.28 10.6328 1093.67 9.95981 1095.33 9.87008C1096.94 9.78036 1098.47 9.91495 1100.04 10.4084C1102.78 11.2608 1105.16 12.6516 1107.44 14.3564C1110.94 16.9136 1114 19.9643 1116.78 23.2842C1121.62 29.1165 1125.48 35.532 1128.62 42.4409C1128.67 42.4858 1128.67 42.5755 1128.71 42.6204C1129.12 43.4728 1129.39 44.37 1129.84 45.4468C1129.66 45.4468 1129.52 45.4916 1129.43 45.4916C1129.12 45.5365 1128.89 45.5814 1128.71 45.5365C1115.75 43.069 1102.78 40.6015 1089.99 38.134C1089.94 38.0892 1089.94 38.0892 1089.9 38.0443C1089.68 37.82 1089.54 37.6854 1089.5 37.5508C1089.23 36.6535 1088.96 35.7563 1088.73 34.859C1087.61 30.597 1087.07 26.2452 1087.3 21.7589Z" fill="#A383FF"/>
<path d="M951.242 402.604C951.107 402.469 951.018 402.335 950.883 402.2C949.941 401.124 951.422 397.983 951.422 397.445C951.466 396.996 951.646 396.548 951.825 396.099C955.011 387.351 959.544 379.41 966.185 372.815C969.101 369.943 980.23 362.406 980.499 362.317C981.711 361.823 982.877 361.24 984.089 360.702C991.448 357.337 1000.83 356.17 1008.81 356.933C1013.97 357.427 1019 358.503 1023.8 360.612C1024.12 360.746 1025.96 361.464 1028.38 362.586C1033.27 364.874 1037.62 368.149 1041.26 372.142C1042.2 373.174 1043.19 374.25 1044.13 375.282C1044.62 375.865 1047.63 380.98 1048.08 381.787C1050.01 385.152 1051.71 388.562 1052.79 392.285C1053.01 393.093 1053.19 393.945 1053.19 394.753C1053.15 395.964 1052.25 396.862 1051.04 396.951C1050.23 396.996 1049.33 396.906 1048.53 396.727C1046.96 396.413 1045.43 395.919 1043.86 395.605C1040.27 394.798 1036.63 394.394 1032.96 394.349C1027.03 394.215 1021.11 394.394 1015.23 395.202C1014.38 395.336 1013.53 395.246 1012.72 395.291C1011.06 395.426 1010.03 394.574 1009.53 393.093C1008.68 390.311 1007.87 387.53 1007.06 384.748C1006.62 383.223 1006.3 381.653 1005.85 380.127C1005.36 378.423 1004.78 376.763 1004.24 375.013C1004.19 374.834 1004.01 374.744 1003.83 374.789C1003.34 374.968 1003.29 375.507 1003.16 375.865C1001.45 381.204 999.75 386.588 998.044 391.971C997.685 393.138 997.282 394.304 996.833 395.426C996.384 396.458 995.576 397.041 994.41 397.041C993.737 397.041 993.108 397.041 992.435 397.041C988.666 397.086 984.942 397.041 981.172 397.176C979.198 397.22 977.268 397.535 975.294 397.714C968.653 398.297 962.101 399.419 955.595 401.034C954.249 401.348 952.813 401.572 951.825 402.694C951.601 402.604 951.466 402.604 951.242 402.604Z" fill="#A383FF"/>
<path d="M1093.94 74.8771C1093.17 73.9349 1092.64 73.262 1092.1 72.6339C1090.35 70.6151 1089.23 68.2373 1088.51 65.6801C1088.01 64.0201 1087.97 62.3602 1088.19 60.6554C1088.64 57.8738 1090.26 56.3036 1093.09 56.0793C1094.39 55.9896 1095.73 56.0793 1096.99 56.3036C1100.98 57.0214 1104.71 58.5468 1108.21 60.6105C1112.87 63.392 1117.41 66.4428 1121.62 69.8972C1127.37 74.6079 1133.07 79.3186 1138.77 84.0741C1139.26 84.4778 1139.8 84.9265 1140.2 85.42C1141.14 86.6313 1140.7 88.1566 1139.17 88.4707C1137.69 88.7847 1136.21 88.9642 1134.73 89.1436C1128.4 89.8615 1122.07 90.6241 1115.7 91.2522C1111.89 91.656 1108.03 91.9252 1104.21 92.1944C1101.88 92.3738 1099.55 92.5533 1097.21 92.5533C1095.06 92.5084 1092.91 92.2841 1090.8 91.9252C1088.82 91.6111 1086.98 90.9382 1085.37 89.682C1083.66 88.381 1082.5 86.721 1082.36 84.4778C1082.23 82.0104 1083.35 80.1261 1085.19 78.6007C1086.85 77.21 1088.78 76.223 1090.89 75.5949C1091.83 75.4154 1092.73 75.1911 1093.94 74.8771Z" fill="#FF61EF"/>
<path d="M1079 53.1189C1078.68 56.3042 1077.87 59.3998 1077.07 62.4954C1075.94 66.7574 1074.87 71.0643 1073.48 75.2366C1071.64 80.7099 1069.17 85.9141 1065.76 90.6248C1065.04 91.5669 1064.28 92.4642 1063.38 93.2717C1062.62 93.9446 1061.5 93.9895 1060.69 93.3614C1058.62 91.8361 1057.32 89.6378 1056.74 86.8114C1055.89 82.6391 1055.8 78.4219 1056.6 74.2496C1057.05 71.7373 1057.41 69.2249 1058 66.7574C1058.53 64.2899 1059.21 61.8224 1059.97 59.4447C1061.05 56.1248 1062.21 52.8498 1063.42 49.6196C1064.1 47.7802 1064.91 45.9857 1065.76 44.1911C1066.97 41.7236 1068.76 39.6599 1070.87 37.8654C1071.41 37.4168 1072.26 36.9681 1073.12 36.5643C1074.42 35.9363 1075.99 36.34 1076.84 37.5065C1077.47 38.4037 1077.96 39.4356 1078.23 40.6021C1079.18 44.6846 1079.4 48.8569 1079 53.1189Z" fill="#FF61EF"/>
<path d="M1119.02 115.075C1118.44 115.075 1117.86 115.12 1117.27 115.254L1113.64 116.152C1103.36 112.428 1093.04 108.66 1082.76 104.936C1083.75 104.442 1084.74 103.949 1085.73 103.455C1085.73 103.231 1085.68 103.097 1085.59 102.962C1086.04 103.097 1086.44 103.231 1086.89 103.411C1097.62 107.269 1108.3 111.172 1119.02 115.075Z" fill="#FF61EF"/>
<path d="M1089.9 38.0448C1086.8 37.4615 1083.75 36.9232 1080.75 36.34C1080.66 36.34 1080.57 36.2951 1080.43 36.2502C1080.57 36.2951 1080.75 36.2951 1080.88 36.34C1081.46 35.8913 1081.24 35.5324 1081.15 35.1735C1081.06 34.5903 1080.93 34.0071 1080.84 33.4238C1083.39 34.2314 1086.09 34.4557 1088.69 34.9043C1088.91 35.8016 1089.18 36.6989 1089.45 37.5961C1089.54 37.6859 1089.68 37.8204 1089.9 38.0448Z" fill="#FF61EF"/>
<path d="M1129.43 45.4472C1129.57 45.4472 1129.7 45.4023 1129.84 45.4023C1129.39 44.2807 1129.12 43.3835 1128.71 42.5759C1128.67 42.5311 1128.67 42.4413 1128.62 42.3965C1129.61 42.5759 1130.69 42.8003 1131.77 43.0246C1133.65 43.3835 1135.54 43.7872 1137.42 44.1462C1137.64 44.6845 1137.87 45.2229 1138.09 45.7612C1138.32 46.2547 1138.5 46.7034 1138.72 47.2866C1135.67 46.7034 1132.53 46.0753 1129.43 45.4472Z" fill="#FF61EF"/>
<path d="M1048.84 131.63C1048.75 131.63 1048.66 131.675 1048.57 131.675C1048.3 131.72 1048.03 131.855 1047.4 132.034C1047.27 132.617 1047.18 133.245 1047.05 133.829C1046.51 133.29 1046.01 132.707 1045.61 132.079C1044.26 129.881 1043.64 127.458 1043.59 125.484C1043.59 124.901 1043.59 124.407 1043.64 123.914C1043.82 124.004 1044.04 124.138 1044.22 124.228C1045.03 123.824 1045.88 123.42 1046.69 122.972C1045.97 126.247 1046.82 129.073 1048.84 131.63Z" fill="#FF61EF"/>
<path d="M998.583 342.308C998.404 339.93 997.013 338.18 995.487 336.521C991.897 332.617 987.859 329.253 983.372 326.516C975.25 321.626 966.993 317.005 958.063 313.64C953.666 311.98 949.941 309.333 946.935 305.699C946.037 304.623 945.23 303.456 944.871 302.065C944.601 301.078 944.422 300.047 944.467 299.015C944.467 296.951 945.499 295.426 947.294 294.484C948.82 293.676 950.435 293.317 952.14 293.227C954.788 293.093 957.39 293.541 959.948 294.125C960.531 294.259 961.204 294.259 962.012 294.349C961.653 293.497 961.384 292.913 961.115 292.33C960.262 290.446 959.365 288.606 958.557 286.677C958.153 285.735 957.839 284.748 957.659 283.716C957.256 281.563 958.871 279.993 960.98 280.396C961.967 280.576 962.954 281.025 963.852 281.518C965.781 282.55 967.352 284.03 968.878 285.601C973.769 290.58 977.807 296.233 981.307 302.245C986.109 310.545 990.82 318.889 994.679 327.638C995.218 328.804 995.846 329.926 996.833 331.002C996.833 330.509 996.923 330.015 996.878 329.522C996.385 324.497 995.846 319.428 995.397 314.403C995.173 311.98 995.083 309.513 995.083 307.09C995.083 299.688 994.949 292.24 995.308 284.838C995.756 275.551 996.699 266.309 998.539 257.202C999.391 252.985 1000.42 248.768 1002.08 244.775C1002.53 243.653 1003.12 242.577 1003.7 241.5C1003.92 241.096 1004.24 240.737 1004.55 240.378C1005.05 239.885 1005.85 239.885 1006.35 240.289C1006.84 240.692 1006.97 241.186 1006.8 241.814C1006.71 242.083 1006.57 242.352 1006.44 242.577C1004.1 246.3 1002.98 250.473 1001.99 254.69C1000.51 261.015 999.66 267.431 998.987 273.846C997.641 286.857 997.596 299.912 998.09 312.967C998.359 319.831 999.122 326.651 1000.29 333.38C1000.42 334.188 1000.69 334.995 1000.96 336.117C1001.28 335.399 1001.5 334.995 1001.68 334.591C1001.9 333.963 1002.13 333.335 1002.31 332.707C1004.46 324.542 1008.23 317.095 1012.09 309.692C1012.45 309.019 1012.76 308.346 1013.17 307.718C1019.09 298.028 1025.19 288.472 1032.6 279.768C1035.92 275.865 1039.69 272.545 1043.73 269.45C1044.31 269.001 1044.98 268.597 1045.65 268.328C1046.91 267.79 1048.17 268.463 1048.44 269.809C1048.53 270.347 1048.53 270.93 1048.44 271.469C1048.12 272.949 1047.76 274.385 1047.36 275.82C1046.78 277.974 1045.83 280.038 1045.43 282.595C1045.97 282.281 1046.24 282.146 1046.46 281.922C1047.4 280.98 1048.35 280.082 1049.24 279.095C1052.66 275.282 1056.51 272.052 1060.51 268.867C1063.65 266.399 1067.06 264.47 1071.01 263.707C1072.44 263.438 1074.01 263.303 1075.5 263.483C1078.01 263.797 1080.21 264.784 1081.01 267.566C1081.06 267.7 1081.28 267.79 1081.42 267.88C1081.42 269.181 1081.42 270.526 1081.42 271.828C1081.28 271.962 1081.06 272.052 1081.06 272.186C1080.84 273.936 1080.03 275.372 1079.04 276.763C1075.63 281.608 1071.73 286.004 1066.92 289.638C1060.42 294.573 1053.78 299.329 1046.91 303.725C1041.57 307.18 1036.28 310.769 1031.25 314.717C1028.38 316.96 1025.51 319.248 1022.55 321.446C1018.1 324.766 1013.93 328.4 1010.16 332.483C1009.26 333.425 1008.32 334.367 1007.33 335.219C1005.36 336.969 1003.47 338.764 1002.53 341.366C1002.4 341.68 1002.17 341.994 1001.95 342.308C1000.83 342.308 999.705 342.308 998.583 342.308Z" fill="white"/>
<path d="M1077.24 44.1455C1077.87 45.3568 1077.83 46.3887 1077.78 47.3757C1077.38 54.4192 1076.53 61.3731 1074.69 68.1923C1072.98 74.4283 1070.74 80.5297 1067.64 86.2274C1067.15 87.0798 1066.83 88.1117 1065.76 88.6949C1064.37 87.7976 1063.74 86.4517 1063.42 84.9712C1063.11 83.401 1062.89 81.8308 1062.8 80.2606C1062.48 73.8002 1063.78 67.5642 1065.53 61.4179C1066.83 56.9764 1068.49 52.7144 1070.92 48.7664C1072.13 46.7476 1073.79 45.3568 1075.94 44.4596C1076.35 44.3698 1076.71 44.2801 1077.24 44.1455Z" fill="white"/>
<path d="M997.237 227.458C996.833 227.233 996.429 227.009 996.026 226.785C986.557 222.164 976.91 218.081 966.903 214.806C959.858 212.518 952.858 210.096 945.903 207.538C943.031 206.462 940.249 205.071 937.512 203.59C933.742 201.572 930.601 198.7 928.268 195.111C925.62 191.074 925.755 185.78 928.537 181.877C930.377 179.23 932.979 177.929 936.12 177.659C939.755 177.39 943.21 178.288 946.486 179.768C947.787 180.351 949.044 180.934 950.569 181.652C950.48 181.024 950.48 180.576 950.345 180.172C949.493 177.615 948.46 175.057 948.057 172.366C947.877 171.244 947.877 170.122 948.281 169.046C948.864 167.431 950.166 166.668 951.826 167.117C952.723 167.386 953.576 167.789 954.384 168.283C956.403 169.494 958.198 171.02 959.768 172.769C962.102 175.327 964.435 177.929 966.679 180.576C970.089 184.568 973.41 188.651 976.73 192.734C980.993 197.983 985.301 203.187 989.474 208.525C992.705 212.653 995.801 216.915 998.942 221.132C999.615 222.029 1000.11 223.061 1001.28 223.958C1001.19 223.286 1001.14 222.837 1001.05 222.478C998.808 214.627 996.788 206.731 995.397 198.655C994.635 194.214 994.096 189.728 994.141 185.196C994.186 181.742 994.365 178.243 995.173 174.833C995.442 173.577 995.981 172.321 996.474 171.154C996.744 170.571 997.192 170.033 997.641 169.584C998.808 168.418 1000.47 168.373 1001.72 169.449C1002.89 170.436 1003.7 171.737 1004.33 173.083C1005.05 174.698 1005.72 176.358 1006.44 177.973C1006.57 178.288 1006.75 178.557 1007.06 179.095C1007.56 178.332 1007.87 177.794 1008.19 177.256C1010.12 174.115 1012.05 171.02 1014.74 168.462C1015.68 167.565 1016.67 166.668 1017.74 165.95C1018.73 165.277 1019.85 164.739 1021.02 164.38C1023.98 163.527 1026.49 165.053 1027.17 168.104C1027.35 168.911 1027.39 169.763 1027.39 170.616C1027.53 174.698 1026.94 178.646 1025.73 182.55C1024.3 187.126 1022.68 191.612 1020.8 196.009C1017.79 203.007 1014.38 209.782 1011.15 216.646C1010.21 218.665 1009.4 220.773 1008.55 222.882C1008.41 223.196 1008.1 223.51 1008.5 224.048C1010.21 222.164 1011.91 220.369 1013.62 218.485C1020.21 211.083 1027.71 204.712 1036.01 199.284C1039.15 197.22 1042.42 195.38 1045.88 193.9C1047.09 193.362 1048.35 192.958 1049.6 192.599C1050.23 192.419 1050.91 192.375 1051.53 192.464C1053.33 192.644 1054.49 193.9 1054.36 195.695C1054.27 196.682 1053.91 197.713 1053.6 198.655C1053.28 199.508 1052.79 200.315 1052.39 201.123C1053.01 201.616 1053.55 201.347 1054.05 201.213C1057.41 200.271 1060.82 199.732 1064.28 199.418C1067.19 199.149 1070.11 199.418 1072.89 200.315C1074.42 200.809 1075.85 201.572 1077.02 202.648C1079.53 204.981 1079.58 207.897 1077.07 210.23C1075.99 211.217 1074.69 212.025 1073.34 212.743C1070.33 214.358 1067.1 215.3 1063.78 216.018C1058.08 217.184 1052.39 218.351 1046.69 219.427C1039.78 220.728 1033 222.568 1026.22 224.497C1026 224.542 1025.78 224.721 1025.64 225.08C1026.36 224.99 1027.08 224.99 1027.8 224.856C1033.99 223.779 1040.23 222.927 1046.51 222.792C1050.28 222.702 1054 222.478 1057.77 222.478C1060.87 222.478 1063.96 222.657 1067.01 223.375C1068.27 223.689 1069.57 224.003 1070.78 224.497C1071.73 224.856 1072.71 225.304 1073.52 225.932C1076.89 228.4 1077.02 231.451 1074.19 234.546C1073.52 235.309 1072.58 235.847 1071.73 236.43C1071.1 236.834 1070.42 237.193 1069.8 237.552C1069.8 238.315 1070.42 238.404 1070.83 238.719C1072.04 239.616 1073.34 240.423 1074.46 241.41C1075.81 242.577 1077.02 243.923 1078.19 245.224C1080.03 247.198 1080.48 249.665 1080.48 252.267C1080.43 254.959 1079.17 256.933 1076.98 258.324C1075.27 259.401 1073.43 260.029 1071.41 260.118C1068.32 260.298 1065.22 259.984 1062.21 259.221C1057.19 257.965 1052.39 256.126 1047.63 254.107C1042.56 251.908 1037.49 249.71 1032.42 247.467C1027.17 245.134 1021.87 242.981 1016.44 241.276C1015.95 241.096 1015.41 241.007 1014.87 240.917C1014.51 241.545 1015.01 241.68 1015.23 241.904C1017.39 243.878 1019.54 245.807 1021.69 247.781C1023.94 249.8 1025.91 252.043 1027.57 254.6C1028.38 255.856 1029.05 257.247 1029.19 258.772C1029.28 259.67 1029.23 260.657 1029.05 261.554C1028.6 263.438 1027.21 264.605 1025.24 264.739C1023.76 264.874 1022.23 264.829 1020.8 264.336C1019.9 264.021 1019 263.797 1017.97 263.528C1017.88 264.066 1017.74 264.47 1017.7 264.919C1017.34 267.117 1017.03 269.36 1016.62 271.559C1016.35 273.039 1015.64 274.385 1014.69 275.596C1012.72 278.019 1010.52 278.243 1008.1 276.314C1006.84 275.282 1005.94 273.981 1005.22 272.546C1003.7 269.36 1002.89 265.995 1002.53 262.541C1002.17 259.445 1001.95 256.35 1002.08 253.254C1002.08 252.716 1002.04 252.178 1001.99 250.966C1001.5 252.043 1001.28 252.536 1001.05 253.03C999.75 256.26 998.449 259.445 997.103 262.676C995.667 266.175 993.782 269.405 990.865 271.962C989.968 272.77 988.981 273.533 987.904 274.116C984.763 275.776 981.577 274.385 980.634 270.93C980.32 269.854 980.275 268.732 980.096 267.611C980.051 267.252 979.961 266.893 979.871 266.354C979.243 266.534 978.75 266.713 978.256 266.893C977.089 267.252 975.967 267.745 974.756 267.925C972.333 268.328 970.717 266.848 970.852 264.425C970.897 263.707 971.121 262.945 971.301 262.227C972.153 259.49 973.679 257.157 975.429 254.914C977.673 252.088 980.23 249.665 983.102 247.467C986.916 244.551 990.776 241.769 994.635 238.943C995.308 238.449 995.981 238.001 997.147 237.193C996.16 237.193 995.711 237.103 995.353 237.193C994.096 237.552 992.84 237.866 991.583 238.315C981.128 242.038 970.897 246.121 961.249 251.729C955.73 254.959 950.211 258.144 944.916 261.733C940.922 264.425 936.749 266.713 932.306 268.553C930.287 269.405 928.268 269.988 926.024 269.899C922.3 269.719 919.921 267.431 919.652 263.707C919.518 261.464 920.146 259.445 921.088 257.471C922.3 254.959 924.095 252.985 926.114 251.101C926.787 250.473 927.415 249.845 928.088 249.217C927.415 248.409 926.607 248.499 925.889 248.454C924.005 248.319 922.165 247.871 920.46 247.018C919.652 246.614 918.844 246.031 918.261 245.313C917.229 244.057 917.005 242.577 917.767 241.096C918.261 240.199 918.8 239.257 919.518 238.584C920.819 237.373 922.21 236.206 923.646 235.219C926.204 233.47 928.941 232.034 931.813 230.867C939.755 227.637 947.967 225.394 956.538 224.631C966.634 223.734 976.596 224.362 986.513 226.291C989.564 226.875 992.57 227.458 995.622 228.041C996.07 228.131 996.519 228.131 996.968 228.131C997.147 227.727 997.192 227.592 997.237 227.458Z" fill="#FF61EF"/>
<path d="M1166 483.762C1164.25 481.654 1162.86 479.366 1161.61 476.988C1158.29 470.797 1154.47 464.83 1150.75 458.863C1146.35 451.864 1142.09 444.776 1137.78 437.732C1134.86 432.977 1132.93 427.818 1131.9 422.299C1130.87 416.826 1131.99 411.801 1134.91 407.225C1137.55 403.098 1141.41 400.855 1146.44 400.9C1150.25 400.944 1153.84 401.662 1157.3 403.457C1162.05 405.924 1166.27 408.93 1169.19 413.506C1169.28 413.641 1169.46 413.775 1169.77 414C1170.31 413.551 1170.89 413.147 1171.39 412.654C1175.38 408.796 1179.56 405.207 1184.27 402.156C1188.57 399.374 1193.15 397.311 1198.13 396.144C1200.78 395.516 1203.47 395.247 1206.21 395.695C1209.93 396.279 1212.94 398.028 1215.41 400.72C1217.34 402.784 1218.15 405.386 1218.37 408.167C1218.73 412.744 1218.1 417.14 1216.53 421.447C1213.66 429.343 1209.93 436.79 1204.77 443.43C1197.41 452.941 1189.65 462.093 1180.86 470.393C1178.93 472.188 1177.13 474.117 1175.34 476.046C1172.78 478.783 1170 481.34 1167.13 483.718C1166.77 483.762 1166.36 483.762 1166 483.762Z" fill="#FF61EF"/>
<path d="M1009.67 232.213C1009.71 234.905 1007.69 237.014 1005 237.148C1002.35 237.283 1000.11 235.354 999.929 232.931C999.794 230.868 1001.86 227.951 1004.87 227.727C1007.33 227.548 1009.62 229.746 1009.67 232.213Z" fill="white"/>
<path d="M987.41 64.5143C987.41 71.8719 985.391 77.8387 981.352 83.0429C975.653 90.4005 968.115 94.5279 958.96 95.7841C951.422 96.8159 944.377 95.4252 937.87 91.522C930.691 87.2151 925.979 80.9791 924.364 72.6794C923.017 65.8602 924.184 59.3998 927.594 53.3881C932.306 45.1333 939.531 40.0188 948.685 37.7757C957.166 35.712 965.288 36.7887 972.871 41.0956C980.275 45.2679 985.032 51.5487 986.827 59.9382C987.185 61.6879 987.275 63.4824 987.41 64.5143Z" fill="#FFEE54"/>
<path d="M1007.69 10.722C1007.56 10.9911 1007.38 11.6641 1007.02 12.1576C1006.66 12.696 1006.17 13.1446 1005.72 13.6381C1001.95 17.6758 998.134 21.6686 994.365 25.7063C993.737 26.3793 993.198 27.1868 992.615 27.9047C991.762 28.8916 990.82 29.1608 989.922 28.7122C988.756 28.1738 988.172 26.9177 988.621 25.6615C988.89 24.8988 989.339 24.1361 989.922 23.508C994.14 18.7525 998.403 14.0419 1002.67 9.28633C1003.11 8.79284 1003.61 8.38906 1004.19 8.07502C1005.9 7.26748 1007.74 8.47879 1007.69 10.722Z" fill="#FFEE54"/>
<path d="M933.697 2.91639C933.742 2.42289 933.742 2.15371 933.787 1.88453C933.967 0.942397 934.729 0.179719 935.672 0.0451288C936.614 -0.0894614 937.332 0.314309 937.826 1.07699C938.14 1.52562 938.274 2.10885 938.454 2.64721C939.979 7.26814 941.46 11.8891 942.986 16.5549C943.255 17.3624 943.569 18.1699 943.704 18.9775C943.928 20.0991 943.255 21.3552 942.268 21.759C941.146 22.2525 939.755 21.8487 939.082 20.7272C938.768 20.1888 938.499 19.5607 938.319 18.9326C936.928 14.2668 935.537 9.60104 934.146 4.93524C933.967 4.17256 933.832 3.45475 933.697 2.91639Z" fill="#FFEE54"/>
<path d="M1028.42 59.803C1024.56 59.7132 1020.75 59.5787 1016.89 59.4441C1016.26 59.4441 1015.59 59.3543 1014.96 59.1749C1014.02 58.8608 1013.39 57.9636 1013.39 57.0663C1013.39 56.0344 1014.15 55.1372 1015.28 54.9129C1015.81 54.7783 1016.4 54.7334 1016.94 54.7334C1020.21 54.7334 1023.49 54.7783 1026.76 54.7783C1027.89 54.7783 1029.01 54.8231 1030.13 54.868C1030.49 54.868 1030.89 54.868 1031.25 54.9129C1032.78 55.1372 1033.81 56.169 1033.81 57.4701C1033.81 58.7711 1032.73 59.803 1031.21 59.9376C1030.26 60.0273 1029.32 59.9376 1028.38 59.9376C1028.42 59.8927 1028.42 59.8478 1028.42 59.803Z" fill="#FFEE54"/>
<path d="M879.984 88.1126C879.715 88.0677 879.401 88.0677 879.132 88.0228C878.189 87.7985 877.427 86.991 877.337 86.0937C877.247 85.2413 877.786 84.2095 878.638 83.8057C879.222 83.5365 879.85 83.3571 880.523 83.2225C884.292 82.4598 888.061 81.742 891.831 81.069C892.549 80.9344 893.312 80.8896 894.074 80.9793C895.241 81.1139 896.139 82.1457 896.228 83.2225C896.318 84.2992 895.6 85.331 894.389 85.7348C893.85 85.9143 893.312 85.9591 892.728 86.0489C888.869 86.7218 885.01 87.3948 881.106 88.0228C880.747 88.0677 880.388 88.0677 879.984 88.1126Z" fill="#FFEE54"/>
<path d="M912.921 127.682C913.056 127.323 913.28 126.695 913.594 126.112C915.299 122.882 917.049 119.696 918.755 116.466C919.024 115.973 919.338 115.479 919.697 115.075C920.594 114.133 921.806 113.954 922.703 114.582C923.646 115.255 924.005 116.511 923.556 117.588C923.107 118.62 922.524 119.607 922.03 120.594C920.729 123.196 919.428 125.753 918.082 128.355C917.767 128.938 917.453 129.521 917.049 130.015C916.287 130.957 915.03 131.137 913.998 130.553C913.056 130.015 912.697 129.118 912.921 127.682Z" fill="#FFEE54"/>
<path d="M903.678 40.4673C904.036 42.2618 902.376 43.832 900.581 43.3385C900.222 43.2488 899.908 43.0245 899.549 42.845C896.318 41.1402 893.088 39.4354 889.902 37.6857C889.273 37.3268 888.645 36.8333 888.196 36.295C887.523 35.4874 887.658 34.1864 888.331 33.4237C888.959 32.7059 889.902 32.4367 890.889 32.8853C892.1 33.3788 893.267 33.9621 894.434 34.5453C896.857 35.7566 899.28 37.0128 901.703 38.269C903.004 38.897 903.498 39.5251 903.678 40.4673Z" fill="#FFEE54"/>
<path d="M972.647 134.68C972.692 135.981 972.333 136.789 971.48 137.372C970.538 138 969.147 137.821 968.429 136.878C968.115 136.43 967.8 135.891 967.711 135.398C967.262 132.437 966.858 129.476 966.499 126.515C966.409 125.977 966.454 125.393 966.544 124.855C966.723 123.419 967.666 122.522 968.922 122.567C970.044 122.612 970.897 123.375 971.121 124.72C971.48 127.143 971.839 129.521 972.198 131.943C972.333 132.93 972.512 133.962 972.647 134.68Z" fill="#FFEE54"/>
<path d="M1008.59 105.25C1008.28 105.116 1007.47 104.936 1006.97 104.443C1004.69 102.244 1002.44 100.001 1000.24 97.7132C999.794 97.2646 999.525 96.6365 999.301 96.0084C998.987 95.0214 999.48 93.8101 1000.38 93.3615C1001.14 92.9128 1002.35 93.0025 1002.98 93.6306C1005.45 96.0084 1007.92 98.431 1010.34 100.898C1010.7 101.257 1010.97 101.841 1011.15 102.334C1011.6 103.815 1010.52 105.205 1008.59 105.25Z" fill="#FFEE54"/>
<path d="M1171.03 262.63C1171.12 266.175 1170.76 269.988 1169.95 273.757C1169.73 274.833 1169.37 275.91 1169.06 276.987C1168.52 279.006 1167.26 280.441 1165.51 281.518C1163.49 282.729 1161.29 283.582 1158.91 283.671C1157.7 283.716 1156.49 283.761 1155.23 283.716C1150.39 283.626 1147.11 281.159 1145.23 276.807C1144.42 274.923 1143.97 272.904 1143.48 270.885C1142.63 267.61 1142.09 264.29 1141.64 260.97C1141.32 258.638 1141.32 256.305 1141.05 253.972C1140.61 249.844 1140.88 245.717 1140.56 241.589C1140.34 238.135 1139.84 234.68 1139.66 231.226C1139.48 227.592 1139.26 223.868 1139.62 220.279C1140.2 214.537 1144.15 210.858 1149.49 209.826C1150.3 209.647 1151.15 209.557 1151.96 209.333C1154.34 208.615 1156.76 208.615 1159.23 208.66C1162.95 208.749 1166.05 211.127 1167.08 214.716C1167.53 216.242 1167.89 217.812 1168.07 219.382C1168.47 223.016 1169.19 226.605 1169.41 230.239C1169.59 233.604 1170.09 236.924 1170.31 240.288C1170.49 242.801 1170.49 245.358 1170.58 247.87C1170.76 252.805 1170.9 257.561 1171.03 262.63ZM1168.25 262.002C1168.11 259.086 1167.93 256.215 1167.84 253.299C1167.71 246.076 1167.48 238.898 1166.68 231.719C1166.27 227.996 1165.87 224.272 1165.33 220.593C1165.11 219.023 1164.75 217.453 1164.34 215.928C1163.67 213.325 1161.61 211.441 1158.6 211.576C1156.36 211.666 1154.16 212.159 1151.91 212.383C1151.15 212.473 1150.43 212.608 1149.72 212.787C1147.52 213.236 1145.72 214.312 1144.29 216.062C1143.03 217.588 1142.45 219.382 1142.4 221.266C1142.27 224.631 1142.27 228.041 1142.54 231.405C1142.85 235.398 1143.43 239.391 1143.43 243.429C1143.48 249.53 1143.75 255.587 1144.55 261.643C1145.14 265.995 1146.08 270.302 1147.38 274.519C1147.61 275.327 1148.01 276.089 1148.41 276.807C1149.89 279.499 1152.23 280.845 1155.28 280.935C1156.22 280.98 1157.16 280.935 1158.11 280.935C1159.72 280.935 1161.25 280.486 1162.73 279.858C1164.88 278.961 1166.27 277.435 1166.68 275.147C1166.81 274.519 1167.04 273.891 1167.17 273.263C1167.98 269.494 1168.29 265.771 1168.25 262.002Z" fill="#231F20"/>
<path d="M755.687 300.764C756.494 301.303 757.437 301.886 758.334 302.604C761.296 304.937 764.796 305.968 768.386 306.731C769.104 306.866 769.911 306.866 770.629 306.731C773.95 306.193 777.271 305.609 780.367 304.219C782.386 303.321 784.181 302.155 785.527 300.405C787.861 297.444 789.79 294.259 790.777 290.535C791.361 288.247 791.764 285.959 791.854 283.626C792.079 277.076 791.002 270.706 789.386 264.47C788.264 260.163 786.11 256.305 783.508 252.716C781.578 250.024 778.841 248.768 775.7 248.229C772.738 247.736 769.732 247.691 766.725 247.87C763.539 248.05 760.578 247.287 757.975 245.448C755.238 243.519 754.251 240.872 754.924 237.597C755.283 235.847 755.777 234.142 756.674 232.572C757.975 230.284 759.905 228.714 762.148 227.413C765.245 225.618 768.52 224.317 772.02 223.375C775.521 222.478 778.886 222.792 782.251 223.958C784.226 224.676 785.976 225.753 786.963 227.727C787.232 228.22 787.322 228.758 787.412 229.297C787.502 229.835 787.053 230.418 786.514 230.598C786.021 230.777 785.617 230.553 785.258 230.194C785.078 230.015 784.854 229.79 784.764 229.521C783.822 227.547 782.027 226.784 780.098 226.246C777.315 225.439 774.533 225.439 771.796 226.336C768.655 227.323 765.649 228.579 762.822 230.329C759.725 232.258 758.2 235.174 757.661 238.628C757.392 240.423 758.11 241.993 759.636 243.025C761.206 244.102 762.911 244.864 764.841 244.909C766.052 244.954 767.264 244.954 768.52 244.954C770.944 244.909 773.367 244.999 775.79 245.358C780.322 246.031 783.867 248.05 786.469 251.863C789.7 256.664 792.034 261.778 793.111 267.52C793.649 270.302 794.232 273.039 794.457 275.82C794.906 280.935 795.085 286.094 793.649 291.163C792.438 295.381 790.329 299.104 787.546 302.469C785.841 304.533 783.732 306.013 781.219 307C777.63 308.391 773.95 309.378 770.046 309.602C768.61 309.692 767.264 309.513 765.873 309.154C762.687 308.301 759.636 307.18 756.943 305.206C756.27 304.712 755.642 304.174 754.969 303.591C754.52 303.232 754.116 302.783 754.206 302.155C754.251 301.392 754.789 300.989 755.687 300.764Z" fill="#231F20"/>
<path d="M1202.98 276.179C1203.2 275.731 1203.47 275.417 1203.56 275.103C1204.24 272.187 1204.91 269.271 1205.54 266.354C1206.16 263.528 1206.79 260.702 1207.38 257.875C1208.27 253.389 1209.22 248.903 1210.02 244.371C1210.83 239.75 1211.5 235.129 1212.13 230.508C1212.99 224.587 1213.75 218.665 1214.56 212.698C1214.78 211.127 1214.91 209.557 1215.14 207.987C1215.23 207.359 1215.5 206.731 1215.77 206.148C1215.99 205.699 1216.44 205.475 1216.93 205.564C1217.43 205.654 1217.79 206.013 1217.92 206.462C1218.01 206.821 1218.01 207.224 1218.01 207.583C1217.97 208.615 1217.97 209.647 1217.83 210.679C1217.16 215.39 1216.44 220.1 1215.77 224.856C1215.09 229.566 1214.56 234.322 1213.84 239.033C1212.63 247.063 1211.15 255.094 1209.22 262.99C1208.45 266.175 1207.91 269.405 1207.2 272.59C1206.75 274.609 1206.16 276.583 1205.63 278.557C1205.4 279.275 1205.13 279.993 1204.82 280.666C1204.5 281.294 1203.97 281.653 1203.25 281.698C1202.4 281.743 1201.86 281.249 1201.45 280.531C1201.32 280.262 1201.18 280.038 1201.09 279.769C1197.95 271.334 1195.08 262.855 1192.75 254.152C1190.5 245.852 1188.48 237.462 1186.38 229.118C1185.93 227.413 1185.39 225.708 1184.85 224.003C1183.95 221.132 1183.01 218.306 1182.11 215.434C1181.62 213.819 1181.08 212.249 1180.59 210.634C1180.45 210.185 1180.32 209.737 1180.27 209.288C1180.18 208.525 1180.81 207.763 1181.53 207.673C1182.2 207.583 1182.74 207.942 1182.97 208.705C1183.91 211.666 1184.81 214.582 1185.75 217.543C1185.93 218.081 1186.02 218.62 1186.24 219.158C1188.53 225.125 1189.88 231.361 1191.45 237.507C1193.11 244.012 1194.72 250.562 1196.61 257.068C1198.4 263.438 1200.29 269.854 1202.98 276.179Z" fill="#231F20"/>
<path d="M1231.56 206.955C1232.68 217.228 1233.76 227.143 1234.88 237.238C1235.29 237.282 1235.65 237.462 1235.96 237.372C1239.41 236.744 1242.87 237.058 1246.37 236.789C1247.45 236.699 1248.25 237.327 1248.21 238.09C1248.17 238.808 1247.4 239.481 1246.46 239.615C1245.79 239.705 1245.16 239.705 1244.49 239.705C1241.39 239.795 1238.29 239.795 1235.11 240.468C1235.06 240.782 1234.93 241.141 1234.97 241.455C1235.06 242.756 1235.24 244.057 1235.33 245.358C1235.51 247.96 1235.69 250.607 1235.78 253.209C1235.87 255.362 1235.87 257.516 1235.91 259.669C1235.96 262.406 1235.96 265.098 1236.36 267.79C1236.59 269.539 1236.5 271.334 1236.63 273.128C1236.72 274.34 1236.9 275.506 1237.04 276.493C1237.66 277.211 1238.25 277.031 1238.79 277.031C1243.09 276.987 1247.45 276.987 1251.75 276.852C1253.82 276.762 1255.84 276.358 1257.9 276.134C1258.62 276.044 1259.11 276.493 1259.16 277.256C1259.2 278.288 1258.8 278.961 1257.86 279.095C1256.11 279.319 1254.31 279.589 1252.56 279.678C1249.2 279.813 1245.79 279.768 1242.42 279.858C1240.85 279.903 1239.24 279.768 1237.66 280.172C1237.4 280.262 1237.13 280.217 1236.81 280.217C1235.38 280.262 1234.52 279.589 1234.3 278.108C1234.08 276.358 1233.9 274.564 1233.76 272.814C1233.27 266.444 1233.04 260.073 1233 253.702C1232.95 250.248 1232.68 246.749 1232.46 243.294C1232.15 238.718 1231.79 234.142 1231.34 229.566C1230.93 225.663 1230.31 221.76 1229.9 217.857C1229.59 215.075 1229.41 212.249 1229.14 209.467C1229.05 208.435 1228.87 207.403 1228.78 206.416C1228.65 204.936 1229.05 204.398 1230.53 204.128C1232.64 203.814 1234.79 203.455 1236.9 203.231C1240.36 202.872 1243.77 202.334 1247.27 202.468C1247.81 202.513 1248.39 202.468 1248.93 202.558C1249.42 202.648 1249.78 203.052 1249.83 203.545C1249.87 203.859 1249.69 204.308 1249.47 204.532C1249.15 204.846 1248.7 205.115 1248.25 205.205C1247.54 205.34 1246.77 205.295 1246.01 205.295C1242.65 205.295 1239.28 205.788 1235.96 206.327C1235.02 206.461 1234.08 206.461 1233.13 206.551C1232.68 206.641 1232.24 206.775 1231.56 206.955Z" fill="#231F20"/>
<path d="M804.463 227.008C803.97 227.95 804.194 228.803 804.329 229.566C804.957 232.975 805.72 236.34 806.303 239.75C806.662 241.858 806.752 244.012 806.976 246.165C807.335 249.575 807.784 253.029 808.322 256.484C809.938 256.887 811.374 256.528 812.855 256.394C814.066 256.304 815.278 256.17 816.489 256.125C816.848 256.125 817.207 256.214 817.566 256.349C818.06 256.528 818.374 257.112 818.329 257.74C818.284 258.368 817.88 258.816 817.297 258.861C814.874 259.086 812.451 259.265 810.028 259.489C809.04 259.579 808.681 259.983 808.771 260.97C809.04 263.662 809.354 266.354 809.624 269.045C809.669 269.404 809.669 269.808 809.713 270.167C809.938 273.711 810.117 277.255 810.431 280.844C810.656 283.267 811.06 285.69 811.329 288.067C811.598 290.221 811.822 292.329 812.002 294.483C812.226 297.489 812.451 300.45 812.675 303.456C812.675 303.545 812.765 303.59 812.944 303.859C813.124 303.904 813.483 304.039 813.842 304.039C815.996 303.904 818.15 303.725 820.303 303.545C820.977 303.5 821.605 303.456 822.278 303.411C823.669 303.276 825.06 303.321 826.451 302.917C827.348 302.693 828.291 302.738 829.233 302.738C829.727 302.738 830.086 303.142 830.175 303.635C830.265 304.128 830.175 304.622 829.816 304.936C829.547 305.16 829.188 305.34 828.829 305.43C827.528 305.699 826.272 305.968 824.97 306.102C822.009 306.372 819.002 306.551 815.996 306.82C814.784 306.91 813.573 307.134 812.361 307.224C811.06 307.314 810.431 306.82 810.117 305.564C809.938 304.846 809.938 304.084 809.893 303.321C809.669 299.508 809.399 295.649 808.906 291.836C808.592 289.413 808.457 286.991 808.188 284.568C807.874 281.517 807.56 278.422 807.201 275.371C807.156 275.012 807.156 274.608 807.111 274.249C806.886 270.705 806.707 267.116 806.348 263.617C805.989 260.162 805.406 256.753 804.957 253.343C804.688 251.504 804.418 249.619 804.284 247.78C803.925 241.768 802.848 235.891 801.636 230.014C801.322 228.579 801.367 227.053 801.322 225.528C801.322 224.9 801.726 224.496 802.309 224.317C802.758 224.182 803.207 224.092 803.701 224.047C805.495 224.047 807.245 223.554 808.951 223.195C812.002 222.522 815.053 222.163 818.15 222.163C818.419 222.163 818.733 222.163 819.002 222.208C819.585 222.253 819.989 222.701 820.034 223.33C820.079 223.958 819.81 224.586 819.316 224.72C818.778 224.855 818.239 224.989 817.656 224.989C814.201 225.079 810.746 225.573 807.38 226.47C806.438 226.784 805.406 226.874 804.463 227.008Z" fill="#231F20"/>
<path d="M885.369 221.491C885.594 223.151 885.818 224.721 886.087 226.291C886.895 231.002 887.837 235.667 889.049 240.288C889.767 243.115 890.036 245.986 890.44 248.857C890.62 250.158 890.844 251.459 890.934 252.76C891.023 253.972 891.023 255.183 891.248 256.484C891.697 256.484 892.056 256.529 892.415 256.484C894.703 256.035 896.992 255.587 899.28 255.138C899.774 255.048 900.402 255.497 900.581 256.035C900.761 256.574 900.581 257.337 900.222 257.606C899.594 258.099 898.921 258.279 898.158 258.368C896.049 258.593 893.94 259.086 891.741 259.625C891.876 260.477 891.966 261.195 892.056 261.913C892.145 262.586 892.1 263.214 892.235 263.887C893.043 267.745 893.267 271.693 893.671 275.596C893.94 278.288 893.895 281.024 893.895 283.761C893.85 289.1 894.389 294.439 894.479 299.777C894.479 300.809 894.703 301.796 894.838 302.828C894.882 303.411 894.838 303.994 894.434 304.398C894.12 304.712 893.671 304.937 893.267 305.026C892.818 305.116 892.19 304.488 892.145 303.95C891.966 302.559 891.786 301.168 891.652 299.777C891.562 298.745 891.562 297.714 891.517 296.682C891.338 290.132 891.158 283.582 890.889 276.987C890.754 274.295 890.395 271.603 890.081 268.911C889.677 265.591 889.139 262.227 888.735 258.907C888.152 254.286 887.613 249.62 887.03 244.999C886.85 243.698 886.626 242.397 886.267 241.141C885.055 236.43 884.068 231.675 883.26 226.874C882.991 225.125 882.677 223.375 882.543 221.58C882.363 219.876 883.081 218.933 884.741 218.485C885.818 218.216 886.94 218.036 888.062 217.857C888.69 217.722 889.363 217.677 889.991 217.588C893.985 217.184 897.979 216.556 902.017 216.556C902.87 216.556 903.722 216.601 904.53 216.825C905.517 217.049 905.966 218.395 905.248 219.023C904.934 219.292 904.44 219.472 903.992 219.472C902.197 219.517 900.402 219.382 898.652 219.517C896.049 219.696 893.447 220.055 890.844 220.369C889.273 220.593 887.658 220.504 886.132 221.132C885.953 221.177 885.773 221.266 885.369 221.491Z" fill="#231F20"/>
<path d="M841.843 223.33C841.843 222.881 841.888 222.388 841.933 221.939C841.977 221.535 842.426 221.131 842.875 221.042C843.368 220.997 843.907 221.087 844.131 221.49C844.445 222.163 844.67 222.881 844.76 223.644C844.984 226.156 845.208 228.669 845.298 231.226C845.388 233.559 845.702 235.892 846.061 238.224C846.689 242.217 847.362 246.165 847.721 250.203C848.08 254.196 848.439 258.234 848.843 262.226C849.022 264.066 849.381 265.95 849.651 267.789C849.92 269.629 850.189 271.513 850.324 273.352C850.593 276.269 850.772 279.14 850.952 282.056C851.176 286.183 851.446 290.266 852.029 294.393C852.298 296.412 852.522 298.476 852.837 300.54C853.016 301.616 853.465 301.931 854.587 301.931C858.266 301.931 861.901 301.572 865.491 301.033C867.914 300.674 870.337 300.405 872.715 300.136C873.568 300.046 874.061 300.45 874.151 301.123C874.241 301.975 873.882 302.738 873.164 302.918C872.356 303.142 871.504 303.321 870.696 303.411C867.779 303.59 864.907 304.039 862.08 304.488C860.869 304.667 859.657 304.622 858.446 304.712C857.234 304.802 856.023 304.936 854.811 304.981C854.183 305.026 853.51 304.936 852.881 304.802C851.535 304.577 850.728 303.77 850.458 302.424C850.144 300.854 849.74 299.328 849.516 297.758C849.202 295.425 849.022 293.092 848.798 290.76C848.394 287.126 848.394 283.447 848.08 279.813C847.721 275.641 847.407 271.423 846.689 267.251C846.285 264.873 846.24 262.406 845.926 259.983C845.298 255.452 845.253 250.831 844.445 246.3C843.727 242.442 843.279 238.538 842.74 234.635C842.695 234.456 842.695 234.276 842.695 234.052C842.516 230.508 842.292 226.919 842.112 223.375C841.933 223.33 841.888 223.33 841.843 223.33Z" fill="#231F20"/>
<path d="M1110.77 285.914C1112.52 286.049 1113.91 285.959 1115.3 285.824C1116.51 285.735 1117.72 285.51 1118.93 285.466C1122.97 285.241 1126.96 285.017 1131 284.793C1131.54 284.748 1132.12 284.793 1132.66 284.837C1133.2 284.927 1133.43 285.376 1133.56 285.824C1133.74 286.363 1133.47 286.722 1133.11 287.036C1132.89 287.215 1132.66 287.35 1132.39 287.44C1132.03 287.529 1131.68 287.574 1131.27 287.574C1128.09 287.754 1124.9 287.933 1121.76 288.157C1119.43 288.337 1117.09 288.561 1114.76 288.696C1113.37 288.785 1111.93 288.83 1110.54 288.785C1109.02 288.741 1108.12 287.888 1107.98 286.363C1107.8 284.03 1107.31 281.742 1107.44 279.364C1107.62 276.269 1106.95 273.218 1106.68 270.122C1106.59 268.911 1106.37 267.7 1106.28 266.488C1105.83 258.817 1105.65 251.145 1105.74 243.429C1105.78 238.269 1105.83 233.11 1105.52 227.951C1105.34 224.765 1105.29 221.58 1104.75 218.44C1104.53 217.049 1104.62 215.613 1104.66 214.222C1104.66 213.819 1104.98 213.325 1105.25 213.011C1105.74 212.473 1106.86 212.697 1107.18 213.325C1107.27 213.594 1107.4 213.864 1107.4 214.133C1107.67 217.856 1107.85 221.625 1108.12 225.349C1108.7 232.931 1108.66 240.512 1108.57 248.139C1108.52 251.504 1108.57 254.914 1108.66 258.278C1108.75 261.464 1108.97 264.649 1109.19 267.834C1109.28 269.225 1109.46 270.616 1109.73 272.007C1110.32 274.968 1110.14 277.973 1110.32 280.979C1110.41 282.549 1110.63 284.12 1110.77 285.914Z" fill="#231F20"/>
<path d="M1042.56 438.316C1042.47 440.245 1041.44 442.264 1039.24 443.565C1037.04 444.866 1034.71 445.36 1032.28 444.283C1029.19 442.937 1027.26 440.515 1027.03 437.24C1026.85 434.637 1028.02 432.305 1030.31 430.779C1033.54 428.671 1036.55 428.85 1039.55 431.362C1041.66 433.157 1042.51 435.535 1042.56 438.316Z" fill="#FF61EF"/>
<path d="M970.179 444.866C968.698 445 967.127 444.641 965.736 443.475C964.256 442.219 963.268 440.693 962.82 438.809C962.595 437.957 962.595 437.194 962.82 436.342C963.358 434.413 964.121 432.663 965.781 431.407C967.89 429.792 970.224 429.522 972.692 430.285C977.224 431.676 979.557 436.342 977.852 440.469C976.73 443.206 974.307 444.911 971.345 444.911C971.031 444.956 970.762 444.911 970.179 444.866Z" fill="#FF61EF"/>
<path d="M933.652 432.035C933.742 427.997 933.652 423.959 933.921 419.922C934.146 416.736 934.37 413.596 934.819 410.411C935.223 407.45 935.761 404.489 936.345 401.572C937.646 395.471 939.845 389.729 942.582 384.121C943.928 381.339 945.409 378.602 946.979 375.956C947.967 374.251 949.178 372.68 950.345 371.11C957.345 361.958 966.275 355.318 976.64 350.428C980.365 348.679 984.359 347.512 988.307 346.391C988.756 346.256 989.25 346.301 989.698 346.346C990.192 346.391 990.686 347.019 990.73 347.557C990.775 348.095 990.506 348.499 990.102 348.723C989.788 348.903 989.429 348.993 989.07 349.082C987.724 349.486 986.378 349.845 985.032 350.249C977.403 352.582 970.583 356.485 964.256 361.24C958.916 365.188 954.608 370.123 950.704 375.462C949.896 376.584 949.178 377.84 948.505 379.051C945.409 384.524 942.717 390.222 940.832 396.234C939.351 400.989 938.409 405.835 937.736 410.769C936.569 419.249 936.524 427.773 936.659 436.342C936.704 438.764 936.659 441.232 936.838 443.654C937.107 447.109 937.197 450.563 937.736 454.018C938.095 456.44 938.229 458.863 938.454 461.286C938.543 462.138 938.678 462.946 938.768 463.798C938.813 464.247 938.813 464.74 938.678 465.189C938.499 465.907 937.915 466.31 937.242 466.266C936.569 466.221 935.986 465.772 935.806 465.099C935.761 464.83 935.716 464.561 935.716 464.247C935.672 460.299 935.133 456.396 934.595 452.492C934.55 452.223 934.55 451.909 934.55 451.64C933.877 445.18 933.607 438.585 933.652 432.035Z" fill="white"/>
<path d="M1080.48 456.845C1080.48 457.877 1080.48 458.909 1080.48 459.94C1080.48 460.299 1080.43 460.748 1080.21 461.017C1079.94 461.331 1079.53 461.645 1079.13 461.735C1078.64 461.869 1077.92 461.421 1077.78 460.972C1077.69 460.613 1077.6 460.254 1077.6 459.896C1077.69 455.409 1077.2 450.923 1076.8 446.436C1076.35 441.322 1075.81 436.208 1074.82 431.138C1073.88 426.248 1072.53 421.492 1071.05 416.782C1069.53 411.981 1067.96 407.136 1065.98 402.515C1065.8 402.111 1065.71 401.618 1065.67 401.169C1065.62 400.676 1065.76 400.227 1066.21 399.958C1066.75 399.644 1067.69 399.779 1068 400.272C1068.27 400.676 1068.45 401.08 1068.63 401.528C1070.42 405.656 1071.86 409.918 1073.25 414.18C1074.78 418.89 1076.21 423.646 1077.25 428.491C1077.87 431.497 1078.41 434.548 1078.73 437.643C1079 440.335 1079.35 443.027 1079.67 445.719C1079.67 445.898 1079.71 446.078 1079.71 446.257C1079.94 449.801 1080.21 453.345 1080.43 456.89C1080.43 456.845 1080.48 456.845 1080.48 456.845Z" fill="white"/>
<path d="M1016.26 346.256C1018.15 346.525 1020.12 347.063 1022.01 347.871C1026.4 349.71 1030.13 352.537 1033.32 356.081C1039.1 362.541 1043.01 370.033 1045.52 378.333C1046.19 380.576 1046.78 382.82 1047.36 385.108C1047.41 385.287 1047.5 385.467 1047.5 385.646C1047.63 386.454 1047.18 387.216 1046.46 387.396C1045.83 387.575 1045.12 387.216 1044.89 386.543C1044.62 385.825 1044.44 385.108 1044.26 384.39C1042.96 379.186 1041.26 374.161 1038.83 369.361C1036.64 364.964 1033.94 360.926 1030.53 357.382C1027.57 354.331 1024.25 351.729 1020.17 350.294C1018.87 349.845 1017.48 349.531 1016.13 349.172C1015.77 349.082 1015.41 348.993 1015.05 348.858C1014.56 348.678 1014.24 348.006 1014.38 347.467C1014.47 346.884 1014.96 346.435 1015.5 346.346C1015.68 346.301 1015.9 346.301 1016.26 346.256Z" fill="white"/>
<path d="M968.563 391.927C967.98 391.927 967.307 391.254 967.307 390.671C967.307 390.402 967.396 390.132 967.441 389.863C968.608 385.153 969.909 380.487 972.108 376.09C974.127 372.008 976.775 368.419 980.499 365.682C982.16 364.471 983.775 363.214 985.435 362.003C985.884 361.689 986.467 361.554 986.961 361.465C987.499 361.375 988.083 361.779 988.307 362.272C988.487 362.766 988.307 363.214 987.948 363.528C987.634 363.842 987.275 364.157 986.871 364.381C984.583 365.727 982.653 367.476 980.679 369.181C978.256 371.29 976.416 373.892 974.98 376.763C973.23 380.218 972.018 383.807 971.031 387.53C970.717 388.697 970.358 389.863 969.909 390.985C969.685 391.568 969.236 391.927 968.563 391.927Z" fill="white"/>
<path d="M1065.17 456.171C1065.17 457.651 1065.22 459.177 1065.17 460.657C1065.13 461.465 1064.64 461.869 1063.92 461.869C1063.2 461.869 1062.57 461.42 1062.48 460.792C1062.39 460.343 1062.39 459.85 1062.39 459.401C1062.39 457.696 1062.39 456.036 1062.35 454.332C1062.3 450.743 1061.81 447.243 1061 443.789C1060.73 442.622 1060.42 441.456 1060.19 440.244C1060.06 439.527 1060.06 438.764 1060.06 438.001C1060.06 437.508 1060.42 437.149 1060.96 437.059C1061.45 436.969 1061.94 437.059 1062.21 437.463C1062.53 437.912 1062.75 438.45 1062.84 438.988C1063.29 440.917 1063.69 442.802 1064.1 444.731C1064.68 447.557 1065.08 450.428 1065.13 453.345C1065.13 454.287 1065.13 455.229 1065.13 456.171C1065.13 456.171 1065.13 456.171 1065.17 456.171Z" fill="white"/>
<path d="M951.243 452.403C951.602 452.673 951.961 452.942 952.275 453.301C952.409 453.48 952.454 453.839 952.454 454.108C952.589 458.864 953.352 463.529 954.518 468.15C954.698 468.913 954.384 469.406 953.845 469.81C953.352 470.169 952.634 470.169 952.365 469.676C952.006 469.137 951.647 468.554 951.512 467.926C951.018 465.189 950.3 462.498 950.076 459.671C949.941 457.832 949.627 455.992 949.717 454.108C949.717 453.525 949.941 453.031 950.48 452.672C950.614 452.583 950.884 452.538 951.243 452.403Z" fill="white"/>
<path d="M1022.28 382.192C1022.32 382.954 1021.96 383.403 1021.33 383.672C1020.8 383.897 1020.39 383.672 1020.08 383.313C1019.76 382.954 1019.54 382.551 1019.36 382.147C1018.06 378.917 1016.89 375.687 1015.19 372.636C1015.05 372.412 1015.01 372.098 1015.01 371.828C1015.01 371.335 1015.28 370.931 1015.68 370.707C1016.13 370.482 1016.62 370.438 1016.98 370.752C1017.34 371.021 1017.61 371.425 1017.83 371.828C1019.63 374.924 1020.84 378.289 1022.1 381.609C1022.28 381.833 1022.28 382.147 1022.28 382.192Z" fill="white"/>
<path d="M988.891 385.018C989.16 383.089 989.339 381.115 989.653 379.186C989.743 378.468 989.967 377.706 990.237 377.033C990.416 376.629 990.73 376.225 991.089 376.001C991.358 375.821 991.807 375.732 992.121 375.821C992.57 375.956 992.884 376.315 992.929 376.853C992.929 377.122 992.974 377.436 992.884 377.706C992.166 380.218 991.852 382.82 991.717 385.422C991.673 386.23 991.403 387.082 991.224 387.89C991.089 388.428 990.506 388.697 989.878 388.652C989.384 388.607 988.98 388.338 988.891 387.845C988.801 387.486 988.756 387.127 988.756 386.768C988.756 386.23 988.846 385.646 988.935 385.108C988.98 385.018 988.935 385.018 988.891 385.018Z" fill="white"/>
<path d="M1003.74 359.49C1003.74 360.791 1003.79 361.509 1003.74 362.272C1003.7 362.765 1003.34 363.079 1002.8 363.169C1002.22 363.259 1001.59 362.99 1001.46 362.451C1001.28 361.823 1001.05 361.195 1001.01 360.522C1000.87 358.862 1000.83 357.157 1000.38 355.497C1000.29 355.228 1000.38 354.959 1000.42 354.645C1000.51 354.152 1001.1 353.658 1001.63 353.613C1002.17 353.568 1002.85 353.927 1002.98 354.466C1003.25 355.542 1003.47 356.664 1003.65 357.741C1003.74 358.503 1003.74 359.266 1003.74 359.49Z" fill="white"/>
<path d="M1003.83 466.266C997.552 465.907 991.314 463.754 986.199 458.819C985.75 458.37 985.301 457.876 984.898 457.338C984.359 456.62 984.897 455.544 985.84 455.454C986.558 455.364 987.096 455.678 987.59 456.172C988.712 457.159 989.834 458.19 991.045 459.043C994.231 461.286 997.821 462.497 1001.72 463.081C1004.78 463.574 1007.69 463.215 1010.61 462.453C1014.42 461.421 1017.34 459.267 1019.36 455.902C1019.67 455.364 1020.03 454.781 1020.48 454.287C1020.98 453.704 1022.05 454.018 1022.32 454.781C1022.55 455.454 1022.46 456.082 1022.14 456.71C1020.8 459.491 1018.73 461.645 1016.08 463.215C1012.54 465.369 1008.64 466.221 1003.83 466.266Z" fill="#231F20"/>
<path d="M990.91 418.799C991.045 419.472 991.224 420.19 991.269 420.908C991.314 421.267 991.134 421.626 990.955 421.94C990.506 422.747 989.295 422.747 988.891 421.985C988.666 421.581 988.577 421.132 988.397 420.684C988.262 420.325 988.083 420.011 987.859 419.562C985.974 419.831 984.134 420.056 982.16 420.325C982.025 420.684 981.89 421.088 981.801 421.536C981.666 422.075 981.666 422.658 981.487 423.196C981.262 423.914 980.14 424.138 979.647 423.555C979.333 423.196 979.108 422.792 978.974 422.344C978.839 421.985 978.929 421.581 978.929 421.222C978.884 420.953 978.839 420.684 978.794 420.325C977.493 419.921 976.147 419.472 974.666 419.024C974.172 419.472 973.679 420.011 973.14 420.504C972.781 420.773 972.377 421.043 971.929 421.177C971.48 421.312 970.986 421.222 970.672 420.818C970.358 420.415 970.268 419.921 970.448 419.517C970.807 418.889 971.301 418.306 971.794 417.633C971.749 417.229 971.57 416.781 971.615 416.332C971.66 415.39 972.602 414.762 973.41 415.076C974.128 415.345 974.756 415.704 975.429 416.063C976.954 416.87 978.57 417.274 980.275 417.319C983.326 417.409 986.243 416.96 989.115 416.063C989.743 415.883 990.371 415.614 991 415.569C991.448 415.524 991.897 415.704 992.346 415.883C992.795 416.063 993.019 417.005 992.66 417.364C992.166 417.857 991.538 418.306 990.91 418.799Z" fill="#231F20"/>
<path d="M1035.56 418.845C1034.21 419.204 1032.91 419.563 1031.47 419.967C1031.38 420.55 1031.34 421.133 1031.25 421.671C1031.21 422.03 1031.16 422.434 1031.03 422.748C1030.85 423.242 1030.44 423.466 1029.95 423.511C1029.37 423.556 1028.74 423.197 1028.6 422.703C1028.42 421.896 1028.33 421.088 1028.2 420.191C1026.22 419.877 1024.3 419.563 1022.28 419.204C1022.1 419.653 1021.92 420.056 1021.74 420.505C1021.6 420.864 1021.6 421.223 1021.42 421.582C1021.2 422.03 1020.79 422.299 1020.3 422.299C1019.81 422.344 1019.13 421.896 1019 421.402C1018.91 421.043 1018.87 420.64 1018.91 420.281C1019 419.742 1019.18 419.204 1019.27 418.755C1019.09 418.038 1018.42 417.948 1017.97 417.679C1017.34 417.23 1017.12 416.737 1017.34 416.288C1017.65 415.525 1018.42 415.077 1019.13 415.211C1019.31 415.256 1019.49 415.346 1019.67 415.391C1021.87 416.153 1024.16 416.557 1026.49 416.961C1029.5 417.499 1032.24 417.051 1034.93 415.66C1035.6 415.301 1036.28 415.032 1036.99 414.897C1037.89 414.718 1038.61 415.391 1038.43 416.422C1038.34 416.916 1038.3 417.32 1038.61 417.723C1038.97 418.172 1039.33 418.576 1039.64 419.025C1039.91 419.428 1039.78 420.191 1039.42 420.595C1039.06 420.998 1038.39 421.133 1037.89 420.774C1037.22 420.281 1036.5 419.653 1035.56 418.845Z" fill="#231F20"/>
<path d="M1009.35 433.874C1009.58 436.386 1008.9 438.674 1007.74 440.873C1007.2 441.86 1006.7 442.847 1006.17 443.879C1005.99 444.193 1005.81 444.552 1005.58 444.821C1005.18 445.404 1004.46 445.628 1003.83 445.314C1003.16 445 1002.85 444.193 1003.2 443.43C1003.61 442.578 1004.01 441.725 1004.51 440.963C1006.57 437.687 1006.7 434.098 1006.26 430.42C1005.85 427.459 1005.58 424.498 1005.27 421.492C1005.18 420.774 1005.27 420.011 1005.36 419.249C1005.4 418.71 1005.94 418.307 1006.57 418.307C1007.2 418.262 1007.78 418.621 1007.92 419.114C1008.01 419.563 1008.05 420.011 1008.1 420.505C1008.28 423.959 1008.77 427.369 1009.22 430.823C1009.31 431.81 1009.31 432.842 1009.35 433.874Z" fill="#231F20"/>
<path d="M1005.67 460.703C1004.55 460.703 1003.43 460.703 1002.31 460.703C1001.95 460.703 1001.59 460.614 1001.23 460.524C1000.74 460.389 1000.33 459.716 1000.33 459.223C1000.33 458.729 1000.83 458.101 1001.32 458.011C1001.5 457.967 1001.68 457.922 1001.86 457.922C1004.37 457.832 1006.88 457.787 1009.4 457.742C1009.85 457.742 1010.34 457.832 1010.74 457.967C1011.24 458.146 1011.46 458.55 1011.51 459.043C1011.55 459.582 1011.33 459.985 1010.88 460.165C1010.38 460.344 1009.8 460.524 1009.26 460.569C1008.05 460.613 1006.84 460.569 1005.63 460.569C1005.67 460.613 1005.67 460.658 1005.67 460.703Z" fill="#231F20"/>
<path d="M1007.24 467.926C1007.74 467.971 1008.1 467.971 1008.45 468.015C1008.95 468.105 1009.26 468.419 1009.4 468.913C1009.53 469.496 1009.31 470.124 1008.86 470.348C1007.83 470.976 1006.75 470.932 1005.67 470.662C1005.18 470.528 1004.78 469.9 1004.78 469.406C1004.78 468.868 1005.22 468.285 1005.72 468.15C1006.21 468.016 1006.79 467.971 1007.24 467.926Z" fill="#231F20"/>
<path d="M973.096 202.962C973.455 201.123 973.769 199.283 974.173 197.444C974.397 196.457 974.666 195.47 974.98 194.483C975.07 194.214 975.25 193.989 975.429 193.81C975.743 193.406 976.506 193.316 977 193.586C977.448 193.81 977.718 194.214 977.718 194.707C977.718 195.066 977.538 195.425 977.493 195.784C976.955 198.431 976.102 201.033 976.057 203.77C976.057 203.949 975.968 204.128 975.923 204.308C975.788 204.801 975.16 205.25 974.666 205.25C974.128 205.25 973.544 204.801 973.41 204.308C973.365 204.128 973.32 203.949 973.275 203.77C973.275 203.5 973.275 203.186 973.275 202.917C973.185 203.007 973.141 203.007 973.096 202.962Z" fill="#A383FF"/>
<path d="M1021.33 172.5C1020.35 172.634 1019.45 171.782 1019.58 170.974C1019.81 169.584 1020.08 168.238 1020.35 166.892C1020.48 166.264 1020.57 165.591 1020.8 165.008C1020.97 164.514 1021.29 164.021 1021.6 163.572C1021.92 163.168 1022.64 163.078 1023.13 163.303C1023.62 163.572 1024.03 164.2 1023.85 164.694C1023.08 166.623 1022.9 168.642 1022.46 170.66C1022.37 171.109 1022.23 171.558 1022.01 171.961C1021.87 172.186 1021.47 172.365 1021.33 172.5Z" fill="#A383FF"/>
<path d="M1013.21 157.247C1012.36 157.336 1011.51 156.394 1011.69 155.811C1011.78 155.452 1011.91 155.093 1012.13 154.779C1013.3 153.209 1014.51 151.684 1015.77 150.158C1015.95 149.934 1016.22 149.799 1016.44 149.71C1016.89 149.53 1017.39 149.62 1017.74 149.934C1018.1 150.248 1018.37 150.652 1018.15 151.19C1018.01 151.549 1017.88 151.908 1017.65 152.177C1016.53 153.658 1015.41 155.138 1014.24 156.574C1013.93 156.933 1013.44 157.067 1013.21 157.247Z" fill="#A383FF"/>
<path d="M1019.27 201.527C1019.27 201.527 1019.18 201.975 1019 202.424C1018.78 203.007 1018.33 203.231 1017.7 203.231C1017.07 203.187 1016.67 202.828 1016.58 202.2C1016.4 200.181 1016.22 198.117 1016.08 196.098C1016.04 195.739 1016.08 195.335 1016.17 194.977C1016.31 194.483 1016.67 194.214 1017.16 194.079C1017.7 193.945 1018.37 194.259 1018.6 194.707C1018.73 195.066 1018.87 195.425 1018.87 195.784C1019.05 197.534 1019.14 199.328 1019.27 201.527Z" fill="#A383FF"/>
<path d="M1002.35 181.024C1002.58 179.723 1002.85 178.242 1003.12 176.806C1003.21 176.448 1003.34 176.089 1003.56 175.819C1003.83 175.461 1004.19 175.146 1004.73 175.236C1005.27 175.326 1005.85 175.819 1005.85 176.313C1005.9 176.762 1005.94 177.255 1005.81 177.704C1005.31 179.05 1005.31 180.44 1005.31 181.831C1005.31 182.504 1005.09 183.087 1004.55 183.536C1003.97 184.029 1002.94 183.85 1002.71 183.087C1002.53 182.504 1002.49 181.831 1002.35 181.024Z" fill="#A383FF"/>
<path d="M1021.65 136.878C1021.6 137.013 1021.6 137.327 1021.47 137.551C1021.2 137.91 1020.88 138.269 1020.53 138.583C1019.27 139.525 1017.97 140.468 1016.67 141.365C1016.53 141.454 1016.35 141.589 1016.17 141.634C1015.68 141.769 1015.23 141.724 1014.87 141.41C1014.47 141.051 1014.24 140.288 1014.51 139.884C1014.69 139.57 1014.92 139.211 1015.19 139.032C1016.71 137.91 1018.19 136.834 1019.76 135.802C1020.44 135.218 1021.56 135.891 1021.65 136.878Z" fill="#A383FF"/>
<path d="M1030.85 151.414C1030.85 151.504 1030.8 151.773 1030.71 152.042C1029.9 153.388 1029.1 154.734 1028.29 156.08C1028.2 156.214 1028.06 156.394 1027.93 156.528C1027.57 156.887 1027.12 156.977 1026.67 156.887C1026.18 156.798 1025.69 156.17 1025.73 155.676C1025.73 155.407 1025.73 155.093 1025.82 154.868C1026.45 153.298 1027.3 151.907 1028.42 150.651C1028.83 150.203 1029.37 150.113 1029.95 150.158C1030.44 150.113 1030.89 150.651 1030.85 151.414Z" fill="#A383FF"/>
<path d="M1001.9 206.057C1001.9 206.999 1001.95 207.941 1001.9 208.839C1001.86 209.377 1001.28 209.826 1000.74 209.871C1000.06 209.96 999.301 209.467 999.301 208.839C999.256 207.089 999.256 205.294 999.301 203.545C999.301 203.231 999.615 202.872 999.84 202.603C1000.15 202.244 1000.6 202.019 1001.1 202.199C1001.54 202.378 1001.9 202.692 1001.95 203.231C1001.99 204.173 1001.95 205.115 1001.95 206.012C1001.95 206.057 1001.95 206.057 1001.9 206.057Z" fill="#A383FF"/>
<path d="M1005.58 150.517C1005.31 150.337 1004.96 150.158 1004.73 149.933C1004.42 149.574 1004.24 149.126 1004.46 148.632C1004.73 148.139 1004.96 147.6 1005.36 147.242C1006.44 146.344 1007.6 145.537 1008.72 144.729C1008.95 144.595 1009.26 144.55 1009.53 144.505C1010.03 144.505 1010.47 144.684 1010.65 145.178C1010.79 145.492 1010.79 145.896 1010.7 146.21C1010.61 146.569 1010.34 146.883 1010.07 147.107C1008.77 148.184 1007.47 149.216 1006.17 150.247C1006.08 150.382 1005.85 150.427 1005.58 150.517Z" fill="#A383FF"/>
<path d="M982.295 182.325C982.25 182.684 982.295 182.908 982.205 183.088C981.487 184.703 980.814 186.318 980.051 187.888C979.827 188.337 979.378 188.516 978.885 188.427C978.391 188.337 978.032 188.023 977.897 187.574C977.808 187.215 977.718 186.812 977.808 186.498C978.391 185.017 978.974 183.581 979.647 182.146C979.782 181.832 980.186 181.607 980.5 181.473C980.814 181.338 981.263 181.293 981.532 181.473C981.891 181.652 982.116 182.101 982.295 182.325Z" fill="#A383FF"/>
<path d="M1000.33 155.99C1000.33 156.08 1000.33 156.394 1000.15 156.618C999.391 157.874 998.583 159.175 997.731 160.387C997.148 161.194 995.801 160.97 995.487 159.983C995.397 159.714 995.353 159.4 995.397 159.175C995.936 157.56 996.923 156.169 998.09 154.958C998.314 154.734 998.763 154.644 999.122 154.599C999.84 154.554 1000.42 155.137 1000.33 155.99Z" fill="#A383FF"/>
<path d="M990.102 169.315C989.339 170.66 988.666 171.872 987.948 173.083C987.769 173.397 987.499 173.711 987.23 173.935C986.871 174.205 986.422 174.429 985.929 174.16C985.48 173.891 985.166 173.577 985.166 173.038C985.166 172.679 985.166 172.276 985.346 171.961C985.929 170.885 986.512 169.808 987.185 168.821C987.544 168.283 988.038 167.744 988.756 167.834C989.474 167.924 989.878 168.417 990.102 169.315Z" fill="#A383FF"/>
<path d="M1006.71 169.36C1006.53 169.18 1006.12 168.911 1005.99 168.552C1005.85 168.149 1005.9 167.61 1006.03 167.162C1006.44 165.995 1006.93 164.918 1007.38 163.797C1007.47 163.617 1007.56 163.483 1007.69 163.303C1008.1 162.72 1008.81 162.406 1009.4 162.63C1010.03 162.855 1010.39 163.707 1010.07 164.515C1009.53 165.905 1008.9 167.296 1008.32 168.642C1008.05 169.225 1007.56 169.45 1006.71 169.36Z" fill="#A383FF"/>
<path d="M1003.83 192.061C1003.56 193.272 1003.29 194.752 1002.94 196.188C1002.8 196.726 1002.17 197.04 1001.63 196.996C1001.1 196.951 1000.56 196.502 1000.42 196.009C1000.38 195.829 1000.33 195.65 1000.38 195.47C1000.65 194.035 1000.96 192.599 1001.28 191.163C1001.32 190.894 1001.54 190.67 1001.72 190.49C1002.08 190.131 1002.58 190.087 1003.03 190.311C1003.29 190.446 1003.56 190.76 1003.7 191.074C1003.83 191.208 1003.79 191.522 1003.83 192.061Z" fill="#A383FF"/>
<path d="M1017.12 184.119C1017.21 183.177 1017.21 182.504 1017.34 181.876C1017.48 181.338 1017.7 180.799 1017.92 180.306C1018.15 179.902 1019 179.588 1019.4 179.768C1019.94 179.992 1020.44 180.485 1020.35 181.024C1020.21 182.325 1019.9 183.581 1019.58 184.837C1019.54 185.106 1019.36 185.375 1019.18 185.555C1018.91 185.779 1018.55 186.004 1018.19 186.004C1017.7 186.004 1017.3 185.645 1017.16 185.196C1017.12 184.747 1017.12 184.299 1017.12 184.119Z" fill="#A383FF"/>
<path d="M1016.67 211.127C1016.76 210.679 1016.76 210.41 1016.8 210.14C1016.89 209.647 1017.47 209.198 1018.01 209.198C1018.51 209.198 1019 209.378 1019.18 209.826C1019.63 211.038 1019.9 212.294 1019.63 213.595C1019.58 213.774 1019.54 213.999 1019.4 214.088C1019.05 214.358 1018.64 214.716 1018.28 214.716C1017.92 214.672 1017.38 214.313 1017.25 213.954C1016.98 213.012 1016.8 211.98 1016.67 211.127Z" fill="#A383FF"/>
<path d="M1023.49 142.576C1024.34 142.666 1024.88 143.698 1024.47 144.46C1023.94 145.492 1023.13 146.21 1022.05 146.569C1021.78 146.659 1021.33 146.479 1021.06 146.345C1020.62 146.075 1020.44 145.627 1020.62 145.133C1021.02 143.832 1022.05 143.069 1023.26 142.531C1023.31 142.486 1023.4 142.576 1023.49 142.576Z" fill="#A383FF"/>
</g>
<path d="M29.6569 343.657L50 339L29.6569 334.261L25 314L20.2614 334.261L0 339L20.2614 343.657L25 364L29.6569 343.657Z" fill="#9A98F0"/>
<defs>
<clipPath id="clip0">
<rect width="582" height="583" fill="white" transform="translate(728)"/>
</clipPath>
</defs>
</svg>
