<?xml version="1.0" encoding="utf-8"?>
<!-- Generator: Adobe Illustrator 25.1.0, SVG Export Plug-In . SVG Version: 6.00 Build 0)  -->
<svg version="1.1" id="Слой_1" xmlns="http://www.w3.org/2000/svg" xmlns:xlink="http://www.w3.org/1999/xlink" x="0px" y="0px"
	 viewBox="0 0 297.8 177.4" style="enable-background:new 0 0 297.8 177.4;" xml:space="preserve">
<style type="text/css">
	.st0{clip-path:url(#SVGID_2_);}
	.st1{fill:#231F20;}
	.st2{fill:#FF61EF;}
</style>
<g id="Слой_2_1_">
	<g id="Слой_1-2">
		<g>
			<defs>
				
					<rect id="SVGID_1_" x="13.1" y="-13.7" transform="matrix(0.8988 -0.4384 0.4384 0.8988 -23.805 74.2536)" width="271.7" height="204.8"/>
			</defs>
			<clipPath id="SVGID_2_">
				<use xlink:href="#SVGID_1_"  style="overflow:visible;"/>
			</clipPath>
			<g class="st0">
				<path class="st1" d="M297.8,86.1c0.2,8.7-12.5,14.7-16.5,22.6c-3.7,7.3-0.2,20.7-6.9,27.1c-5.9,5.6-19.5,2-27.4,6.7
					c-7.1,4.2-10,18-18.5,21.2c-7.8,3-19.4-4.9-28.1-2.8c-8.2,2-14.7,14.5-23.5,15.6c-8.4,1.1-17.8-9.4-26.7-9.3
					s-17.9,10.9-26.3,10.2c-8.9-0.8-15.8-13-24.1-14.8c-8.8-1.8-20.1,6.5-28,3.8c-8.6-3-12-16.6-19.2-20.6c-8-4.4-21.5-0.3-27.7-5.7
					c-6.9-6.1-3.9-19.6-7.8-26.8C13,105.6,0.1,100.1,0,91.4s12.5-14.7,16.5-22.6c3.7-7.3,0.2-20.7,6.8-27.1c5.9-5.6,19.5-2,27.4-6.7
					c7.1-4.2,10-18,18.5-21.2c7.8-3,19.5,5,28.2,2.8c8.2-2,14.7-14.5,23.5-15.6c8.4-1,17.8,9.4,26.7,9.3s17.9-11,26.4-10.3
					c8.9,0.8,15.8,13,24.1,14.8c8.8,1.8,20.1-6.5,28-3.8c8.6,3,12,16.7,19.2,20.6c8.1,4.4,21.5,0.3,27.7,5.7
					c6.9,6.1,3.9,19.7,7.8,26.8C284.9,71.9,297.7,77.4,297.8,86.1z"/>
			</g>
		</g>
		<path class="st2" d="M53,80.1h-9.7v-1.8c0-0.5,0.1-1,0.4-1.4c0.2-0.4,0.6-0.8,1-1c0.9-0.5,1.9-1,2.9-1.3c0.4-0.1,0.8-0.3,1.1-0.4
			c0.3-0.1,0.6-0.3,0.9-0.5c0.3-0.2,0.5-0.4,0.6-0.6c0.1-0.2,0.2-0.5,0.2-0.7c0-1-0.7-1.5-2.2-1.5c-0.6,0-1.2,0.1-1.6,0.5
			c-0.4,0.3-0.6,0.8-0.5,1.3v0.4h-2.5v-0.5c-0.1-1.1,0.4-2.2,1.2-2.9c1-0.7,2.3-1.1,3.5-1c1.2-0.1,2.5,0.2,3.5,0.9
			c0.8,0.7,1.3,1.7,1.2,2.7c0,0.6-0.2,1.2-0.5,1.8c-0.3,0.5-0.8,0.9-1.3,1.2c-0.5,0.3-1.1,0.6-1.7,0.8c-0.6,0.2-1.2,0.4-1.6,0.6
			c-0.4,0.1-0.9,0.3-1.3,0.6c-0.3,0.2-0.5,0.4-0.5,0.7H53L53,80.1z M64.5,80.1h-9.7v-1.8c0-0.5,0.1-1,0.4-1.4c0.2-0.4,0.6-0.8,1-1
			c0.9-0.5,1.9-1,2.9-1.3c0.4-0.1,0.7-0.2,1.1-0.4c0.3-0.1,0.6-0.3,0.9-0.5c0.3-0.2,0.5-0.4,0.6-0.6c0.1-0.2,0.2-0.5,0.2-0.7
			c0-1-0.7-1.5-2.2-1.5c-0.6,0-1.2,0.1-1.6,0.5c-0.4,0.3-0.6,0.8-0.5,1.3v0.4h-2.5v-0.5c-0.1-1.1,0.4-2.2,1.2-2.9
			c1-0.7,2.3-1.1,3.5-1c1.2-0.1,2.5,0.2,3.5,0.9c0.8,0.7,1.3,1.7,1.2,2.7c0,0.6-0.2,1.2-0.5,1.8c-0.3,0.5-0.8,0.9-1.3,1.2
			c-0.5,0.3-1.1,0.6-1.6,0.8c-0.6,0.2-1.2,0.4-1.6,0.6c-0.4,0.1-0.9,0.3-1.3,0.6c-0.3,0.2-0.5,0.4-0.5,0.7h6.8V80.1z M66,76l3.9-1.6
			v2L66,78V76z M81,80.1h-9.6v-1.8c0-0.5,0.1-1,0.4-1.4c0.3-0.4,0.6-0.7,1-1c0.9-0.5,1.9-1,2.9-1.3c0.4-0.1,0.8-0.3,1.1-0.4
			c0.3-0.1,0.6-0.3,0.9-0.5c0.3-0.2,0.5-0.4,0.7-0.6c0.1-0.2,0.2-0.5,0.2-0.7c0-1-0.7-1.5-2.2-1.5c-0.6,0-1.2,0.1-1.6,0.5
			c-0.4,0.3-0.6,0.8-0.5,1.3v0.4h-2.5v-0.5c-0.1-1.1,0.4-2.2,1.2-2.9c1-0.7,2.3-1.1,3.5-1c1.2-0.1,2.5,0.2,3.5,0.9
			c0.8,0.7,1.3,1.7,1.2,2.7c0,0.6-0.2,1.2-0.5,1.8c-0.3,0.5-0.8,0.9-1.3,1.2c-0.5,0.3-1.1,0.6-1.6,0.8c-0.6,0.2-1.2,0.4-1.6,0.6
			c-0.4,0.1-0.9,0.3-1.3,0.6c-0.3,0.2-0.5,0.4-0.5,0.7h6.8L81,80.1z M92.5,72.2h-2.7c0-0.1,0-0.1,0-0.2c0-0.1-0.1-0.2-0.2-0.3
			c-0.1-0.1-0.2-0.3-0.3-0.4c-0.4-0.3-0.9-0.5-1.4-0.4c-0.7,0-1.3,0.2-1.7,0.8c-0.4,0.6-0.6,1.4-0.6,2.1h0.1
			c0.1-0.1,0.3-0.2,0.4-0.4c0.2-0.1,0.3-0.2,0.5-0.3c0.6-0.2,1.2-0.4,1.8-0.3c1.2-0.1,2.3,0.3,3.2,1c0.8,0.6,1.3,1.6,1.2,2.6
			c0,1.1-0.4,2.1-1.3,2.8c-1,0.7-2.3,1.1-3.6,1c-1.4,0.1-2.8-0.4-3.8-1.5c-0.9-1.2-1.3-2.6-1.2-4.1v-0.2c-0.1-1.5,0.4-2.9,1.3-4.1
			c0.9-1.1,2.3-1.7,3.7-1.6c1.2-0.1,2.5,0.3,3.4,1.1C92.1,70.4,92.5,71.3,92.5,72.2L92.5,72.2z M88,74.8c-0.6,0-1.1,0.1-1.6,0.4
			c-0.7,0.5-0.8,1.4-0.3,2.1c0.1,0.1,0.2,0.3,0.3,0.3c0.5,0.3,1,0.5,1.6,0.4c0.6,0,1.1-0.1,1.6-0.4c0.7-0.5,0.8-1.5,0.3-2.2
			c-0.1-0.1-0.2-0.2-0.3-0.3C89.2,74.9,88.6,74.8,88,74.8L88,74.8z M105.4,83.3h-2.3v-3c-1.2,0-2.4-0.4-3.3-1.2
			c-1.6-1.7-1.6-4.3,0-6c0.9-0.8,2.1-1.2,3.3-1.2v-3h2.3v3c1.2,0,2.4,0.4,3.3,1.2c1.6,1.7,1.6,4.3,0,6c-0.9,0.8-2.1,1.2-3.3,1.2
			V83.3z M105.4,73.7v4.8c0.6,0,1.2-0.2,1.7-0.7c0.7-1,0.7-2.4,0-3.4C106.6,74,106,73.7,105.4,73.7L105.4,73.7z M103.1,78.5v-4.8
			c-0.6,0-1.2,0.2-1.7,0.7c-0.7,1-0.7,2.4,0,3.4C101.8,78.3,102.5,78.6,103.1,78.5L103.1,78.5z M120.6,76.1l-0.1,0.6H114
			c0,0.5,0.2,0.9,0.6,1.2c0.4,0.4,1,0.6,1.6,0.5c0.4,0,0.7-0.1,1.1-0.2c0.2-0.1,0.4-0.2,0.6-0.4l0.1-0.2h2.5c0,0.1,0,0.2-0.1,0.3
			c-0.1,0.2-0.2,0.4-0.4,0.6c-0.2,0.3-0.4,0.6-0.7,0.8c-0.4,0.3-0.8,0.5-1.3,0.6c-0.6,0.2-1.3,0.3-1.9,0.3c-1.2,0.1-2.4-0.3-3.3-1.1
			c-0.9-0.8-1.3-1.9-1.3-3.1c-0.1-1.2,0.4-2.3,1.3-3.1c1.9-1.5,4.6-1.5,6.6,0C120.3,73.8,120.7,75,120.6,76.1L120.6,76.1z
			 M117.6,74.3c-0.4-0.4-1-0.5-1.6-0.5c-0.6,0-1.1,0.1-1.5,0.5c-0.3,0.3-0.5,0.6-0.6,1.1h4.2C118.2,74.9,118,74.5,117.6,74.3
			L117.6,74.3z M130.7,77.9c0.1,0.7-0.2,1.3-0.8,1.7c-0.8,0.4-1.7,0.6-2.6,0.5h-4.7v-8h4.3c0.9-0.1,1.8,0.1,2.6,0.5
			c0.5,0.3,0.9,1,0.8,1.6c0,0.2,0,0.5-0.1,0.7c-0.1,0.2-0.2,0.4-0.3,0.5c-0.2,0.2-0.5,0.3-0.7,0.4H129V76c0.2,0,0.4,0.1,0.6,0.2
			c0.2,0.1,0.4,0.2,0.6,0.3c0.2,0.2,0.3,0.4,0.4,0.6C130.7,77.3,130.8,77.6,130.7,77.9L130.7,77.9z M128.4,77.7
			c0-0.6-0.4-0.9-1.3-0.9h-2.2v1.7h2.2C128,78.5,128.4,78.2,128.4,77.7L128.4,77.7z M124.9,75.3h2c0.7,0,1.1-0.3,1.1-0.8
			s-0.4-0.8-1.1-0.8h-2V75.3z M140.6,73.1c1.5,1.8,1.5,4.3,0,6.1c-0.7,0.7-1.7,1.1-2.8,1.1c-0.6,0-1.1-0.1-1.6-0.3
			c-0.4-0.1-0.7-0.3-1-0.6l-0.2-0.3h-0.1v4.2h-2.3V72.1h2.3v1.3h0.1c0.1-0.2,0.2-0.4,0.4-0.5c0.2-0.2,0.3-0.3,0.5-0.4
			c0.3-0.2,0.5-0.3,0.8-0.4C138.2,71.7,139.6,72.1,140.6,73.1L140.6,73.1z M138.8,77.7c0.4-0.4,0.6-1,0.6-1.5c0-0.6-0.2-1.1-0.6-1.5
			c-0.4-0.4-1-0.6-1.6-0.6c-0.6,0-1.2,0.2-1.6,0.6c-0.4,0.4-0.6,0.9-0.6,1.5c0,0.6,0.2,1.1,0.6,1.5c0.4,0.4,1,0.6,1.6,0.6
			C137.7,78.3,138.3,78.1,138.8,77.7L138.8,77.7z M143.4,77.9c0-0.8,0.3-1.5,1-1.9c0.8-0.4,1.7-0.6,2.6-0.6c0.5,0,1,0.1,1.4,0.2
			c0.3,0.1,0.6,0.2,0.9,0.3l0.3,0.2v-1.2c0-0.3-0.1-0.7-0.4-0.9c-0.4-0.3-0.8-0.4-1.3-0.3c-0.4,0-0.8,0.1-1.2,0.2
			c-0.3,0.1-0.5,0.4-0.5,0.8h-2.4c0-0.8,0.4-1.6,1.1-2.1c0.9-0.5,2-0.7,3-0.7c1.1-0.1,2.1,0.2,3,0.7c0.7,0.5,1.1,1.3,1,2.2v2.5
			c0,0.2,0,0.5,0.1,0.7c0.1,0.1,0.2,0.2,0.4,0.2l0.3-0.1v1.9c-0.3,0.1-0.7,0.2-1,0.2c-0.5,0-1-0.1-1.4-0.4c-0.2-0.2-0.4-0.4-0.5-0.6
			v-0.1h-0.1c0,0.1,0,0.1-0.1,0.1c-0.1,0.1-0.2,0.2-0.3,0.3c-0.2,0.1-0.3,0.2-0.5,0.3c-0.7,0.3-1.4,0.4-2.1,0.4
			c-0.8,0-1.7-0.2-2.4-0.6C143.7,79.3,143.3,78.6,143.4,77.9L143.4,77.9z M147.6,78.6c0.4,0,0.7,0,1.1-0.1c0.2-0.1,0.5-0.2,0.6-0.3
			l0.2-0.1v-0.5c-0.1-0.1-0.1-0.1-0.2-0.1c-0.2-0.1-0.4-0.2-0.6-0.2c-0.4-0.1-0.8-0.1-1.1-0.1c-1.3,0-1.9,0.3-1.9,0.8
			S146.3,78.5,147.6,78.6L147.6,78.6z M154.9,76.8l0.6-4.6h6.9v8h-2.3v-6h-2.6l-0.4,3.1c-0.1,0.8-0.4,1.7-0.9,2.4
			c-0.5,0.5-1.1,0.8-1.8,0.7c-0.3,0-0.6,0-0.9-0.1h-0.1v-2c0.2,0,0.3,0.1,0.5,0.1c0.3,0,0.5-0.1,0.7-0.4
			C154.8,77.5,154.9,77.1,154.9,76.8L154.9,76.8z M166.7,80.1h-2.5l1.7-2.8c-0.2-0.1-0.4-0.2-0.5-0.3c-0.2-0.1-0.3-0.3-0.5-0.4
			c-0.2-0.2-0.3-0.5-0.4-0.7c-0.1-0.3-0.2-0.7-0.2-1c0-1.8,1.2-2.8,3.5-2.8h4.3v8h-2.3v-2.5h-1.6L166.7,80.1z M169.9,73.8h-1.6
			c-1,0-1.4,0.4-1.4,1.1s0.5,1.1,1.4,1.1h1.7L169.9,73.8z M187.8,80.1h-9.7v-1.8c0-0.5,0.1-1,0.4-1.4c0.3-0.4,0.6-0.7,1-1
			c0.9-0.5,1.9-1,2.9-1.3c0.4-0.1,0.8-0.3,1.1-0.4c0.3-0.1,0.6-0.3,0.9-0.5c0.3-0.2,0.5-0.4,0.6-0.6c0.1-0.2,0.2-0.5,0.2-0.7
			c0-1-0.7-1.5-2.1-1.5c-0.6,0-1.2,0.1-1.6,0.5c-0.4,0.3-0.6,0.8-0.5,1.3v0.4h-2.5v-0.5c-0.1-1.1,0.4-2.2,1.2-2.9
			c1-0.7,2.3-1.1,3.5-1c1.2-0.1,2.5,0.2,3.5,0.9c0.8,0.7,1.3,1.7,1.2,2.7c0,0.6-0.2,1.2-0.5,1.8c-0.3,0.5-0.8,0.9-1.3,1.2
			c-0.5,0.3-1.1,0.6-1.6,0.8c-0.6,0.2-1.2,0.4-1.6,0.6c-0.4,0.1-0.9,0.3-1.3,0.6c-0.3,0.2-0.5,0.4-0.5,0.7h6.8L187.8,80.1z
			 M191.1,78.7c-1.9-2.5-1.9-5.9,0-8.4c2.2-2.1,5.6-2.1,7.8,0c1.9,2.5,1.9,5.9,0,8.4C196.8,80.8,193.3,80.8,191.1,78.7z M195,78.1
			c0.8,0,1.6-0.3,2-1c0.9-1.6,0.9-3.5,0-5.1c-0.9-1.1-2.4-1.3-3.5-0.5c-0.2,0.1-0.3,0.3-0.5,0.5c-0.9,1.6-0.9,3.5,0,5.1
			C193.5,77.7,194.3,78.1,195,78.1L195,78.1z M211.9,80.1h-9.7v-1.8c0-0.5,0.1-1,0.4-1.4c0.2-0.4,0.6-0.8,1-1c0.9-0.5,1.9-1,2.9-1.3
			c0.4-0.1,0.8-0.3,1.1-0.4c0.3-0.1,0.6-0.3,0.9-0.5c0.3-0.2,0.5-0.4,0.6-0.6c0.1-0.2,0.2-0.5,0.2-0.7c0-1-0.7-1.5-2.1-1.5
			c-0.6,0-1.2,0.1-1.6,0.5c-0.4,0.3-0.6,0.8-0.5,1.3v0.4h-2.5v-0.5c-0.1-1.1,0.4-2.2,1.2-2.9c1-0.7,2.3-1.1,3.5-1
			c1.2-0.1,2.5,0.2,3.5,0.9c0.8,0.7,1.3,1.7,1.2,2.7c0,0.6-0.2,1.2-0.5,1.8c-0.3,0.5-0.8,0.9-1.3,1.2c-0.5,0.3-1.1,0.6-1.6,0.8
			c-0.6,0.2-1.2,0.4-1.6,0.6c-0.4,0.1-0.9,0.3-1.3,0.6c-0.3,0.2-0.5,0.4-0.5,0.7h6.9V80.1z M215.6,72.7h-2.3v-1.6l2.7-2.2h2.1v11.2
			h-2.5V72.7z M224.5,80.1v-8h6.8v2h-4.5v6H224.5z M236.4,80.3c-1.2,0.1-2.4-0.3-3.3-1.1c-1.7-1.7-1.7-4.4,0-6.1c0,0,0,0,0,0
			c1.9-1.5,4.6-1.5,6.6,0c1.7,1.7,1.7,4.4,0,6.1c0,0,0,0,0,0C238.7,80,237.6,80.3,236.4,80.3z M236.4,78.3c0.6,0,1.2-0.2,1.6-0.6
			c0.8-0.9,0.8-2.2,0-3.1c-0.4-0.4-1-0.6-1.6-0.6c-0.6,0-1.2,0.2-1.6,0.6c-0.8,0.9-0.8,2.2,0,3.1C235.2,78.1,235.8,78.3,236.4,78.3
			L236.4,78.3z M243.8,81.9h-2.3v-3.7h0.4c0.3,0,0.6-0.1,0.7-0.4c0.2-0.4,0.3-0.9,0.3-1.4l0.5-4.4h6.9v6.2h1.1v3.7h-2.3v-1.8h-5.4
			L243.8,81.9z M248.1,73.9h-2.5l-0.4,3c0,0.3-0.1,0.5-0.2,0.8c0,0.2-0.1,0.3-0.3,0.4h-0.1v0.1h3.5V73.9z M252.6,77.8
			c0-0.8,0.3-1.5,1-1.9c0.8-0.4,1.7-0.6,2.6-0.6c0.5,0,1,0.1,1.4,0.2c0.3,0.1,0.6,0.2,0.9,0.3l0.3,0.2v-1.2c0-0.3-0.1-0.7-0.4-0.9
			c-0.4-0.3-0.8-0.4-1.3-0.3c-0.4,0-0.8,0.1-1.2,0.2c-0.3,0.1-0.5,0.4-0.5,0.8H253c0-0.8,0.4-1.6,1.1-2.1c0.9-0.5,2-0.7,3-0.7
			c1-0.1,2.1,0.2,2.9,0.7c0.7,0.5,1.1,1.3,1.1,2.2v2.5c0,0.2,0,0.5,0.1,0.7c0.1,0.1,0.2,0.2,0.4,0.2l0.3-0.1v2
			c-0.3,0.1-0.7,0.2-1,0.2c-0.5,0-1-0.1-1.4-0.4c-0.2-0.2-0.4-0.4-0.5-0.6l0-0.1h-0.1c0,0.1,0,0.1-0.1,0.1c-0.1,0.1-0.2,0.2-0.3,0.3
			c-0.2,0.1-0.3,0.2-0.5,0.3c-0.7,0.3-1.4,0.4-2.1,0.4c-0.8,0-1.7-0.2-2.4-0.6C252.9,79.3,252.6,78.6,252.6,77.8L252.6,77.8z
			 M256.9,78.5c0.4,0,0.7,0,1.1-0.1c0.2-0.1,0.5-0.2,0.6-0.3l0.2-0.1v-0.5c0-0.1-0.1-0.1-0.2-0.1c-0.2-0.1-0.4-0.2-0.6-0.2
			c-0.4-0.1-0.8-0.1-1.1-0.1c-1.3,0-1.9,0.3-1.9,0.8S255.6,78.5,256.9,78.5L256.9,78.5z M96.8,91.7h-2.3v-1.6l2.7-2.2h2.2v11.2h-2.5
			L96.8,91.7z M101.6,95.9h2.7c0,0.1,0,0.1,0,0.2c0,0.1,0.1,0.2,0.2,0.3c0.1,0.1,0.2,0.3,0.3,0.4c0.2,0.1,0.4,0.3,0.6,0.3
			c0.3,0.1,0.6,0.1,0.8,0.1c0.7,0.1,1.4-0.2,1.9-0.8c0.4-0.6,0.6-1.4,0.6-2.1h-0.1l0,0v0.1l-0.1,0.1l-0.2,0.1
			c-0.2,0.1-0.3,0.2-0.5,0.3c-0.6,0.2-1.2,0.4-1.8,0.3c-1.2,0.1-2.3-0.3-3.2-1c-0.8-0.6-1.3-1.6-1.2-2.6c0-1.1,0.5-2.1,1.3-2.8
			c1-0.7,2.3-1.1,3.6-1c1.4-0.1,2.8,0.4,3.8,1.5c0.9,1.2,1.3,2.6,1.2,4.1v0.2c0.1,1.5-0.4,2.9-1.3,4.1c-1,1.1-2.4,1.7-3.8,1.6
			c-0.7,0-1.5-0.1-2.2-0.3c-0.6-0.2-1.1-0.5-1.5-0.8C102,97.5,101.6,96.7,101.6,95.9z M106.3,93.3c0.6,0,1.1-0.1,1.6-0.4
			c0.4-0.3,0.6-0.7,0.6-1.2c0-0.5-0.2-1-0.6-1.2c-1-0.6-2.2-0.6-3.2,0c-0.7,0.5-0.8,1.5-0.3,2.2c0.1,0.1,0.2,0.2,0.3,0.3
			C105.1,93.1,105.7,93.3,106.3,93.3z M115.3,97.1c0.3,0.2,0.4,0.6,0.4,0.9c0,0.4-0.1,0.7-0.4,0.9c-0.3,0.2-0.6,0.4-1,0.4
			c-0.4,0-0.7-0.1-1-0.4c-0.3-0.2-0.4-0.6-0.4-0.9c0-0.3,0.1-0.7,0.4-0.9c0.3-0.2,0.6-0.4,1-0.4C114.7,96.7,115.1,96.9,115.3,97.1
			L115.3,97.1z M115.3,91.3c0.5,0.5,0.5,1.3,0,1.9c-0.3,0.2-0.6,0.4-1,0.3c-0.4,0-0.7-0.1-1-0.3c-0.5-0.5-0.5-1.3,0-1.9
			c0.3-0.2,0.6-0.4,1-0.4C114.7,90.9,115.1,91.1,115.3,91.3L115.3,91.3z M118.7,97.7c-1.9-2.5-1.9-5.9,0-8.4c2.2-2.1,5.6-2.1,7.8,0
			c1.9,2.5,1.9,5.9,0,8.4C124.3,99.8,120.9,99.8,118.7,97.7z M122.6,97.1c0.8,0,1.6-0.3,2-1c0.9-1.6,0.9-3.5,0-5.1
			c-0.9-1.1-2.5-1.3-3.6-0.4c-0.2,0.1-0.3,0.3-0.4,0.4c-0.9,1.6-0.9,3.5,0,5.1C121.1,96.7,121.8,97.1,122.6,97.1L122.6,97.1z
			 M131.3,97.7c-1.9-2.5-1.9-5.9,0-8.4c2.2-2.1,5.6-2.1,7.8,0c1.9,2.5,1.9,5.9,0,8.4C136.9,99.8,133.4,99.8,131.3,97.7z M135.2,97.1
			c0.8,0,1.5-0.3,2-1c0.9-1.6,0.9-3.5,0-5.1c-0.9-1.1-2.5-1.3-3.6-0.4c-0.2,0.1-0.3,0.3-0.4,0.4c-0.9,1.6-0.9,3.5,0,5.1
			C133.6,96.7,134.4,97.1,135.2,97.1L135.2,97.1z M155,99.1h-2.3v-6h-3.8v6h-2.3v-8h8.4V99.1z M161.5,99.3c-1.2,0.1-2.4-0.3-3.3-1.1
			c-1.7-1.7-1.7-4.4,0-6.1c0,0,0,0,0,0c1.9-1.5,4.6-1.5,6.6,0c1.7,1.7,1.7,4.4,0,6.1c0,0,0,0,0,0C163.8,99,162.7,99.3,161.5,99.3z
			 M161.5,97.3c0.6,0,1.2-0.2,1.6-0.6c0.8-0.9,0.8-2.2,0-3.1c-0.4-0.4-1-0.6-1.6-0.6c-0.6,0-1.2,0.2-1.6,0.6c-0.8,0.9-0.8,2.2,0,3.1
			C160.3,97.1,160.9,97.3,161.5,97.3L161.5,97.3z M178.2,93.1l0.1,1.3h0.2l0.1-1.3l2.1-5.2h4v11.2h-2.5v-7.4l0.3-1.4h-0.3l-0.4,1.4
			l-2,4.8H177l-2-4.8l-0.4-1.4h-0.3l0.3,1.4v7.4h-2.5V87.9h4L178.2,93.1z M188.6,97.7c-2.1-2.4-2.1-6,0-8.4c1.1-1.1,2.7-1.6,4.2-1.6
			c1.5,0,2.9,0.4,4.1,1.4c1,0.8,1.6,2,1.6,3.3h-2.7c0-0.1,0-0.2-0.1-0.3c-0.1-0.2-0.1-0.4-0.2-0.6c-0.1-0.3-0.3-0.5-0.5-0.7
			c-0.3-0.2-0.6-0.4-0.9-0.6c-0.4-0.2-0.9-0.3-1.4-0.2c-0.9,0-1.8,0.3-2.3,1c-0.6,0.7-0.9,1.6-0.8,2.5c0,0.9,0.3,1.8,0.8,2.5
			c0.6,0.7,1.4,1,2.3,1c0.5,0,0.9-0.1,1.3-0.2c0.3-0.1,0.7-0.3,0.9-0.6c0.3-0.4,0.6-0.8,0.7-1.3l0.1-0.2h2.7c0,1.3-0.6,2.5-1.6,3.3
			c-1.2,0.9-2.6,1.4-4.1,1.3C191.2,99.4,189.7,98.8,188.6,97.7L188.6,97.7z M207.6,87.9h3l-4.6,5.6l4.8,5.6h-3l-4.6-5.5v5.5h-2.5
			V87.9h2.5v5.4L207.6,87.9z"/>
	</g>
</g>
</svg>
