<svg xmlns="http://www.w3.org/2000/svg" viewBox="0 0 587.58 349.03"><defs><style>.cls-1{fill:#231f20;}</style></defs><g id="Слой_2" data-name="Слой 2"><g id="_лой_1" data-name="—лой_1"><path class="cls-1" d="M587.58,172.81c.1,17.1-24.92,28.62-33,44.19-7.43,14.28-.84,40.86-14.16,53.26-11.77,10.95-38.62,3.52-54.27,12.57-14.08,8.14-20.24,35.2-36.95,41.49-15.38,5.8-38.13-10.2-55.35-6.21-16.15,3.75-29.31,28.25-46.74,30.22-16.57,1.87-34.95-19-52.4-18.88s-35.59,21.17-52.18,19.49c-17.45-1.77-30.89-26.11-47.09-29.67-17.26-3.8-39.82,12.47-55.27,6.85-16.79-6.1-23.26-33.09-37.44-41.07-15.75-8.86-42.51-1.12-54.4-11.94C34.84,260.88,41.13,234.22,33.53,220,25.25,204.55.1,193.32,0,176.22S24.92,147.6,33,132c7.43-14.29.84-40.87,14.16-53.27,11.77-11,38.61-3.52,54.26-12.57,14.09-8.14,20.24-35.2,36.95-41.49,15.39-5.8,38.14,10.2,55.36,6.21C209.9,27.17,223.05,2.67,240.49.7c16.57-1.87,34.94,19,52.4,18.88S328.47-1.58,345.06.1c17.46,1.76,30.9,26.1,47.09,29.66,17.27,3.8,39.83-12.47,55.28-6.85C464.22,29,470.69,56,484.86,64c15.76,8.87,42.52,1.12,54.41,11.94,13.46,12.24,7.18,38.89,14.78,53.09C562.33,144.48,587.48,155.71,587.58,172.81Z"/></g></g></svg>